<?xml version='1.0' encoding='utf-8'?>
<mlt LC_NUMERIC="C" producer="main_bin" version="6.23.0" root="/home/chiller/Videos/TeeworldsIn2020">
 <profile frame_rate_num="25" sample_aspect_num="1" display_aspect_den="9" colorspace="709" progressive="1" description="HD 1080p 25 fps" display_aspect_num="16" frame_rate_den="1" width="1920" height="1080" sample_aspect_den="1"/>
 <producer id="producer0" in="00:00:00.000" out="00:03:19.080">
  <property name="length">4978</property>
  <property name="eof">pause</property>
  <property name="resource">music/Silver Medallion - Hey Cinderella _ Copyright Free Music â™«-JBi3wLZeS1M.webm</property>
  <property name="meta.media.nb_streams">1</property>
  <property name="meta.media.0.stream.type">audio</property>
  <property name="meta.media.0.codec.sample_fmt">fltp</property>
  <property name="meta.media.0.codec.sample_rate">48000</property>
  <property name="meta.media.0.codec.channels">2</property>
  <property name="meta.media.0.codec.name">opus</property>
  <property name="meta.media.0.codec.long_name">Opus</property>
  <property name="meta.media.0.codec.bit_rate">0</property>
  <property name="meta.attr.0.stream.language.markup">spa</property>
  <property name="meta.attr.encoder.markup">google/video-file</property>
  <property name="seekable">1</property>
  <property name="audio_index">0</property>
  <property name="video_index">-1</property>
  <property name="mute_on_pause">1</property>
  <property name="mlt_service">avformat</property>
  <property name="kdenlive:clipname"/>
  <property name="kdenlive:folderid">-1</property>
  <property name="kdenlive:id">2</property>
  <property name="kdenlive:file_size">3314858</property>
  <property name="kdenlive:file_hash">6e65063f879f750aed24673d37da3704</property>
  <property name="global_feed">1</property>
  <property name="kdenlive:audio_max">1</property>
 </producer>
 <producer id="producer1" in="00:00:00.000" out="00:00:11.360">
  <property name="length">285</property>
  <property name="eof">pause</property>
  <property name="resource">/home/chiller/.cache/kdenlive/proxy/1d6e9ef5880ade809f9162fb00a934d7.mov</property>
  <property name="audio_index">1</property>
  <property name="video_index">0</property>
  <property name="mute_on_pause">0</property>
  <property name="mlt_service">avformat-novalidate</property>
  <property name="seekable">1</property>
  <property name="aspect_ratio">1</property>
  <property name="kdenlive:clipname">4DB6DAD2-ADF6-4750-B2AD-59366E16A520.mov</property>
  <property name="kdenlive:folderid">-1</property>
  <property name="kdenlive:id">3</property>
  <property name="kdenlive:file_size">11910910</property>
  <property name="kdenlive:file_hash">1d6e9ef5880ade809f9162fb00a934d7</property>
  <property name="kdenlive:proxy">/home/chiller/.cache/kdenlive/proxy/1d6e9ef5880ade809f9162fb00a934d7.mov</property>
  <property name="kdenlive:originalurl">mov/grass/4DB6DAD2-ADF6-4750-B2AD-59366E16A520.mov</property>
  <property name="kdenlive:original.mlt_type">producer</property>
  <property name="kdenlive:original.in">0</property>
  <property name="kdenlive:original.out">284</property>
  <property name="kdenlive:original.length">285</property>
  <property name="kdenlive:original.eof">pause</property>
  <property name="kdenlive:original.resource">mov/grass/4DB6DAD2-ADF6-4750-B2AD-59366E16A520.mov</property>
  <property name="kdenlive:original.meta.media.nb_streams">5</property>
  <property name="kdenlive:original.meta.media.0.stream.type">video</property>
  <property name="kdenlive:original.meta.media.0.stream.frame_rate">29.9737</property>
  <property name="kdenlive:original.meta.media.0.stream.sample_aspect_ratio">0</property>
  <property name="kdenlive:original.meta.media.0.codec.width">1920</property>
  <property name="kdenlive:original.meta.media.0.codec.height">1080</property>
  <property name="kdenlive:original.meta.media.0.codec.rotate">0</property>
  <property name="kdenlive:original.meta.media.0.codec.frame_rate">600</property>
  <property name="kdenlive:original.meta.media.0.codec.pix_fmt">yuv420p</property>
  <property name="kdenlive:original.meta.media.0.codec.sample_aspect_ratio">0</property>
  <property name="kdenlive:original.meta.media.0.codec.colorspace">709</property>
  <property name="kdenlive:original.meta.media.0.codec.color_trc">1</property>
  <property name="kdenlive:original.meta.media.0.codec.name">hevc</property>
  <property name="kdenlive:original.meta.media.0.codec.long_name">HEVC (High Efficiency Video Coding)</property>
  <property name="kdenlive:original.meta.media.0.codec.bit_rate">8223723</property>
  <property name="kdenlive:original.meta.attr.0.stream.creation_time.markup">2020-04-12T16:55:51.000000Z</property>
  <property name="kdenlive:original.meta.attr.0.stream.handler_name.markup">Core Media Video</property>
  <property name="kdenlive:original.meta.attr.0.stream.encoder.markup">HEVC</property>
  <property name="kdenlive:original.meta.media.1.stream.type">audio</property>
  <property name="kdenlive:original.meta.media.1.codec.sample_fmt">fltp</property>
  <property name="kdenlive:original.meta.media.1.codec.sample_rate">44100</property>
  <property name="kdenlive:original.meta.media.1.codec.channels">1</property>
  <property name="kdenlive:original.meta.media.1.codec.name">aac</property>
  <property name="kdenlive:original.meta.media.1.codec.long_name">AAC (Advanced Audio Coding)</property>
  <property name="kdenlive:original.meta.media.1.codec.bit_rate">99579</property>
  <property name="kdenlive:original.meta.attr.1.stream.creation_time.markup">2020-04-12T16:55:51.000000Z</property>
  <property name="kdenlive:original.meta.attr.1.stream.handler_name.markup">Core Media Audio</property>
  <property name="kdenlive:original.meta.attr.major_brand.markup">qt  </property>
  <property name="kdenlive:original.meta.attr.minor_version.markup">0</property>
  <property name="kdenlive:original.meta.attr.compatible_brands.markup">qt  </property>
  <property name="kdenlive:original.meta.attr.creation_time.markup">2020-04-12T16:55:51.000000Z</property>
  <property name="kdenlive:original.meta.attr.com.apple.quicktime.make.markup">Apple</property>
  <property name="kdenlive:original.meta.attr.com.apple.quicktime.model.markup">iPhone XS</property>
  <property name="kdenlive:original.meta.attr.com.apple.quicktime.software.markup">13.3.1</property>
  <property name="kdenlive:original.meta.attr.com.apple.quicktime.creationdate.markup">2020-04-12T18:55:51+0200</property>
  <property name="kdenlive:original.seekable">1</property>
  <property name="kdenlive:original.width">1920</property>
  <property name="kdenlive:original.height">1080</property>
  <property name="kdenlive:original.meta.media.sample_aspect_num">1</property>
  <property name="kdenlive:original.meta.media.sample_aspect_den">1</property>
  <property name="kdenlive:original.aspect_ratio">1</property>
  <property name="kdenlive:original.audio_index">1</property>
  <property name="kdenlive:original.video_index">0</property>
  <property name="kdenlive:original.mute_on_pause">0</property>
  <property name="kdenlive:original.mlt_service">avformat-novalidate</property>
  <property name="kdenlive:original.kdenlive:folderid">-1</property>
  <property name="kdenlive:original.meta.media.frame_rate_num">34200</property>
  <property name="kdenlive:original.meta.media.frame_rate_den">1141</property>
  <property name="kdenlive:original.meta.media.colorspace">709</property>
  <property name="kdenlive:original.meta.media.color_trc">1</property>
  <property name="kdenlive:original.meta.media.width">1920</property>
  <property name="kdenlive:original.meta.media.height">1080</property>
  <property name="kdenlive:original.meta.media.color_range">mpeg</property>
  <property name="kdenlive:original.kdenlive:id">4</property>
  <property name="kdenlive:original.kdenlive:file_size">11910910</property>
  <property name="kdenlive:original.kdenlive:file_hash">1d6e9ef5880ade809f9162fb00a934d7</property>
  <property name="kdenlive:original.backup">1</property>
  <property name="global_feed">1</property>
  <property name="meta.media.nb_streams">2</property>
  <property name="meta.media.0.stream.type">video</property>
  <property name="meta.media.0.stream.frame_rate">29.97</property>
  <property name="meta.media.0.stream.sample_aspect_ratio">0</property>
  <property name="meta.media.0.codec.width">640</property>
  <property name="meta.media.0.codec.height">360</property>
  <property name="meta.media.0.codec.rotate">0</property>
  <property name="meta.media.0.codec.frame_rate">29.97</property>
  <property name="meta.media.0.codec.pix_fmt">yuv420p</property>
  <property name="meta.media.0.codec.sample_aspect_ratio">1</property>
  <property name="meta.media.0.codec.colorspace">601</property>
  <property name="meta.media.0.codec.name">h264</property>
  <property name="meta.media.0.codec.long_name">H.264 / AVC / MPEG-4 AVC / MPEG-4 part 10</property>
  <property name="meta.media.0.codec.bit_rate">8167392</property>
  <property name="meta.attr.0.stream.handler_name.markup">Core Media Video</property>
  <property name="meta.attr.0.stream.encoder.markup">Lavc58.106.100 h264_nvenc</property>
  <property name="meta.media.1.stream.type">audio</property>
  <property name="meta.media.1.codec.sample_fmt">fltp</property>
  <property name="meta.media.1.codec.sample_rate">44100</property>
  <property name="meta.media.1.codec.channels">1</property>
  <property name="meta.media.1.codec.name">aac</property>
  <property name="meta.media.1.codec.long_name">AAC (Advanced Audio Coding)</property>
  <property name="meta.media.1.codec.bit_rate">99835</property>
  <property name="meta.attr.1.stream.handler_name.markup">Core Media Audio</property>
  <property name="meta.attr.major_brand.markup">qt  </property>
  <property name="meta.attr.minor_version.markup">512</property>
  <property name="meta.attr.compatible_brands.markup">qt  </property>
  <property name="meta.attr.encoder.markup">Lavf58.58.100</property>
  <property name="meta.media.sample_aspect_num">1</property>
  <property name="meta.media.sample_aspect_den">1</property>
  <property name="meta.media.frame_rate_num">30000</property>
  <property name="meta.media.frame_rate_den">1001</property>
  <property name="meta.media.colorspace">601</property>
  <property name="meta.media.color_trc">2</property>
  <property name="meta.media.width">640</property>
  <property name="meta.media.height">360</property>
  <property name="meta.media.color_range">mpeg</property>
  <property name="meta.media.top_field_first">0</property>
  <property name="meta.media.progressive">1</property>
  <property name="kdenlive:audio_max">19</property>
 </producer>
 <producer id="producer2" in="00:00:00.000" out="00:00:14.160">
  <property name="length">355</property>
  <property name="eof">pause</property>
  <property name="resource">/home/chiller/.cache/kdenlive/proxy/464b1c0b0ee1a37043dd0f93f9a179c3.mov</property>
  <property name="audio_index">1</property>
  <property name="video_index">0</property>
  <property name="mute_on_pause">0</property>
  <property name="mlt_service">avformat-novalidate</property>
  <property name="seekable">1</property>
  <property name="aspect_ratio">1</property>
  <property name="kdenlive:clipname">7C0637DB-E812-447E-90C7-B2E58822BF3E.mov</property>
  <property name="kdenlive:folderid">-1</property>
  <property name="kdenlive:id">4</property>
  <property name="kdenlive:file_size">16484761</property>
  <property name="kdenlive:file_hash">464b1c0b0ee1a37043dd0f93f9a179c3</property>
  <property name="kdenlive:proxy">/home/chiller/.cache/kdenlive/proxy/464b1c0b0ee1a37043dd0f93f9a179c3.mov</property>
  <property name="kdenlive:originalurl">mov/party/7C0637DB-E812-447E-90C7-B2E58822BF3E.mov</property>
  <property name="kdenlive:original.mlt_type">producer</property>
  <property name="kdenlive:original.in">0</property>
  <property name="kdenlive:original.out">354</property>
  <property name="kdenlive:original.length">355</property>
  <property name="kdenlive:original.eof">pause</property>
  <property name="kdenlive:original.resource">mov/party/7C0637DB-E812-447E-90C7-B2E58822BF3E.mov</property>
  <property name="kdenlive:original.meta.media.nb_streams">4</property>
  <property name="kdenlive:original.meta.media.0.stream.type">video</property>
  <property name="kdenlive:original.meta.media.0.stream.frame_rate">29.9719</property>
  <property name="kdenlive:original.meta.media.0.stream.sample_aspect_ratio">0</property>
  <property name="kdenlive:original.meta.media.0.codec.width">1920</property>
  <property name="kdenlive:original.meta.media.0.codec.height">1080</property>
  <property name="kdenlive:original.meta.media.0.codec.rotate">0</property>
  <property name="kdenlive:original.meta.media.0.codec.frame_rate">600</property>
  <property name="kdenlive:original.meta.media.0.codec.pix_fmt">yuv420p</property>
  <property name="kdenlive:original.meta.media.0.codec.sample_aspect_ratio">0</property>
  <property name="kdenlive:original.meta.media.0.codec.colorspace">709</property>
  <property name="kdenlive:original.meta.media.0.codec.color_trc">1</property>
  <property name="kdenlive:original.meta.media.0.codec.name">hevc</property>
  <property name="kdenlive:original.meta.media.0.codec.long_name">HEVC (High Efficiency Video Coding)</property>
  <property name="kdenlive:original.meta.media.0.codec.bit_rate">9065310</property>
  <property name="kdenlive:original.meta.attr.0.stream.creation_time.markup">2019-09-06T17:15:34.000000Z</property>
  <property name="kdenlive:original.meta.attr.0.stream.handler_name.markup">Core Media Video</property>
  <property name="kdenlive:original.meta.attr.0.stream.encoder.markup">HEVC</property>
  <property name="kdenlive:original.meta.media.1.stream.type">audio</property>
  <property name="kdenlive:original.meta.media.1.codec.sample_fmt">fltp</property>
  <property name="kdenlive:original.meta.media.1.codec.sample_rate">44100</property>
  <property name="kdenlive:original.meta.media.1.codec.channels">2</property>
  <property name="kdenlive:original.meta.media.1.codec.name">aac</property>
  <property name="kdenlive:original.meta.media.1.codec.long_name">AAC (Advanced Audio Coding)</property>
  <property name="kdenlive:original.meta.media.1.codec.bit_rate">195980</property>
  <property name="kdenlive:original.meta.attr.1.stream.creation_time.markup">2019-09-06T17:15:34.000000Z</property>
  <property name="kdenlive:original.meta.attr.1.stream.handler_name.markup">Core Media Audio</property>
  <property name="kdenlive:original.meta.attr.major_brand.markup">qt  </property>
  <property name="kdenlive:original.meta.attr.minor_version.markup">0</property>
  <property name="kdenlive:original.meta.attr.compatible_brands.markup">qt  </property>
  <property name="kdenlive:original.meta.attr.creation_time.markup">2019-09-06T17:15:34.000000Z</property>
  <property name="kdenlive:original.meta.attr.com.apple.quicktime.make.markup">Apple</property>
  <property name="kdenlive:original.meta.attr.com.apple.quicktime.model.markup">iPhone XS</property>
  <property name="kdenlive:original.meta.attr.com.apple.quicktime.software.markup">12.4</property>
  <property name="kdenlive:original.meta.attr.com.apple.quicktime.creationdate.markup">2019-09-06T19:15:34+0200</property>
  <property name="kdenlive:original.seekable">1</property>
  <property name="kdenlive:original.width">1920</property>
  <property name="kdenlive:original.height">1080</property>
  <property name="kdenlive:original.meta.media.sample_aspect_num">1</property>
  <property name="kdenlive:original.meta.media.sample_aspect_den">1</property>
  <property name="kdenlive:original.aspect_ratio">1</property>
  <property name="kdenlive:original.audio_index">1</property>
  <property name="kdenlive:original.video_index">0</property>
  <property name="kdenlive:original.mute_on_pause">0</property>
  <property name="kdenlive:original.mlt_service">avformat-novalidate</property>
  <property name="kdenlive:original.kdenlive:folderid">-1</property>
  <property name="kdenlive:original.meta.media.frame_rate_num">15975</property>
  <property name="kdenlive:original.meta.media.frame_rate_den">533</property>
  <property name="kdenlive:original.meta.media.colorspace">709</property>
  <property name="kdenlive:original.meta.media.color_trc">1</property>
  <property name="kdenlive:original.meta.media.width">1920</property>
  <property name="kdenlive:original.meta.media.height">1080</property>
  <property name="kdenlive:original.meta.media.color_range">mpeg</property>
  <property name="kdenlive:original.kdenlive:id">5</property>
  <property name="kdenlive:original.kdenlive:file_size">16484761</property>
  <property name="kdenlive:original.kdenlive:file_hash">464b1c0b0ee1a37043dd0f93f9a179c3</property>
  <property name="kdenlive:original.backup">1</property>
  <property name="global_feed">1</property>
  <property name="meta.media.nb_streams">2</property>
  <property name="meta.media.0.stream.type">video</property>
  <property name="meta.media.0.stream.frame_rate">29.97</property>
  <property name="meta.media.0.stream.sample_aspect_ratio">0</property>
  <property name="meta.media.0.codec.width">640</property>
  <property name="meta.media.0.codec.height">360</property>
  <property name="meta.media.0.codec.rotate">0</property>
  <property name="meta.media.0.codec.frame_rate">29.97</property>
  <property name="meta.media.0.codec.pix_fmt">yuv420p</property>
  <property name="meta.media.0.codec.sample_aspect_ratio">1</property>
  <property name="meta.media.0.codec.colorspace">601</property>
  <property name="meta.media.0.codec.name">h264</property>
  <property name="meta.media.0.codec.long_name">H.264 / AVC / MPEG-4 AVC / MPEG-4 part 10</property>
  <property name="meta.media.0.codec.bit_rate">6065898</property>
  <property name="meta.attr.0.stream.handler_name.markup">Core Media Video</property>
  <property name="meta.attr.0.stream.encoder.markup">Lavc58.106.100 h264_nvenc</property>
  <property name="meta.media.1.stream.type">audio</property>
  <property name="meta.media.1.codec.sample_fmt">fltp</property>
  <property name="meta.media.1.codec.sample_rate">44100</property>
  <property name="meta.media.1.codec.channels">2</property>
  <property name="meta.media.1.codec.name">aac</property>
  <property name="meta.media.1.codec.long_name">AAC (Advanced Audio Coding)</property>
  <property name="meta.media.1.codec.bit_rate">196363</property>
  <property name="meta.attr.1.stream.handler_name.markup">Core Media Audio</property>
  <property name="meta.attr.major_brand.markup">qt  </property>
  <property name="meta.attr.minor_version.markup">512</property>
  <property name="meta.attr.compatible_brands.markup">qt  </property>
  <property name="meta.attr.encoder.markup">Lavf58.58.100</property>
  <property name="meta.media.sample_aspect_num">1</property>
  <property name="meta.media.sample_aspect_den">1</property>
  <property name="meta.media.frame_rate_num">30000</property>
  <property name="meta.media.frame_rate_den">1001</property>
  <property name="meta.media.colorspace">601</property>
  <property name="meta.media.color_trc">2</property>
  <property name="meta.media.width">640</property>
  <property name="meta.media.height">360</property>
  <property name="meta.media.color_range">mpeg</property>
  <property name="meta.media.top_field_first">0</property>
  <property name="meta.media.progressive">1</property>
  <property name="kdenlive:audio_max">1</property>
 </producer>
 <producer id="producer3" in="00:00:00.000" out="00:00:08.920">
  <property name="length">224</property>
  <property name="eof">pause</property>
  <property name="resource">/home/chiller/.cache/kdenlive/proxy/15d65d70f6fafe30f4df6bd289b09b7a.mov</property>
  <property name="audio_index">1</property>
  <property name="video_index">0</property>
  <property name="mute_on_pause">0</property>
  <property name="mlt_service">avformat-novalidate</property>
  <property name="seekable">1</property>
  <property name="aspect_ratio">1</property>
  <property name="kdenlive:clipname">FDBAABF8-2E3A-4BC2-B155-C6E74653980A.mov</property>
  <property name="kdenlive:folderid">-1</property>
  <property name="kdenlive:id">5</property>
  <property name="kdenlive:file_size">12411590</property>
  <property name="kdenlive:file_hash">15d65d70f6fafe30f4df6bd289b09b7a</property>
  <property name="kdenlive:proxy">/home/chiller/.cache/kdenlive/proxy/15d65d70f6fafe30f4df6bd289b09b7a.mov</property>
  <property name="kdenlive:originalurl">mov/party/FDBAABF8-2E3A-4BC2-B155-C6E74653980A.mov</property>
  <property name="kdenlive:original.mlt_type">producer</property>
  <property name="kdenlive:original.in">0</property>
  <property name="kdenlive:original.out">223</property>
  <property name="kdenlive:original.length">224</property>
  <property name="kdenlive:original.eof">pause</property>
  <property name="kdenlive:original.resource">mov/party/FDBAABF8-2E3A-4BC2-B155-C6E74653980A.mov</property>
  <property name="kdenlive:original.meta.media.nb_streams">5</property>
  <property name="kdenlive:original.meta.media.0.stream.type">video</property>
  <property name="kdenlive:original.meta.media.0.stream.frame_rate">29.972</property>
  <property name="kdenlive:original.meta.media.0.stream.sample_aspect_ratio">0</property>
  <property name="kdenlive:original.meta.media.0.codec.width">1920</property>
  <property name="kdenlive:original.meta.media.0.codec.height">1080</property>
  <property name="kdenlive:original.meta.media.0.codec.rotate">0</property>
  <property name="kdenlive:original.meta.media.0.codec.frame_rate">600</property>
  <property name="kdenlive:original.meta.media.0.codec.pix_fmt">yuv420p</property>
  <property name="kdenlive:original.meta.media.0.codec.sample_aspect_ratio">0</property>
  <property name="kdenlive:original.meta.media.0.codec.colorspace">709</property>
  <property name="kdenlive:original.meta.media.0.codec.color_trc">1</property>
  <property name="kdenlive:original.meta.media.0.codec.name">hevc</property>
  <property name="kdenlive:original.meta.media.0.codec.long_name">HEVC (High Efficiency Video Coding)</property>
  <property name="kdenlive:original.meta.media.0.codec.bit_rate">10888038</property>
  <property name="kdenlive:original.meta.attr.0.stream.creation_time.markup">2020-09-13T00:29:49.000000Z</property>
  <property name="kdenlive:original.meta.attr.0.stream.handler_name.markup">Core Media Video</property>
  <property name="kdenlive:original.meta.attr.0.stream.encoder.markup">HEVC</property>
  <property name="kdenlive:original.meta.media.1.stream.type">audio</property>
  <property name="kdenlive:original.meta.media.1.codec.sample_fmt">fltp</property>
  <property name="kdenlive:original.meta.media.1.codec.sample_rate">44100</property>
  <property name="kdenlive:original.meta.media.1.codec.channels">2</property>
  <property name="kdenlive:original.meta.media.1.codec.name">aac</property>
  <property name="kdenlive:original.meta.media.1.codec.long_name">AAC (Advanced Audio Coding)</property>
  <property name="kdenlive:original.meta.media.1.codec.bit_rate">184925</property>
  <property name="kdenlive:original.meta.attr.1.stream.creation_time.markup">2020-09-13T00:29:49.000000Z</property>
  <property name="kdenlive:original.meta.attr.1.stream.handler_name.markup">Core Media Audio</property>
  <property name="kdenlive:original.meta.attr.major_brand.markup">qt  </property>
  <property name="kdenlive:original.meta.attr.minor_version.markup">0</property>
  <property name="kdenlive:original.meta.attr.compatible_brands.markup">qt  </property>
  <property name="kdenlive:original.meta.attr.creation_time.markup">2020-09-13T00:29:49.000000Z</property>
  <property name="kdenlive:original.meta.attr.com.apple.quicktime.make.markup">Apple</property>
  <property name="kdenlive:original.meta.attr.com.apple.quicktime.model.markup">iPhone XS</property>
  <property name="kdenlive:original.meta.attr.com.apple.quicktime.software.markup">13.6.1</property>
  <property name="kdenlive:original.meta.attr.com.apple.quicktime.creationdate.markup">2020-09-13T02:29:49+0200</property>
  <property name="kdenlive:original.seekable">1</property>
  <property name="kdenlive:original.width">1920</property>
  <property name="kdenlive:original.height">1080</property>
  <property name="kdenlive:original.meta.media.sample_aspect_num">1</property>
  <property name="kdenlive:original.meta.media.sample_aspect_den">1</property>
  <property name="kdenlive:original.aspect_ratio">1</property>
  <property name="kdenlive:original.audio_index">1</property>
  <property name="kdenlive:original.video_index">0</property>
  <property name="kdenlive:original.mute_on_pause">0</property>
  <property name="kdenlive:original.mlt_service">avformat-novalidate</property>
  <property name="kdenlive:original.kdenlive:folderid">-1</property>
  <property name="kdenlive:original.meta.media.frame_rate_num">32160</property>
  <property name="kdenlive:original.meta.media.frame_rate_den">1073</property>
  <property name="kdenlive:original.meta.media.colorspace">709</property>
  <property name="kdenlive:original.meta.media.color_trc">1</property>
  <property name="kdenlive:original.meta.media.width">1920</property>
  <property name="kdenlive:original.meta.media.height">1080</property>
  <property name="kdenlive:original.meta.media.color_range">mpeg</property>
  <property name="kdenlive:original.kdenlive:id">6</property>
  <property name="kdenlive:original.kdenlive:file_size">12411590</property>
  <property name="kdenlive:original.kdenlive:file_hash">15d65d70f6fafe30f4df6bd289b09b7a</property>
  <property name="kdenlive:original.backup">1</property>
  <property name="global_feed">1</property>
  <property name="meta.media.nb_streams">2</property>
  <property name="meta.media.0.stream.type">video</property>
  <property name="meta.media.0.stream.frame_rate">29.97</property>
  <property name="meta.media.0.stream.sample_aspect_ratio">0</property>
  <property name="meta.media.0.codec.width">640</property>
  <property name="meta.media.0.codec.height">360</property>
  <property name="meta.media.0.codec.rotate">0</property>
  <property name="meta.media.0.codec.frame_rate">29.97</property>
  <property name="meta.media.0.codec.pix_fmt">yuv420p</property>
  <property name="meta.media.0.codec.sample_aspect_ratio">1</property>
  <property name="meta.media.0.codec.colorspace">601</property>
  <property name="meta.media.0.codec.name">h264</property>
  <property name="meta.media.0.codec.long_name">H.264 / AVC / MPEG-4 AVC / MPEG-4 part 10</property>
  <property name="meta.media.0.codec.bit_rate">5152236</property>
  <property name="meta.attr.0.stream.handler_name.markup">Core Media Video</property>
  <property name="meta.attr.0.stream.encoder.markup">Lavc58.106.100 h264_nvenc</property>
  <property name="meta.media.1.stream.type">audio</property>
  <property name="meta.media.1.codec.sample_fmt">fltp</property>
  <property name="meta.media.1.codec.sample_rate">44100</property>
  <property name="meta.media.1.codec.channels">2</property>
  <property name="meta.media.1.codec.name">aac</property>
  <property name="meta.media.1.codec.long_name">AAC (Advanced Audio Coding)</property>
  <property name="meta.media.1.codec.bit_rate">185496</property>
  <property name="meta.attr.1.stream.handler_name.markup">Core Media Audio</property>
  <property name="meta.attr.major_brand.markup">qt  </property>
  <property name="meta.attr.minor_version.markup">512</property>
  <property name="meta.attr.compatible_brands.markup">qt  </property>
  <property name="meta.attr.encoder.markup">Lavf58.58.100</property>
  <property name="meta.media.sample_aspect_num">1</property>
  <property name="meta.media.sample_aspect_den">1</property>
  <property name="meta.media.frame_rate_num">30000</property>
  <property name="meta.media.frame_rate_den">1001</property>
  <property name="meta.media.colorspace">601</property>
  <property name="meta.media.color_trc">2</property>
  <property name="meta.media.width">640</property>
  <property name="meta.media.height">360</property>
  <property name="meta.media.color_range">mpeg</property>
  <property name="meta.media.top_field_first">0</property>
  <property name="meta.media.progressive">1</property>
  <property name="kdenlive:audio_max">1</property>
 </producer>
 <producer id="producer4" in="00:00:00.000" out="00:00:04.960">
  <property name="length">00:00:05.000</property>
  <property name="eof">pause</property>
  <property name="resource">img/sky.jpg</property>
  <property name="ttl">25</property>
  <property name="aspect_ratio">1</property>
  <property name="progressive">1</property>
  <property name="seekable">1</property>
  <property name="meta.media.width">1802</property>
  <property name="meta.media.height">1352</property>
  <property name="mlt_service">qimage</property>
  <property name="kdenlive:clipname"/>
  <property name="kdenlive:duration">00:00:05.000</property>
  <property name="kdenlive:folderid">-1</property>
  <property name="kdenlive:id">6</property>
  <property name="kdenlive:file_size">168545</property>
  <property name="kdenlive:file_hash">5a43580168eb3edd9314038371251181</property>
 </producer>
 <producer id="producer5" in="00:00:00.000" out="00:00:04.960">
  <property name="length">00:00:05.000</property>
  <property name="eof">pause</property>
  <property name="resource">img/basil.jpg</property>
  <property name="ttl">25</property>
  <property name="aspect_ratio">1</property>
  <property name="progressive">1</property>
  <property name="seekable">1</property>
  <property name="meta.media.width">1802</property>
  <property name="meta.media.height">1352</property>
  <property name="mlt_service">qimage</property>
  <property name="kdenlive:clipname"/>
  <property name="kdenlive:duration">00:00:05.000</property>
  <property name="kdenlive:folderid">-1</property>
  <property name="kdenlive:id">7</property>
  <property name="kdenlive:file_size">195263</property>
  <property name="kdenlive:file_hash">860051fd0c9b0555de7d9232d8e6ecbd</property>
 </producer>
 <producer id="producer6" in="00:00:00.000" out="00:00:04.960">
  <property name="length">00:00:05.000</property>
  <property name="eof">pause</property>
  <property name="resource">img/cozy.jpg</property>
  <property name="ttl">25</property>
  <property name="aspect_ratio">1</property>
  <property name="progressive">1</property>
  <property name="seekable">1</property>
  <property name="meta.media.width">1352</property>
  <property name="meta.media.height">1803</property>
  <property name="mlt_service">qimage</property>
  <property name="kdenlive:clipname"/>
  <property name="kdenlive:duration">00:00:05.000</property>
  <property name="kdenlive:folderid">-1</property>
  <property name="kdenlive:id">8</property>
  <property name="kdenlive:file_size">229078</property>
  <property name="kdenlive:file_hash">f337ac5b4201d1c6e498910c03640017</property>
 </producer>
 <producer id="producer7" in="00:00:00.000" out="00:00:04.960">
  <property name="length">00:00:05.000</property>
  <property name="eof">pause</property>
  <property name="resource">img/eslbucks.jpg</property>
  <property name="ttl">25</property>
  <property name="aspect_ratio">1</property>
  <property name="progressive">1</property>
  <property name="seekable">1</property>
  <property name="meta.media.width">1346</property>
  <property name="meta.media.height">662</property>
  <property name="mlt_service">qimage</property>
  <property name="kdenlive:clipname"/>
  <property name="kdenlive:duration">00:00:05.000</property>
  <property name="kdenlive:folderid">-1</property>
  <property name="kdenlive:id">9</property>
  <property name="kdenlive:file_size">201556</property>
  <property name="kdenlive:file_hash">8fada4613b53aec68693aa9b83fc36f8</property>
 </producer>
 <producer id="producer8" in="00:00:00.000" out="00:00:21.920">
  <property name="length">549</property>
  <property name="eof">pause</property>
  <property name="resource">/home/chiller/.cache/kdenlive/proxy/307f0b99b5feb36159d7023dadca84e4.mov</property>
  <property name="audio_index">1</property>
  <property name="video_index">0</property>
  <property name="mute_on_pause">0</property>
  <property name="mlt_service">avformat-novalidate</property>
  <property name="seekable">1</property>
  <property name="aspect_ratio">1</property>
  <property name="kdenlive:clipname">ED492362-0377-4361-A842-79638E142FF6.mov</property>
  <property name="kdenlive:folderid">-1</property>
  <property name="kdenlive:id">10</property>
  <property name="kdenlive:file_size">34236796</property>
  <property name="kdenlive:file_hash">307f0b99b5feb36159d7023dadca84e4</property>
  <property name="kdenlive:proxy">/home/chiller/.cache/kdenlive/proxy/307f0b99b5feb36159d7023dadca84e4.mov</property>
  <property name="kdenlive:originalurl">mov/party/ED492362-0377-4361-A842-79638E142FF6.mov</property>
  <property name="kdenlive:original.mlt_type">producer</property>
  <property name="kdenlive:original.in">0</property>
  <property name="kdenlive:original.out">548</property>
  <property name="kdenlive:original.length">549</property>
  <property name="kdenlive:original.eof">pause</property>
  <property name="kdenlive:original.resource">mov/party/ED492362-0377-4361-A842-79638E142FF6.mov</property>
  <property name="kdenlive:original.meta.media.nb_streams">5</property>
  <property name="kdenlive:original.meta.media.0.stream.type">video</property>
  <property name="kdenlive:original.meta.media.0.stream.frame_rate">26.5322</property>
  <property name="kdenlive:original.meta.media.0.stream.sample_aspect_ratio">0</property>
  <property name="kdenlive:original.meta.media.0.codec.width">1920</property>
  <property name="kdenlive:original.meta.media.0.codec.height">1080</property>
  <property name="kdenlive:original.meta.media.0.codec.rotate">0</property>
  <property name="kdenlive:original.meta.media.0.codec.frame_rate">600</property>
  <property name="kdenlive:original.meta.media.0.codec.pix_fmt">yuv420p</property>
  <property name="kdenlive:original.meta.media.0.codec.sample_aspect_ratio">0</property>
  <property name="kdenlive:original.meta.media.0.codec.colorspace">709</property>
  <property name="kdenlive:original.meta.media.0.codec.color_trc">1</property>
  <property name="kdenlive:original.meta.media.0.codec.name">hevc</property>
  <property name="kdenlive:original.meta.media.0.codec.long_name">HEVC (High Efficiency Video Coding)</property>
  <property name="kdenlive:original.meta.media.0.codec.bit_rate">12241980</property>
  <property name="kdenlive:original.meta.attr.0.stream.creation_time.markup">2020-09-13T00:35:16.000000Z</property>
  <property name="kdenlive:original.meta.attr.0.stream.handler_name.markup">Core Media Video</property>
  <property name="kdenlive:original.meta.attr.0.stream.encoder.markup">HEVC</property>
  <property name="kdenlive:original.meta.media.1.stream.type">audio</property>
  <property name="kdenlive:original.meta.media.1.codec.sample_fmt">fltp</property>
  <property name="kdenlive:original.meta.media.1.codec.sample_rate">44100</property>
  <property name="kdenlive:original.meta.media.1.codec.channels">2</property>
  <property name="kdenlive:original.meta.media.1.codec.name">aac</property>
  <property name="kdenlive:original.meta.media.1.codec.long_name">AAC (Advanced Audio Coding)</property>
  <property name="kdenlive:original.meta.media.1.codec.bit_rate">192922</property>
  <property name="kdenlive:original.meta.attr.1.stream.creation_time.markup">2020-09-13T00:35:16.000000Z</property>
  <property name="kdenlive:original.meta.attr.1.stream.handler_name.markup">Core Media Audio</property>
  <property name="kdenlive:original.meta.attr.major_brand.markup">qt  </property>
  <property name="kdenlive:original.meta.attr.minor_version.markup">0</property>
  <property name="kdenlive:original.meta.attr.compatible_brands.markup">qt  </property>
  <property name="kdenlive:original.meta.attr.creation_time.markup">2020-09-13T00:35:16.000000Z</property>
  <property name="kdenlive:original.meta.attr.com.apple.quicktime.make.markup">Apple</property>
  <property name="kdenlive:original.meta.attr.com.apple.quicktime.model.markup">iPhone XS</property>
  <property name="kdenlive:original.meta.attr.com.apple.quicktime.software.markup">13.6.1</property>
  <property name="kdenlive:original.meta.attr.com.apple.quicktime.creationdate.markup">2020-09-13T02:35:16+0200</property>
  <property name="kdenlive:original.seekable">1</property>
  <property name="kdenlive:original.width">1920</property>
  <property name="kdenlive:original.height">1080</property>
  <property name="kdenlive:original.meta.media.sample_aspect_num">1</property>
  <property name="kdenlive:original.meta.media.sample_aspect_den">1</property>
  <property name="kdenlive:original.aspect_ratio">1</property>
  <property name="kdenlive:original.audio_index">1</property>
  <property name="kdenlive:original.video_index">0</property>
  <property name="kdenlive:original.mute_on_pause">0</property>
  <property name="kdenlive:original.mlt_service">avformat-novalidate</property>
  <property name="kdenlive:original.kdenlive:folderid">-1</property>
  <property name="kdenlive:original.meta.media.frame_rate_num">43725</property>
  <property name="kdenlive:original.meta.media.frame_rate_den">1648</property>
  <property name="kdenlive:original.meta.media.colorspace">709</property>
  <property name="kdenlive:original.meta.media.color_trc">1</property>
  <property name="kdenlive:original.meta.media.width">1920</property>
  <property name="kdenlive:original.meta.media.height">1080</property>
  <property name="kdenlive:original.meta.media.color_range">mpeg</property>
  <property name="kdenlive:original.kdenlive:id">11</property>
  <property name="kdenlive:original.kdenlive:file_size">34236796</property>
  <property name="kdenlive:original.kdenlive:file_hash">307f0b99b5feb36159d7023dadca84e4</property>
  <property name="kdenlive:original.backup">1</property>
  <property name="global_feed">1</property>
  <property name="meta.media.nb_streams">2</property>
  <property name="meta.media.0.stream.type">video</property>
  <property name="meta.media.0.stream.frame_rate">29.97</property>
  <property name="meta.media.0.stream.sample_aspect_ratio">0</property>
  <property name="meta.media.0.codec.width">640</property>
  <property name="meta.media.0.codec.height">360</property>
  <property name="meta.media.0.codec.rotate">0</property>
  <property name="meta.media.0.codec.frame_rate">29.97</property>
  <property name="meta.media.0.codec.pix_fmt">yuv420p</property>
  <property name="meta.media.0.codec.sample_aspect_ratio">1</property>
  <property name="meta.media.0.codec.colorspace">601</property>
  <property name="meta.media.0.codec.name">h264</property>
  <property name="meta.media.0.codec.long_name">H.264 / AVC / MPEG-4 AVC / MPEG-4 part 10</property>
  <property name="meta.media.0.codec.bit_rate">5466773</property>
  <property name="meta.attr.0.stream.handler_name.markup">Core Media Video</property>
  <property name="meta.attr.0.stream.encoder.markup">Lavc58.106.100 h264_nvenc</property>
  <property name="meta.media.1.stream.type">audio</property>
  <property name="meta.media.1.codec.sample_fmt">fltp</property>
  <property name="meta.media.1.codec.sample_rate">44100</property>
  <property name="meta.media.1.codec.channels">2</property>
  <property name="meta.media.1.codec.name">aac</property>
  <property name="meta.media.1.codec.long_name">AAC (Advanced Audio Coding)</property>
  <property name="meta.media.1.codec.bit_rate">193206</property>
  <property name="meta.attr.1.stream.handler_name.markup">Core Media Audio</property>
  <property name="meta.attr.major_brand.markup">qt  </property>
  <property name="meta.attr.minor_version.markup">512</property>
  <property name="meta.attr.compatible_brands.markup">qt  </property>
  <property name="meta.attr.encoder.markup">Lavf58.58.100</property>
  <property name="meta.media.sample_aspect_num">1</property>
  <property name="meta.media.sample_aspect_den">1</property>
  <property name="meta.media.frame_rate_num">30000</property>
  <property name="meta.media.frame_rate_den">1001</property>
  <property name="meta.media.colorspace">601</property>
  <property name="meta.media.color_trc">2</property>
  <property name="meta.media.width">640</property>
  <property name="meta.media.height">360</property>
  <property name="meta.media.color_range">mpeg</property>
  <property name="meta.media.top_field_first">0</property>
  <property name="meta.media.progressive">1</property>
  <property name="kdenlive:audio_max">1</property>
 </producer>
 <producer id="producer9" in="00:00:00.000" out="00:00:05.000">
  <property name="length">126</property>
  <property name="eof">pause</property>
  <property name="resource">/home/chiller/.cache/kdenlive/proxy/467efe028048117e614e1bd58098bbd9.mov</property>
  <property name="audio_index">1</property>
  <property name="video_index">0</property>
  <property name="mute_on_pause">0</property>
  <property name="mlt_service">avformat-novalidate</property>
  <property name="seekable">1</property>
  <property name="aspect_ratio">1</property>
  <property name="kdenlive:clipname">bank.mov</property>
  <property name="kdenlive:folderid">-1</property>
  <property name="kdenlive:id">11</property>
  <property name="kdenlive:file_size">5364848</property>
  <property name="kdenlive:file_hash">467efe028048117e614e1bd58098bbd9</property>
  <property name="kdenlive:proxy">/home/chiller/.cache/kdenlive/proxy/467efe028048117e614e1bd58098bbd9.mov</property>
  <property name="kdenlive:originalurl">mov/outdoor/bank.mov</property>
  <property name="kdenlive:original.mlt_type">producer</property>
  <property name="kdenlive:original.in">0</property>
  <property name="kdenlive:original.out">125</property>
  <property name="kdenlive:original.length">126</property>
  <property name="kdenlive:original.eof">pause</property>
  <property name="kdenlive:original.resource">mov/outdoor/bank.mov</property>
  <property name="kdenlive:original.meta.media.nb_streams">5</property>
  <property name="kdenlive:original.meta.media.0.stream.type">video</property>
  <property name="kdenlive:original.meta.media.0.stream.frame_rate">29.9702</property>
  <property name="kdenlive:original.meta.media.0.stream.sample_aspect_ratio">0</property>
  <property name="kdenlive:original.meta.media.0.codec.width">1920</property>
  <property name="kdenlive:original.meta.media.0.codec.height">1080</property>
  <property name="kdenlive:original.meta.media.0.codec.rotate">0</property>
  <property name="kdenlive:original.meta.media.0.codec.frame_rate">600</property>
  <property name="kdenlive:original.meta.media.0.codec.pix_fmt">yuv420p</property>
  <property name="kdenlive:original.meta.media.0.codec.sample_aspect_ratio">0</property>
  <property name="kdenlive:original.meta.media.0.codec.colorspace">709</property>
  <property name="kdenlive:original.meta.media.0.codec.color_trc">1</property>
  <property name="kdenlive:original.meta.media.0.codec.name">hevc</property>
  <property name="kdenlive:original.meta.media.0.codec.long_name">HEVC (High Efficiency Video Coding)</property>
  <property name="kdenlive:original.meta.media.0.codec.bit_rate">8386138</property>
  <property name="kdenlive:original.meta.attr.0.stream.creation_time.markup">2020-04-12T18:10:27.000000Z</property>
  <property name="kdenlive:original.meta.attr.0.stream.handler_name.markup">Core Media Video</property>
  <property name="kdenlive:original.meta.attr.0.stream.encoder.markup">HEVC</property>
  <property name="kdenlive:original.meta.media.1.stream.type">audio</property>
  <property name="kdenlive:original.meta.media.1.codec.sample_fmt">fltp</property>
  <property name="kdenlive:original.meta.media.1.codec.sample_rate">44100</property>
  <property name="kdenlive:original.meta.media.1.codec.channels">1</property>
  <property name="kdenlive:original.meta.media.1.codec.name">aac</property>
  <property name="kdenlive:original.meta.media.1.codec.long_name">AAC (Advanced Audio Coding)</property>
  <property name="kdenlive:original.meta.media.1.codec.bit_rate">97262</property>
  <property name="kdenlive:original.meta.attr.1.stream.creation_time.markup">2020-04-12T18:10:27.000000Z</property>
  <property name="kdenlive:original.meta.attr.1.stream.handler_name.markup">Core Media Audio</property>
  <property name="kdenlive:original.meta.attr.major_brand.markup">qt  </property>
  <property name="kdenlive:original.meta.attr.minor_version.markup">0</property>
  <property name="kdenlive:original.meta.attr.compatible_brands.markup">qt  </property>
  <property name="kdenlive:original.meta.attr.creation_time.markup">2020-04-12T18:10:27.000000Z</property>
  <property name="kdenlive:original.meta.attr.com.apple.quicktime.make.markup">Apple</property>
  <property name="kdenlive:original.meta.attr.com.apple.quicktime.model.markup">iPhone XS</property>
  <property name="kdenlive:original.meta.attr.com.apple.quicktime.software.markup">13.3.1</property>
  <property name="kdenlive:original.meta.attr.com.apple.quicktime.creationdate.markup">2020-04-12T20:10:27+0200</property>
  <property name="kdenlive:original.seekable">1</property>
  <property name="kdenlive:original.width">1920</property>
  <property name="kdenlive:original.height">1080</property>
  <property name="kdenlive:original.meta.media.sample_aspect_num">1</property>
  <property name="kdenlive:original.meta.media.sample_aspect_den">1</property>
  <property name="kdenlive:original.aspect_ratio">1</property>
  <property name="kdenlive:original.audio_index">1</property>
  <property name="kdenlive:original.video_index">0</property>
  <property name="kdenlive:original.mute_on_pause">0</property>
  <property name="kdenlive:original.mlt_service">avformat-novalidate</property>
  <property name="kdenlive:original.kdenlive:folderid">-1</property>
  <property name="kdenlive:original.meta.media.frame_rate_num">90600</property>
  <property name="kdenlive:original.meta.media.frame_rate_den">3023</property>
  <property name="kdenlive:original.meta.media.colorspace">709</property>
  <property name="kdenlive:original.meta.media.color_trc">1</property>
  <property name="kdenlive:original.meta.media.width">1920</property>
  <property name="kdenlive:original.meta.media.height">1080</property>
  <property name="kdenlive:original.meta.media.color_range">mpeg</property>
  <property name="kdenlive:original.kdenlive:id">12</property>
  <property name="kdenlive:original.kdenlive:file_size">5364848</property>
  <property name="kdenlive:original.kdenlive:file_hash">467efe028048117e614e1bd58098bbd9</property>
  <property name="kdenlive:original.backup">1</property>
  <property name="global_feed">1</property>
  <property name="meta.media.nb_streams">2</property>
  <property name="meta.media.0.stream.type">video</property>
  <property name="meta.media.0.stream.frame_rate">29.97</property>
  <property name="meta.media.0.stream.sample_aspect_ratio">0</property>
  <property name="meta.media.0.codec.width">640</property>
  <property name="meta.media.0.codec.height">360</property>
  <property name="meta.media.0.codec.rotate">0</property>
  <property name="meta.media.0.codec.frame_rate">29.97</property>
  <property name="meta.media.0.codec.pix_fmt">yuv420p</property>
  <property name="meta.media.0.codec.sample_aspect_ratio">1</property>
  <property name="meta.media.0.codec.colorspace">601</property>
  <property name="meta.media.0.codec.name">h264</property>
  <property name="meta.media.0.codec.long_name">H.264 / AVC / MPEG-4 AVC / MPEG-4 part 10</property>
  <property name="meta.media.0.codec.bit_rate">8630974</property>
  <property name="meta.attr.0.stream.handler_name.markup">Core Media Video</property>
  <property name="meta.attr.0.stream.encoder.markup">Lavc58.106.100 h264_nvenc</property>
  <property name="meta.media.1.stream.type">audio</property>
  <property name="meta.media.1.codec.sample_fmt">fltp</property>
  <property name="meta.media.1.codec.sample_rate">44100</property>
  <property name="meta.media.1.codec.channels">1</property>
  <property name="meta.media.1.codec.name">aac</property>
  <property name="meta.media.1.codec.long_name">AAC (Advanced Audio Coding)</property>
  <property name="meta.media.1.codec.bit_rate">97786</property>
  <property name="meta.attr.1.stream.handler_name.markup">Core Media Audio</property>
  <property name="meta.attr.major_brand.markup">qt  </property>
  <property name="meta.attr.minor_version.markup">512</property>
  <property name="meta.attr.compatible_brands.markup">qt  </property>
  <property name="meta.attr.encoder.markup">Lavf58.58.100</property>
  <property name="meta.media.sample_aspect_num">1</property>
  <property name="meta.media.sample_aspect_den">1</property>
  <property name="meta.media.frame_rate_num">30000</property>
  <property name="meta.media.frame_rate_den">1001</property>
  <property name="meta.media.colorspace">601</property>
  <property name="meta.media.color_trc">2</property>
  <property name="meta.media.width">640</property>
  <property name="meta.media.height">360</property>
  <property name="meta.media.color_range">mpeg</property>
  <property name="meta.media.top_field_first">0</property>
  <property name="meta.media.progressive">1</property>
  <property name="kdenlive:audio_max">42</property>
 </producer>
 <producer id="producer10" in="00:00:00.000" out="00:00:04.960">
  <property name="length">125</property>
  <property name="eof">pause</property>
  <property name="resource">/home/chiller/.cache/kdenlive/proxy/90567f20c5e6c2297562d760c303e721.mov</property>
  <property name="audio_index">1</property>
  <property name="video_index">0</property>
  <property name="mute_on_pause">0</property>
  <property name="mlt_service">avformat-novalidate</property>
  <property name="seekable">1</property>
  <property name="aspect_ratio">1</property>
  <property name="kdenlive:clipname">B599C16F-8752-499F-B0C3-140DB6FF2BC1.mov</property>
  <property name="kdenlive:folderid">-1</property>
  <property name="kdenlive:id">12</property>
  <property name="kdenlive:file_size">5268460</property>
  <property name="kdenlive:file_hash">90567f20c5e6c2297562d760c303e721</property>
  <property name="kdenlive:proxy">/home/chiller/.cache/kdenlive/proxy/90567f20c5e6c2297562d760c303e721.mov</property>
  <property name="kdenlive:originalurl">mov/outdoor/B599C16F-8752-499F-B0C3-140DB6FF2BC1.mov</property>
  <property name="kdenlive:original.mlt_type">producer</property>
  <property name="kdenlive:original.in">0</property>
  <property name="kdenlive:original.out">124</property>
  <property name="kdenlive:original.length">125</property>
  <property name="kdenlive:original.eof">pause</property>
  <property name="kdenlive:original.resource">mov/outdoor/B599C16F-8752-499F-B0C3-140DB6FF2BC1.mov</property>
  <property name="kdenlive:original.meta.media.nb_streams">5</property>
  <property name="kdenlive:original.meta.media.0.stream.type">video</property>
  <property name="kdenlive:original.meta.media.0.stream.frame_rate">29.97</property>
  <property name="kdenlive:original.meta.media.0.stream.sample_aspect_ratio">0</property>
  <property name="kdenlive:original.meta.media.0.codec.width">1920</property>
  <property name="kdenlive:original.meta.media.0.codec.height">1080</property>
  <property name="kdenlive:original.meta.media.0.codec.rotate">0</property>
  <property name="kdenlive:original.meta.media.0.codec.frame_rate">600</property>
  <property name="kdenlive:original.meta.media.0.codec.pix_fmt">yuv420p</property>
  <property name="kdenlive:original.meta.media.0.codec.sample_aspect_ratio">0</property>
  <property name="kdenlive:original.meta.media.0.codec.colorspace">709</property>
  <property name="kdenlive:original.meta.media.0.codec.color_trc">1</property>
  <property name="kdenlive:original.meta.media.0.codec.name">hevc</property>
  <property name="kdenlive:original.meta.media.0.codec.long_name">HEVC (High Efficiency Video Coding)</property>
  <property name="kdenlive:original.meta.media.0.codec.bit_rate">8215517</property>
  <property name="kdenlive:original.meta.attr.0.stream.creation_time.markup">2020-01-14T14:23:40.000000Z</property>
  <property name="kdenlive:original.meta.attr.0.stream.handler_name.markup">Core Media Video</property>
  <property name="kdenlive:original.meta.attr.0.stream.encoder.markup">HEVC</property>
  <property name="kdenlive:original.meta.media.1.stream.type">audio</property>
  <property name="kdenlive:original.meta.media.1.codec.sample_fmt">fltp</property>
  <property name="kdenlive:original.meta.media.1.codec.sample_rate">44100</property>
  <property name="kdenlive:original.meta.media.1.codec.channels">2</property>
  <property name="kdenlive:original.meta.media.1.codec.name">aac</property>
  <property name="kdenlive:original.meta.media.1.codec.long_name">AAC (Advanced Audio Coding)</property>
  <property name="kdenlive:original.meta.media.1.codec.bit_rate">169972</property>
  <property name="kdenlive:original.meta.attr.1.stream.creation_time.markup">2020-01-14T14:23:40.000000Z</property>
  <property name="kdenlive:original.meta.attr.1.stream.handler_name.markup">Core Media Audio</property>
  <property name="kdenlive:original.meta.attr.major_brand.markup">qt  </property>
  <property name="kdenlive:original.meta.attr.minor_version.markup">0</property>
  <property name="kdenlive:original.meta.attr.compatible_brands.markup">qt  </property>
  <property name="kdenlive:original.meta.attr.creation_time.markup">2020-01-14T14:23:40.000000Z</property>
  <property name="kdenlive:original.meta.attr.com.apple.quicktime.make.markup">Apple</property>
  <property name="kdenlive:original.meta.attr.com.apple.quicktime.model.markup">iPhone XS</property>
  <property name="kdenlive:original.meta.attr.com.apple.quicktime.software.markup">13.3</property>
  <property name="kdenlive:original.meta.attr.com.apple.quicktime.creationdate.markup">2020-01-14T15:23:40+0100</property>
  <property name="kdenlive:original.seekable">1</property>
  <property name="kdenlive:original.width">1920</property>
  <property name="kdenlive:original.height">1080</property>
  <property name="kdenlive:original.meta.media.sample_aspect_num">1</property>
  <property name="kdenlive:original.meta.media.sample_aspect_den">1</property>
  <property name="kdenlive:original.aspect_ratio">1</property>
  <property name="kdenlive:original.audio_index">1</property>
  <property name="kdenlive:original.video_index">0</property>
  <property name="kdenlive:original.mute_on_pause">0</property>
  <property name="kdenlive:original.mlt_service">avformat-novalidate</property>
  <property name="kdenlive:original.kdenlive:folderid">-1</property>
  <property name="kdenlive:original.meta.media.frame_rate_num">30000</property>
  <property name="kdenlive:original.meta.media.frame_rate_den">1001</property>
  <property name="kdenlive:original.meta.media.colorspace">709</property>
  <property name="kdenlive:original.meta.media.color_trc">1</property>
  <property name="kdenlive:original.meta.media.width">1920</property>
  <property name="kdenlive:original.meta.media.height">1080</property>
  <property name="kdenlive:original.meta.media.color_range">mpeg</property>
  <property name="kdenlive:original.kdenlive:id">13</property>
  <property name="kdenlive:original.kdenlive:file_size">5268460</property>
  <property name="kdenlive:original.kdenlive:file_hash">90567f20c5e6c2297562d760c303e721</property>
  <property name="kdenlive:original.backup">1</property>
  <property name="global_feed">1</property>
  <property name="meta.media.nb_streams">2</property>
  <property name="meta.media.0.stream.type">video</property>
  <property name="meta.media.0.stream.frame_rate">29.97</property>
  <property name="meta.media.0.stream.sample_aspect_ratio">0</property>
  <property name="meta.media.0.codec.width">640</property>
  <property name="meta.media.0.codec.height">360</property>
  <property name="meta.media.0.codec.rotate">0</property>
  <property name="meta.media.0.codec.frame_rate">29.97</property>
  <property name="meta.media.0.codec.pix_fmt">yuv420p</property>
  <property name="meta.media.0.codec.sample_aspect_ratio">1</property>
  <property name="meta.media.0.codec.colorspace">601</property>
  <property name="meta.media.0.codec.name">h264</property>
  <property name="meta.media.0.codec.long_name">H.264 / AVC / MPEG-4 AVC / MPEG-4 part 10</property>
  <property name="meta.media.0.codec.bit_rate">8619636</property>
  <property name="meta.attr.0.stream.handler_name.markup">Core Media Video</property>
  <property name="meta.attr.0.stream.encoder.markup">Lavc58.106.100 h264_nvenc</property>
  <property name="meta.media.1.stream.type">audio</property>
  <property name="meta.media.1.codec.sample_fmt">fltp</property>
  <property name="meta.media.1.codec.sample_rate">44100</property>
  <property name="meta.media.1.codec.channels">2</property>
  <property name="meta.media.1.codec.name">aac</property>
  <property name="meta.media.1.codec.long_name">AAC (Advanced Audio Coding)</property>
  <property name="meta.media.1.codec.bit_rate">170964</property>
  <property name="meta.attr.1.stream.handler_name.markup">Core Media Audio</property>
  <property name="meta.attr.major_brand.markup">qt  </property>
  <property name="meta.attr.minor_version.markup">512</property>
  <property name="meta.attr.compatible_brands.markup">qt  </property>
  <property name="meta.attr.encoder.markup">Lavf58.58.100</property>
  <property name="meta.media.sample_aspect_num">1</property>
  <property name="meta.media.sample_aspect_den">1</property>
  <property name="meta.media.frame_rate_num">30000</property>
  <property name="meta.media.frame_rate_den">1001</property>
  <property name="meta.media.colorspace">601</property>
  <property name="meta.media.color_trc">2</property>
  <property name="meta.media.width">640</property>
  <property name="meta.media.height">360</property>
  <property name="meta.media.color_range">mpeg</property>
  <property name="meta.media.top_field_first">0</property>
  <property name="meta.media.progressive">1</property>
  <property name="kdenlive:audio_max">23</property>
 </producer>
 <producer id="producer11" in="00:00:00.000" out="00:00:08.440">
  <property name="length">212</property>
  <property name="eof">pause</property>
  <property name="resource">/home/chiller/.cache/kdenlive/proxy/5ec2c4186498c92b076784f781b668cb.mov</property>
  <property name="audio_index">1</property>
  <property name="video_index">0</property>
  <property name="mute_on_pause">0</property>
  <property name="mlt_service">avformat-novalidate</property>
  <property name="seekable">1</property>
  <property name="aspect_ratio">1</property>
  <property name="kdenlive:clipname">D62BAD6B-6C73-4D92-A675-19C3C15E2066.mov</property>
  <property name="kdenlive:folderid">-1</property>
  <property name="kdenlive:id">13</property>
  <property name="kdenlive:file_size">9503345</property>
  <property name="kdenlive:file_hash">5ec2c4186498c92b076784f781b668cb</property>
  <property name="kdenlive:proxy">/home/chiller/.cache/kdenlive/proxy/5ec2c4186498c92b076784f781b668cb.mov</property>
  <property name="kdenlive:originalurl">mov/outdoor/D62BAD6B-6C73-4D92-A675-19C3C15E2066.mov</property>
  <property name="kdenlive:original.mlt_type">producer</property>
  <property name="kdenlive:original.in">0</property>
  <property name="kdenlive:original.out">211</property>
  <property name="kdenlive:original.length">212</property>
  <property name="kdenlive:original.eof">pause</property>
  <property name="kdenlive:original.resource">mov/outdoor/D62BAD6B-6C73-4D92-A675-19C3C15E2066.mov</property>
  <property name="kdenlive:original.meta.media.nb_streams">5</property>
  <property name="kdenlive:original.meta.media.0.stream.type">video</property>
  <property name="kdenlive:original.meta.media.0.stream.frame_rate">29.9764</property>
  <property name="kdenlive:original.meta.media.0.stream.sample_aspect_ratio">0</property>
  <property name="kdenlive:original.meta.media.0.codec.width">1920</property>
  <property name="kdenlive:original.meta.media.0.codec.height">1080</property>
  <property name="kdenlive:original.meta.media.0.codec.rotate">0</property>
  <property name="kdenlive:original.meta.media.0.codec.frame_rate">600</property>
  <property name="kdenlive:original.meta.media.0.codec.pix_fmt">yuv420p</property>
  <property name="kdenlive:original.meta.media.0.codec.sample_aspect_ratio">0</property>
  <property name="kdenlive:original.meta.media.0.codec.colorspace">709</property>
  <property name="kdenlive:original.meta.media.0.codec.color_trc">1</property>
  <property name="kdenlive:original.meta.media.0.codec.name">hevc</property>
  <property name="kdenlive:original.meta.media.0.codec.long_name">HEVC (High Efficiency Video Coding)</property>
  <property name="kdenlive:original.meta.media.0.codec.bit_rate">8843341</property>
  <property name="kdenlive:original.meta.attr.0.stream.creation_time.markup">2019-12-17T15:08:33.000000Z</property>
  <property name="kdenlive:original.meta.attr.0.stream.handler_name.markup">Core Media Video</property>
  <property name="kdenlive:original.meta.attr.0.stream.encoder.markup">HEVC</property>
  <property name="kdenlive:original.meta.media.1.stream.type">audio</property>
  <property name="kdenlive:original.meta.media.1.codec.sample_fmt">fltp</property>
  <property name="kdenlive:original.meta.media.1.codec.sample_rate">44100</property>
  <property name="kdenlive:original.meta.media.1.codec.channels">1</property>
  <property name="kdenlive:original.meta.media.1.codec.name">aac</property>
  <property name="kdenlive:original.meta.media.1.codec.long_name">AAC (Advanced Audio Coding)</property>
  <property name="kdenlive:original.meta.media.1.codec.bit_rate">99211</property>
  <property name="kdenlive:original.meta.attr.1.stream.creation_time.markup">2019-12-17T15:08:33.000000Z</property>
  <property name="kdenlive:original.meta.attr.1.stream.handler_name.markup">Core Media Audio</property>
  <property name="kdenlive:original.meta.attr.major_brand.markup">qt  </property>
  <property name="kdenlive:original.meta.attr.minor_version.markup">0</property>
  <property name="kdenlive:original.meta.attr.compatible_brands.markup">qt  </property>
  <property name="kdenlive:original.meta.attr.creation_time.markup">2019-12-17T15:08:33.000000Z</property>
  <property name="kdenlive:original.meta.attr.com.apple.quicktime.make.markup">Apple</property>
  <property name="kdenlive:original.meta.attr.com.apple.quicktime.model.markup">iPhone XS</property>
  <property name="kdenlive:original.meta.attr.com.apple.quicktime.software.markup">13.3</property>
  <property name="kdenlive:original.meta.attr.com.apple.quicktime.creationdate.markup">2019-12-17T16:08:33+0100</property>
  <property name="kdenlive:original.seekable">1</property>
  <property name="kdenlive:original.width">1920</property>
  <property name="kdenlive:original.height">1080</property>
  <property name="kdenlive:original.meta.media.sample_aspect_num">1</property>
  <property name="kdenlive:original.meta.media.sample_aspect_den">1</property>
  <property name="kdenlive:original.aspect_ratio">1</property>
  <property name="kdenlive:original.audio_index">1</property>
  <property name="kdenlive:original.video_index">0</property>
  <property name="kdenlive:original.mute_on_pause">0</property>
  <property name="kdenlive:original.mlt_service">avformat-novalidate</property>
  <property name="kdenlive:original.kdenlive:folderid">-1</property>
  <property name="kdenlive:original.meta.media.frame_rate_num">38100</property>
  <property name="kdenlive:original.meta.media.frame_rate_den">1271</property>
  <property name="kdenlive:original.meta.media.colorspace">709</property>
  <property name="kdenlive:original.meta.media.color_trc">1</property>
  <property name="kdenlive:original.meta.media.width">1920</property>
  <property name="kdenlive:original.meta.media.height">1080</property>
  <property name="kdenlive:original.meta.media.color_range">mpeg</property>
  <property name="kdenlive:original.kdenlive:id">14</property>
  <property name="kdenlive:original.kdenlive:file_size">9503345</property>
  <property name="kdenlive:original.kdenlive:file_hash">5ec2c4186498c92b076784f781b668cb</property>
  <property name="kdenlive:original.backup">1</property>
  <property name="global_feed">1</property>
  <property name="meta.media.nb_streams">2</property>
  <property name="meta.media.0.stream.type">video</property>
  <property name="meta.media.0.stream.frame_rate">29.97</property>
  <property name="meta.media.0.stream.sample_aspect_ratio">0</property>
  <property name="meta.media.0.codec.width">640</property>
  <property name="meta.media.0.codec.height">360</property>
  <property name="meta.media.0.codec.rotate">0</property>
  <property name="meta.media.0.codec.frame_rate">29.97</property>
  <property name="meta.media.0.codec.pix_fmt">yuv420p</property>
  <property name="meta.media.0.codec.sample_aspect_ratio">1</property>
  <property name="meta.media.0.codec.colorspace">601</property>
  <property name="meta.media.0.codec.name">h264</property>
  <property name="meta.media.0.codec.long_name">H.264 / AVC / MPEG-4 AVC / MPEG-4 part 10</property>
  <property name="meta.media.0.codec.bit_rate">6509823</property>
  <property name="meta.attr.0.stream.handler_name.markup">Core Media Video</property>
  <property name="meta.attr.0.stream.encoder.markup">Lavc58.106.100 h264_nvenc</property>
  <property name="meta.media.1.stream.type">audio</property>
  <property name="meta.media.1.codec.sample_fmt">fltp</property>
  <property name="meta.media.1.codec.sample_rate">44100</property>
  <property name="meta.media.1.codec.channels">1</property>
  <property name="meta.media.1.codec.name">aac</property>
  <property name="meta.media.1.codec.long_name">AAC (Advanced Audio Coding)</property>
  <property name="meta.media.1.codec.bit_rate">99494</property>
  <property name="meta.attr.1.stream.handler_name.markup">Core Media Audio</property>
  <property name="meta.attr.major_brand.markup">qt  </property>
  <property name="meta.attr.minor_version.markup">512</property>
  <property name="meta.attr.compatible_brands.markup">qt  </property>
  <property name="meta.attr.encoder.markup">Lavf58.58.100</property>
  <property name="meta.media.sample_aspect_num">1</property>
  <property name="meta.media.sample_aspect_den">1</property>
  <property name="meta.media.frame_rate_num">30000</property>
  <property name="meta.media.frame_rate_den">1001</property>
  <property name="meta.media.colorspace">601</property>
  <property name="meta.media.color_trc">2</property>
  <property name="meta.media.width">640</property>
  <property name="meta.media.height">360</property>
  <property name="meta.media.color_range">mpeg</property>
  <property name="meta.media.top_field_first">0</property>
  <property name="meta.media.progressive">1</property>
  <property name="kdenlive:audio_max">34</property>
 </producer>
 <producer id="producer12" in="00:00:00.000" out="00:00:06.920">
  <property name="length">174</property>
  <property name="eof">pause</property>
  <property name="resource">/home/chiller/.cache/kdenlive/proxy/7130cc5c806bb092307855ad3222000b.mov</property>
  <property name="audio_index">1</property>
  <property name="video_index">0</property>
  <property name="mute_on_pause">0</property>
  <property name="mlt_service">avformat-novalidate</property>
  <property name="seekable">1</property>
  <property name="aspect_ratio">1</property>
  <property name="kdenlive:clipname">flixbus3.mov</property>
  <property name="kdenlive:folderid">-1</property>
  <property name="kdenlive:id">14</property>
  <property name="kdenlive:file_size">6155756</property>
  <property name="kdenlive:file_hash">7130cc5c806bb092307855ad3222000b</property>
  <property name="kdenlive:proxy">/home/chiller/.cache/kdenlive/proxy/7130cc5c806bb092307855ad3222000b.mov</property>
  <property name="kdenlive:originalurl">mov/travel/flixbus3.mov</property>
  <property name="kdenlive:original.mlt_type">producer</property>
  <property name="kdenlive:original.in">0</property>
  <property name="kdenlive:original.out">173</property>
  <property name="kdenlive:original.length">174</property>
  <property name="kdenlive:original.eof">pause</property>
  <property name="kdenlive:original.resource">mov/travel/flixbus3.mov</property>
  <property name="kdenlive:original.meta.media.nb_streams">4</property>
  <property name="kdenlive:original.meta.media.0.stream.type">video</property>
  <property name="kdenlive:original.meta.media.0.stream.frame_rate">29.9712</property>
  <property name="kdenlive:original.meta.media.0.stream.sample_aspect_ratio">0</property>
  <property name="kdenlive:original.meta.media.0.codec.width">1920</property>
  <property name="kdenlive:original.meta.media.0.codec.height">1080</property>
  <property name="kdenlive:original.meta.media.0.codec.rotate">0</property>
  <property name="kdenlive:original.meta.media.0.codec.frame_rate">600</property>
  <property name="kdenlive:original.meta.media.0.codec.pix_fmt">yuv420p</property>
  <property name="kdenlive:original.meta.media.0.codec.sample_aspect_ratio">0</property>
  <property name="kdenlive:original.meta.media.0.codec.colorspace">709</property>
  <property name="kdenlive:original.meta.media.0.codec.color_trc">1</property>
  <property name="kdenlive:original.meta.media.0.codec.name">hevc</property>
  <property name="kdenlive:original.meta.media.0.codec.long_name">HEVC (High Efficiency Video Coding)</property>
  <property name="kdenlive:original.meta.media.0.codec.bit_rate">6977633</property>
  <property name="kdenlive:original.meta.attr.0.stream.creation_time.markup">2019-08-11T14:49:35.000000Z</property>
  <property name="kdenlive:original.meta.attr.0.stream.handler_name.markup">Core Media Video</property>
  <property name="kdenlive:original.meta.attr.0.stream.encoder.markup">HEVC</property>
  <property name="kdenlive:original.meta.media.1.stream.type">audio</property>
  <property name="kdenlive:original.meta.media.1.codec.sample_fmt">fltp</property>
  <property name="kdenlive:original.meta.media.1.codec.sample_rate">44100</property>
  <property name="kdenlive:original.meta.media.1.codec.channels">1</property>
  <property name="kdenlive:original.meta.media.1.codec.name">aac</property>
  <property name="kdenlive:original.meta.media.1.codec.long_name">AAC (Advanced Audio Coding)</property>
  <property name="kdenlive:original.meta.media.1.codec.bit_rate">105128</property>
  <property name="kdenlive:original.meta.attr.1.stream.creation_time.markup">2019-08-11T14:49:35.000000Z</property>
  <property name="kdenlive:original.meta.attr.1.stream.handler_name.markup">Core Media Audio</property>
  <property name="kdenlive:original.meta.attr.major_brand.markup">qt  </property>
  <property name="kdenlive:original.meta.attr.minor_version.markup">0</property>
  <property name="kdenlive:original.meta.attr.compatible_brands.markup">qt  </property>
  <property name="kdenlive:original.meta.attr.creation_time.markup">2019-08-11T14:49:35.000000Z</property>
  <property name="kdenlive:original.meta.attr.com.apple.quicktime.make.markup">Apple</property>
  <property name="kdenlive:original.meta.attr.com.apple.quicktime.model.markup">iPhone XS</property>
  <property name="kdenlive:original.meta.attr.com.apple.quicktime.software.markup">12.3.1</property>
  <property name="kdenlive:original.meta.attr.com.apple.quicktime.creationdate.markup">2019-08-11T16:49:35+0200</property>
  <property name="kdenlive:original.seekable">1</property>
  <property name="kdenlive:original.width">1920</property>
  <property name="kdenlive:original.height">1080</property>
  <property name="kdenlive:original.meta.media.sample_aspect_num">1</property>
  <property name="kdenlive:original.meta.media.sample_aspect_den">1</property>
  <property name="kdenlive:original.aspect_ratio">1</property>
  <property name="kdenlive:original.audio_index">1</property>
  <property name="kdenlive:original.video_index">0</property>
  <property name="kdenlive:original.mute_on_pause">0</property>
  <property name="kdenlive:original.mlt_service">avformat-novalidate</property>
  <property name="kdenlive:original.kdenlive:folderid">-1</property>
  <property name="kdenlive:original.meta.media.frame_rate_num">10400</property>
  <property name="kdenlive:original.meta.media.frame_rate_den">347</property>
  <property name="kdenlive:original.meta.media.colorspace">709</property>
  <property name="kdenlive:original.meta.media.color_trc">1</property>
  <property name="kdenlive:original.meta.media.width">1920</property>
  <property name="kdenlive:original.meta.media.height">1080</property>
  <property name="kdenlive:original.meta.media.color_range">mpeg</property>
  <property name="kdenlive:original.kdenlive:id">16</property>
  <property name="kdenlive:original.kdenlive:file_size">6155756</property>
  <property name="kdenlive:original.kdenlive:file_hash">7130cc5c806bb092307855ad3222000b</property>
  <property name="kdenlive:original.backup">1</property>
  <property name="global_feed">1</property>
  <property name="meta.media.nb_streams">2</property>
  <property name="meta.media.0.stream.type">video</property>
  <property name="meta.media.0.stream.frame_rate">29.97</property>
  <property name="meta.media.0.stream.sample_aspect_ratio">0</property>
  <property name="meta.media.0.codec.width">640</property>
  <property name="meta.media.0.codec.height">360</property>
  <property name="meta.media.0.codec.rotate">0</property>
  <property name="meta.media.0.codec.frame_rate">29.97</property>
  <property name="meta.media.0.codec.pix_fmt">yuv420p</property>
  <property name="meta.media.0.codec.sample_aspect_ratio">1</property>
  <property name="meta.media.0.codec.colorspace">601</property>
  <property name="meta.media.0.codec.name">h264</property>
  <property name="meta.media.0.codec.long_name">H.264 / AVC / MPEG-4 AVC / MPEG-4 part 10</property>
  <property name="meta.media.0.codec.bit_rate">6483254</property>
  <property name="meta.attr.0.stream.handler_name.markup">Core Media Video</property>
  <property name="meta.attr.0.stream.encoder.markup">Lavc58.106.100 h264_nvenc</property>
  <property name="meta.media.1.stream.type">audio</property>
  <property name="meta.media.1.codec.sample_fmt">fltp</property>
  <property name="meta.media.1.codec.sample_rate">44100</property>
  <property name="meta.media.1.codec.channels">1</property>
  <property name="meta.media.1.codec.name">aac</property>
  <property name="meta.media.1.codec.long_name">AAC (Advanced Audio Coding)</property>
  <property name="meta.media.1.codec.bit_rate">105211</property>
  <property name="meta.attr.1.stream.handler_name.markup">Core Media Audio</property>
  <property name="meta.attr.major_brand.markup">qt  </property>
  <property name="meta.attr.minor_version.markup">512</property>
  <property name="meta.attr.compatible_brands.markup">qt  </property>
  <property name="meta.attr.encoder.markup">Lavf58.58.100</property>
  <property name="meta.media.sample_aspect_num">1</property>
  <property name="meta.media.sample_aspect_den">1</property>
  <property name="meta.media.frame_rate_num">30000</property>
  <property name="meta.media.frame_rate_den">1001</property>
  <property name="meta.media.colorspace">601</property>
  <property name="meta.media.color_trc">2</property>
  <property name="meta.media.width">640</property>
  <property name="meta.media.height">360</property>
  <property name="meta.media.color_range">mpeg</property>
  <property name="meta.media.top_field_first">0</property>
  <property name="meta.media.progressive">1</property>
  <property name="kdenlive:audio_max">13</property>
 </producer>
 <producer id="producer13" in="00:00:00.000" out="00:00:07.240">
  <property name="length">182</property>
  <property name="eof">pause</property>
  <property name="resource">/home/chiller/.cache/kdenlive/proxy/6066f62950a113db4e5d3fc08b49f2ba.mov</property>
  <property name="audio_index">1</property>
  <property name="video_index">0</property>
  <property name="mute_on_pause">0</property>
  <property name="mlt_service">avformat-novalidate</property>
  <property name="seekable">1</property>
  <property name="aspect_ratio">1</property>
  <property name="kdenlive:clipname">university3.mov</property>
  <property name="kdenlive:folderid">-1</property>
  <property name="kdenlive:id">15</property>
  <property name="kdenlive:file_size">10660069</property>
  <property name="kdenlive:file_hash">6066f62950a113db4e5d3fc08b49f2ba</property>
  <property name="kdenlive:proxy">/home/chiller/.cache/kdenlive/proxy/6066f62950a113db4e5d3fc08b49f2ba.mov</property>
  <property name="kdenlive:originalurl">mov/indoor/uni/university3.mov</property>
  <property name="kdenlive:original.mlt_type">producer</property>
  <property name="kdenlive:original.in">0</property>
  <property name="kdenlive:original.out">181</property>
  <property name="kdenlive:original.length">182</property>
  <property name="kdenlive:original.eof">pause</property>
  <property name="kdenlive:original.resource">mov/indoor/uni/university3.mov</property>
  <property name="kdenlive:original.meta.media.nb_streams">5</property>
  <property name="kdenlive:original.meta.media.0.stream.type">video</property>
  <property name="kdenlive:original.meta.media.0.stream.frame_rate">29.9725</property>
  <property name="kdenlive:original.meta.media.0.stream.sample_aspect_ratio">0</property>
  <property name="kdenlive:original.meta.media.0.codec.width">1920</property>
  <property name="kdenlive:original.meta.media.0.codec.height">1080</property>
  <property name="kdenlive:original.meta.media.0.codec.rotate">0</property>
  <property name="kdenlive:original.meta.media.0.codec.frame_rate">600</property>
  <property name="kdenlive:original.meta.media.0.codec.pix_fmt">yuv420p</property>
  <property name="kdenlive:original.meta.media.0.codec.sample_aspect_ratio">0</property>
  <property name="kdenlive:original.meta.media.0.codec.colorspace">709</property>
  <property name="kdenlive:original.meta.media.0.codec.color_trc">1</property>
  <property name="kdenlive:original.meta.media.0.codec.name">hevc</property>
  <property name="kdenlive:original.meta.media.0.codec.long_name">HEVC (High Efficiency Video Coding)</property>
  <property name="kdenlive:original.meta.media.0.codec.bit_rate">11523998</property>
  <property name="kdenlive:original.meta.attr.0.stream.creation_time.markup">2020-01-17T12:45:11.000000Z</property>
  <property name="kdenlive:original.meta.attr.0.stream.handler_name.markup">Core Media Video</property>
  <property name="kdenlive:original.meta.attr.0.stream.encoder.markup">HEVC</property>
  <property name="kdenlive:original.meta.media.1.stream.type">audio</property>
  <property name="kdenlive:original.meta.media.1.codec.sample_fmt">fltp</property>
  <property name="kdenlive:original.meta.media.1.codec.sample_rate">44100</property>
  <property name="kdenlive:original.meta.media.1.codec.channels">2</property>
  <property name="kdenlive:original.meta.media.1.codec.name">aac</property>
  <property name="kdenlive:original.meta.media.1.codec.long_name">AAC (Advanced Audio Coding)</property>
  <property name="kdenlive:original.meta.media.1.codec.bit_rate">169395</property>
  <property name="kdenlive:original.meta.attr.1.stream.creation_time.markup">2020-01-17T12:45:11.000000Z</property>
  <property name="kdenlive:original.meta.attr.1.stream.handler_name.markup">Core Media Audio</property>
  <property name="kdenlive:original.meta.attr.major_brand.markup">qt  </property>
  <property name="kdenlive:original.meta.attr.minor_version.markup">0</property>
  <property name="kdenlive:original.meta.attr.compatible_brands.markup">qt  </property>
  <property name="kdenlive:original.meta.attr.creation_time.markup">2020-01-17T12:45:11.000000Z</property>
  <property name="kdenlive:original.meta.attr.com.apple.quicktime.make.markup">Apple</property>
  <property name="kdenlive:original.meta.attr.com.apple.quicktime.model.markup">iPhone XS</property>
  <property name="kdenlive:original.meta.attr.com.apple.quicktime.software.markup">13.3</property>
  <property name="kdenlive:original.meta.attr.com.apple.quicktime.creationdate.markup">2020-01-17T13:45:11+0100</property>
  <property name="kdenlive:original.seekable">1</property>
  <property name="kdenlive:original.width">1920</property>
  <property name="kdenlive:original.height">1080</property>
  <property name="kdenlive:original.meta.media.sample_aspect_num">1</property>
  <property name="kdenlive:original.meta.media.sample_aspect_den">1</property>
  <property name="kdenlive:original.aspect_ratio">1</property>
  <property name="kdenlive:original.audio_index">1</property>
  <property name="kdenlive:original.video_index">0</property>
  <property name="kdenlive:original.mute_on_pause">0</property>
  <property name="kdenlive:original.mlt_service">avformat-novalidate</property>
  <property name="kdenlive:original.kdenlive:folderid">-1</property>
  <property name="kdenlive:original.meta.media.frame_rate_num">32700</property>
  <property name="kdenlive:original.meta.media.frame_rate_den">1091</property>
  <property name="kdenlive:original.meta.media.colorspace">709</property>
  <property name="kdenlive:original.meta.media.color_trc">1</property>
  <property name="kdenlive:original.meta.media.width">1920</property>
  <property name="kdenlive:original.meta.media.height">1080</property>
  <property name="kdenlive:original.meta.media.color_range">mpeg</property>
  <property name="kdenlive:original.kdenlive:id">15</property>
  <property name="kdenlive:original.kdenlive:file_size">10660069</property>
  <property name="kdenlive:original.kdenlive:file_hash">6066f62950a113db4e5d3fc08b49f2ba</property>
  <property name="kdenlive:original.backup">1</property>
  <property name="global_feed">1</property>
  <property name="meta.media.nb_streams">2</property>
  <property name="meta.media.0.stream.type">video</property>
  <property name="meta.media.0.stream.frame_rate">29.97</property>
  <property name="meta.media.0.stream.sample_aspect_ratio">0</property>
  <property name="meta.media.0.codec.width">640</property>
  <property name="meta.media.0.codec.height">360</property>
  <property name="meta.media.0.codec.rotate">0</property>
  <property name="meta.media.0.codec.frame_rate">29.97</property>
  <property name="meta.media.0.codec.pix_fmt">yuv420p</property>
  <property name="meta.media.0.codec.sample_aspect_ratio">1</property>
  <property name="meta.media.0.codec.colorspace">601</property>
  <property name="meta.media.0.codec.name">h264</property>
  <property name="meta.media.0.codec.long_name">H.264 / AVC / MPEG-4 AVC / MPEG-4 part 10</property>
  <property name="meta.media.0.codec.bit_rate">6038658</property>
  <property name="meta.attr.0.stream.handler_name.markup">Core Media Video</property>
  <property name="meta.attr.0.stream.encoder.markup">Lavc58.106.100 h264_nvenc</property>
  <property name="meta.media.1.stream.type">audio</property>
  <property name="meta.media.1.codec.sample_fmt">fltp</property>
  <property name="meta.media.1.codec.sample_rate">44100</property>
  <property name="meta.media.1.codec.channels">2</property>
  <property name="meta.media.1.codec.name">aac</property>
  <property name="meta.media.1.codec.long_name">AAC (Advanced Audio Coding)</property>
  <property name="meta.media.1.codec.bit_rate">170352</property>
  <property name="meta.attr.1.stream.handler_name.markup">Core Media Audio</property>
  <property name="meta.attr.major_brand.markup">qt  </property>
  <property name="meta.attr.minor_version.markup">512</property>
  <property name="meta.attr.compatible_brands.markup">qt  </property>
  <property name="meta.attr.encoder.markup">Lavf58.58.100</property>
  <property name="meta.media.sample_aspect_num">1</property>
  <property name="meta.media.sample_aspect_den">1</property>
  <property name="meta.media.frame_rate_num">30000</property>
  <property name="meta.media.frame_rate_den">1001</property>
  <property name="meta.media.colorspace">601</property>
  <property name="meta.media.color_trc">2</property>
  <property name="meta.media.width">640</property>
  <property name="meta.media.height">360</property>
  <property name="meta.media.color_range">mpeg</property>
  <property name="meta.media.top_field_first">0</property>
  <property name="meta.media.progressive">1</property>
  <property name="kdenlive:audio_max">32</property>
 </producer>
 <producer id="producer14" in="00:00:00.000" out="00:00:06.960">
  <property name="length">175</property>
  <property name="eof">pause</property>
  <property name="resource">/home/chiller/.cache/kdenlive/proxy/fdebaa9e6f1f468e6d2b85dfcd9087cc.mov</property>
  <property name="audio_index">1</property>
  <property name="video_index">0</property>
  <property name="mute_on_pause">0</property>
  <property name="mlt_service">avformat-novalidate</property>
  <property name="seekable">1</property>
  <property name="aspect_ratio">1</property>
  <property name="kdenlive:clipname">BEA4D49F-3254-4C3D-80FD-253C7A64F3A3.mov</property>
  <property name="kdenlive:folderid">-1</property>
  <property name="kdenlive:id">16</property>
  <property name="kdenlive:file_size">7493482</property>
  <property name="kdenlive:file_hash">fdebaa9e6f1f468e6d2b85dfcd9087cc</property>
  <property name="kdenlive:proxy">/home/chiller/.cache/kdenlive/proxy/fdebaa9e6f1f468e6d2b85dfcd9087cc.mov</property>
  <property name="kdenlive:originalurl">mov/water/BEA4D49F-3254-4C3D-80FD-253C7A64F3A3.mov</property>
  <property name="kdenlive:original.mlt_type">producer</property>
  <property name="kdenlive:original.in">0</property>
  <property name="kdenlive:original.out">174</property>
  <property name="kdenlive:original.length">175</property>
  <property name="kdenlive:original.eof">pause</property>
  <property name="kdenlive:original.resource">mov/water/BEA4D49F-3254-4C3D-80FD-253C7A64F3A3.mov</property>
  <property name="kdenlive:original.meta.media.nb_streams">5</property>
  <property name="kdenlive:original.meta.media.0.stream.type">video</property>
  <property name="kdenlive:original.meta.media.0.stream.frame_rate">29.9715</property>
  <property name="kdenlive:original.meta.media.0.stream.sample_aspect_ratio">0</property>
  <property name="kdenlive:original.meta.media.0.codec.width">1920</property>
  <property name="kdenlive:original.meta.media.0.codec.height">1080</property>
  <property name="kdenlive:original.meta.media.0.codec.rotate">0</property>
  <property name="kdenlive:original.meta.media.0.codec.frame_rate">600</property>
  <property name="kdenlive:original.meta.media.0.codec.pix_fmt">yuv420p</property>
  <property name="kdenlive:original.meta.media.0.codec.sample_aspect_ratio">0</property>
  <property name="kdenlive:original.meta.media.0.codec.colorspace">709</property>
  <property name="kdenlive:original.meta.media.0.codec.color_trc">1</property>
  <property name="kdenlive:original.meta.media.0.codec.name">hevc</property>
  <property name="kdenlive:original.meta.media.0.codec.long_name">HEVC (High Efficiency Video Coding)</property>
  <property name="kdenlive:original.meta.media.0.codec.bit_rate">8425007</property>
  <property name="kdenlive:original.meta.attr.0.stream.creation_time.markup">2020-04-12T17:52:26.000000Z</property>
  <property name="kdenlive:original.meta.attr.0.stream.handler_name.markup">Core Media Video</property>
  <property name="kdenlive:original.meta.attr.0.stream.encoder.markup">HEVC</property>
  <property name="kdenlive:original.meta.media.1.stream.type">audio</property>
  <property name="kdenlive:original.meta.media.1.codec.sample_fmt">fltp</property>
  <property name="kdenlive:original.meta.media.1.codec.sample_rate">44100</property>
  <property name="kdenlive:original.meta.media.1.codec.channels">1</property>
  <property name="kdenlive:original.meta.media.1.codec.name">aac</property>
  <property name="kdenlive:original.meta.media.1.codec.long_name">AAC (Advanced Audio Coding)</property>
  <property name="kdenlive:original.meta.media.1.codec.bit_rate">99605</property>
  <property name="kdenlive:original.meta.attr.1.stream.creation_time.markup">2020-04-12T17:52:26.000000Z</property>
  <property name="kdenlive:original.meta.attr.1.stream.handler_name.markup">Core Media Audio</property>
  <property name="kdenlive:original.meta.attr.major_brand.markup">qt  </property>
  <property name="kdenlive:original.meta.attr.minor_version.markup">0</property>
  <property name="kdenlive:original.meta.attr.compatible_brands.markup">qt  </property>
  <property name="kdenlive:original.meta.attr.creation_time.markup">2020-04-12T17:52:26.000000Z</property>
  <property name="kdenlive:original.meta.attr.com.apple.quicktime.make.markup">Apple</property>
  <property name="kdenlive:original.meta.attr.com.apple.quicktime.model.markup">iPhone XS</property>
  <property name="kdenlive:original.meta.attr.com.apple.quicktime.software.markup">13.3.1</property>
  <property name="kdenlive:original.meta.attr.com.apple.quicktime.creationdate.markup">2020-04-12T19:52:24+0200</property>
  <property name="kdenlive:original.seekable">1</property>
  <property name="kdenlive:original.width">1920</property>
  <property name="kdenlive:original.height">1080</property>
  <property name="kdenlive:original.meta.media.sample_aspect_num">1</property>
  <property name="kdenlive:original.meta.media.sample_aspect_den">1</property>
  <property name="kdenlive:original.aspect_ratio">1</property>
  <property name="kdenlive:original.audio_index">1</property>
  <property name="kdenlive:original.video_index">0</property>
  <property name="kdenlive:original.mute_on_pause">0</property>
  <property name="kdenlive:original.mlt_service">avformat-novalidate</property>
  <property name="kdenlive:original.kdenlive:folderid">-1</property>
  <property name="kdenlive:original.meta.media.frame_rate_num">31500</property>
  <property name="kdenlive:original.meta.media.frame_rate_den">1051</property>
  <property name="kdenlive:original.meta.media.colorspace">709</property>
  <property name="kdenlive:original.meta.media.color_trc">1</property>
  <property name="kdenlive:original.meta.media.width">1920</property>
  <property name="kdenlive:original.meta.media.height">1080</property>
  <property name="kdenlive:original.meta.media.color_range">mpeg</property>
  <property name="kdenlive:original.kdenlive:id">16</property>
  <property name="kdenlive:original.kdenlive:file_size">7493482</property>
  <property name="kdenlive:original.kdenlive:file_hash">fdebaa9e6f1f468e6d2b85dfcd9087cc</property>
  <property name="kdenlive:original.backup">1</property>
  <property name="global_feed">1</property>
  <property name="meta.media.nb_streams">2</property>
  <property name="meta.media.0.stream.type">video</property>
  <property name="meta.media.0.stream.frame_rate">29.97</property>
  <property name="meta.media.0.stream.sample_aspect_ratio">0</property>
  <property name="meta.media.0.codec.width">640</property>
  <property name="meta.media.0.codec.height">360</property>
  <property name="meta.media.0.codec.rotate">0</property>
  <property name="meta.media.0.codec.frame_rate">29.97</property>
  <property name="meta.media.0.codec.pix_fmt">yuv420p</property>
  <property name="meta.media.0.codec.sample_aspect_ratio">1</property>
  <property name="meta.media.0.codec.colorspace">601</property>
  <property name="meta.media.0.codec.name">h264</property>
  <property name="meta.media.0.codec.long_name">H.264 / AVC / MPEG-4 AVC / MPEG-4 part 10</property>
  <property name="meta.media.0.codec.bit_rate">6071099</property>
  <property name="meta.attr.0.stream.handler_name.markup">Core Media Video</property>
  <property name="meta.attr.0.stream.encoder.markup">Lavc58.106.100 h264_nvenc</property>
  <property name="meta.media.1.stream.type">audio</property>
  <property name="meta.media.1.codec.sample_fmt">fltp</property>
  <property name="meta.media.1.codec.sample_rate">44100</property>
  <property name="meta.media.1.codec.channels">1</property>
  <property name="meta.media.1.codec.name">aac</property>
  <property name="meta.media.1.codec.long_name">AAC (Advanced Audio Coding)</property>
  <property name="meta.media.1.codec.bit_rate">99870</property>
  <property name="meta.attr.1.stream.handler_name.markup">Core Media Audio</property>
  <property name="meta.attr.major_brand.markup">qt  </property>
  <property name="meta.attr.minor_version.markup">512</property>
  <property name="meta.attr.compatible_brands.markup">qt  </property>
  <property name="meta.attr.encoder.markup">Lavf58.58.100</property>
  <property name="meta.media.sample_aspect_num">1</property>
  <property name="meta.media.sample_aspect_den">1</property>
  <property name="meta.media.frame_rate_num">30000</property>
  <property name="meta.media.frame_rate_den">1001</property>
  <property name="meta.media.colorspace">601</property>
  <property name="meta.media.color_trc">2</property>
  <property name="meta.media.width">640</property>
  <property name="meta.media.height">360</property>
  <property name="meta.media.color_range">mpeg</property>
  <property name="meta.media.top_field_first">0</property>
  <property name="meta.media.progressive">1</property>
  <property name="kdenlive:audio_max">30</property>
 </producer>
 <producer id="producer15" in="00:00:00.000" out="00:00:03.960">
  <property name="length">100</property>
  <property name="eof">pause</property>
  <property name="resource">/home/chiller/.cache/kdenlive/proxy/71814888dd13bc8d27fb450f64486fa1.mov</property>
  <property name="audio_index">1</property>
  <property name="video_index">0</property>
  <property name="mute_on_pause">0</property>
  <property name="mlt_service">avformat-novalidate</property>
  <property name="seekable">1</property>
  <property name="aspect_ratio">1</property>
  <property name="kdenlive:clipname">starbucks.mov</property>
  <property name="kdenlive:folderid">-1</property>
  <property name="kdenlive:id">17</property>
  <property name="kdenlive:file_size">4025926</property>
  <property name="kdenlive:file_hash">71814888dd13bc8d27fb450f64486fa1</property>
  <property name="kdenlive:proxy">/home/chiller/.cache/kdenlive/proxy/71814888dd13bc8d27fb450f64486fa1.mov</property>
  <property name="kdenlive:originalurl">mov/night/starbucks.mov</property>
  <property name="kdenlive:original.mlt_type">producer</property>
  <property name="kdenlive:original.in">0</property>
  <property name="kdenlive:original.out">99</property>
  <property name="kdenlive:original.length">100</property>
  <property name="kdenlive:original.eof">pause</property>
  <property name="kdenlive:original.resource">mov/night/starbucks.mov</property>
  <property name="kdenlive:original.meta.media.nb_streams">5</property>
  <property name="kdenlive:original.meta.media.0.stream.type">video</property>
  <property name="kdenlive:original.meta.media.0.stream.frame_rate">29.975</property>
  <property name="kdenlive:original.meta.media.0.stream.sample_aspect_ratio">0</property>
  <property name="kdenlive:original.meta.media.0.codec.width">1920</property>
  <property name="kdenlive:original.meta.media.0.codec.height">1080</property>
  <property name="kdenlive:original.meta.media.0.codec.rotate">0</property>
  <property name="kdenlive:original.meta.media.0.codec.frame_rate">600</property>
  <property name="kdenlive:original.meta.media.0.codec.pix_fmt">yuv420p</property>
  <property name="kdenlive:original.meta.media.0.codec.sample_aspect_ratio">0</property>
  <property name="kdenlive:original.meta.media.0.codec.colorspace">709</property>
  <property name="kdenlive:original.meta.media.0.codec.color_trc">1</property>
  <property name="kdenlive:original.meta.media.0.codec.name">hevc</property>
  <property name="kdenlive:original.meta.media.0.codec.long_name">HEVC (High Efficiency Video Coding)</property>
  <property name="kdenlive:original.meta.media.0.codec.bit_rate">7816048</property>
  <property name="kdenlive:original.meta.attr.0.stream.creation_time.markup">2020-01-15T16:57:44.000000Z</property>
  <property name="kdenlive:original.meta.attr.0.stream.handler_name.markup">Core Media Video</property>
  <property name="kdenlive:original.meta.attr.0.stream.encoder.markup">HEVC</property>
  <property name="kdenlive:original.meta.media.1.stream.type">audio</property>
  <property name="kdenlive:original.meta.media.1.codec.sample_fmt">fltp</property>
  <property name="kdenlive:original.meta.media.1.codec.sample_rate">44100</property>
  <property name="kdenlive:original.meta.media.1.codec.channels">2</property>
  <property name="kdenlive:original.meta.media.1.codec.name">aac</property>
  <property name="kdenlive:original.meta.media.1.codec.long_name">AAC (Advanced Audio Coding)</property>
  <property name="kdenlive:original.meta.media.1.codec.bit_rate">189765</property>
  <property name="kdenlive:original.meta.attr.1.stream.creation_time.markup">2020-01-15T16:57:44.000000Z</property>
  <property name="kdenlive:original.meta.attr.1.stream.handler_name.markup">Core Media Audio</property>
  <property name="kdenlive:original.meta.attr.major_brand.markup">qt  </property>
  <property name="kdenlive:original.meta.attr.minor_version.markup">0</property>
  <property name="kdenlive:original.meta.attr.compatible_brands.markup">qt  </property>
  <property name="kdenlive:original.meta.attr.creation_time.markup">2020-01-15T16:57:44.000000Z</property>
  <property name="kdenlive:original.meta.attr.com.apple.quicktime.make.markup">Apple</property>
  <property name="kdenlive:original.meta.attr.com.apple.quicktime.model.markup">iPhone XS</property>
  <property name="kdenlive:original.meta.attr.com.apple.quicktime.software.markup">13.3</property>
  <property name="kdenlive:original.meta.attr.com.apple.quicktime.creationdate.markup">2020-01-15T17:57:44+0100</property>
  <property name="kdenlive:original.seekable">1</property>
  <property name="kdenlive:original.width">1920</property>
  <property name="kdenlive:original.height">1080</property>
  <property name="kdenlive:original.meta.media.sample_aspect_num">1</property>
  <property name="kdenlive:original.meta.media.sample_aspect_den">1</property>
  <property name="kdenlive:original.aspect_ratio">1</property>
  <property name="kdenlive:original.audio_index">1</property>
  <property name="kdenlive:original.video_index">0</property>
  <property name="kdenlive:original.mute_on_pause">0</property>
  <property name="kdenlive:original.mlt_service">avformat-novalidate</property>
  <property name="kdenlive:original.kdenlive:folderid">-1</property>
  <property name="kdenlive:original.meta.media.frame_rate_num">36000</property>
  <property name="kdenlive:original.meta.media.frame_rate_den">1201</property>
  <property name="kdenlive:original.meta.media.colorspace">709</property>
  <property name="kdenlive:original.meta.media.color_trc">1</property>
  <property name="kdenlive:original.meta.media.width">1920</property>
  <property name="kdenlive:original.meta.media.height">1080</property>
  <property name="kdenlive:original.meta.media.color_range">mpeg</property>
  <property name="kdenlive:original.kdenlive:id">17</property>
  <property name="kdenlive:original.kdenlive:file_size">4025926</property>
  <property name="kdenlive:original.kdenlive:file_hash">71814888dd13bc8d27fb450f64486fa1</property>
  <property name="kdenlive:original.backup">1</property>
  <property name="global_feed">1</property>
  <property name="meta.media.nb_streams">2</property>
  <property name="meta.media.0.stream.type">video</property>
  <property name="meta.media.0.stream.frame_rate">29.97</property>
  <property name="meta.media.0.stream.sample_aspect_ratio">0</property>
  <property name="meta.media.0.codec.width">640</property>
  <property name="meta.media.0.codec.height">360</property>
  <property name="meta.media.0.codec.rotate">0</property>
  <property name="meta.media.0.codec.frame_rate">29.97</property>
  <property name="meta.media.0.codec.pix_fmt">yuv420p</property>
  <property name="meta.media.0.codec.sample_aspect_ratio">1</property>
  <property name="meta.media.0.codec.colorspace">601</property>
  <property name="meta.media.0.codec.name">h264</property>
  <property name="meta.media.0.codec.long_name">H.264 / AVC / MPEG-4 AVC / MPEG-4 part 10</property>
  <property name="meta.media.0.codec.bit_rate">6414947</property>
  <property name="meta.attr.0.stream.handler_name.markup">Core Media Video</property>
  <property name="meta.attr.0.stream.encoder.markup">Lavc58.106.100 h264_nvenc</property>
  <property name="meta.media.1.stream.type">audio</property>
  <property name="meta.media.1.codec.sample_fmt">fltp</property>
  <property name="meta.media.1.codec.sample_rate">44100</property>
  <property name="meta.media.1.codec.channels">2</property>
  <property name="meta.media.1.codec.name">aac</property>
  <property name="meta.media.1.codec.long_name">AAC (Advanced Audio Coding)</property>
  <property name="meta.media.1.codec.bit_rate">191220</property>
  <property name="meta.attr.1.stream.handler_name.markup">Core Media Audio</property>
  <property name="meta.attr.major_brand.markup">qt  </property>
  <property name="meta.attr.minor_version.markup">512</property>
  <property name="meta.attr.compatible_brands.markup">qt  </property>
  <property name="meta.attr.encoder.markup">Lavf58.58.100</property>
  <property name="meta.media.sample_aspect_num">1</property>
  <property name="meta.media.sample_aspect_den">1</property>
  <property name="meta.media.frame_rate_num">30000</property>
  <property name="meta.media.frame_rate_den">1001</property>
  <property name="meta.media.colorspace">601</property>
  <property name="meta.media.color_trc">2</property>
  <property name="meta.media.width">640</property>
  <property name="meta.media.height">360</property>
  <property name="meta.media.color_range">mpeg</property>
  <property name="meta.media.top_field_first">0</property>
  <property name="meta.media.progressive">1</property>
  <property name="kdenlive:audio_max">19</property>
 </producer>
 <producer id="producer16" in="00:00:00.000" out="00:00:21.440">
  <property name="length">537</property>
  <property name="eof">pause</property>
  <property name="resource">/home/chiller/.cache/kdenlive/proxy/6189286fbaf8f776998cd0838a1378d1.mov</property>
  <property name="audio_index">1</property>
  <property name="video_index">0</property>
  <property name="mute_on_pause">0</property>
  <property name="mlt_service">avformat-novalidate</property>
  <property name="seekable">1</property>
  <property name="aspect_ratio">1</property>
  <property name="kdenlive:clipname">852D7D9B-A804-4BB7-A60D-D1046410C4EE.mov</property>
  <property name="kdenlive:folderid">-1</property>
  <property name="kdenlive:id">18</property>
  <property name="kdenlive:file_size">22802282</property>
  <property name="kdenlive:file_hash">6189286fbaf8f776998cd0838a1378d1</property>
  <property name="kdenlive:proxy">/home/chiller/.cache/kdenlive/proxy/6189286fbaf8f776998cd0838a1378d1.mov</property>
  <property name="kdenlive:originalurl">mov/night/852D7D9B-A804-4BB7-A60D-D1046410C4EE.mov</property>
  <property name="kdenlive:original.mlt_type">producer</property>
  <property name="kdenlive:original.in">0</property>
  <property name="kdenlive:original.out">536</property>
  <property name="kdenlive:original.length">537</property>
  <property name="kdenlive:original.eof">pause</property>
  <property name="kdenlive:original.resource">mov/night/852D7D9B-A804-4BB7-A60D-D1046410C4EE.mov</property>
  <property name="kdenlive:original.meta.media.nb_streams">5</property>
  <property name="kdenlive:original.meta.media.0.stream.type">video</property>
  <property name="kdenlive:original.meta.media.0.stream.frame_rate">29.048</property>
  <property name="kdenlive:original.meta.media.0.stream.sample_aspect_ratio">0</property>
  <property name="kdenlive:original.meta.media.0.codec.width">1920</property>
  <property name="kdenlive:original.meta.media.0.codec.height">1080</property>
  <property name="kdenlive:original.meta.media.0.codec.rotate">0</property>
  <property name="kdenlive:original.meta.media.0.codec.frame_rate">600</property>
  <property name="kdenlive:original.meta.media.0.codec.pix_fmt">yuv420p</property>
  <property name="kdenlive:original.meta.media.0.codec.sample_aspect_ratio">0</property>
  <property name="kdenlive:original.meta.media.0.codec.colorspace">709</property>
  <property name="kdenlive:original.meta.media.0.codec.color_trc">1</property>
  <property name="kdenlive:original.meta.media.0.codec.name">hevc</property>
  <property name="kdenlive:original.meta.media.0.codec.long_name">HEVC (High Efficiency Video Coding)</property>
  <property name="kdenlive:original.meta.media.0.codec.bit_rate">8277485</property>
  <property name="kdenlive:original.meta.attr.0.stream.creation_time.markup">2020-01-11T06:58:41.000000Z</property>
  <property name="kdenlive:original.meta.attr.0.stream.handler_name.markup">Core Media Video</property>
  <property name="kdenlive:original.meta.attr.0.stream.encoder.markup">HEVC</property>
  <property name="kdenlive:original.meta.media.1.stream.type">audio</property>
  <property name="kdenlive:original.meta.media.1.codec.sample_fmt">fltp</property>
  <property name="kdenlive:original.meta.media.1.codec.sample_rate">44100</property>
  <property name="kdenlive:original.meta.media.1.codec.channels">2</property>
  <property name="kdenlive:original.meta.media.1.codec.name">aac</property>
  <property name="kdenlive:original.meta.media.1.codec.long_name">AAC (Advanced Audio Coding)</property>
  <property name="kdenlive:original.meta.media.1.codec.bit_rate">181885</property>
  <property name="kdenlive:original.meta.attr.1.stream.creation_time.markup">2020-01-11T06:58:41.000000Z</property>
  <property name="kdenlive:original.meta.attr.1.stream.handler_name.markup">Core Media Audio</property>
  <property name="kdenlive:original.meta.attr.major_brand.markup">qt  </property>
  <property name="kdenlive:original.meta.attr.minor_version.markup">0</property>
  <property name="kdenlive:original.meta.attr.compatible_brands.markup">qt  </property>
  <property name="kdenlive:original.meta.attr.creation_time.markup">2020-01-11T06:58:41.000000Z</property>
  <property name="kdenlive:original.meta.attr.com.apple.quicktime.make.markup">Apple</property>
  <property name="kdenlive:original.meta.attr.com.apple.quicktime.model.markup">iPhone XS</property>
  <property name="kdenlive:original.meta.attr.com.apple.quicktime.software.markup">13.3</property>
  <property name="kdenlive:original.meta.attr.com.apple.quicktime.creationdate.markup">2020-01-11T07:58:40+0100</property>
  <property name="kdenlive:original.seekable">1</property>
  <property name="kdenlive:original.width">1920</property>
  <property name="kdenlive:original.height">1080</property>
  <property name="kdenlive:original.meta.media.sample_aspect_num">1</property>
  <property name="kdenlive:original.meta.media.sample_aspect_den">1</property>
  <property name="kdenlive:original.aspect_ratio">1</property>
  <property name="kdenlive:original.audio_index">1</property>
  <property name="kdenlive:original.video_index">0</property>
  <property name="kdenlive:original.mute_on_pause">0</property>
  <property name="kdenlive:original.mlt_service">avformat-novalidate</property>
  <property name="kdenlive:original.kdenlive:folderid">-1</property>
  <property name="kdenlive:original.meta.media.frame_rate_num">374400</property>
  <property name="kdenlive:original.meta.media.frame_rate_den">12889</property>
  <property name="kdenlive:original.meta.media.colorspace">709</property>
  <property name="kdenlive:original.meta.media.color_trc">1</property>
  <property name="kdenlive:original.meta.media.width">1920</property>
  <property name="kdenlive:original.meta.media.height">1080</property>
  <property name="kdenlive:original.meta.media.color_range">mpeg</property>
  <property name="kdenlive:original.kdenlive:id">18</property>
  <property name="kdenlive:original.kdenlive:file_size">22802282</property>
  <property name="kdenlive:original.kdenlive:file_hash">6189286fbaf8f776998cd0838a1378d1</property>
  <property name="kdenlive:original.backup">1</property>
  <property name="global_feed">1</property>
  <property name="meta.media.nb_streams">2</property>
  <property name="meta.media.0.stream.type">video</property>
  <property name="meta.media.0.stream.frame_rate">120</property>
  <property name="meta.media.0.stream.sample_aspect_ratio">0</property>
  <property name="meta.media.0.codec.width">640</property>
  <property name="meta.media.0.codec.height">360</property>
  <property name="meta.media.0.codec.rotate">0</property>
  <property name="meta.media.0.codec.frame_rate">120</property>
  <property name="meta.media.0.codec.pix_fmt">yuv420p</property>
  <property name="meta.media.0.codec.sample_aspect_ratio">1</property>
  <property name="meta.media.0.codec.colorspace">601</property>
  <property name="meta.media.0.codec.name">h264</property>
  <property name="meta.media.0.codec.long_name">H.264 / AVC / MPEG-4 AVC / MPEG-4 part 10</property>
  <property name="meta.media.0.codec.bit_rate">16013334</property>
  <property name="meta.attr.0.stream.handler_name.markup">Core Media Video</property>
  <property name="meta.attr.0.stream.encoder.markup">Lavc58.106.100 h264_nvenc</property>
  <property name="meta.media.1.stream.type">audio</property>
  <property name="meta.media.1.codec.sample_fmt">fltp</property>
  <property name="meta.media.1.codec.sample_rate">44100</property>
  <property name="meta.media.1.codec.channels">2</property>
  <property name="meta.media.1.codec.name">aac</property>
  <property name="meta.media.1.codec.long_name">AAC (Advanced Audio Coding)</property>
  <property name="meta.media.1.codec.bit_rate">182217</property>
  <property name="meta.attr.1.stream.handler_name.markup">Core Media Audio</property>
  <property name="meta.attr.major_brand.markup">qt  </property>
  <property name="meta.attr.minor_version.markup">512</property>
  <property name="meta.attr.compatible_brands.markup">qt  </property>
  <property name="meta.attr.encoder.markup">Lavf58.58.100</property>
  <property name="meta.media.sample_aspect_num">1</property>
  <property name="meta.media.sample_aspect_den">1</property>
  <property name="meta.media.frame_rate_num">120</property>
  <property name="meta.media.frame_rate_den">1</property>
  <property name="meta.media.colorspace">601</property>
  <property name="meta.media.color_trc">2</property>
  <property name="meta.media.width">640</property>
  <property name="meta.media.height">360</property>
  <property name="meta.media.color_range">mpeg</property>
  <property name="meta.media.top_field_first">0</property>
  <property name="meta.media.progressive">1</property>
  <property name="kdenlive:audio_max">21</property>
 </producer>
 <producer id="producer17" in="00:00:00.000" out="00:00:12.400">
  <property name="length">311</property>
  <property name="eof">pause</property>
  <property name="resource">/home/chiller/.cache/kdenlive/proxy/ad328b0f934c530983fb7c3793fb304b.mov</property>
  <property name="audio_index">1</property>
  <property name="video_index">0</property>
  <property name="mute_on_pause">0</property>
  <property name="mlt_service">avformat-novalidate</property>
  <property name="seekable">1</property>
  <property name="aspect_ratio">1</property>
  <property name="kdenlive:clipname">84A324B0-CFC5-40E2-9DCC-242D19370812.mov</property>
  <property name="kdenlive:folderid">-1</property>
  <property name="kdenlive:id">19</property>
  <property name="kdenlive:file_size">13514156</property>
  <property name="kdenlive:file_hash">ad328b0f934c530983fb7c3793fb304b</property>
  <property name="kdenlive:proxy">/home/chiller/.cache/kdenlive/proxy/ad328b0f934c530983fb7c3793fb304b.mov</property>
  <property name="kdenlive:originalurl">mov/night/84A324B0-CFC5-40E2-9DCC-242D19370812.mov</property>
  <property name="kdenlive:original.mlt_type">producer</property>
  <property name="kdenlive:original.in">0</property>
  <property name="kdenlive:original.out">310</property>
  <property name="kdenlive:original.length">311</property>
  <property name="kdenlive:original.eof">pause</property>
  <property name="kdenlive:original.resource">mov/night/84A324B0-CFC5-40E2-9DCC-242D19370812.mov</property>
  <property name="kdenlive:original.meta.media.nb_streams">5</property>
  <property name="kdenlive:original.meta.media.0.stream.type">video</property>
  <property name="kdenlive:original.meta.media.0.stream.frame_rate">26.2756</property>
  <property name="kdenlive:original.meta.media.0.stream.sample_aspect_ratio">0</property>
  <property name="kdenlive:original.meta.media.0.codec.width">1920</property>
  <property name="kdenlive:original.meta.media.0.codec.height">1080</property>
  <property name="kdenlive:original.meta.media.0.codec.rotate">0</property>
  <property name="kdenlive:original.meta.media.0.codec.frame_rate">600</property>
  <property name="kdenlive:original.meta.media.0.codec.pix_fmt">yuv420p</property>
  <property name="kdenlive:original.meta.media.0.codec.sample_aspect_ratio">0</property>
  <property name="kdenlive:original.meta.media.0.codec.colorspace">709</property>
  <property name="kdenlive:original.meta.media.0.codec.color_trc">1</property>
  <property name="kdenlive:original.meta.media.0.codec.name">hevc</property>
  <property name="kdenlive:original.meta.media.0.codec.long_name">HEVC (High Efficiency Video Coding)</property>
  <property name="kdenlive:original.meta.media.0.codec.bit_rate">8556719</property>
  <property name="kdenlive:original.meta.attr.0.stream.creation_time.markup">2020-04-29T19:23:42.000000Z</property>
  <property name="kdenlive:original.meta.attr.0.stream.handler_name.markup">Core Media Video</property>
  <property name="kdenlive:original.meta.attr.0.stream.encoder.markup">HEVC</property>
  <property name="kdenlive:original.meta.media.1.stream.type">audio</property>
  <property name="kdenlive:original.meta.media.1.codec.sample_fmt">fltp</property>
  <property name="kdenlive:original.meta.media.1.codec.sample_rate">44100</property>
  <property name="kdenlive:original.meta.media.1.codec.channels">1</property>
  <property name="kdenlive:original.meta.media.1.codec.name">aac</property>
  <property name="kdenlive:original.meta.media.1.codec.long_name">AAC (Advanced Audio Coding)</property>
  <property name="kdenlive:original.meta.media.1.codec.bit_rate">97751</property>
  <property name="kdenlive:original.meta.attr.1.stream.creation_time.markup">2020-04-29T19:23:42.000000Z</property>
  <property name="kdenlive:original.meta.attr.1.stream.handler_name.markup">Core Media Audio</property>
  <property name="kdenlive:original.meta.attr.major_brand.markup">qt  </property>
  <property name="kdenlive:original.meta.attr.minor_version.markup">0</property>
  <property name="kdenlive:original.meta.attr.compatible_brands.markup">qt  </property>
  <property name="kdenlive:original.meta.attr.creation_time.markup">2020-04-29T19:23:42.000000Z</property>
  <property name="kdenlive:original.meta.attr.com.apple.quicktime.make.markup">Apple</property>
  <property name="kdenlive:original.meta.attr.com.apple.quicktime.model.markup">iPhone XS</property>
  <property name="kdenlive:original.meta.attr.com.apple.quicktime.software.markup">13.3.1</property>
  <property name="kdenlive:original.meta.attr.com.apple.quicktime.creationdate.markup">2020-04-29T21:23:41+0200</property>
  <property name="kdenlive:original.seekable">1</property>
  <property name="kdenlive:original.width">1920</property>
  <property name="kdenlive:original.height">1080</property>
  <property name="kdenlive:original.meta.media.sample_aspect_num">1</property>
  <property name="kdenlive:original.meta.media.sample_aspect_den">1</property>
  <property name="kdenlive:original.aspect_ratio">1</property>
  <property name="kdenlive:original.audio_index">1</property>
  <property name="kdenlive:original.video_index">0</property>
  <property name="kdenlive:original.mute_on_pause">0</property>
  <property name="kdenlive:original.mlt_service">avformat-novalidate</property>
  <property name="kdenlive:original.kdenlive:folderid">-1</property>
  <property name="kdenlive:original.meta.media.frame_rate_num">65400</property>
  <property name="kdenlive:original.meta.media.frame_rate_den">2489</property>
  <property name="kdenlive:original.meta.media.colorspace">709</property>
  <property name="kdenlive:original.meta.media.color_trc">1</property>
  <property name="kdenlive:original.meta.media.width">1920</property>
  <property name="kdenlive:original.meta.media.height">1080</property>
  <property name="kdenlive:original.meta.media.color_range">mpeg</property>
  <property name="kdenlive:original.kdenlive:id">19</property>
  <property name="kdenlive:original.kdenlive:file_size">13514156</property>
  <property name="kdenlive:original.kdenlive:file_hash">ad328b0f934c530983fb7c3793fb304b</property>
  <property name="kdenlive:original.backup">1</property>
  <property name="global_feed">1</property>
  <property name="meta.media.nb_streams">2</property>
  <property name="meta.media.0.stream.type">video</property>
  <property name="meta.media.0.stream.frame_rate">24</property>
  <property name="meta.media.0.stream.sample_aspect_ratio">0</property>
  <property name="meta.media.0.codec.width">640</property>
  <property name="meta.media.0.codec.height">360</property>
  <property name="meta.media.0.codec.rotate">0</property>
  <property name="meta.media.0.codec.frame_rate">24</property>
  <property name="meta.media.0.codec.pix_fmt">yuv420p</property>
  <property name="meta.media.0.codec.sample_aspect_ratio">1</property>
  <property name="meta.media.0.codec.colorspace">601</property>
  <property name="meta.media.0.codec.name">h264</property>
  <property name="meta.media.0.codec.long_name">H.264 / AVC / MPEG-4 AVC / MPEG-4 part 10</property>
  <property name="meta.media.0.codec.bit_rate">2997845</property>
  <property name="meta.attr.0.stream.handler_name.markup">Core Media Video</property>
  <property name="meta.attr.0.stream.encoder.markup">Lavc58.106.100 h264_nvenc</property>
  <property name="meta.media.1.stream.type">audio</property>
  <property name="meta.media.1.codec.sample_fmt">fltp</property>
  <property name="meta.media.1.codec.sample_rate">44100</property>
  <property name="meta.media.1.codec.channels">1</property>
  <property name="meta.media.1.codec.name">aac</property>
  <property name="meta.media.1.codec.long_name">AAC (Advanced Audio Coding)</property>
  <property name="meta.media.1.codec.bit_rate">97953</property>
  <property name="meta.attr.1.stream.handler_name.markup">Core Media Audio</property>
  <property name="meta.attr.major_brand.markup">qt  </property>
  <property name="meta.attr.minor_version.markup">512</property>
  <property name="meta.attr.compatible_brands.markup">qt  </property>
  <property name="meta.attr.encoder.markup">Lavf58.58.100</property>
  <property name="meta.media.sample_aspect_num">1</property>
  <property name="meta.media.sample_aspect_den">1</property>
  <property name="meta.media.frame_rate_num">24</property>
  <property name="meta.media.frame_rate_den">1</property>
  <property name="meta.media.colorspace">601</property>
  <property name="meta.media.color_trc">2</property>
  <property name="meta.media.width">640</property>
  <property name="meta.media.height">360</property>
  <property name="meta.media.color_range">mpeg</property>
  <property name="meta.media.top_field_first">0</property>
  <property name="meta.media.progressive">1</property>
  <property name="kdenlive:audio_max">27</property>
 </producer>
 <producer id="producer18" in="00:00:00.000" out="00:00:05.840">
  <property name="length">147</property>
  <property name="eof">pause</property>
  <property name="resource">/home/chiller/.cache/kdenlive/proxy/b7f47642bd5be605d52ddc59221ae641.mov</property>
  <property name="audio_index">1</property>
  <property name="video_index">0</property>
  <property name="mute_on_pause">0</property>
  <property name="mlt_service">avformat-novalidate</property>
  <property name="seekable">1</property>
  <property name="aspect_ratio">1</property>
  <property name="kdenlive:clipname">015F52D4-57A8-4F0F-AD02-62F5B535F4BE.mov</property>
  <property name="kdenlive:folderid">-1</property>
  <property name="kdenlive:id">20</property>
  <property name="kdenlive:file_size">7650458</property>
  <property name="kdenlive:file_hash">b7f47642bd5be605d52ddc59221ae641</property>
  <property name="kdenlive:proxy">/home/chiller/.cache/kdenlive/proxy/b7f47642bd5be605d52ddc59221ae641.mov</property>
  <property name="kdenlive:originalurl">mov/outdoor/015F52D4-57A8-4F0F-AD02-62F5B535F4BE.mov</property>
  <property name="kdenlive:original.mlt_type">producer</property>
  <property name="kdenlive:original.in">0</property>
  <property name="kdenlive:original.out">146</property>
  <property name="kdenlive:original.length">147</property>
  <property name="kdenlive:original.eof">pause</property>
  <property name="kdenlive:original.resource">mov/outdoor/015F52D4-57A8-4F0F-AD02-62F5B535F4BE.mov</property>
  <property name="kdenlive:original.meta.media.nb_streams">5</property>
  <property name="kdenlive:original.meta.media.0.stream.type">video</property>
  <property name="kdenlive:original.meta.media.0.stream.frame_rate">29.9745</property>
  <property name="kdenlive:original.meta.media.0.stream.sample_aspect_ratio">0</property>
  <property name="kdenlive:original.meta.media.0.codec.width">1920</property>
  <property name="kdenlive:original.meta.media.0.codec.height">1080</property>
  <property name="kdenlive:original.meta.media.0.codec.rotate">0</property>
  <property name="kdenlive:original.meta.media.0.codec.frame_rate">600</property>
  <property name="kdenlive:original.meta.media.0.codec.pix_fmt">yuv420p</property>
  <property name="kdenlive:original.meta.media.0.codec.sample_aspect_ratio">0</property>
  <property name="kdenlive:original.meta.media.0.codec.colorspace">709</property>
  <property name="kdenlive:original.meta.media.0.codec.color_trc">1</property>
  <property name="kdenlive:original.meta.media.0.codec.name">hevc</property>
  <property name="kdenlive:original.meta.media.0.codec.long_name">HEVC (High Efficiency Video Coding)</property>
  <property name="kdenlive:original.meta.media.0.codec.bit_rate">10216096</property>
  <property name="kdenlive:original.meta.attr.0.stream.creation_time.markup">2020-01-16T20:32:04.000000Z</property>
  <property name="kdenlive:original.meta.attr.0.stream.handler_name.markup">Core Media Video</property>
  <property name="kdenlive:original.meta.attr.0.stream.encoder.markup">HEVC</property>
  <property name="kdenlive:original.meta.media.1.stream.type">audio</property>
  <property name="kdenlive:original.meta.media.1.codec.sample_fmt">fltp</property>
  <property name="kdenlive:original.meta.media.1.codec.sample_rate">44100</property>
  <property name="kdenlive:original.meta.media.1.codec.channels">2</property>
  <property name="kdenlive:original.meta.media.1.codec.name">aac</property>
  <property name="kdenlive:original.meta.media.1.codec.long_name">AAC (Advanced Audio Coding)</property>
  <property name="kdenlive:original.meta.media.1.codec.bit_rate">173942</property>
  <property name="kdenlive:original.meta.attr.1.stream.creation_time.markup">2020-01-16T20:32:04.000000Z</property>
  <property name="kdenlive:original.meta.attr.1.stream.handler_name.markup">Core Media Audio</property>
  <property name="kdenlive:original.meta.attr.major_brand.markup">qt  </property>
  <property name="kdenlive:original.meta.attr.minor_version.markup">0</property>
  <property name="kdenlive:original.meta.attr.compatible_brands.markup">qt  </property>
  <property name="kdenlive:original.meta.attr.creation_time.markup">2020-01-16T20:32:04.000000Z</property>
  <property name="kdenlive:original.meta.attr.com.apple.quicktime.make.markup">Apple</property>
  <property name="kdenlive:original.meta.attr.com.apple.quicktime.model.markup">iPhone XS</property>
  <property name="kdenlive:original.meta.attr.com.apple.quicktime.software.markup">13.3</property>
  <property name="kdenlive:original.meta.attr.com.apple.quicktime.creationdate.markup">2020-01-16T21:32:04+0100</property>
  <property name="kdenlive:original.seekable">1</property>
  <property name="kdenlive:original.width">1920</property>
  <property name="kdenlive:original.height">1080</property>
  <property name="kdenlive:original.meta.media.sample_aspect_num">1</property>
  <property name="kdenlive:original.meta.media.sample_aspect_den">1</property>
  <property name="kdenlive:original.aspect_ratio">1</property>
  <property name="kdenlive:original.audio_index">1</property>
  <property name="kdenlive:original.video_index">0</property>
  <property name="kdenlive:original.mute_on_pause">0</property>
  <property name="kdenlive:original.mlt_service">avformat-novalidate</property>
  <property name="kdenlive:original.kdenlive:folderid">-1</property>
  <property name="kdenlive:original.meta.media.frame_rate_num">105600</property>
  <property name="kdenlive:original.meta.media.frame_rate_den">3523</property>
  <property name="kdenlive:original.meta.media.colorspace">709</property>
  <property name="kdenlive:original.meta.media.color_trc">1</property>
  <property name="kdenlive:original.meta.media.width">1920</property>
  <property name="kdenlive:original.meta.media.height">1080</property>
  <property name="kdenlive:original.meta.media.color_range">mpeg</property>
  <property name="kdenlive:original.kdenlive:id">20</property>
  <property name="kdenlive:original.kdenlive:file_size">7650458</property>
  <property name="kdenlive:original.kdenlive:file_hash">b7f47642bd5be605d52ddc59221ae641</property>
  <property name="kdenlive:original.backup">1</property>
  <property name="global_feed">1</property>
  <property name="meta.media.nb_streams">2</property>
  <property name="meta.media.0.stream.type">video</property>
  <property name="meta.media.0.stream.frame_rate">29.97</property>
  <property name="meta.media.0.stream.sample_aspect_ratio">0</property>
  <property name="meta.media.0.codec.width">640</property>
  <property name="meta.media.0.codec.height">360</property>
  <property name="meta.media.0.codec.rotate">0</property>
  <property name="meta.media.0.codec.frame_rate">29.97</property>
  <property name="meta.media.0.codec.pix_fmt">yuv420p</property>
  <property name="meta.media.0.codec.sample_aspect_ratio">1</property>
  <property name="meta.media.0.codec.colorspace">601</property>
  <property name="meta.media.0.codec.name">h264</property>
  <property name="meta.media.0.codec.long_name">H.264 / AVC / MPEG-4 AVC / MPEG-4 part 10</property>
  <property name="meta.media.0.codec.bit_rate">7814239</property>
  <property name="meta.attr.0.stream.handler_name.markup">Core Media Video</property>
  <property name="meta.attr.0.stream.encoder.markup">Lavc58.106.100 h264_nvenc</property>
  <property name="meta.media.1.stream.type">audio</property>
  <property name="meta.media.1.codec.sample_fmt">fltp</property>
  <property name="meta.media.1.codec.sample_rate">44100</property>
  <property name="meta.media.1.codec.channels">2</property>
  <property name="meta.media.1.codec.name">aac</property>
  <property name="meta.media.1.codec.long_name">AAC (Advanced Audio Coding)</property>
  <property name="meta.media.1.codec.bit_rate">174265</property>
  <property name="meta.attr.1.stream.handler_name.markup">Core Media Audio</property>
  <property name="meta.attr.major_brand.markup">qt  </property>
  <property name="meta.attr.minor_version.markup">512</property>
  <property name="meta.attr.compatible_brands.markup">qt  </property>
  <property name="meta.attr.encoder.markup">Lavf58.58.100</property>
  <property name="meta.media.sample_aspect_num">1</property>
  <property name="meta.media.sample_aspect_den">1</property>
  <property name="meta.media.frame_rate_num">30000</property>
  <property name="meta.media.frame_rate_den">1001</property>
  <property name="meta.media.colorspace">601</property>
  <property name="meta.media.color_trc">2</property>
  <property name="meta.media.width">640</property>
  <property name="meta.media.height">360</property>
  <property name="meta.media.color_range">mpeg</property>
  <property name="meta.media.top_field_first">0</property>
  <property name="meta.media.progressive">1</property>
  <property name="kdenlive:audio_max">19</property>
 </producer>
 <producer id="producer19" in="00:00:00.000" out="00:00:11.120">
  <property name="length">279</property>
  <property name="eof">pause</property>
  <property name="resource">/home/chiller/.cache/kdenlive/proxy/7621d87454f0d4a51c1b3e24e69aa67f.mov</property>
  <property name="audio_index">1</property>
  <property name="video_index">0</property>
  <property name="mute_on_pause">0</property>
  <property name="mlt_service">avformat-novalidate</property>
  <property name="seekable">1</property>
  <property name="aspect_ratio">1</property>
  <property name="kdenlive:clipname">C8E647CC-C6F6-48B1-88CC-1FEE02A7B3A6.mov</property>
  <property name="kdenlive:folderid">-1</property>
  <property name="kdenlive:id">21</property>
  <property name="kdenlive:file_size">11492151</property>
  <property name="kdenlive:file_hash">7621d87454f0d4a51c1b3e24e69aa67f</property>
  <property name="kdenlive:proxy">/home/chiller/.cache/kdenlive/proxy/7621d87454f0d4a51c1b3e24e69aa67f.mov</property>
  <property name="kdenlive:originalurl">mov/outdoor/C8E647CC-C6F6-48B1-88CC-1FEE02A7B3A6.mov</property>
  <property name="kdenlive:original.mlt_type">producer</property>
  <property name="kdenlive:original.in">0</property>
  <property name="kdenlive:original.out">278</property>
  <property name="kdenlive:original.length">279</property>
  <property name="kdenlive:original.eof">pause</property>
  <property name="kdenlive:original.resource">mov/outdoor/C8E647CC-C6F6-48B1-88CC-1FEE02A7B3A6.mov</property>
  <property name="kdenlive:original.meta.media.nb_streams">5</property>
  <property name="kdenlive:original.meta.media.0.stream.type">video</property>
  <property name="kdenlive:original.meta.media.0.stream.frame_rate">29.9731</property>
  <property name="kdenlive:original.meta.media.0.stream.sample_aspect_ratio">0</property>
  <property name="kdenlive:original.meta.media.0.codec.width">1920</property>
  <property name="kdenlive:original.meta.media.0.codec.height">1080</property>
  <property name="kdenlive:original.meta.media.0.codec.rotate">0</property>
  <property name="kdenlive:original.meta.media.0.codec.frame_rate">600</property>
  <property name="kdenlive:original.meta.media.0.codec.pix_fmt">yuv420p</property>
  <property name="kdenlive:original.meta.media.0.codec.sample_aspect_ratio">0</property>
  <property name="kdenlive:original.meta.media.0.codec.colorspace">709</property>
  <property name="kdenlive:original.meta.media.0.codec.color_trc">1</property>
  <property name="kdenlive:original.meta.media.0.codec.name">hevc</property>
  <property name="kdenlive:original.meta.media.0.codec.long_name">HEVC (High Efficiency Video Coding)</property>
  <property name="kdenlive:original.meta.media.0.codec.bit_rate">8044929</property>
  <property name="kdenlive:original.meta.attr.0.stream.creation_time.markup">2020-07-11T17:38:20.000000Z</property>
  <property name="kdenlive:original.meta.attr.0.stream.handler_name.markup">Core Media Video</property>
  <property name="kdenlive:original.meta.attr.0.stream.encoder.markup">HEVC</property>
  <property name="kdenlive:original.meta.media.1.stream.type">audio</property>
  <property name="kdenlive:original.meta.media.1.codec.sample_fmt">fltp</property>
  <property name="kdenlive:original.meta.media.1.codec.sample_rate">44100</property>
  <property name="kdenlive:original.meta.media.1.codec.channels">2</property>
  <property name="kdenlive:original.meta.media.1.codec.name">aac</property>
  <property name="kdenlive:original.meta.media.1.codec.long_name">AAC (Advanced Audio Coding)</property>
  <property name="kdenlive:original.meta.media.1.codec.bit_rate">177210</property>
  <property name="kdenlive:original.meta.attr.1.stream.creation_time.markup">2020-07-11T17:38:20.000000Z</property>
  <property name="kdenlive:original.meta.attr.1.stream.handler_name.markup">Core Media Audio</property>
  <property name="kdenlive:original.meta.attr.major_brand.markup">qt  </property>
  <property name="kdenlive:original.meta.attr.minor_version.markup">0</property>
  <property name="kdenlive:original.meta.attr.compatible_brands.markup">qt  </property>
  <property name="kdenlive:original.meta.attr.creation_time.markup">2020-07-11T17:38:20.000000Z</property>
  <property name="kdenlive:original.meta.attr.com.apple.quicktime.make.markup">Apple</property>
  <property name="kdenlive:original.meta.attr.com.apple.quicktime.model.markup">iPhone XS</property>
  <property name="kdenlive:original.meta.attr.com.apple.quicktime.software.markup">13.5.1</property>
  <property name="kdenlive:original.meta.attr.com.apple.quicktime.creationdate.markup">2020-07-11T19:38:20+0200</property>
  <property name="kdenlive:original.seekable">1</property>
  <property name="kdenlive:original.width">1920</property>
  <property name="kdenlive:original.height">1080</property>
  <property name="kdenlive:original.meta.media.sample_aspect_num">1</property>
  <property name="kdenlive:original.meta.media.sample_aspect_den">1</property>
  <property name="kdenlive:original.aspect_ratio">1</property>
  <property name="kdenlive:original.audio_index">1</property>
  <property name="kdenlive:original.video_index">0</property>
  <property name="kdenlive:original.mute_on_pause">0</property>
  <property name="kdenlive:original.mlt_service">avformat-novalidate</property>
  <property name="kdenlive:original.kdenlive:folderid">-1</property>
  <property name="kdenlive:original.meta.media.frame_rate_num">100200</property>
  <property name="kdenlive:original.meta.media.frame_rate_den">3343</property>
  <property name="kdenlive:original.meta.media.colorspace">709</property>
  <property name="kdenlive:original.meta.media.color_trc">1</property>
  <property name="kdenlive:original.meta.media.width">1920</property>
  <property name="kdenlive:original.meta.media.height">1080</property>
  <property name="kdenlive:original.meta.media.color_range">mpeg</property>
  <property name="kdenlive:original.kdenlive:id">21</property>
  <property name="kdenlive:original.kdenlive:file_size">11492151</property>
  <property name="kdenlive:original.kdenlive:file_hash">7621d87454f0d4a51c1b3e24e69aa67f</property>
  <property name="kdenlive:original.backup">1</property>
  <property name="global_feed">1</property>
  <property name="meta.media.nb_streams">2</property>
  <property name="meta.media.0.stream.type">video</property>
  <property name="meta.media.0.stream.frame_rate">29.97</property>
  <property name="meta.media.0.stream.sample_aspect_ratio">0</property>
  <property name="meta.media.0.codec.width">640</property>
  <property name="meta.media.0.codec.height">360</property>
  <property name="meta.media.0.codec.rotate">0</property>
  <property name="meta.media.0.codec.frame_rate">29.97</property>
  <property name="meta.media.0.codec.pix_fmt">yuv420p</property>
  <property name="meta.media.0.codec.sample_aspect_ratio">1</property>
  <property name="meta.media.0.codec.colorspace">601</property>
  <property name="meta.media.0.codec.name">h264</property>
  <property name="meta.media.0.codec.long_name">H.264 / AVC / MPEG-4 AVC / MPEG-4 part 10</property>
  <property name="meta.media.0.codec.bit_rate">8505187</property>
  <property name="meta.attr.0.stream.handler_name.markup">Core Media Video</property>
  <property name="meta.attr.0.stream.encoder.markup">Lavc58.106.100 h264_nvenc</property>
  <property name="meta.media.1.stream.type">audio</property>
  <property name="meta.media.1.codec.sample_fmt">fltp</property>
  <property name="meta.media.1.codec.sample_rate">44100</property>
  <property name="meta.media.1.codec.channels">2</property>
  <property name="meta.media.1.codec.name">aac</property>
  <property name="meta.media.1.codec.long_name">AAC (Advanced Audio Coding)</property>
  <property name="meta.media.1.codec.bit_rate">177333</property>
  <property name="meta.attr.1.stream.handler_name.markup">Core Media Audio</property>
  <property name="meta.attr.major_brand.markup">qt  </property>
  <property name="meta.attr.minor_version.markup">512</property>
  <property name="meta.attr.compatible_brands.markup">qt  </property>
  <property name="meta.attr.encoder.markup">Lavf58.58.100</property>
  <property name="meta.media.sample_aspect_num">1</property>
  <property name="meta.media.sample_aspect_den">1</property>
  <property name="meta.media.frame_rate_num">30000</property>
  <property name="meta.media.frame_rate_den">1001</property>
  <property name="meta.media.colorspace">601</property>
  <property name="meta.media.color_trc">2</property>
  <property name="meta.media.width">640</property>
  <property name="meta.media.height">360</property>
  <property name="meta.media.color_range">mpeg</property>
  <property name="meta.media.top_field_first">0</property>
  <property name="meta.media.progressive">1</property>
  <property name="kdenlive:audio_max">18</property>
 </producer>
 <producer id="producer20" in="00:00:00.000" out="00:00:12.680">
  <property name="length">318</property>
  <property name="eof">pause</property>
  <property name="resource">/home/chiller/.cache/kdenlive/proxy/2f301a96ec656cbb5c30dd7cb26ab48f.mov</property>
  <property name="audio_index">1</property>
  <property name="video_index">0</property>
  <property name="mute_on_pause">0</property>
  <property name="mlt_service">avformat-novalidate</property>
  <property name="seekable">1</property>
  <property name="aspect_ratio">1</property>
  <property name="kdenlive:clipname">multi_screen_drop.mov</property>
  <property name="kdenlive:folderid">-1</property>
  <property name="kdenlive:id">22</property>
  <property name="kdenlive:file_size">12943677</property>
  <property name="kdenlive:file_hash">2f301a96ec656cbb5c30dd7cb26ab48f</property>
  <property name="kdenlive:proxy">/home/chiller/.cache/kdenlive/proxy/2f301a96ec656cbb5c30dd7cb26ab48f.mov</property>
  <property name="kdenlive:originalurl">mov/multi_screens/multi_screen_drop.mov</property>
  <property name="kdenlive:original.mlt_type">producer</property>
  <property name="kdenlive:original.in">0</property>
  <property name="kdenlive:original.out">317</property>
  <property name="kdenlive:original.length">318</property>
  <property name="kdenlive:original.eof">pause</property>
  <property name="kdenlive:original.resource">mov/multi_screens/multi_screen_drop.mov</property>
  <property name="kdenlive:original.meta.media.nb_streams">5</property>
  <property name="kdenlive:original.meta.media.0.stream.type">video</property>
  <property name="kdenlive:original.meta.media.0.stream.frame_rate">29.9725</property>
  <property name="kdenlive:original.meta.media.0.stream.sample_aspect_ratio">0</property>
  <property name="kdenlive:original.meta.media.0.codec.width">1920</property>
  <property name="kdenlive:original.meta.media.0.codec.height">1080</property>
  <property name="kdenlive:original.meta.media.0.codec.rotate">0</property>
  <property name="kdenlive:original.meta.media.0.codec.frame_rate">600</property>
  <property name="kdenlive:original.meta.media.0.codec.pix_fmt">yuv420p</property>
  <property name="kdenlive:original.meta.media.0.codec.sample_aspect_ratio">0</property>
  <property name="kdenlive:original.meta.media.0.codec.colorspace">709</property>
  <property name="kdenlive:original.meta.media.0.codec.color_trc">1</property>
  <property name="kdenlive:original.meta.media.0.codec.name">hevc</property>
  <property name="kdenlive:original.meta.media.0.codec.long_name">HEVC (High Efficiency Video Coding)</property>
  <property name="kdenlive:original.meta.media.0.codec.bit_rate">7935463</property>
  <property name="kdenlive:original.meta.attr.0.stream.creation_time.markup">2020-06-22T19:39:50.000000Z</property>
  <property name="kdenlive:original.meta.attr.0.stream.handler_name.markup">Core Media Video</property>
  <property name="kdenlive:original.meta.attr.0.stream.encoder.markup">HEVC</property>
  <property name="kdenlive:original.meta.media.1.stream.type">audio</property>
  <property name="kdenlive:original.meta.media.1.codec.sample_fmt">fltp</property>
  <property name="kdenlive:original.meta.media.1.codec.sample_rate">44100</property>
  <property name="kdenlive:original.meta.media.1.codec.channels">2</property>
  <property name="kdenlive:original.meta.media.1.codec.name">aac</property>
  <property name="kdenlive:original.meta.media.1.codec.long_name">AAC (Advanced Audio Coding)</property>
  <property name="kdenlive:original.meta.media.1.codec.bit_rate">174285</property>
  <property name="kdenlive:original.meta.attr.1.stream.creation_time.markup">2020-06-22T19:39:50.000000Z</property>
  <property name="kdenlive:original.meta.attr.1.stream.handler_name.markup">Core Media Audio</property>
  <property name="kdenlive:original.meta.attr.major_brand.markup">qt  </property>
  <property name="kdenlive:original.meta.attr.minor_version.markup">0</property>
  <property name="kdenlive:original.meta.attr.compatible_brands.markup">qt  </property>
  <property name="kdenlive:original.meta.attr.creation_time.markup">2020-06-22T19:39:50.000000Z</property>
  <property name="kdenlive:original.meta.attr.com.apple.quicktime.make.markup">Apple</property>
  <property name="kdenlive:original.meta.attr.com.apple.quicktime.model.markup">iPhone XS</property>
  <property name="kdenlive:original.meta.attr.com.apple.quicktime.software.markup">13.5.1</property>
  <property name="kdenlive:original.meta.attr.com.apple.quicktime.creationdate.markup">2020-06-22T21:39:50+0200</property>
  <property name="kdenlive:original.seekable">1</property>
  <property name="kdenlive:original.width">1920</property>
  <property name="kdenlive:original.height">1080</property>
  <property name="kdenlive:original.meta.media.sample_aspect_num">1</property>
  <property name="kdenlive:original.meta.media.sample_aspect_den">1</property>
  <property name="kdenlive:original.aspect_ratio">1</property>
  <property name="kdenlive:original.audio_index">1</property>
  <property name="kdenlive:original.video_index">0</property>
  <property name="kdenlive:original.mute_on_pause">0</property>
  <property name="kdenlive:original.mlt_service">avformat-novalidate</property>
  <property name="kdenlive:original.kdenlive:folderid">-1</property>
  <property name="kdenlive:original.meta.media.frame_rate_num">228600</property>
  <property name="kdenlive:original.meta.media.frame_rate_den">7627</property>
  <property name="kdenlive:original.meta.media.colorspace">709</property>
  <property name="kdenlive:original.meta.media.color_trc">1</property>
  <property name="kdenlive:original.meta.media.width">1920</property>
  <property name="kdenlive:original.meta.media.height">1080</property>
  <property name="kdenlive:original.meta.media.color_range">mpeg</property>
  <property name="kdenlive:original.kdenlive:id">22</property>
  <property name="kdenlive:original.kdenlive:file_size">12943677</property>
  <property name="kdenlive:original.kdenlive:file_hash">2f301a96ec656cbb5c30dd7cb26ab48f</property>
  <property name="kdenlive:original.backup">1</property>
  <property name="global_feed">1</property>
  <property name="meta.media.nb_streams">2</property>
  <property name="meta.media.0.stream.type">video</property>
  <property name="meta.media.0.stream.frame_rate">29.97</property>
  <property name="meta.media.0.stream.sample_aspect_ratio">0</property>
  <property name="meta.media.0.codec.width">640</property>
  <property name="meta.media.0.codec.height">360</property>
  <property name="meta.media.0.codec.rotate">0</property>
  <property name="meta.media.0.codec.frame_rate">29.97</property>
  <property name="meta.media.0.codec.pix_fmt">yuv420p</property>
  <property name="meta.media.0.codec.sample_aspect_ratio">1</property>
  <property name="meta.media.0.codec.colorspace">601</property>
  <property name="meta.media.0.codec.name">h264</property>
  <property name="meta.media.0.codec.long_name">H.264 / AVC / MPEG-4 AVC / MPEG-4 part 10</property>
  <property name="meta.media.0.codec.bit_rate">7288471</property>
  <property name="meta.attr.0.stream.handler_name.markup">Core Media Video</property>
  <property name="meta.attr.0.stream.encoder.markup">Lavc58.106.100 h264_nvenc</property>
  <property name="meta.media.1.stream.type">audio</property>
  <property name="meta.media.1.codec.sample_fmt">fltp</property>
  <property name="meta.media.1.codec.sample_rate">44100</property>
  <property name="meta.media.1.codec.channels">2</property>
  <property name="meta.media.1.codec.name">aac</property>
  <property name="meta.media.1.codec.long_name">AAC (Advanced Audio Coding)</property>
  <property name="meta.media.1.codec.bit_rate">174718</property>
  <property name="meta.attr.1.stream.handler_name.markup">Core Media Audio</property>
  <property name="meta.attr.major_brand.markup">qt  </property>
  <property name="meta.attr.minor_version.markup">512</property>
  <property name="meta.attr.compatible_brands.markup">qt  </property>
  <property name="meta.attr.encoder.markup">Lavf58.58.100</property>
  <property name="meta.media.sample_aspect_num">1</property>
  <property name="meta.media.sample_aspect_den">1</property>
  <property name="meta.media.frame_rate_num">30000</property>
  <property name="meta.media.frame_rate_den">1001</property>
  <property name="meta.media.colorspace">601</property>
  <property name="meta.media.color_trc">2</property>
  <property name="meta.media.width">640</property>
  <property name="meta.media.height">360</property>
  <property name="meta.media.color_range">mpeg</property>
  <property name="meta.media.top_field_first">0</property>
  <property name="meta.media.progressive">1</property>
  <property name="kdenlive:audio_max">11</property>
 </producer>
 <producer id="producer21" in="00:00:00.000" out="00:00:09.040">
  <property name="length">227</property>
  <property name="eof">pause</property>
  <property name="resource">/home/chiller/.cache/kdenlive/proxy/e6d5882d2219cc06d1544a791e64c204.mov</property>
  <property name="audio_index">1</property>
  <property name="video_index">0</property>
  <property name="mute_on_pause">0</property>
  <property name="mlt_service">avformat-novalidate</property>
  <property name="seekable">1</property>
  <property name="aspect_ratio">1</property>
  <property name="kdenlive:clipname">oldeburg_door.mov</property>
  <property name="kdenlive:folderid">-1</property>
  <property name="kdenlive:id">23</property>
  <property name="kdenlive:file_size">9144489</property>
  <property name="kdenlive:file_hash">e6d5882d2219cc06d1544a791e64c204</property>
  <property name="kdenlive:proxy">/home/chiller/.cache/kdenlive/proxy/e6d5882d2219cc06d1544a791e64c204.mov</property>
  <property name="kdenlive:originalurl">mov/travel/oldeburg_door.mov</property>
  <property name="kdenlive:original.mlt_type">producer</property>
  <property name="kdenlive:original.in">0</property>
  <property name="kdenlive:original.out">226</property>
  <property name="kdenlive:original.length">227</property>
  <property name="kdenlive:original.eof">pause</property>
  <property name="kdenlive:original.resource">mov/travel/oldeburg_door.mov</property>
  <property name="kdenlive:original.meta.media.nb_streams">5</property>
  <property name="kdenlive:original.meta.media.0.stream.type">video</property>
  <property name="kdenlive:original.meta.media.0.stream.frame_rate">29.9725</property>
  <property name="kdenlive:original.meta.media.0.stream.sample_aspect_ratio">0</property>
  <property name="kdenlive:original.meta.media.0.codec.width">1920</property>
  <property name="kdenlive:original.meta.media.0.codec.height">1080</property>
  <property name="kdenlive:original.meta.media.0.codec.rotate">0</property>
  <property name="kdenlive:original.meta.media.0.codec.frame_rate">600</property>
  <property name="kdenlive:original.meta.media.0.codec.pix_fmt">yuv420p</property>
  <property name="kdenlive:original.meta.media.0.codec.sample_aspect_ratio">0</property>
  <property name="kdenlive:original.meta.media.0.codec.colorspace">709</property>
  <property name="kdenlive:original.meta.media.0.codec.color_trc">1</property>
  <property name="kdenlive:original.meta.media.0.codec.name">hevc</property>
  <property name="kdenlive:original.meta.media.0.codec.long_name">HEVC (High Efficiency Video Coding)</property>
  <property name="kdenlive:original.meta.media.0.codec.bit_rate">7855549</property>
  <property name="kdenlive:original.meta.attr.0.stream.creation_time.markup">2020-02-18T14:30:00.000000Z</property>
  <property name="kdenlive:original.meta.attr.0.stream.handler_name.markup">Core Media Video</property>
  <property name="kdenlive:original.meta.attr.0.stream.encoder.markup">HEVC</property>
  <property name="kdenlive:original.meta.media.1.stream.type">audio</property>
  <property name="kdenlive:original.meta.media.1.codec.sample_fmt">fltp</property>
  <property name="kdenlive:original.meta.media.1.codec.sample_rate">44100</property>
  <property name="kdenlive:original.meta.media.1.codec.channels">2</property>
  <property name="kdenlive:original.meta.media.1.codec.name">aac</property>
  <property name="kdenlive:original.meta.media.1.codec.long_name">AAC (Advanced Audio Coding)</property>
  <property name="kdenlive:original.meta.media.1.codec.bit_rate">176059</property>
  <property name="kdenlive:original.meta.attr.1.stream.creation_time.markup">2020-02-18T14:30:00.000000Z</property>
  <property name="kdenlive:original.meta.attr.1.stream.handler_name.markup">Core Media Audio</property>
  <property name="kdenlive:original.meta.attr.major_brand.markup">qt  </property>
  <property name="kdenlive:original.meta.attr.minor_version.markup">0</property>
  <property name="kdenlive:original.meta.attr.compatible_brands.markup">qt  </property>
  <property name="kdenlive:original.meta.attr.creation_time.markup">2020-02-18T14:30:00.000000Z</property>
  <property name="kdenlive:original.meta.attr.com.apple.quicktime.make.markup">Apple</property>
  <property name="kdenlive:original.meta.attr.com.apple.quicktime.model.markup">iPhone XS</property>
  <property name="kdenlive:original.meta.attr.com.apple.quicktime.software.markup">13.3.1</property>
  <property name="kdenlive:original.meta.attr.com.apple.quicktime.creationdate.markup">2020-02-18T15:29:59+0100</property>
  <property name="kdenlive:original.seekable">1</property>
  <property name="kdenlive:original.width">1920</property>
  <property name="kdenlive:original.height">1080</property>
  <property name="kdenlive:original.meta.media.sample_aspect_num">1</property>
  <property name="kdenlive:original.meta.media.sample_aspect_den">1</property>
  <property name="kdenlive:original.aspect_ratio">1</property>
  <property name="kdenlive:original.audio_index">1</property>
  <property name="kdenlive:original.video_index">0</property>
  <property name="kdenlive:original.mute_on_pause">0</property>
  <property name="kdenlive:original.mlt_service">avformat-novalidate</property>
  <property name="kdenlive:original.kdenlive:folderid">-1</property>
  <property name="kdenlive:original.meta.media.frame_rate_num">10880</property>
  <property name="kdenlive:original.meta.media.frame_rate_den">363</property>
  <property name="kdenlive:original.meta.media.colorspace">709</property>
  <property name="kdenlive:original.meta.media.color_trc">1</property>
  <property name="kdenlive:original.meta.media.width">1920</property>
  <property name="kdenlive:original.meta.media.height">1080</property>
  <property name="kdenlive:original.meta.media.color_range">mpeg</property>
  <property name="kdenlive:original.kdenlive:id">23</property>
  <property name="kdenlive:original.kdenlive:file_size">9144489</property>
  <property name="kdenlive:original.kdenlive:file_hash">e6d5882d2219cc06d1544a791e64c204</property>
  <property name="kdenlive:original.backup">1</property>
  <property name="global_feed">1</property>
  <property name="meta.media.nb_streams">2</property>
  <property name="meta.media.0.stream.type">video</property>
  <property name="meta.media.0.stream.frame_rate">29.97</property>
  <property name="meta.media.0.stream.sample_aspect_ratio">0</property>
  <property name="meta.media.0.codec.width">640</property>
  <property name="meta.media.0.codec.height">360</property>
  <property name="meta.media.0.codec.rotate">0</property>
  <property name="meta.media.0.codec.frame_rate">29.97</property>
  <property name="meta.media.0.codec.pix_fmt">yuv420p</property>
  <property name="meta.media.0.codec.sample_aspect_ratio">1</property>
  <property name="meta.media.0.codec.colorspace">601</property>
  <property name="meta.media.0.codec.name">h264</property>
  <property name="meta.media.0.codec.long_name">H.264 / AVC / MPEG-4 AVC / MPEG-4 part 10</property>
  <property name="meta.media.0.codec.bit_rate">5279724</property>
  <property name="meta.attr.0.stream.handler_name.markup">Core Media Video</property>
  <property name="meta.attr.0.stream.encoder.markup">Lavc58.106.100 h264_nvenc</property>
  <property name="meta.media.1.stream.type">audio</property>
  <property name="meta.media.1.codec.sample_fmt">fltp</property>
  <property name="meta.media.1.codec.sample_rate">44100</property>
  <property name="meta.media.1.codec.channels">2</property>
  <property name="meta.media.1.codec.name">aac</property>
  <property name="meta.media.1.codec.long_name">AAC (Advanced Audio Coding)</property>
  <property name="meta.media.1.codec.bit_rate">176460</property>
  <property name="meta.attr.1.stream.handler_name.markup">Core Media Audio</property>
  <property name="meta.attr.major_brand.markup">qt  </property>
  <property name="meta.attr.minor_version.markup">512</property>
  <property name="meta.attr.compatible_brands.markup">qt  </property>
  <property name="meta.attr.encoder.markup">Lavf58.58.100</property>
  <property name="meta.media.sample_aspect_num">1</property>
  <property name="meta.media.sample_aspect_den">1</property>
  <property name="meta.media.frame_rate_num">30000</property>
  <property name="meta.media.frame_rate_den">1001</property>
  <property name="meta.media.colorspace">601</property>
  <property name="meta.media.color_trc">2</property>
  <property name="meta.media.width">640</property>
  <property name="meta.media.height">360</property>
  <property name="meta.media.color_range">mpeg</property>
  <property name="meta.media.top_field_first">0</property>
  <property name="meta.media.progressive">1</property>
  <property name="kdenlive:audio_max">5</property>
 </producer>
 <producer id="producer22" in="00:00:00.000" out="00:00:13.560">
  <property name="length">340</property>
  <property name="eof">pause</property>
  <property name="resource">/home/chiller/.cache/kdenlive/proxy/ac215e462ddf9214c5ef1add5316605a.mov</property>
  <property name="audio_index">1</property>
  <property name="video_index">0</property>
  <property name="mute_on_pause">0</property>
  <property name="mlt_service">avformat-novalidate</property>
  <property name="seekable">1</property>
  <property name="aspect_ratio">1</property>
  <property name="kdenlive:clipname">plane.mov</property>
  <property name="kdenlive:folderid">-1</property>
  <property name="kdenlive:id">24</property>
  <property name="kdenlive:file_size">16296561</property>
  <property name="kdenlive:file_hash">ac215e462ddf9214c5ef1add5316605a</property>
  <property name="kdenlive:proxy">/home/chiller/.cache/kdenlive/proxy/ac215e462ddf9214c5ef1add5316605a.mov</property>
  <property name="kdenlive:originalurl">mov/travel/plane.mov</property>
  <property name="kdenlive:original.mlt_type">producer</property>
  <property name="kdenlive:original.in">0</property>
  <property name="kdenlive:original.out">339</property>
  <property name="kdenlive:original.length">340</property>
  <property name="kdenlive:original.eof">pause</property>
  <property name="kdenlive:original.resource">mov/travel/plane.mov</property>
  <property name="kdenlive:original.meta.media.nb_streams">4</property>
  <property name="kdenlive:original.meta.media.0.stream.type">video</property>
  <property name="kdenlive:original.meta.media.0.stream.frame_rate">29.9743</property>
  <property name="kdenlive:original.meta.media.0.stream.sample_aspect_ratio">0</property>
  <property name="kdenlive:original.meta.media.0.codec.width">1920</property>
  <property name="kdenlive:original.meta.media.0.codec.height">1080</property>
  <property name="kdenlive:original.meta.media.0.codec.rotate">0</property>
  <property name="kdenlive:original.meta.media.0.codec.frame_rate">600</property>
  <property name="kdenlive:original.meta.media.0.codec.pix_fmt">yuv420p</property>
  <property name="kdenlive:original.meta.media.0.codec.sample_aspect_ratio">0</property>
  <property name="kdenlive:original.meta.media.0.codec.colorspace">709</property>
  <property name="kdenlive:original.meta.media.0.codec.color_trc">1</property>
  <property name="kdenlive:original.meta.media.0.codec.name">hevc</property>
  <property name="kdenlive:original.meta.media.0.codec.long_name">HEVC (High Efficiency Video Coding)</property>
  <property name="kdenlive:original.meta.media.0.codec.bit_rate">9369876</property>
  <property name="kdenlive:original.meta.attr.0.stream.creation_time.markup">2019-08-20T13:47:16.000000Z</property>
  <property name="kdenlive:original.meta.attr.0.stream.handler_name.markup">Core Media Video</property>
  <property name="kdenlive:original.meta.attr.0.stream.encoder.markup">HEVC</property>
  <property name="kdenlive:original.meta.media.1.stream.type">audio</property>
  <property name="kdenlive:original.meta.media.1.codec.sample_fmt">fltp</property>
  <property name="kdenlive:original.meta.media.1.codec.sample_rate">44100</property>
  <property name="kdenlive:original.meta.media.1.codec.channels">2</property>
  <property name="kdenlive:original.meta.media.1.codec.name">aac</property>
  <property name="kdenlive:original.meta.media.1.codec.long_name">AAC (Advanced Audio Coding)</property>
  <property name="kdenlive:original.meta.media.1.codec.bit_rate">190701</property>
  <property name="kdenlive:original.meta.attr.1.stream.creation_time.markup">2019-08-20T13:47:16.000000Z</property>
  <property name="kdenlive:original.meta.attr.1.stream.handler_name.markup">Core Media Audio</property>
  <property name="kdenlive:original.meta.attr.major_brand.markup">qt  </property>
  <property name="kdenlive:original.meta.attr.minor_version.markup">0</property>
  <property name="kdenlive:original.meta.attr.compatible_brands.markup">qt  </property>
  <property name="kdenlive:original.meta.attr.creation_time.markup">2019-08-20T13:47:16.000000Z</property>
  <property name="kdenlive:original.meta.attr.com.apple.quicktime.make.markup">Apple</property>
  <property name="kdenlive:original.meta.attr.com.apple.quicktime.model.markup">iPhone XS</property>
  <property name="kdenlive:original.meta.attr.com.apple.quicktime.software.markup">12.4</property>
  <property name="kdenlive:original.meta.attr.com.apple.quicktime.creationdate.markup">2019-08-20T15:47:16+0200</property>
  <property name="kdenlive:original.seekable">1</property>
  <property name="kdenlive:original.width">1920</property>
  <property name="kdenlive:original.height">1080</property>
  <property name="kdenlive:original.meta.media.sample_aspect_num">1</property>
  <property name="kdenlive:original.meta.media.sample_aspect_den">1</property>
  <property name="kdenlive:original.aspect_ratio">1</property>
  <property name="kdenlive:original.audio_index">1</property>
  <property name="kdenlive:original.video_index">0</property>
  <property name="kdenlive:original.mute_on_pause">0</property>
  <property name="kdenlive:original.mlt_service">avformat-novalidate</property>
  <property name="kdenlive:original.kdenlive:folderid">-1</property>
  <property name="kdenlive:original.meta.media.frame_rate_num">244800</property>
  <property name="kdenlive:original.meta.media.frame_rate_den">8167</property>
  <property name="kdenlive:original.meta.media.colorspace">709</property>
  <property name="kdenlive:original.meta.media.color_trc">1</property>
  <property name="kdenlive:original.meta.media.width">1920</property>
  <property name="kdenlive:original.meta.media.height">1080</property>
  <property name="kdenlive:original.meta.media.color_range">mpeg</property>
  <property name="kdenlive:original.kdenlive:id">24</property>
  <property name="kdenlive:original.kdenlive:file_size">16296561</property>
  <property name="kdenlive:original.kdenlive:file_hash">ac215e462ddf9214c5ef1add5316605a</property>
  <property name="kdenlive:original.backup">1</property>
  <property name="global_feed">1</property>
  <property name="meta.media.nb_streams">2</property>
  <property name="meta.media.0.stream.type">video</property>
  <property name="meta.media.0.stream.frame_rate">29.97</property>
  <property name="meta.media.0.stream.sample_aspect_ratio">0</property>
  <property name="meta.media.0.codec.width">640</property>
  <property name="meta.media.0.codec.height">360</property>
  <property name="meta.media.0.codec.rotate">0</property>
  <property name="meta.media.0.codec.frame_rate">29.97</property>
  <property name="meta.media.0.codec.pix_fmt">yuv420p</property>
  <property name="meta.media.0.codec.sample_aspect_ratio">1</property>
  <property name="meta.media.0.codec.colorspace">601</property>
  <property name="meta.media.0.codec.name">h264</property>
  <property name="meta.media.0.codec.long_name">H.264 / AVC / MPEG-4 AVC / MPEG-4 part 10</property>
  <property name="meta.media.0.codec.bit_rate">5379070</property>
  <property name="meta.attr.0.stream.handler_name.markup">Core Media Video</property>
  <property name="meta.attr.0.stream.encoder.markup">Lavc58.106.100 h264_nvenc</property>
  <property name="meta.media.1.stream.type">audio</property>
  <property name="meta.media.1.codec.sample_fmt">fltp</property>
  <property name="meta.media.1.codec.sample_rate">44100</property>
  <property name="meta.media.1.codec.channels">2</property>
  <property name="meta.media.1.codec.name">aac</property>
  <property name="meta.media.1.codec.long_name">AAC (Advanced Audio Coding)</property>
  <property name="meta.media.1.codec.bit_rate">191285</property>
  <property name="meta.attr.1.stream.handler_name.markup">Core Media Audio</property>
  <property name="meta.attr.major_brand.markup">qt  </property>
  <property name="meta.attr.minor_version.markup">512</property>
  <property name="meta.attr.compatible_brands.markup">qt  </property>
  <property name="meta.attr.encoder.markup">Lavf58.58.100</property>
  <property name="meta.media.sample_aspect_num">1</property>
  <property name="meta.media.sample_aspect_den">1</property>
  <property name="meta.media.frame_rate_num">30000</property>
  <property name="meta.media.frame_rate_den">1001</property>
  <property name="meta.media.colorspace">601</property>
  <property name="meta.media.color_trc">2</property>
  <property name="meta.media.width">640</property>
  <property name="meta.media.height">360</property>
  <property name="meta.media.color_range">mpeg</property>
  <property name="meta.media.top_field_first">0</property>
  <property name="meta.media.progressive">1</property>
  <property name="kdenlive:audio_max">5</property>
 </producer>
 <producer id="producer23" in="00:00:00.000" out="00:00:10.880">
  <property name="length">273</property>
  <property name="eof">pause</property>
  <property name="resource">/home/chiller/.cache/kdenlive/proxy/cb46d3cb7af76bf9d636f4eebc1c6c1e.mov</property>
  <property name="audio_index">1</property>
  <property name="video_index">0</property>
  <property name="mute_on_pause">0</property>
  <property name="mlt_service">avformat-novalidate</property>
  <property name="seekable">1</property>
  <property name="aspect_ratio">1</property>
  <property name="kdenlive:clipname">plane3.mov</property>
  <property name="kdenlive:folderid">-1</property>
  <property name="kdenlive:id">25</property>
  <property name="kdenlive:file_size">13074953</property>
  <property name="kdenlive:file_hash">cb46d3cb7af76bf9d636f4eebc1c6c1e</property>
  <property name="kdenlive:proxy">/home/chiller/.cache/kdenlive/proxy/cb46d3cb7af76bf9d636f4eebc1c6c1e.mov</property>
  <property name="kdenlive:originalurl">mov/travel/plane3.mov</property>
  <property name="kdenlive:original.mlt_type">producer</property>
  <property name="kdenlive:original.in">0</property>
  <property name="kdenlive:original.out">272</property>
  <property name="kdenlive:original.length">273</property>
  <property name="kdenlive:original.eof">pause</property>
  <property name="kdenlive:original.resource">mov/travel/plane3.mov</property>
  <property name="kdenlive:original.meta.media.nb_streams">4</property>
  <property name="kdenlive:original.meta.media.0.stream.type">video</property>
  <property name="kdenlive:original.meta.media.0.stream.frame_rate">29.9725</property>
  <property name="kdenlive:original.meta.media.0.stream.sample_aspect_ratio">0</property>
  <property name="kdenlive:original.meta.media.0.codec.width">1920</property>
  <property name="kdenlive:original.meta.media.0.codec.height">1080</property>
  <property name="kdenlive:original.meta.media.0.codec.rotate">0</property>
  <property name="kdenlive:original.meta.media.0.codec.frame_rate">600</property>
  <property name="kdenlive:original.meta.media.0.codec.pix_fmt">yuv420p</property>
  <property name="kdenlive:original.meta.media.0.codec.sample_aspect_ratio">0</property>
  <property name="kdenlive:original.meta.media.0.codec.colorspace">709</property>
  <property name="kdenlive:original.meta.media.0.codec.color_trc">1</property>
  <property name="kdenlive:original.meta.media.0.codec.name">hevc</property>
  <property name="kdenlive:original.meta.media.0.codec.long_name">HEVC (High Efficiency Video Coding)</property>
  <property name="kdenlive:original.meta.media.0.codec.bit_rate">9387535</property>
  <property name="kdenlive:original.meta.attr.0.stream.creation_time.markup">2019-08-20T13:46:50.000000Z</property>
  <property name="kdenlive:original.meta.attr.0.stream.handler_name.markup">Core Media Video</property>
  <property name="kdenlive:original.meta.attr.0.stream.encoder.markup">HEVC</property>
  <property name="kdenlive:original.meta.media.1.stream.type">audio</property>
  <property name="kdenlive:original.meta.media.1.codec.sample_fmt">fltp</property>
  <property name="kdenlive:original.meta.media.1.codec.sample_rate">44100</property>
  <property name="kdenlive:original.meta.media.1.codec.channels">2</property>
  <property name="kdenlive:original.meta.media.1.codec.name">aac</property>
  <property name="kdenlive:original.meta.media.1.codec.long_name">AAC (Advanced Audio Coding)</property>
  <property name="kdenlive:original.meta.media.1.codec.bit_rate">189316</property>
  <property name="kdenlive:original.meta.attr.1.stream.creation_time.markup">2019-08-20T13:46:50.000000Z</property>
  <property name="kdenlive:original.meta.attr.1.stream.handler_name.markup">Core Media Audio</property>
  <property name="kdenlive:original.meta.attr.major_brand.markup">qt  </property>
  <property name="kdenlive:original.meta.attr.minor_version.markup">0</property>
  <property name="kdenlive:original.meta.attr.compatible_brands.markup">qt  </property>
  <property name="kdenlive:original.meta.attr.creation_time.markup">2019-08-20T13:46:50.000000Z</property>
  <property name="kdenlive:original.meta.attr.com.apple.quicktime.make.markup">Apple</property>
  <property name="kdenlive:original.meta.attr.com.apple.quicktime.model.markup">iPhone XS</property>
  <property name="kdenlive:original.meta.attr.com.apple.quicktime.software.markup">12.4</property>
  <property name="kdenlive:original.meta.attr.com.apple.quicktime.creationdate.markup">2019-08-20T15:46:50+0200</property>
  <property name="kdenlive:original.seekable">1</property>
  <property name="kdenlive:original.width">1920</property>
  <property name="kdenlive:original.height">1080</property>
  <property name="kdenlive:original.meta.media.sample_aspect_num">1</property>
  <property name="kdenlive:original.meta.media.sample_aspect_den">1</property>
  <property name="kdenlive:original.aspect_ratio">1</property>
  <property name="kdenlive:original.audio_index">1</property>
  <property name="kdenlive:original.video_index">0</property>
  <property name="kdenlive:original.mute_on_pause">0</property>
  <property name="kdenlive:original.mlt_service">avformat-novalidate</property>
  <property name="kdenlive:original.kdenlive:folderid">-1</property>
  <property name="kdenlive:original.meta.media.frame_rate_num">32700</property>
  <property name="kdenlive:original.meta.media.frame_rate_den">1091</property>
  <property name="kdenlive:original.meta.media.colorspace">709</property>
  <property name="kdenlive:original.meta.media.color_trc">1</property>
  <property name="kdenlive:original.meta.media.width">1920</property>
  <property name="kdenlive:original.meta.media.height">1080</property>
  <property name="kdenlive:original.meta.media.color_range">mpeg</property>
  <property name="kdenlive:original.kdenlive:id">25</property>
  <property name="kdenlive:original.kdenlive:file_size">13074953</property>
  <property name="kdenlive:original.kdenlive:file_hash">cb46d3cb7af76bf9d636f4eebc1c6c1e</property>
  <property name="kdenlive:original.backup">1</property>
  <property name="global_feed">1</property>
  <property name="meta.media.nb_streams">2</property>
  <property name="meta.media.0.stream.type">video</property>
  <property name="meta.media.0.stream.frame_rate">29.97</property>
  <property name="meta.media.0.stream.sample_aspect_ratio">0</property>
  <property name="meta.media.0.codec.width">640</property>
  <property name="meta.media.0.codec.height">360</property>
  <property name="meta.media.0.codec.rotate">0</property>
  <property name="meta.media.0.codec.frame_rate">29.97</property>
  <property name="meta.media.0.codec.pix_fmt">yuv420p</property>
  <property name="meta.media.0.codec.sample_aspect_ratio">1</property>
  <property name="meta.media.0.codec.colorspace">601</property>
  <property name="meta.media.0.codec.name">h264</property>
  <property name="meta.media.0.codec.long_name">H.264 / AVC / MPEG-4 AVC / MPEG-4 part 10</property>
  <property name="meta.media.0.codec.bit_rate">5982783</property>
  <property name="meta.attr.0.stream.handler_name.markup">Core Media Video</property>
  <property name="meta.attr.0.stream.encoder.markup">Lavc58.106.100 h264_nvenc</property>
  <property name="meta.media.1.stream.type">audio</property>
  <property name="meta.media.1.codec.sample_fmt">fltp</property>
  <property name="meta.media.1.codec.sample_rate">44100</property>
  <property name="meta.media.1.codec.channels">2</property>
  <property name="meta.media.1.codec.name">aac</property>
  <property name="meta.media.1.codec.long_name">AAC (Advanced Audio Coding)</property>
  <property name="meta.media.1.codec.bit_rate">189567</property>
  <property name="meta.attr.1.stream.handler_name.markup">Core Media Audio</property>
  <property name="meta.attr.major_brand.markup">qt  </property>
  <property name="meta.attr.minor_version.markup">512</property>
  <property name="meta.attr.compatible_brands.markup">qt  </property>
  <property name="meta.attr.encoder.markup">Lavf58.58.100</property>
  <property name="meta.media.sample_aspect_num">1</property>
  <property name="meta.media.sample_aspect_den">1</property>
  <property name="meta.media.frame_rate_num">30000</property>
  <property name="meta.media.frame_rate_den">1001</property>
  <property name="meta.media.colorspace">601</property>
  <property name="meta.media.color_trc">2</property>
  <property name="meta.media.width">640</property>
  <property name="meta.media.height">360</property>
  <property name="meta.media.color_range">mpeg</property>
  <property name="meta.media.top_field_first">0</property>
  <property name="meta.media.progressive">1</property>
  <property name="kdenlive:audio_max">6</property>
 </producer>
 <producer id="producer24" in="00:00:00.000" out="00:00:19.400">
  <property name="length">486</property>
  <property name="eof">pause</property>
  <property name="resource">/home/chiller/.cache/kdenlive/proxy/10ed6899b4aff20bfe1498d73d916fd1.mov</property>
  <property name="audio_index">1</property>
  <property name="video_index">0</property>
  <property name="mute_on_pause">0</property>
  <property name="mlt_service">avformat-novalidate</property>
  <property name="seekable">1</property>
  <property name="aspect_ratio">1</property>
  <property name="kdenlive:clipname">BF4316B2-5D95-4667-9A74-CD86FE5CEBF5.mov</property>
  <property name="kdenlive:folderid">-1</property>
  <property name="kdenlive:id">26</property>
  <property name="kdenlive:file_size">27499434</property>
  <property name="kdenlive:file_hash">10ed6899b4aff20bfe1498d73d916fd1</property>
  <property name="kdenlive:proxy">/home/chiller/.cache/kdenlive/proxy/10ed6899b4aff20bfe1498d73d916fd1.mov</property>
  <property name="kdenlive:originalurl">mov/party/BF4316B2-5D95-4667-9A74-CD86FE5CEBF5.mov</property>
  <property name="kdenlive:original.mlt_type">producer</property>
  <property name="kdenlive:original.in">0</property>
  <property name="kdenlive:original.out">485</property>
  <property name="kdenlive:original.length">486</property>
  <property name="kdenlive:original.eof">pause</property>
  <property name="kdenlive:original.resource">mov/party/BF4316B2-5D95-4667-9A74-CD86FE5CEBF5.mov</property>
  <property name="kdenlive:original.meta.media.nb_streams">5</property>
  <property name="kdenlive:original.meta.media.0.stream.type">video</property>
  <property name="kdenlive:original.meta.media.0.stream.frame_rate">29.9743</property>
  <property name="kdenlive:original.meta.media.0.stream.sample_aspect_ratio">0</property>
  <property name="kdenlive:original.meta.media.0.codec.width">1920</property>
  <property name="kdenlive:original.meta.media.0.codec.height">1080</property>
  <property name="kdenlive:original.meta.media.0.codec.rotate">0</property>
  <property name="kdenlive:original.meta.media.0.codec.frame_rate">600</property>
  <property name="kdenlive:original.meta.media.0.codec.pix_fmt">yuv420p</property>
  <property name="kdenlive:original.meta.media.0.codec.sample_aspect_ratio">0</property>
  <property name="kdenlive:original.meta.media.0.codec.colorspace">709</property>
  <property name="kdenlive:original.meta.media.0.codec.color_trc">1</property>
  <property name="kdenlive:original.meta.media.0.codec.name">hevc</property>
  <property name="kdenlive:original.meta.media.0.codec.long_name">HEVC (High Efficiency Video Coding)</property>
  <property name="kdenlive:original.meta.media.0.codec.bit_rate">11090609</property>
  <property name="kdenlive:original.meta.attr.0.stream.creation_time.markup">2020-09-13T00:30:12.000000Z</property>
  <property name="kdenlive:original.meta.attr.0.stream.handler_name.markup">Core Media Video</property>
  <property name="kdenlive:original.meta.attr.0.stream.encoder.markup">HEVC</property>
  <property name="kdenlive:original.meta.media.1.stream.type">audio</property>
  <property name="kdenlive:original.meta.media.1.codec.sample_fmt">fltp</property>
  <property name="kdenlive:original.meta.media.1.codec.sample_rate">44100</property>
  <property name="kdenlive:original.meta.media.1.codec.channels">2</property>
  <property name="kdenlive:original.meta.media.1.codec.name">aac</property>
  <property name="kdenlive:original.meta.media.1.codec.long_name">AAC (Advanced Audio Coding)</property>
  <property name="kdenlive:original.meta.media.1.codec.bit_rate">186767</property>
  <property name="kdenlive:original.meta.attr.1.stream.creation_time.markup">2020-09-13T00:30:12.000000Z</property>
  <property name="kdenlive:original.meta.attr.1.stream.handler_name.markup">Core Media Audio</property>
  <property name="kdenlive:original.meta.attr.major_brand.markup">qt  </property>
  <property name="kdenlive:original.meta.attr.minor_version.markup">0</property>
  <property name="kdenlive:original.meta.attr.compatible_brands.markup">qt  </property>
  <property name="kdenlive:original.meta.attr.creation_time.markup">2020-09-13T00:30:12.000000Z</property>
  <property name="kdenlive:original.meta.attr.com.apple.quicktime.make.markup">Apple</property>
  <property name="kdenlive:original.meta.attr.com.apple.quicktime.model.markup">iPhone XS</property>
  <property name="kdenlive:original.meta.attr.com.apple.quicktime.software.markup">13.6.1</property>
  <property name="kdenlive:original.meta.attr.com.apple.quicktime.creationdate.markup">2020-09-13T02:30:11+0200</property>
  <property name="kdenlive:original.seekable">1</property>
  <property name="kdenlive:original.width">1920</property>
  <property name="kdenlive:original.height">1080</property>
  <property name="kdenlive:original.meta.media.sample_aspect_num">1</property>
  <property name="kdenlive:original.meta.media.sample_aspect_den">1</property>
  <property name="kdenlive:original.aspect_ratio">1</property>
  <property name="kdenlive:original.audio_index">1</property>
  <property name="kdenlive:original.video_index">0</property>
  <property name="kdenlive:original.mute_on_pause">0</property>
  <property name="kdenlive:original.mlt_service">avformat-novalidate</property>
  <property name="kdenlive:original.kdenlive:folderid">-1</property>
  <property name="kdenlive:original.meta.media.frame_rate_num">11660</property>
  <property name="kdenlive:original.meta.media.frame_rate_den">389</property>
  <property name="kdenlive:original.meta.media.colorspace">709</property>
  <property name="kdenlive:original.meta.media.color_trc">1</property>
  <property name="kdenlive:original.meta.media.width">1920</property>
  <property name="kdenlive:original.meta.media.height">1080</property>
  <property name="kdenlive:original.meta.media.color_range">mpeg</property>
  <property name="kdenlive:original.kdenlive:id">26</property>
  <property name="kdenlive:original.kdenlive:file_size">27499434</property>
  <property name="kdenlive:original.kdenlive:file_hash">10ed6899b4aff20bfe1498d73d916fd1</property>
  <property name="kdenlive:original.backup">1</property>
  <property name="global_feed">1</property>
  <property name="meta.media.nb_streams">2</property>
  <property name="meta.media.0.stream.type">video</property>
  <property name="meta.media.0.stream.frame_rate">29.97</property>
  <property name="meta.media.0.stream.sample_aspect_ratio">0</property>
  <property name="meta.media.0.codec.width">640</property>
  <property name="meta.media.0.codec.height">360</property>
  <property name="meta.media.0.codec.rotate">0</property>
  <property name="meta.media.0.codec.frame_rate">29.97</property>
  <property name="meta.media.0.codec.pix_fmt">yuv420p</property>
  <property name="meta.media.0.codec.sample_aspect_ratio">1</property>
  <property name="meta.media.0.codec.colorspace">601</property>
  <property name="meta.media.0.codec.name">h264</property>
  <property name="meta.media.0.codec.long_name">H.264 / AVC / MPEG-4 AVC / MPEG-4 part 10</property>
  <property name="meta.media.0.codec.bit_rate">5730628</property>
  <property name="meta.attr.0.stream.handler_name.markup">Core Media Video</property>
  <property name="meta.attr.0.stream.encoder.markup">Lavc58.106.100 h264_nvenc</property>
  <property name="meta.media.1.stream.type">audio</property>
  <property name="meta.media.1.codec.sample_fmt">fltp</property>
  <property name="meta.media.1.codec.sample_rate">44100</property>
  <property name="meta.media.1.codec.channels">2</property>
  <property name="meta.media.1.codec.name">aac</property>
  <property name="meta.media.1.codec.long_name">AAC (Advanced Audio Coding)</property>
  <property name="meta.media.1.codec.bit_rate">186946</property>
  <property name="meta.attr.1.stream.handler_name.markup">Core Media Audio</property>
  <property name="meta.attr.major_brand.markup">qt  </property>
  <property name="meta.attr.minor_version.markup">512</property>
  <property name="meta.attr.compatible_brands.markup">qt  </property>
  <property name="meta.attr.encoder.markup">Lavf58.58.100</property>
  <property name="meta.media.sample_aspect_num">1</property>
  <property name="meta.media.sample_aspect_den">1</property>
  <property name="meta.media.frame_rate_num">30000</property>
  <property name="meta.media.frame_rate_den">1001</property>
  <property name="meta.media.colorspace">601</property>
  <property name="meta.media.color_trc">2</property>
  <property name="meta.media.width">640</property>
  <property name="meta.media.height">360</property>
  <property name="meta.media.color_range">mpeg</property>
  <property name="meta.media.top_field_first">0</property>
  <property name="meta.media.progressive">1</property>
  <property name="kdenlive:audio_max">1</property>
 </producer>
 <producer id="producer25" in="00:00:00.000" out="00:00:22.480">
  <property name="length">563</property>
  <property name="eof">pause</property>
  <property name="resource">img/tee_eye.png</property>
  <property name="ttl">25</property>
  <property name="aspect_ratio">1</property>
  <property name="progressive">1</property>
  <property name="seekable">1</property>
  <property name="meta.media.width">399</property>
  <property name="meta.media.height">697</property>
  <property name="mlt_service">qimage</property>
  <property name="kdenlive:clipname"/>
  <property name="kdenlive:duration">00:00:05.000</property>
  <property name="kdenlive:folderid">-1</property>
  <property name="kdenlive:id">27</property>
  <property name="kdenlive:file_size">11113</property>
  <property name="kdenlive:file_hash">0d1823c3d8d48c0804fbd268c6345990</property>
 </producer>
 <producer id="producer26" in="00:00:00.000" out="00:00:04.960">
  <property name="length">00:00:05.000</property>
  <property name="eof">pause</property>
  <property name="resource">img/tw/tree_stump.png</property>
  <property name="ttl">25</property>
  <property name="aspect_ratio">1</property>
  <property name="progressive">1</property>
  <property name="seekable">1</property>
  <property name="meta.media.width">2048</property>
  <property name="meta.media.height">1069</property>
  <property name="mlt_service">qimage</property>
  <property name="kdenlive:clipname"/>
  <property name="kdenlive:duration">00:00:05.000</property>
  <property name="kdenlive:folderid">-1</property>
  <property name="kdenlive:id">28</property>
  <property name="kdenlive:file_size">53899</property>
  <property name="kdenlive:file_hash">61ee8079059d9da1384425d100e96c77</property>
 </producer>
 <producer id="producer27" in="00:00:00.000" out="00:00:04.960">
  <property name="length">00:00:05.000</property>
  <property name="eof">pause</property>
  <property name="resource">img/tw/tree_curved.png</property>
  <property name="ttl">25</property>
  <property name="aspect_ratio">1</property>
  <property name="progressive">1</property>
  <property name="seekable">1</property>
  <property name="meta.media.width">4096</property>
  <property name="meta.media.height">4096</property>
  <property name="mlt_service">qimage</property>
  <property name="kdenlive:clipname"/>
  <property name="kdenlive:duration">00:00:05.000</property>
  <property name="kdenlive:folderid">-1</property>
  <property name="kdenlive:id">29</property>
  <property name="kdenlive:file_size">306933</property>
  <property name="kdenlive:file_hash">daaaed375f285a5ff6f1d804c7a384ed</property>
 </producer>
 <producer id="producer28" in="00:00:00.000" out="00:00:05.640">
  <property name="length">142</property>
  <property name="eof">pause</property>
  <property name="resource">img/tw/grass1.png</property>
  <property name="ttl">25</property>
  <property name="aspect_ratio">1</property>
  <property name="progressive">1</property>
  <property name="seekable">1</property>
  <property name="meta.media.width">2050</property>
  <property name="meta.media.height">410</property>
  <property name="mlt_service">qimage</property>
  <property name="kdenlive:clipname"/>
  <property name="kdenlive:duration">00:00:05.000</property>
  <property name="kdenlive:folderid">-1</property>
  <property name="kdenlive:id">30</property>
  <property name="kdenlive:file_size">25958</property>
  <property name="kdenlive:file_hash">1252cf140a9888a21060c1bc52734238</property>
 </producer>
 <producer id="producer29" in="00:00:00.000" out="00:00:07.840">
  <property name="length">197</property>
  <property name="eof">pause</property>
  <property name="resource">img/tees/twinbop.png</property>
  <property name="ttl">25</property>
  <property name="aspect_ratio">1</property>
  <property name="progressive">1</property>
  <property name="seekable">1</property>
  <property name="meta.media.width">302</property>
  <property name="meta.media.height">318</property>
  <property name="mlt_service">qimage</property>
  <property name="kdenlive:clipname"/>
  <property name="kdenlive:duration">00:00:05.000</property>
  <property name="kdenlive:folderid">-1</property>
  <property name="kdenlive:id">31</property>
  <property name="kdenlive:file_size">28265</property>
  <property name="kdenlive:file_hash">f00dd4b0757a266a8897103630c7c1c5</property>
 </producer>
 <producer id="producer30" in="00:00:00.000" out="00:00:07.840">
  <property name="length">197</property>
  <property name="eof">pause</property>
  <property name="resource">img/tees/saddo.png</property>
  <property name="ttl">25</property>
  <property name="aspect_ratio">1</property>
  <property name="progressive">1</property>
  <property name="seekable">1</property>
  <property name="meta.media.width">119</property>
  <property name="meta.media.height">123</property>
  <property name="mlt_service">qimage</property>
  <property name="kdenlive:clipname"/>
  <property name="kdenlive:duration">00:00:05.000</property>
  <property name="kdenlive:folderid">-1</property>
  <property name="kdenlive:id">32</property>
  <property name="kdenlive:file_size">5793</property>
  <property name="kdenlive:file_hash">648ceaa436938ac4a19d94a3952dbb73</property>
 </producer>
 <producer id="producer35" in="00:00:00.000" out="00:00:07.840">
  <property name="length">00:00:07.880</property>
  <property name="eof">pause</property>
  <property name="resource">img/tees/pinky.png</property>
  <property name="ttl">25</property>
  <property name="aspect_ratio">1</property>
  <property name="progressive">1</property>
  <property name="seekable">1</property>
  <property name="meta.media.width">119</property>
  <property name="meta.media.height">123</property>
  <property name="mlt_service">qimage</property>
  <property name="kdenlive:clipname"/>
  <property name="kdenlive:duration">00:00:05.000</property>
  <property name="kdenlive:folderid">-1</property>
  <property name="kdenlive:id">33</property>
  <property name="kdenlive:file_size">8817</property>
  <property name="kdenlive:file_hash">2c1ec2ff9dd418a6631f00760ca0dc8d</property>
  <property name="global_feed">1</property>
 </producer>
 <producer id="producer34" in="00:00:00.000" out="00:00:07.840">
  <property name="length">00:00:07.880</property>
  <property name="eof">pause</property>
  <property name="resource">img/tees/brownbear.png</property>
  <property name="ttl">25</property>
  <property name="aspect_ratio">1</property>
  <property name="progressive">1</property>
  <property name="seekable">1</property>
  <property name="meta.media.width">142</property>
  <property name="meta.media.height">144</property>
  <property name="mlt_service">qimage</property>
  <property name="kdenlive:clipname"/>
  <property name="kdenlive:duration">00:00:05.000</property>
  <property name="kdenlive:folderid">-1</property>
  <property name="kdenlive:id">34</property>
  <property name="kdenlive:file_size">10227</property>
  <property name="kdenlive:file_hash">cf4bb1e996628d9279aa3493455cc5b5</property>
  <property name="global_feed">1</property>
 </producer>
 <producer id="producer31" in="00:00:00.000" out="00:00:07.840">
  <property name="length">197</property>
  <property name="eof">pause</property>
  <property name="resource">img/tees/limekitty.png</property>
  <property name="ttl">25</property>
  <property name="aspect_ratio">1</property>
  <property name="progressive">1</property>
  <property name="seekable">1</property>
  <property name="meta.media.width">119</property>
  <property name="meta.media.height">133</property>
  <property name="mlt_service">qimage</property>
  <property name="kdenlive:clipname"/>
  <property name="kdenlive:duration">00:00:05.000</property>
  <property name="kdenlive:folderid">-1</property>
  <property name="kdenlive:id">35</property>
  <property name="kdenlive:file_size">10061</property>
  <property name="kdenlive:file_hash">2515b207313070468f318a41403311ff</property>
 </producer>
 <producer id="producer32" in="00:00:00.000" out="00:00:04.960">
  <property name="length">00:00:05.000</property>
  <property name="eof">pause</property>
  <property name="resource">img/tees/saddo_maso.png</property>
  <property name="ttl">25</property>
  <property name="aspect_ratio">1</property>
  <property name="progressive">1</property>
  <property name="seekable">1</property>
  <property name="meta.media.width">119</property>
  <property name="meta.media.height">123</property>
  <property name="mlt_service">qimage</property>
  <property name="kdenlive:clipname"/>
  <property name="kdenlive:duration">00:00:05.000</property>
  <property name="kdenlive:folderid">-1</property>
  <property name="kdenlive:id">36</property>
  <property name="kdenlive:file_size">37353</property>
  <property name="kdenlive:file_hash">406cca7b58143ed479e41a34b82c6498</property>
  <property name="global_feed">1</property>
 </producer>
 <producer id="producer33" in="00:00:00.000" out="00:00:04.960">
  <property name="length">00:00:05.000</property>
  <property name="eof">pause</property>
  <property name="resource">img/tees/greensward_red.png</property>
  <property name="ttl">25</property>
  <property name="aspect_ratio">1</property>
  <property name="progressive">1</property>
  <property name="seekable">1</property>
  <property name="meta.media.width">172</property>
  <property name="meta.media.height">148</property>
  <property name="mlt_service">qimage</property>
  <property name="kdenlive:clipname"/>
  <property name="kdenlive:duration">00:00:05.000</property>
  <property name="kdenlive:folderid">-1</property>
  <property name="kdenlive:id">37</property>
  <property name="kdenlive:file_size">11731</property>
  <property name="kdenlive:file_hash">661f0dafbae2a9af5ff5cd77ddf4ef07</property>
  <property name="global_feed">1</property>
 </producer>
 <producer id="producer36" in="00:00:00.000" out="00:00:04.960">
  <property name="length">00:00:05.000</property>
  <property name="eof">pause</property>
  <property name="resource">img/tees/greensward_red_eye_down.png</property>
  <property name="ttl">25</property>
  <property name="aspect_ratio">1</property>
  <property name="progressive">1</property>
  <property name="seekable">1</property>
  <property name="meta.media.width">172</property>
  <property name="meta.media.height">148</property>
  <property name="mlt_service">qimage</property>
  <property name="kdenlive:clipname"/>
  <property name="kdenlive:duration">00:00:05.000</property>
  <property name="kdenlive:folderid">-1</property>
  <property name="kdenlive:id">38</property>
  <property name="kdenlive:file_size">11940</property>
  <property name="kdenlive:file_hash">10ad9ff65193a348bf208b63f73eef13</property>
 </producer>
 <producer id="producer37" in="00:00:00.000" out="00:00:04.960">
  <property name="length">00:00:05.000</property>
  <property name="eof">pause</property>
  <property name="resource">img/tees/brownbear.png</property>
  <property name="ttl">25</property>
  <property name="aspect_ratio">1</property>
  <property name="progressive">1</property>
  <property name="seekable">1</property>
  <property name="meta.media.width">142</property>
  <property name="meta.media.height">144</property>
  <property name="mlt_service">qimage</property>
  <property name="kdenlive:clipname"/>
  <property name="kdenlive:duration">00:00:05.000</property>
  <property name="kdenlive:folderid">-1</property>
  <property name="kdenlive:id">39</property>
  <property name="kdenlive:file_size">10227</property>
  <property name="kdenlive:file_hash">cf4bb1e996628d9279aa3493455cc5b5</property>
 </producer>
 <producer id="producer38" in="00:00:00.000" out="00:00:04.960">
  <property name="length">00:00:05.000</property>
  <property name="eof">pause</property>
  <property name="resource">img/tees/limekitty.png</property>
  <property name="ttl">25</property>
  <property name="aspect_ratio">1</property>
  <property name="progressive">1</property>
  <property name="seekable">1</property>
  <property name="meta.media.width">119</property>
  <property name="meta.media.height">133</property>
  <property name="mlt_service">qimage</property>
  <property name="kdenlive:clipname"/>
  <property name="kdenlive:duration">00:00:05.000</property>
  <property name="kdenlive:folderid">-1</property>
  <property name="kdenlive:id">40</property>
  <property name="kdenlive:file_size">10061</property>
  <property name="kdenlive:file_hash">2515b207313070468f318a41403311ff</property>
 </producer>
 <producer id="producer39" in="00:00:00.000" out="00:00:04.960">
  <property name="length">00:00:05.000</property>
  <property name="eof">pause</property>
  <property name="resource">img/tees/bluestripe.png</property>
  <property name="ttl">25</property>
  <property name="aspect_ratio">1</property>
  <property name="progressive">1</property>
  <property name="seekable">1</property>
  <property name="meta.media.width">119</property>
  <property name="meta.media.height">126</property>
  <property name="mlt_service">qimage</property>
  <property name="kdenlive:clipname"/>
  <property name="kdenlive:duration">00:00:05.000</property>
  <property name="kdenlive:folderid">-1</property>
  <property name="kdenlive:id">41</property>
  <property name="kdenlive:file_size">9725</property>
  <property name="kdenlive:file_hash">bafd3085a098103becbda3a7ed4c71d5</property>
 </producer>
 <producer id="producer40" in="00:00:00.000" out="00:00:20.480">
  <property name="length">513</property>
  <property name="eof">pause</property>
  <property name="resource">img/tees/redbopp.png</property>
  <property name="ttl">25</property>
  <property name="aspect_ratio">1</property>
  <property name="progressive">1</property>
  <property name="seekable">1</property>
  <property name="meta.media.width">119</property>
  <property name="meta.media.height">142</property>
  <property name="mlt_service">qimage</property>
  <property name="kdenlive:clipname"/>
  <property name="kdenlive:duration">00:00:05.000</property>
  <property name="kdenlive:folderid">-1</property>
  <property name="kdenlive:id">42</property>
  <property name="kdenlive:file_size">9396</property>
  <property name="kdenlive:file_hash">3b5efb662affd5eabc6cd972b952c0d6</property>
 </producer>
 <producer id="producer41" in="00:00:00.000" out="00:00:20.800">
  <property name="length">521</property>
  <property name="eof">pause</property>
  <property name="resource">img/tees/redbopp_titl.png</property>
  <property name="ttl">25</property>
  <property name="aspect_ratio">1</property>
  <property name="progressive">1</property>
  <property name="seekable">1</property>
  <property name="meta.media.width">512</property>
  <property name="meta.media.height">619</property>
  <property name="mlt_service">qimage</property>
  <property name="kdenlive:clipname"/>
  <property name="kdenlive:duration">00:00:05.000</property>
  <property name="kdenlive:folderid">-1</property>
  <property name="kdenlive:id">43</property>
  <property name="kdenlive:file_size">45679</property>
  <property name="kdenlive:file_hash">63076607b6d3397d907287095d8c4e87</property>
 </producer>
 <producer id="producer42" in="00:00:00.000" out="00:00:10.520">
  <property name="length">264</property>
  <property name="eof">pause</property>
  <property name="resource">/home/chiller/.cache/kdenlive/proxy/23a155b2a145ed8e3091ff33160e951d.mov</property>
  <property name="audio_index">1</property>
  <property name="video_index">0</property>
  <property name="mute_on_pause">0</property>
  <property name="mlt_service">avformat-novalidate</property>
  <property name="seekable">1</property>
  <property name="aspect_ratio">1</property>
  <property name="kdenlive:clipname">balcony2.mov</property>
  <property name="kdenlive:folderid">-1</property>
  <property name="kdenlive:id">44</property>
  <property name="kdenlive:file_size">10216731</property>
  <property name="kdenlive:file_hash">23a155b2a145ed8e3091ff33160e951d</property>
  <property name="kdenlive:proxy">/home/chiller/.cache/kdenlive/proxy/23a155b2a145ed8e3091ff33160e951d.mov</property>
  <property name="kdenlive:originalurl">mov/balcony/balcony2.mov</property>
  <property name="global_feed">1</property>
  <property name="kdenlive:original.mlt_type">producer</property>
  <property name="kdenlive:original.in">0</property>
  <property name="kdenlive:original.out">263</property>
  <property name="kdenlive:original.length">264</property>
  <property name="kdenlive:original.eof">pause</property>
  <property name="kdenlive:original.resource">mov/balcony/balcony2.mov</property>
  <property name="kdenlive:original.audio_index">1</property>
  <property name="kdenlive:original.video_index">0</property>
  <property name="kdenlive:original.mute_on_pause">0</property>
  <property name="kdenlive:original.mlt_service">avformat-novalidate</property>
  <property name="kdenlive:original.id">producer42</property>
  <property name="kdenlive:original.seekable">1</property>
  <property name="kdenlive:original.aspect_ratio">1</property>
  <property name="kdenlive:original.kdenlive:folderid">-1</property>
  <property name="kdenlive:original.kdenlive:id">44</property>
  <property name="kdenlive:original.kdenlive:file_size">10216731</property>
  <property name="kdenlive:original.kdenlive:file_hash">23a155b2a145ed8e3091ff33160e951d</property>
  <property name="kdenlive:original.global_feed">1</property>
  <property name="kdenlive:original.meta.media.nb_streams">5</property>
  <property name="kdenlive:original.meta.media.0.stream.type">video</property>
  <property name="kdenlive:original.meta.media.0.stream.frame_rate">29.9715</property>
  <property name="kdenlive:original.meta.media.0.stream.sample_aspect_ratio">0</property>
  <property name="kdenlive:original.meta.media.0.codec.width">1920</property>
  <property name="kdenlive:original.meta.media.0.codec.height">1080</property>
  <property name="kdenlive:original.meta.media.0.codec.rotate">0</property>
  <property name="kdenlive:original.meta.media.0.codec.frame_rate">600</property>
  <property name="kdenlive:original.meta.media.0.codec.pix_fmt">yuv420p</property>
  <property name="kdenlive:original.meta.media.0.codec.sample_aspect_ratio">0</property>
  <property name="kdenlive:original.meta.media.0.codec.colorspace">709</property>
  <property name="kdenlive:original.meta.media.0.codec.color_trc">1</property>
  <property name="kdenlive:original.meta.media.0.codec.name">hevc</property>
  <property name="kdenlive:original.meta.media.0.codec.long_name">HEVC (High Efficiency Video Coding)</property>
  <property name="kdenlive:original.meta.media.0.codec.bit_rate">7626493</property>
  <property name="kdenlive:original.meta.attr.0.stream.creation_time.markup">2020-04-12T17:06:40.000000Z</property>
  <property name="kdenlive:original.meta.attr.0.stream.handler_name.markup">Core Media Video</property>
  <property name="kdenlive:original.meta.attr.0.stream.encoder.markup">HEVC</property>
  <property name="kdenlive:original.meta.media.1.stream.type">audio</property>
  <property name="kdenlive:original.meta.media.1.codec.sample_fmt">fltp</property>
  <property name="kdenlive:original.meta.media.1.codec.sample_rate">44100</property>
  <property name="kdenlive:original.meta.media.1.codec.channels">1</property>
  <property name="kdenlive:original.meta.media.1.codec.name">aac</property>
  <property name="kdenlive:original.meta.media.1.codec.long_name">AAC (Advanced Audio Coding)</property>
  <property name="kdenlive:original.meta.media.1.codec.bit_rate">97257</property>
  <property name="kdenlive:original.meta.attr.1.stream.creation_time.markup">2020-04-12T17:06:40.000000Z</property>
  <property name="kdenlive:original.meta.attr.1.stream.handler_name.markup">Core Media Audio</property>
  <property name="kdenlive:original.meta.attr.major_brand.markup">qt  </property>
  <property name="kdenlive:original.meta.attr.minor_version.markup">0</property>
  <property name="kdenlive:original.meta.attr.compatible_brands.markup">qt  </property>
  <property name="kdenlive:original.meta.attr.creation_time.markup">2020-04-12T17:06:40.000000Z</property>
  <property name="kdenlive:original.meta.attr.com.apple.quicktime.make.markup">Apple</property>
  <property name="kdenlive:original.meta.attr.com.apple.quicktime.model.markup">iPhone XS</property>
  <property name="kdenlive:original.meta.attr.com.apple.quicktime.software.markup">13.3.1</property>
  <property name="kdenlive:original.meta.attr.com.apple.quicktime.creationdate.markup">2020-04-12T19:06:39+0200</property>
  <property name="kdenlive:original.meta.media.sample_aspect_num">1</property>
  <property name="kdenlive:original.meta.media.sample_aspect_den">1</property>
  <property name="kdenlive:original.meta.media.frame_rate_num">94800</property>
  <property name="kdenlive:original.meta.media.frame_rate_den">3163</property>
  <property name="kdenlive:original.meta.media.colorspace">709</property>
  <property name="kdenlive:original.meta.media.color_trc">1</property>
  <property name="kdenlive:original.meta.media.width">1920</property>
  <property name="kdenlive:original.meta.media.height">1080</property>
  <property name="kdenlive:original.meta.media.color_range">mpeg</property>
  <property name="kdenlive:original.meta.media.top_field_first">0</property>
  <property name="kdenlive:original.meta.media.progressive">1</property>
  <property name="kdenlive:original.width">1920</property>
  <property name="kdenlive:original.height">1080</property>
  <property name="kdenlive:original.backup">1</property>
  <property name="meta.media.nb_streams">2</property>
  <property name="meta.media.0.stream.type">video</property>
  <property name="meta.media.0.stream.frame_rate">29.97</property>
  <property name="meta.media.0.stream.sample_aspect_ratio">0</property>
  <property name="meta.media.0.codec.width">640</property>
  <property name="meta.media.0.codec.height">360</property>
  <property name="meta.media.0.codec.rotate">0</property>
  <property name="meta.media.0.codec.frame_rate">29.97</property>
  <property name="meta.media.0.codec.pix_fmt">yuv420p</property>
  <property name="meta.media.0.codec.sample_aspect_ratio">1</property>
  <property name="meta.media.0.codec.colorspace">601</property>
  <property name="meta.media.0.codec.name">h264</property>
  <property name="meta.media.0.codec.long_name">H.264 / AVC / MPEG-4 AVC / MPEG-4 part 10</property>
  <property name="meta.media.0.codec.bit_rate">6330668</property>
  <property name="meta.attr.0.stream.handler_name.markup">Core Media Video</property>
  <property name="meta.attr.0.stream.encoder.markup">Lavc58.111.100 h264_nvenc</property>
  <property name="meta.media.1.stream.type">audio</property>
  <property name="meta.media.1.codec.sample_fmt">fltp</property>
  <property name="meta.media.1.codec.sample_rate">44100</property>
  <property name="meta.media.1.codec.channels">1</property>
  <property name="meta.media.1.codec.name">aac</property>
  <property name="meta.media.1.codec.long_name">AAC (Advanced Audio Coding)</property>
  <property name="meta.media.1.codec.bit_rate">97450</property>
  <property name="meta.attr.1.stream.handler_name.markup">Core Media Audio</property>
  <property name="meta.attr.major_brand.markup">qt  </property>
  <property name="meta.attr.minor_version.markup">512</property>
  <property name="meta.attr.compatible_brands.markup">qt  </property>
  <property name="meta.attr.encoder.markup">Lavf58.62.100</property>
  <property name="meta.media.sample_aspect_num">1</property>
  <property name="meta.media.sample_aspect_den">1</property>
  <property name="meta.media.frame_rate_num">30000</property>
  <property name="meta.media.frame_rate_den">1001</property>
  <property name="meta.media.colorspace">601</property>
  <property name="meta.media.color_trc">2</property>
  <property name="meta.media.width">640</property>
  <property name="meta.media.height">360</property>
  <property name="meta.media.color_range">mpeg</property>
  <property name="meta.media.top_field_first">0</property>
  <property name="meta.media.progressive">1</property>
  <property name="kdenlive:audio_max">27</property>
 </producer>
 <producer id="producer43" in="00:00:00.000" out="00:00:14.520">
  <property name="length">364</property>
  <property name="eof">pause</property>
  <property name="resource">/home/chiller/.cache/kdenlive/proxy/22d38ef6261efcb609b54194c2b018aa.mov</property>
  <property name="audio_index">1</property>
  <property name="video_index">0</property>
  <property name="mute_on_pause">0</property>
  <property name="mlt_service">avformat-novalidate</property>
  <property name="seekable">1</property>
  <property name="aspect_ratio">1</property>
  <property name="kdenlive:clipname">cat1.mov</property>
  <property name="kdenlive:folderid">-1</property>
  <property name="kdenlive:id">45</property>
  <property name="kdenlive:file_size">14939273</property>
  <property name="kdenlive:file_hash">22d38ef6261efcb609b54194c2b018aa</property>
  <property name="kdenlive:proxy">/home/chiller/.cache/kdenlive/proxy/22d38ef6261efcb609b54194c2b018aa.mov</property>
  <property name="kdenlive:originalurl">mov/outdoor/cat1.mov</property>
  <property name="kdenlive:original.mlt_type">producer</property>
  <property name="kdenlive:original.in">0</property>
  <property name="kdenlive:original.out">363</property>
  <property name="kdenlive:original.length">364</property>
  <property name="kdenlive:original.eof">pause</property>
  <property name="kdenlive:original.resource">mov/outdoor/cat1.mov</property>
  <property name="kdenlive:original.meta.media.nb_streams">5</property>
  <property name="kdenlive:original.meta.media.0.stream.type">video</property>
  <property name="kdenlive:original.meta.media.0.stream.frame_rate">29.9725</property>
  <property name="kdenlive:original.meta.media.0.stream.sample_aspect_ratio">0</property>
  <property name="kdenlive:original.meta.media.0.codec.width">1920</property>
  <property name="kdenlive:original.meta.media.0.codec.height">1080</property>
  <property name="kdenlive:original.meta.media.0.codec.rotate">0</property>
  <property name="kdenlive:original.meta.media.0.codec.frame_rate">600</property>
  <property name="kdenlive:original.meta.media.0.codec.pix_fmt">yuv420p</property>
  <property name="kdenlive:original.meta.media.0.codec.sample_aspect_ratio">0</property>
  <property name="kdenlive:original.meta.media.0.codec.colorspace">709</property>
  <property name="kdenlive:original.meta.media.0.codec.color_trc">1</property>
  <property name="kdenlive:original.meta.media.0.codec.name">hevc</property>
  <property name="kdenlive:original.meta.media.0.codec.long_name">HEVC (High Efficiency Video Coding)</property>
  <property name="kdenlive:original.meta.media.0.codec.bit_rate">8084768</property>
  <property name="kdenlive:original.meta.attr.0.stream.creation_time.markup">2020-04-12T17:13:59.000000Z</property>
  <property name="kdenlive:original.meta.attr.0.stream.handler_name.markup">Core Media Video</property>
  <property name="kdenlive:original.meta.attr.0.stream.encoder.markup">HEVC</property>
  <property name="kdenlive:original.meta.media.1.stream.type">audio</property>
  <property name="kdenlive:original.meta.media.1.codec.sample_fmt">fltp</property>
  <property name="kdenlive:original.meta.media.1.codec.sample_rate">44100</property>
  <property name="kdenlive:original.meta.media.1.codec.channels">1</property>
  <property name="kdenlive:original.meta.media.1.codec.name">aac</property>
  <property name="kdenlive:original.meta.media.1.codec.long_name">AAC (Advanced Audio Coding)</property>
  <property name="kdenlive:original.meta.media.1.codec.bit_rate">96192</property>
  <property name="kdenlive:original.meta.attr.1.stream.creation_time.markup">2020-04-12T17:13:59.000000Z</property>
  <property name="kdenlive:original.meta.attr.1.stream.handler_name.markup">Core Media Audio</property>
  <property name="kdenlive:original.meta.attr.major_brand.markup">qt  </property>
  <property name="kdenlive:original.meta.attr.minor_version.markup">0</property>
  <property name="kdenlive:original.meta.attr.compatible_brands.markup">qt  </property>
  <property name="kdenlive:original.meta.attr.creation_time.markup">2020-04-12T17:13:59.000000Z</property>
  <property name="kdenlive:original.meta.attr.com.apple.quicktime.make.markup">Apple</property>
  <property name="kdenlive:original.meta.attr.com.apple.quicktime.model.markup">iPhone XS</property>
  <property name="kdenlive:original.meta.attr.com.apple.quicktime.software.markup">13.3.1</property>
  <property name="kdenlive:original.meta.attr.com.apple.quicktime.creationdate.markup">2020-04-12T19:13:59+0200</property>
  <property name="kdenlive:original.seekable">1</property>
  <property name="kdenlive:original.width">1920</property>
  <property name="kdenlive:original.height">1080</property>
  <property name="kdenlive:original.meta.media.sample_aspect_num">1</property>
  <property name="kdenlive:original.meta.media.sample_aspect_den">1</property>
  <property name="kdenlive:original.aspect_ratio">1</property>
  <property name="kdenlive:original.audio_index">1</property>
  <property name="kdenlive:original.video_index">0</property>
  <property name="kdenlive:original.mute_on_pause">0</property>
  <property name="kdenlive:original.mlt_service">avformat-novalidate</property>
  <property name="kdenlive:original.kdenlive:folderid">-1</property>
  <property name="kdenlive:original.meta.media.frame_rate_num">32700</property>
  <property name="kdenlive:original.meta.media.frame_rate_den">1091</property>
  <property name="kdenlive:original.meta.media.colorspace">709</property>
  <property name="kdenlive:original.meta.media.color_trc">1</property>
  <property name="kdenlive:original.meta.media.width">1920</property>
  <property name="kdenlive:original.meta.media.height">1080</property>
  <property name="kdenlive:original.meta.media.color_range">mpeg</property>
  <property name="kdenlive:original.kdenlive:id">45</property>
  <property name="kdenlive:original.kdenlive:file_size">14939273</property>
  <property name="kdenlive:original.kdenlive:file_hash">22d38ef6261efcb609b54194c2b018aa</property>
  <property name="kdenlive:original.backup">1</property>
  <property name="global_feed">1</property>
  <property name="meta.media.nb_streams">2</property>
  <property name="meta.media.0.stream.type">video</property>
  <property name="meta.media.0.stream.frame_rate">29.97</property>
  <property name="meta.media.0.stream.sample_aspect_ratio">0</property>
  <property name="meta.media.0.codec.width">640</property>
  <property name="meta.media.0.codec.height">360</property>
  <property name="meta.media.0.codec.rotate">0</property>
  <property name="meta.media.0.codec.frame_rate">29.97</property>
  <property name="meta.media.0.codec.pix_fmt">yuv420p</property>
  <property name="meta.media.0.codec.sample_aspect_ratio">1</property>
  <property name="meta.media.0.codec.colorspace">601</property>
  <property name="meta.media.0.codec.name">h264</property>
  <property name="meta.media.0.codec.long_name">H.264 / AVC / MPEG-4 AVC / MPEG-4 part 10</property>
  <property name="meta.media.0.codec.bit_rate">8363992</property>
  <property name="meta.attr.0.stream.handler_name.markup">Core Media Video</property>
  <property name="meta.attr.0.stream.encoder.markup">Lavc58.111.100 h264_nvenc</property>
  <property name="meta.media.1.stream.type">audio</property>
  <property name="meta.media.1.codec.sample_fmt">fltp</property>
  <property name="meta.media.1.codec.sample_rate">44100</property>
  <property name="meta.media.1.codec.channels">1</property>
  <property name="meta.media.1.codec.name">aac</property>
  <property name="meta.media.1.codec.long_name">AAC (Advanced Audio Coding)</property>
  <property name="meta.media.1.codec.bit_rate">96360</property>
  <property name="meta.attr.1.stream.handler_name.markup">Core Media Audio</property>
  <property name="meta.attr.major_brand.markup">qt  </property>
  <property name="meta.attr.minor_version.markup">512</property>
  <property name="meta.attr.compatible_brands.markup">qt  </property>
  <property name="meta.attr.encoder.markup">Lavf58.62.100</property>
  <property name="meta.media.sample_aspect_num">1</property>
  <property name="meta.media.sample_aspect_den">1</property>
  <property name="meta.media.frame_rate_num">30000</property>
  <property name="meta.media.frame_rate_den">1001</property>
  <property name="meta.media.colorspace">601</property>
  <property name="meta.media.color_trc">2</property>
  <property name="meta.media.width">640</property>
  <property name="meta.media.height">360</property>
  <property name="meta.media.color_range">mpeg</property>
  <property name="meta.media.top_field_first">0</property>
  <property name="meta.media.progressive">1</property>
  <property name="kdenlive:audio_max">43</property>
 </producer>
 <producer id="producer44" in="00:00:00.000" out="00:00:46.120">
  <property name="length">1154</property>
  <property name="eof">pause</property>
  <property name="resource">/home/chiller/.cache/kdenlive/proxy/b98a20d5076f80c9ad370713e0cc32a5.mov</property>
  <property name="audio_index">1</property>
  <property name="video_index">0</property>
  <property name="mute_on_pause">0</property>
  <property name="mlt_service">avformat-novalidate</property>
  <property name="seekable">1</property>
  <property name="aspect_ratio">1</property>
  <property name="kdenlive:clipname">grass_kog.mov</property>
  <property name="kdenlive:folderid">-1</property>
  <property name="kdenlive:id">46</property>
  <property name="kdenlive:file_size">44415220</property>
  <property name="kdenlive:file_hash">b98a20d5076f80c9ad370713e0cc32a5</property>
  <property name="kdenlive:proxy">/home/chiller/.cache/kdenlive/proxy/b98a20d5076f80c9ad370713e0cc32a5.mov</property>
  <property name="kdenlive:originalurl">mov/grass/grass_kog.mov</property>
  <property name="kdenlive:original.mlt_type">producer</property>
  <property name="kdenlive:original.in">0</property>
  <property name="kdenlive:original.out">1153</property>
  <property name="kdenlive:original.length">1154</property>
  <property name="kdenlive:original.eof">pause</property>
  <property name="kdenlive:original.resource">mov/grass/grass_kog.mov</property>
  <property name="kdenlive:original.meta.media.nb_streams">5</property>
  <property name="kdenlive:original.meta.media.0.stream.type">video</property>
  <property name="kdenlive:original.meta.media.0.stream.frame_rate">29.9523</property>
  <property name="kdenlive:original.meta.media.0.stream.sample_aspect_ratio">0</property>
  <property name="kdenlive:original.meta.media.0.codec.width">1920</property>
  <property name="kdenlive:original.meta.media.0.codec.height">1080</property>
  <property name="kdenlive:original.meta.media.0.codec.rotate">0</property>
  <property name="kdenlive:original.meta.media.0.codec.frame_rate">600</property>
  <property name="kdenlive:original.meta.media.0.codec.pix_fmt">yuv420p</property>
  <property name="kdenlive:original.meta.media.0.codec.sample_aspect_ratio">0</property>
  <property name="kdenlive:original.meta.media.0.codec.colorspace">709</property>
  <property name="kdenlive:original.meta.media.0.codec.color_trc">1</property>
  <property name="kdenlive:original.meta.media.0.codec.name">hevc</property>
  <property name="kdenlive:original.meta.media.0.codec.long_name">HEVC (High Efficiency Video Coding)</property>
  <property name="kdenlive:original.meta.media.0.codec.bit_rate">7575590</property>
  <property name="kdenlive:original.meta.attr.0.stream.creation_time.markup">2020-04-12T17:42:28.000000Z</property>
  <property name="kdenlive:original.meta.attr.0.stream.handler_name.markup">Core Media Video</property>
  <property name="kdenlive:original.meta.attr.0.stream.encoder.markup">HEVC</property>
  <property name="kdenlive:original.meta.media.1.stream.type">audio</property>
  <property name="kdenlive:original.meta.media.1.codec.sample_fmt">fltp</property>
  <property name="kdenlive:original.meta.media.1.codec.sample_rate">44100</property>
  <property name="kdenlive:original.meta.media.1.codec.channels">1</property>
  <property name="kdenlive:original.meta.media.1.codec.name">aac</property>
  <property name="kdenlive:original.meta.media.1.codec.long_name">AAC (Advanced Audio Coding)</property>
  <property name="kdenlive:original.meta.media.1.codec.bit_rate">92171</property>
  <property name="kdenlive:original.meta.attr.1.stream.creation_time.markup">2020-04-12T17:42:28.000000Z</property>
  <property name="kdenlive:original.meta.attr.1.stream.handler_name.markup">Core Media Audio</property>
  <property name="kdenlive:original.meta.attr.major_brand.markup">qt  </property>
  <property name="kdenlive:original.meta.attr.minor_version.markup">0</property>
  <property name="kdenlive:original.meta.attr.compatible_brands.markup">qt  </property>
  <property name="kdenlive:original.meta.attr.creation_time.markup">2020-04-12T17:42:28.000000Z</property>
  <property name="kdenlive:original.meta.attr.com.apple.quicktime.make.markup">Apple</property>
  <property name="kdenlive:original.meta.attr.com.apple.quicktime.model.markup">iPhone XS</property>
  <property name="kdenlive:original.meta.attr.com.apple.quicktime.software.markup">13.3.1</property>
  <property name="kdenlive:original.meta.attr.com.apple.quicktime.creationdate.markup">2020-04-12T19:42:27+0200</property>
  <property name="kdenlive:original.seekable">1</property>
  <property name="kdenlive:original.width">1920</property>
  <property name="kdenlive:original.height">1080</property>
  <property name="kdenlive:original.meta.media.sample_aspect_num">1</property>
  <property name="kdenlive:original.meta.media.sample_aspect_den">1</property>
  <property name="kdenlive:original.aspect_ratio">1</property>
  <property name="kdenlive:original.audio_index">1</property>
  <property name="kdenlive:original.video_index">0</property>
  <property name="kdenlive:original.mute_on_pause">0</property>
  <property name="kdenlive:original.mlt_service">avformat-novalidate</property>
  <property name="kdenlive:original.kdenlive:folderid">-1</property>
  <property name="kdenlive:original.meta.media.frame_rate_num">69100</property>
  <property name="kdenlive:original.meta.media.frame_rate_den">2307</property>
  <property name="kdenlive:original.meta.media.colorspace">709</property>
  <property name="kdenlive:original.meta.media.color_trc">1</property>
  <property name="kdenlive:original.meta.media.width">1920</property>
  <property name="kdenlive:original.meta.media.height">1080</property>
  <property name="kdenlive:original.meta.media.color_range">mpeg</property>
  <property name="kdenlive:original.kdenlive:id">46</property>
  <property name="kdenlive:original.kdenlive:file_size">44415220</property>
  <property name="kdenlive:original.kdenlive:file_hash">b98a20d5076f80c9ad370713e0cc32a5</property>
  <property name="kdenlive:original.backup">1</property>
  <property name="global_feed">1</property>
  <property name="meta.media.nb_streams">2</property>
  <property name="meta.media.0.stream.type">video</property>
  <property name="meta.media.0.stream.frame_rate">29.97</property>
  <property name="meta.media.0.stream.sample_aspect_ratio">0</property>
  <property name="meta.media.0.codec.width">640</property>
  <property name="meta.media.0.codec.height">360</property>
  <property name="meta.media.0.codec.rotate">0</property>
  <property name="meta.media.0.codec.frame_rate">29.97</property>
  <property name="meta.media.0.codec.pix_fmt">yuv420p</property>
  <property name="meta.media.0.codec.sample_aspect_ratio">1</property>
  <property name="meta.media.0.codec.colorspace">601</property>
  <property name="meta.media.0.codec.name">h264</property>
  <property name="meta.media.0.codec.long_name">H.264 / AVC / MPEG-4 AVC / MPEG-4 part 10</property>
  <property name="meta.media.0.codec.bit_rate">7935221</property>
  <property name="meta.attr.0.stream.handler_name.markup">Core Media Video</property>
  <property name="meta.attr.0.stream.encoder.markup">Lavc58.111.100 h264_nvenc</property>
  <property name="meta.media.1.stream.type">audio</property>
  <property name="meta.media.1.codec.sample_fmt">fltp</property>
  <property name="meta.media.1.codec.sample_rate">44100</property>
  <property name="meta.media.1.codec.channels">1</property>
  <property name="meta.media.1.codec.name">aac</property>
  <property name="meta.media.1.codec.long_name">AAC (Advanced Audio Coding)</property>
  <property name="meta.media.1.codec.bit_rate">92224</property>
  <property name="meta.attr.1.stream.handler_name.markup">Core Media Audio</property>
  <property name="meta.attr.major_brand.markup">qt  </property>
  <property name="meta.attr.minor_version.markup">512</property>
  <property name="meta.attr.compatible_brands.markup">qt  </property>
  <property name="meta.attr.encoder.markup">Lavf58.62.100</property>
  <property name="meta.media.sample_aspect_num">1</property>
  <property name="meta.media.sample_aspect_den">1</property>
  <property name="meta.media.frame_rate_num">30000</property>
  <property name="meta.media.frame_rate_den">1001</property>
  <property name="meta.media.colorspace">601</property>
  <property name="meta.media.color_trc">2</property>
  <property name="meta.media.width">640</property>
  <property name="meta.media.height">360</property>
  <property name="meta.media.color_range">mpeg</property>
  <property name="meta.media.top_field_first">0</property>
  <property name="meta.media.progressive">1</property>
  <property name="kdenlive:audio_max">1</property>
 </producer>
 <producer id="producer45" in="00:00:00.000" out="00:00:23.080">
  <property name="length">578</property>
  <property name="eof">pause</property>
  <property name="resource">/home/chiller/.cache/kdenlive/proxy/34af9c46999e425f0548ab18dd907665.mov</property>
  <property name="audio_index">1</property>
  <property name="video_index">0</property>
  <property name="mute_on_pause">0</property>
  <property name="mlt_service">avformat-novalidate</property>
  <property name="seekable">1</property>
  <property name="aspect_ratio">1</property>
  <property name="kdenlive:clipname">thai.mov</property>
  <property name="kdenlive:folderid">-1</property>
  <property name="kdenlive:id">47</property>
  <property name="kdenlive:file_size">21643843</property>
  <property name="kdenlive:file_hash">34af9c46999e425f0548ab18dd907665</property>
  <property name="kdenlive:proxy">/home/chiller/.cache/kdenlive/proxy/34af9c46999e425f0548ab18dd907665.mov</property>
  <property name="kdenlive:originalurl">mov/outdoor/thai.mov</property>
  <property name="kdenlive:original.mlt_type">producer</property>
  <property name="kdenlive:original.in">0</property>
  <property name="kdenlive:original.out">577</property>
  <property name="kdenlive:original.length">578</property>
  <property name="kdenlive:original.eof">pause</property>
  <property name="kdenlive:original.resource">mov/outdoor/thai.mov</property>
  <property name="kdenlive:original.meta.media.nb_streams">4</property>
  <property name="kdenlive:original.meta.media.0.stream.type">video</property>
  <property name="kdenlive:original.meta.media.0.stream.frame_rate">29.974</property>
  <property name="kdenlive:original.meta.media.0.stream.sample_aspect_ratio">0</property>
  <property name="kdenlive:original.meta.media.0.codec.width">1920</property>
  <property name="kdenlive:original.meta.media.0.codec.height">1080</property>
  <property name="kdenlive:original.meta.media.0.codec.rotate">0</property>
  <property name="kdenlive:original.meta.media.0.codec.frame_rate">600</property>
  <property name="kdenlive:original.meta.media.0.codec.pix_fmt">yuv420p</property>
  <property name="kdenlive:original.meta.media.0.codec.sample_aspect_ratio">0</property>
  <property name="kdenlive:original.meta.media.0.codec.colorspace">709</property>
  <property name="kdenlive:original.meta.media.0.codec.color_trc">1</property>
  <property name="kdenlive:original.meta.media.0.codec.name">hevc</property>
  <property name="kdenlive:original.meta.media.0.codec.long_name">HEVC (High Efficiency Video Coding)</property>
  <property name="kdenlive:original.meta.media.0.codec.bit_rate">7298780</property>
  <property name="kdenlive:original.meta.attr.0.stream.creation_time.markup">2018-12-19T07:58:39.000000Z</property>
  <property name="kdenlive:original.meta.attr.0.stream.handler_name.markup">Core Media Video</property>
  <property name="kdenlive:original.meta.attr.0.stream.encoder.markup">HEVC</property>
  <property name="kdenlive:original.meta.media.1.stream.type">audio</property>
  <property name="kdenlive:original.meta.media.1.codec.sample_fmt">fltp</property>
  <property name="kdenlive:original.meta.media.1.codec.sample_rate">44100</property>
  <property name="kdenlive:original.meta.media.1.codec.channels">2</property>
  <property name="kdenlive:original.meta.media.1.codec.name">aac</property>
  <property name="kdenlive:original.meta.media.1.codec.long_name">AAC (Advanced Audio Coding)</property>
  <property name="kdenlive:original.meta.media.1.codec.bit_rate">176010</property>
  <property name="kdenlive:original.meta.attr.1.stream.creation_time.markup">2018-12-19T07:58:39.000000Z</property>
  <property name="kdenlive:original.meta.attr.1.stream.handler_name.markup">Core Media Audio</property>
  <property name="kdenlive:original.meta.attr.major_brand.markup">qt  </property>
  <property name="kdenlive:original.meta.attr.minor_version.markup">0</property>
  <property name="kdenlive:original.meta.attr.compatible_brands.markup">qt  </property>
  <property name="kdenlive:original.meta.attr.creation_time.markup">2018-12-19T07:58:39.000000Z</property>
  <property name="kdenlive:original.meta.attr.com.apple.quicktime.make.markup">Apple</property>
  <property name="kdenlive:original.meta.attr.com.apple.quicktime.model.markup">iPhone XS</property>
  <property name="kdenlive:original.meta.attr.com.apple.quicktime.software.markup">12.1</property>
  <property name="kdenlive:original.meta.attr.com.apple.quicktime.creationdate.markup">2018-12-19T14:58:39+0700</property>
  <property name="kdenlive:original.seekable">1</property>
  <property name="kdenlive:original.width">1920</property>
  <property name="kdenlive:original.height">1080</property>
  <property name="kdenlive:original.meta.media.sample_aspect_num">1</property>
  <property name="kdenlive:original.meta.media.sample_aspect_den">1</property>
  <property name="kdenlive:original.aspect_ratio">1</property>
  <property name="kdenlive:original.audio_index">1</property>
  <property name="kdenlive:original.video_index">0</property>
  <property name="kdenlive:original.mute_on_pause">0</property>
  <property name="kdenlive:original.mlt_service">avformat-novalidate</property>
  <property name="kdenlive:original.kdenlive:folderid">-1</property>
  <property name="kdenlive:original.meta.media.frame_rate_num">17325</property>
  <property name="kdenlive:original.meta.media.frame_rate_den">578</property>
  <property name="kdenlive:original.meta.media.colorspace">709</property>
  <property name="kdenlive:original.meta.media.color_trc">1</property>
  <property name="kdenlive:original.meta.media.width">1920</property>
  <property name="kdenlive:original.meta.media.height">1080</property>
  <property name="kdenlive:original.meta.media.color_range">mpeg</property>
  <property name="kdenlive:original.kdenlive:id">47</property>
  <property name="kdenlive:original.kdenlive:file_size">21643843</property>
  <property name="kdenlive:original.kdenlive:file_hash">34af9c46999e425f0548ab18dd907665</property>
  <property name="kdenlive:original.backup">1</property>
  <property name="global_feed">1</property>
  <property name="meta.media.nb_streams">2</property>
  <property name="meta.media.0.stream.type">video</property>
  <property name="meta.media.0.stream.frame_rate">29.97</property>
  <property name="meta.media.0.stream.sample_aspect_ratio">0</property>
  <property name="meta.media.0.codec.width">640</property>
  <property name="meta.media.0.codec.height">360</property>
  <property name="meta.media.0.codec.rotate">0</property>
  <property name="meta.media.0.codec.frame_rate">29.97</property>
  <property name="meta.media.0.codec.pix_fmt">yuv420p</property>
  <property name="meta.media.0.codec.sample_aspect_ratio">1</property>
  <property name="meta.media.0.codec.colorspace">601</property>
  <property name="meta.media.0.codec.name">h264</property>
  <property name="meta.media.0.codec.long_name">H.264 / AVC / MPEG-4 AVC / MPEG-4 part 10</property>
  <property name="meta.media.0.codec.bit_rate">7430083</property>
  <property name="meta.attr.0.stream.handler_name.markup">Core Media Video</property>
  <property name="meta.attr.0.stream.encoder.markup">Lavc58.111.100 h264_nvenc</property>
  <property name="meta.media.1.stream.type">audio</property>
  <property name="meta.media.1.codec.sample_fmt">fltp</property>
  <property name="meta.media.1.codec.sample_rate">44100</property>
  <property name="meta.media.1.codec.channels">2</property>
  <property name="meta.media.1.codec.name">aac</property>
  <property name="meta.media.1.codec.long_name">AAC (Advanced Audio Coding)</property>
  <property name="meta.media.1.codec.bit_rate">176098</property>
  <property name="meta.attr.1.stream.handler_name.markup">Core Media Audio</property>
  <property name="meta.attr.major_brand.markup">qt  </property>
  <property name="meta.attr.minor_version.markup">512</property>
  <property name="meta.attr.compatible_brands.markup">qt  </property>
  <property name="meta.attr.encoder.markup">Lavf58.62.100</property>
  <property name="meta.media.sample_aspect_num">1</property>
  <property name="meta.media.sample_aspect_den">1</property>
  <property name="meta.media.frame_rate_num">30000</property>
  <property name="meta.media.frame_rate_den">1001</property>
  <property name="meta.media.colorspace">601</property>
  <property name="meta.media.color_trc">2</property>
  <property name="meta.media.width">640</property>
  <property name="meta.media.height">360</property>
  <property name="meta.media.color_range">mpeg</property>
  <property name="meta.media.top_field_first">0</property>
  <property name="meta.media.progressive">1</property>
  <property name="kdenlive:audio_max">23</property>
 </producer>
 <producer id="producer46" in="00:00:00.000" out="00:00:06.080">
  <property name="length">153</property>
  <property name="eof">pause</property>
  <property name="resource">/home/chiller/.cache/kdenlive/proxy/a047c668b7fb98ececb127dca5e72255.mov</property>
  <property name="audio_index">1</property>
  <property name="video_index">0</property>
  <property name="mute_on_pause">0</property>
  <property name="mlt_service">avformat-novalidate</property>
  <property name="seekable">1</property>
  <property name="aspect_ratio">1</property>
  <property name="kdenlive:clipname">prague2.mov</property>
  <property name="kdenlive:folderid">-1</property>
  <property name="kdenlive:id">48</property>
  <property name="kdenlive:file_size">7232225</property>
  <property name="kdenlive:file_hash">a047c668b7fb98ececb127dca5e72255</property>
  <property name="kdenlive:proxy">/home/chiller/.cache/kdenlive/proxy/a047c668b7fb98ececb127dca5e72255.mov</property>
  <property name="kdenlive:originalurl">mov/travel/prague2.mov</property>
  <property name="kdenlive:original.mlt_type">producer</property>
  <property name="kdenlive:original.in">0</property>
  <property name="kdenlive:original.out">152</property>
  <property name="kdenlive:original.length">153</property>
  <property name="kdenlive:original.eof">pause</property>
  <property name="kdenlive:original.resource">mov/travel/prague2.mov</property>
  <property name="kdenlive:original.meta.media.nb_streams">5</property>
  <property name="kdenlive:original.meta.media.0.stream.type">video</property>
  <property name="kdenlive:original.meta.media.0.stream.frame_rate">29.9756</property>
  <property name="kdenlive:original.meta.media.0.stream.sample_aspect_ratio">0</property>
  <property name="kdenlive:original.meta.media.0.codec.width">1920</property>
  <property name="kdenlive:original.meta.media.0.codec.height">1080</property>
  <property name="kdenlive:original.meta.media.0.codec.rotate">0</property>
  <property name="kdenlive:original.meta.media.0.codec.frame_rate">600</property>
  <property name="kdenlive:original.meta.media.0.codec.pix_fmt">yuv420p</property>
  <property name="kdenlive:original.meta.media.0.codec.sample_aspect_ratio">0</property>
  <property name="kdenlive:original.meta.media.0.codec.colorspace">709</property>
  <property name="kdenlive:original.meta.media.0.codec.color_trc">1</property>
  <property name="kdenlive:original.meta.media.0.codec.name">hevc</property>
  <property name="kdenlive:original.meta.media.0.codec.long_name">HEVC (High Efficiency Video Coding)</property>
  <property name="kdenlive:original.meta.media.0.codec.bit_rate">9214704</property>
  <property name="kdenlive:original.meta.attr.0.stream.creation_time.markup">2020-01-02T09:26:16.000000Z</property>
  <property name="kdenlive:original.meta.attr.0.stream.handler_name.markup">Core Media Video</property>
  <property name="kdenlive:original.meta.attr.0.stream.encoder.markup">HEVC</property>
  <property name="kdenlive:original.meta.media.1.stream.type">audio</property>
  <property name="kdenlive:original.meta.media.1.codec.sample_fmt">fltp</property>
  <property name="kdenlive:original.meta.media.1.codec.sample_rate">44100</property>
  <property name="kdenlive:original.meta.media.1.codec.channels">2</property>
  <property name="kdenlive:original.meta.media.1.codec.name">aac</property>
  <property name="kdenlive:original.meta.media.1.codec.long_name">AAC (Advanced Audio Coding)</property>
  <property name="kdenlive:original.meta.media.1.codec.bit_rate">177529</property>
  <property name="kdenlive:original.meta.attr.1.stream.creation_time.markup">2020-01-02T09:26:16.000000Z</property>
  <property name="kdenlive:original.meta.attr.1.stream.handler_name.markup">Core Media Audio</property>
  <property name="kdenlive:original.meta.attr.major_brand.markup">qt  </property>
  <property name="kdenlive:original.meta.attr.minor_version.markup">0</property>
  <property name="kdenlive:original.meta.attr.compatible_brands.markup">qt  </property>
  <property name="kdenlive:original.meta.attr.creation_time.markup">2020-01-02T09:26:16.000000Z</property>
  <property name="kdenlive:original.meta.attr.com.apple.quicktime.make.markup">Apple</property>
  <property name="kdenlive:original.meta.attr.com.apple.quicktime.model.markup">iPhone XS</property>
  <property name="kdenlive:original.meta.attr.com.apple.quicktime.software.markup">13.3</property>
  <property name="kdenlive:original.meta.attr.com.apple.quicktime.creationdate.markup">2020-01-02T10:26:16+0100</property>
  <property name="kdenlive:original.seekable">1</property>
  <property name="kdenlive:original.width">1920</property>
  <property name="kdenlive:original.height">1080</property>
  <property name="kdenlive:original.meta.media.sample_aspect_num">1</property>
  <property name="kdenlive:original.meta.media.sample_aspect_den">1</property>
  <property name="kdenlive:original.aspect_ratio">1</property>
  <property name="kdenlive:original.audio_index">1</property>
  <property name="kdenlive:original.video_index">0</property>
  <property name="kdenlive:original.mute_on_pause">0</property>
  <property name="kdenlive:original.mlt_service">avformat-novalidate</property>
  <property name="kdenlive:original.kdenlive:folderid">-1</property>
  <property name="kdenlive:original.meta.media.frame_rate_num">110400</property>
  <property name="kdenlive:original.meta.media.frame_rate_den">3683</property>
  <property name="kdenlive:original.meta.media.colorspace">709</property>
  <property name="kdenlive:original.meta.media.color_trc">1</property>
  <property name="kdenlive:original.meta.media.width">1920</property>
  <property name="kdenlive:original.meta.media.height">1080</property>
  <property name="kdenlive:original.meta.media.color_range">mpeg</property>
  <property name="kdenlive:original.kdenlive:id">48</property>
  <property name="kdenlive:original.kdenlive:file_size">7232225</property>
  <property name="kdenlive:original.kdenlive:file_hash">a047c668b7fb98ececb127dca5e72255</property>
  <property name="kdenlive:original.backup">1</property>
  <property name="global_feed">1</property>
  <property name="meta.media.nb_streams">2</property>
  <property name="meta.media.0.stream.type">video</property>
  <property name="meta.media.0.stream.frame_rate">29.97</property>
  <property name="meta.media.0.stream.sample_aspect_ratio">0</property>
  <property name="meta.media.0.codec.width">640</property>
  <property name="meta.media.0.codec.height">360</property>
  <property name="meta.media.0.codec.rotate">0</property>
  <property name="meta.media.0.codec.frame_rate">29.97</property>
  <property name="meta.media.0.codec.pix_fmt">yuv420p</property>
  <property name="meta.media.0.codec.sample_aspect_ratio">1</property>
  <property name="meta.media.0.codec.colorspace">601</property>
  <property name="meta.media.0.codec.name">h264</property>
  <property name="meta.media.0.codec.long_name">H.264 / AVC / MPEG-4 AVC / MPEG-4 part 10</property>
  <property name="meta.media.0.codec.bit_rate">6735788</property>
  <property name="meta.attr.0.stream.handler_name.markup">Core Media Video</property>
  <property name="meta.attr.0.stream.encoder.markup">Lavc58.111.100 h264_nvenc</property>
  <property name="meta.media.1.stream.type">audio</property>
  <property name="meta.media.1.codec.sample_fmt">fltp</property>
  <property name="meta.media.1.codec.sample_rate">44100</property>
  <property name="meta.media.1.codec.channels">2</property>
  <property name="meta.media.1.codec.name">aac</property>
  <property name="meta.media.1.codec.long_name">AAC (Advanced Audio Coding)</property>
  <property name="meta.media.1.codec.bit_rate">178667</property>
  <property name="meta.attr.1.stream.handler_name.markup">Core Media Audio</property>
  <property name="meta.attr.major_brand.markup">qt  </property>
  <property name="meta.attr.minor_version.markup">512</property>
  <property name="meta.attr.compatible_brands.markup">qt  </property>
  <property name="meta.attr.encoder.markup">Lavf58.62.100</property>
  <property name="meta.media.sample_aspect_num">1</property>
  <property name="meta.media.sample_aspect_den">1</property>
  <property name="meta.media.frame_rate_num">30000</property>
  <property name="meta.media.frame_rate_den">1001</property>
  <property name="meta.media.colorspace">601</property>
  <property name="meta.media.color_trc">2</property>
  <property name="meta.media.width">640</property>
  <property name="meta.media.height">360</property>
  <property name="meta.media.color_range">mpeg</property>
  <property name="meta.media.top_field_first">0</property>
  <property name="meta.media.progressive">1</property>
  <property name="kdenlive:audio_max">3</property>
 </producer>
 <producer id="producer47" in="00:00:00.000" out="00:00:22.680">
  <property name="length">568</property>
  <property name="eof">pause</property>
  <property name="resource">/home/chiller/.cache/kdenlive/proxy/c98bfa6754a1e293b3f3e8264ff62cde.mov</property>
  <property name="audio_index">1</property>
  <property name="video_index">0</property>
  <property name="mute_on_pause">0</property>
  <property name="mlt_service">avformat-novalidate</property>
  <property name="seekable">1</property>
  <property name="aspect_ratio">1</property>
  <property name="kdenlive:clipname">river_dm1.mov</property>
  <property name="kdenlive:folderid">-1</property>
  <property name="kdenlive:id">49</property>
  <property name="kdenlive:file_size">22227646</property>
  <property name="kdenlive:file_hash">c98bfa6754a1e293b3f3e8264ff62cde</property>
  <property name="kdenlive:proxy">/home/chiller/.cache/kdenlive/proxy/c98bfa6754a1e293b3f3e8264ff62cde.mov</property>
  <property name="kdenlive:originalurl">mov/water/river_dm1.mov</property>
  <property name="kdenlive:original.mlt_type">producer</property>
  <property name="kdenlive:original.in">0</property>
  <property name="kdenlive:original.out">567</property>
  <property name="kdenlive:original.length">568</property>
  <property name="kdenlive:original.eof">pause</property>
  <property name="kdenlive:original.resource">mov/water/river_dm1.mov</property>
  <property name="kdenlive:original.meta.media.nb_streams">5</property>
  <property name="kdenlive:original.meta.media.0.stream.type">video</property>
  <property name="kdenlive:original.meta.media.0.stream.frame_rate">29.9736</property>
  <property name="kdenlive:original.meta.media.0.stream.sample_aspect_ratio">0</property>
  <property name="kdenlive:original.meta.media.0.codec.width">1920</property>
  <property name="kdenlive:original.meta.media.0.codec.height">1080</property>
  <property name="kdenlive:original.meta.media.0.codec.rotate">0</property>
  <property name="kdenlive:original.meta.media.0.codec.frame_rate">600</property>
  <property name="kdenlive:original.meta.media.0.codec.pix_fmt">yuv420p</property>
  <property name="kdenlive:original.meta.media.0.codec.sample_aspect_ratio">0</property>
  <property name="kdenlive:original.meta.media.0.codec.colorspace">709</property>
  <property name="kdenlive:original.meta.media.0.codec.color_trc">1</property>
  <property name="kdenlive:original.meta.media.0.codec.name">hevc</property>
  <property name="kdenlive:original.meta.media.0.codec.long_name">HEVC (High Efficiency Video Coding)</property>
  <property name="kdenlive:original.meta.media.0.codec.bit_rate">7696020</property>
  <property name="kdenlive:original.meta.attr.0.stream.creation_time.markup">2020-04-27T17:31:45.000000Z</property>
  <property name="kdenlive:original.meta.attr.0.stream.handler_name.markup">Core Media Video</property>
  <property name="kdenlive:original.meta.attr.0.stream.encoder.markup">HEVC</property>
  <property name="kdenlive:original.meta.media.1.stream.type">audio</property>
  <property name="kdenlive:original.meta.media.1.codec.sample_fmt">fltp</property>
  <property name="kdenlive:original.meta.media.1.codec.sample_rate">44100</property>
  <property name="kdenlive:original.meta.media.1.codec.channels">1</property>
  <property name="kdenlive:original.meta.media.1.codec.name">aac</property>
  <property name="kdenlive:original.meta.media.1.codec.long_name">AAC (Advanced Audio Coding)</property>
  <property name="kdenlive:original.meta.media.1.codec.bit_rate">98022</property>
  <property name="kdenlive:original.meta.attr.1.stream.creation_time.markup">2020-04-27T17:31:45.000000Z</property>
  <property name="kdenlive:original.meta.attr.1.stream.handler_name.markup">Core Media Audio</property>
  <property name="kdenlive:original.meta.attr.major_brand.markup">qt  </property>
  <property name="kdenlive:original.meta.attr.minor_version.markup">0</property>
  <property name="kdenlive:original.meta.attr.compatible_brands.markup">qt  </property>
  <property name="kdenlive:original.meta.attr.creation_time.markup">2020-04-27T17:31:45.000000Z</property>
  <property name="kdenlive:original.meta.attr.com.apple.quicktime.make.markup">Apple</property>
  <property name="kdenlive:original.meta.attr.com.apple.quicktime.model.markup">iPhone XS</property>
  <property name="kdenlive:original.meta.attr.com.apple.quicktime.software.markup">13.3.1</property>
  <property name="kdenlive:original.meta.attr.com.apple.quicktime.creationdate.markup">2020-04-27T19:31:45+0200</property>
  <property name="kdenlive:original.seekable">1</property>
  <property name="kdenlive:original.width">1920</property>
  <property name="kdenlive:original.height">1080</property>
  <property name="kdenlive:original.meta.media.sample_aspect_num">1</property>
  <property name="kdenlive:original.meta.media.sample_aspect_den">1</property>
  <property name="kdenlive:original.aspect_ratio">1</property>
  <property name="kdenlive:original.audio_index">1</property>
  <property name="kdenlive:original.video_index">0</property>
  <property name="kdenlive:original.mute_on_pause">0</property>
  <property name="kdenlive:original.mlt_service">avformat-novalidate</property>
  <property name="kdenlive:original.kdenlive:folderid">-1</property>
  <property name="kdenlive:original.meta.media.frame_rate_num">17025</property>
  <property name="kdenlive:original.meta.media.frame_rate_den">568</property>
  <property name="kdenlive:original.meta.media.colorspace">709</property>
  <property name="kdenlive:original.meta.media.color_trc">1</property>
  <property name="kdenlive:original.meta.media.width">1920</property>
  <property name="kdenlive:original.meta.media.height">1080</property>
  <property name="kdenlive:original.meta.media.color_range">mpeg</property>
  <property name="kdenlive:original.kdenlive:id">49</property>
  <property name="kdenlive:original.kdenlive:file_size">22227646</property>
  <property name="kdenlive:original.kdenlive:file_hash">c98bfa6754a1e293b3f3e8264ff62cde</property>
  <property name="kdenlive:original.backup">1</property>
  <property name="global_feed">1</property>
  <property name="meta.media.nb_streams">2</property>
  <property name="meta.media.0.stream.type">video</property>
  <property name="meta.media.0.stream.frame_rate">29.97</property>
  <property name="meta.media.0.stream.sample_aspect_ratio">0</property>
  <property name="meta.media.0.codec.width">640</property>
  <property name="meta.media.0.codec.height">360</property>
  <property name="meta.media.0.codec.rotate">0</property>
  <property name="meta.media.0.codec.frame_rate">29.97</property>
  <property name="meta.media.0.codec.pix_fmt">yuv420p</property>
  <property name="meta.media.0.codec.sample_aspect_ratio">1</property>
  <property name="meta.media.0.codec.colorspace">601</property>
  <property name="meta.media.0.codec.name">h264</property>
  <property name="meta.media.0.codec.long_name">H.264 / AVC / MPEG-4 AVC / MPEG-4 part 10</property>
  <property name="meta.media.0.codec.bit_rate">8248915</property>
  <property name="meta.attr.0.stream.handler_name.markup">Core Media Video</property>
  <property name="meta.attr.0.stream.encoder.markup">Lavc58.111.100 h264_nvenc</property>
  <property name="meta.media.1.stream.type">audio</property>
  <property name="meta.media.1.codec.sample_fmt">fltp</property>
  <property name="meta.media.1.codec.sample_rate">44100</property>
  <property name="meta.media.1.codec.channels">1</property>
  <property name="meta.media.1.codec.name">aac</property>
  <property name="meta.media.1.codec.long_name">AAC (Advanced Audio Coding)</property>
  <property name="meta.media.1.codec.bit_rate">98076</property>
  <property name="meta.attr.1.stream.handler_name.markup">Core Media Audio</property>
  <property name="meta.attr.major_brand.markup">qt  </property>
  <property name="meta.attr.minor_version.markup">512</property>
  <property name="meta.attr.compatible_brands.markup">qt  </property>
  <property name="meta.attr.encoder.markup">Lavf58.62.100</property>
  <property name="meta.media.sample_aspect_num">1</property>
  <property name="meta.media.sample_aspect_den">1</property>
  <property name="meta.media.frame_rate_num">30000</property>
  <property name="meta.media.frame_rate_den">1001</property>
  <property name="meta.media.colorspace">601</property>
  <property name="meta.media.color_trc">2</property>
  <property name="meta.media.width">640</property>
  <property name="meta.media.height">360</property>
  <property name="meta.media.color_range">mpeg</property>
  <property name="meta.media.top_field_first">0</property>
  <property name="meta.media.progressive">1</property>
  <property name="kdenlive:audio_max">23</property>
 </producer>
 <producer id="producer48" in="00:00:00.000" out="00:00:07.800">
  <property name="length">196</property>
  <property name="eof">pause</property>
  <property name="resource">/home/chiller/.cache/kdenlive/proxy/a1132fd149e2da3e7fd25965c156f5a3.mov</property>
  <property name="audio_index">1</property>
  <property name="video_index">0</property>
  <property name="mute_on_pause">0</property>
  <property name="mlt_service">avformat-novalidate</property>
  <property name="seekable">1</property>
  <property name="aspect_ratio">1</property>
  <property name="kdenlive:clipname">rain_starbucks.mov</property>
  <property name="kdenlive:folderid">-1</property>
  <property name="kdenlive:id">50</property>
  <property name="kdenlive:file_size">8221563</property>
  <property name="kdenlive:file_hash">a1132fd149e2da3e7fd25965c156f5a3</property>
  <property name="kdenlive:proxy">/home/chiller/.cache/kdenlive/proxy/a1132fd149e2da3e7fd25965c156f5a3.mov</property>
  <property name="kdenlive:originalurl">mov/outdoor/rain_starbucks.mov</property>
  <property name="kdenlive:original.mlt_type">producer</property>
  <property name="kdenlive:original.in">0</property>
  <property name="kdenlive:original.out">195</property>
  <property name="kdenlive:original.length">196</property>
  <property name="kdenlive:original.eof">pause</property>
  <property name="kdenlive:original.resource">mov/outdoor/rain_starbucks.mov</property>
  <property name="kdenlive:original.meta.media.nb_streams">5</property>
  <property name="kdenlive:original.meta.media.0.stream.type">video</property>
  <property name="kdenlive:original.meta.media.0.stream.frame_rate">29.9745</property>
  <property name="kdenlive:original.meta.media.0.stream.sample_aspect_ratio">0</property>
  <property name="kdenlive:original.meta.media.0.codec.width">1920</property>
  <property name="kdenlive:original.meta.media.0.codec.height">1080</property>
  <property name="kdenlive:original.meta.media.0.codec.rotate">0</property>
  <property name="kdenlive:original.meta.media.0.codec.frame_rate">600</property>
  <property name="kdenlive:original.meta.media.0.codec.pix_fmt">yuv420p</property>
  <property name="kdenlive:original.meta.media.0.codec.sample_aspect_ratio">0</property>
  <property name="kdenlive:original.meta.media.0.codec.colorspace">709</property>
  <property name="kdenlive:original.meta.media.0.codec.color_trc">1</property>
  <property name="kdenlive:original.meta.media.0.codec.name">hevc</property>
  <property name="kdenlive:original.meta.media.0.codec.long_name">HEVC (High Efficiency Video Coding)</property>
  <property name="kdenlive:original.meta.media.0.codec.bit_rate">8166657</property>
  <property name="kdenlive:original.meta.attr.0.stream.creation_time.markup">2020-06-07T11:43:45.000000Z</property>
  <property name="kdenlive:original.meta.attr.0.stream.handler_name.markup">Core Media Video</property>
  <property name="kdenlive:original.meta.attr.0.stream.encoder.markup">HEVC</property>
  <property name="kdenlive:original.meta.media.1.stream.type">audio</property>
  <property name="kdenlive:original.meta.media.1.codec.sample_fmt">fltp</property>
  <property name="kdenlive:original.meta.media.1.codec.sample_rate">44100</property>
  <property name="kdenlive:original.meta.media.1.codec.channels">2</property>
  <property name="kdenlive:original.meta.media.1.codec.name">aac</property>
  <property name="kdenlive:original.meta.media.1.codec.long_name">AAC (Advanced Audio Coding)</property>
  <property name="kdenlive:original.meta.media.1.codec.bit_rate">191707</property>
  <property name="kdenlive:original.meta.attr.1.stream.creation_time.markup">2020-06-07T11:43:45.000000Z</property>
  <property name="kdenlive:original.meta.attr.1.stream.handler_name.markup">Core Media Audio</property>
  <property name="kdenlive:original.meta.attr.major_brand.markup">qt  </property>
  <property name="kdenlive:original.meta.attr.minor_version.markup">0</property>
  <property name="kdenlive:original.meta.attr.compatible_brands.markup">qt  </property>
  <property name="kdenlive:original.meta.attr.creation_time.markup">2020-06-07T11:43:45.000000Z</property>
  <property name="kdenlive:original.meta.attr.com.apple.quicktime.make.markup">Apple</property>
  <property name="kdenlive:original.meta.attr.com.apple.quicktime.model.markup">iPhone XS</property>
  <property name="kdenlive:original.meta.attr.com.apple.quicktime.software.markup">13.4.1</property>
  <property name="kdenlive:original.meta.attr.com.apple.quicktime.creationdate.markup">2020-06-07T13:43:45+0200</property>
  <property name="kdenlive:original.seekable">1</property>
  <property name="kdenlive:original.width">1920</property>
  <property name="kdenlive:original.height">1080</property>
  <property name="kdenlive:original.meta.media.sample_aspect_num">1</property>
  <property name="kdenlive:original.meta.media.sample_aspect_den">1</property>
  <property name="kdenlive:original.aspect_ratio">1</property>
  <property name="kdenlive:original.audio_index">1</property>
  <property name="kdenlive:original.video_index">0</property>
  <property name="kdenlive:original.mute_on_pause">0</property>
  <property name="kdenlive:original.mlt_service">avformat-novalidate</property>
  <property name="kdenlive:original.kdenlive:folderid">-1</property>
  <property name="kdenlive:original.meta.media.frame_rate_num">5875</property>
  <property name="kdenlive:original.meta.media.frame_rate_den">196</property>
  <property name="kdenlive:original.meta.media.colorspace">709</property>
  <property name="kdenlive:original.meta.media.color_trc">1</property>
  <property name="kdenlive:original.meta.media.width">1920</property>
  <property name="kdenlive:original.meta.media.height">1080</property>
  <property name="kdenlive:original.meta.media.color_range">mpeg</property>
  <property name="kdenlive:original.kdenlive:id">50</property>
  <property name="kdenlive:original.kdenlive:file_size">8221563</property>
  <property name="kdenlive:original.kdenlive:file_hash">a1132fd149e2da3e7fd25965c156f5a3</property>
  <property name="kdenlive:original.backup">1</property>
  <property name="global_feed">1</property>
  <property name="meta.media.nb_streams">2</property>
  <property name="meta.media.0.stream.type">video</property>
  <property name="meta.media.0.stream.frame_rate">29.97</property>
  <property name="meta.media.0.stream.sample_aspect_ratio">0</property>
  <property name="meta.media.0.codec.width">640</property>
  <property name="meta.media.0.codec.height">360</property>
  <property name="meta.media.0.codec.rotate">0</property>
  <property name="meta.media.0.codec.frame_rate">29.97</property>
  <property name="meta.media.0.codec.pix_fmt">yuv420p</property>
  <property name="meta.media.0.codec.sample_aspect_ratio">1</property>
  <property name="meta.media.0.codec.colorspace">601</property>
  <property name="meta.media.0.codec.name">h264</property>
  <property name="meta.media.0.codec.long_name">H.264 / AVC / MPEG-4 AVC / MPEG-4 part 10</property>
  <property name="meta.media.0.codec.bit_rate">7014074</property>
  <property name="meta.attr.0.stream.handler_name.markup">Core Media Video</property>
  <property name="meta.attr.0.stream.encoder.markup">Lavc58.111.100 h264_nvenc</property>
  <property name="meta.media.1.stream.type">audio</property>
  <property name="meta.media.1.codec.sample_fmt">fltp</property>
  <property name="meta.media.1.codec.sample_rate">44100</property>
  <property name="meta.media.1.codec.channels">2</property>
  <property name="meta.media.1.codec.name">aac</property>
  <property name="meta.media.1.codec.long_name">AAC (Advanced Audio Coding)</property>
  <property name="meta.media.1.codec.bit_rate">191877</property>
  <property name="meta.attr.1.stream.handler_name.markup">Core Media Audio</property>
  <property name="meta.attr.major_brand.markup">qt  </property>
  <property name="meta.attr.minor_version.markup">512</property>
  <property name="meta.attr.compatible_brands.markup">qt  </property>
  <property name="meta.attr.encoder.markup">Lavf58.62.100</property>
  <property name="meta.media.sample_aspect_num">1</property>
  <property name="meta.media.sample_aspect_den">1</property>
  <property name="meta.media.frame_rate_num">30000</property>
  <property name="meta.media.frame_rate_den">1001</property>
  <property name="meta.media.colorspace">601</property>
  <property name="meta.media.color_trc">2</property>
  <property name="meta.media.width">640</property>
  <property name="meta.media.height">360</property>
  <property name="meta.media.color_range">mpeg</property>
  <property name="meta.media.top_field_first">0</property>
  <property name="meta.media.progressive">1</property>
  <property name="kdenlive:audio_max">15</property>
 </producer>
 <producer id="producer49" in="00:00:00.000" out="00:00:07.280">
  <property name="length">183</property>
  <property name="eof">pause</property>
  <property name="resource">/home/chiller/.cache/kdenlive/proxy/b8c8df8df8235ee3c8d8b9774dd9a98b.mov</property>
  <property name="audio_index">1</property>
  <property name="video_index">0</property>
  <property name="mute_on_pause">0</property>
  <property name="mlt_service">avformat-novalidate</property>
  <property name="seekable">1</property>
  <property name="aspect_ratio">1</property>
  <property name="kdenlive:clipname">prague_airbnb.mov</property>
  <property name="kdenlive:folderid">-1</property>
  <property name="kdenlive:id">51</property>
  <property name="kdenlive:file_size">8545603</property>
  <property name="kdenlive:file_hash">b8c8df8df8235ee3c8d8b9774dd9a98b</property>
  <property name="kdenlive:proxy">/home/chiller/.cache/kdenlive/proxy/b8c8df8df8235ee3c8d8b9774dd9a98b.mov</property>
  <property name="kdenlive:originalurl">mov/indoor/prague_airbnb.mov</property>
  <property name="kdenlive:original.mlt_type">producer</property>
  <property name="kdenlive:original.in">0</property>
  <property name="kdenlive:original.out">182</property>
  <property name="kdenlive:original.length">183</property>
  <property name="kdenlive:original.eof">pause</property>
  <property name="kdenlive:original.resource">mov/indoor/prague_airbnb.mov</property>
  <property name="kdenlive:original.meta.media.nb_streams">5</property>
  <property name="kdenlive:original.meta.media.0.stream.type">video</property>
  <property name="kdenlive:original.meta.media.0.stream.frame_rate">29.9726</property>
  <property name="kdenlive:original.meta.media.0.stream.sample_aspect_ratio">0</property>
  <property name="kdenlive:original.meta.media.0.codec.width">1920</property>
  <property name="kdenlive:original.meta.media.0.codec.height">1080</property>
  <property name="kdenlive:original.meta.media.0.codec.rotate">0</property>
  <property name="kdenlive:original.meta.media.0.codec.frame_rate">600</property>
  <property name="kdenlive:original.meta.media.0.codec.pix_fmt">yuv420p</property>
  <property name="kdenlive:original.meta.media.0.codec.sample_aspect_ratio">0</property>
  <property name="kdenlive:original.meta.media.0.codec.colorspace">709</property>
  <property name="kdenlive:original.meta.media.0.codec.color_trc">1</property>
  <property name="kdenlive:original.meta.media.0.codec.name">hevc</property>
  <property name="kdenlive:original.meta.media.0.codec.long_name">HEVC (High Efficiency Video Coding)</property>
  <property name="kdenlive:original.meta.media.0.codec.bit_rate">9149968</property>
  <property name="kdenlive:original.meta.attr.0.stream.creation_time.markup">2019-12-31T15:38:19.000000Z</property>
  <property name="kdenlive:original.meta.attr.0.stream.handler_name.markup">Core Media Video</property>
  <property name="kdenlive:original.meta.attr.0.stream.encoder.markup">HEVC</property>
  <property name="kdenlive:original.meta.media.1.stream.type">audio</property>
  <property name="kdenlive:original.meta.media.1.codec.sample_fmt">fltp</property>
  <property name="kdenlive:original.meta.media.1.codec.sample_rate">44100</property>
  <property name="kdenlive:original.meta.media.1.codec.channels">2</property>
  <property name="kdenlive:original.meta.media.1.codec.name">aac</property>
  <property name="kdenlive:original.meta.media.1.codec.long_name">AAC (Advanced Audio Coding)</property>
  <property name="kdenlive:original.meta.media.1.codec.bit_rate">175066</property>
  <property name="kdenlive:original.meta.attr.1.stream.creation_time.markup">2019-12-31T15:38:19.000000Z</property>
  <property name="kdenlive:original.meta.attr.1.stream.handler_name.markup">Core Media Audio</property>
  <property name="kdenlive:original.meta.attr.major_brand.markup">qt  </property>
  <property name="kdenlive:original.meta.attr.minor_version.markup">0</property>
  <property name="kdenlive:original.meta.attr.compatible_brands.markup">qt  </property>
  <property name="kdenlive:original.meta.attr.creation_time.markup">2019-12-31T15:38:19.000000Z</property>
  <property name="kdenlive:original.meta.attr.com.apple.quicktime.make.markup">Apple</property>
  <property name="kdenlive:original.meta.attr.com.apple.quicktime.model.markup">iPhone XS</property>
  <property name="kdenlive:original.meta.attr.com.apple.quicktime.software.markup">13.3</property>
  <property name="kdenlive:original.meta.attr.com.apple.quicktime.creationdate.markup">2019-12-31T16:38:19+0100</property>
  <property name="kdenlive:original.seekable">1</property>
  <property name="kdenlive:original.width">1920</property>
  <property name="kdenlive:original.height">1080</property>
  <property name="kdenlive:original.meta.media.sample_aspect_num">1</property>
  <property name="kdenlive:original.meta.media.sample_aspect_den">1</property>
  <property name="kdenlive:original.aspect_ratio">1</property>
  <property name="kdenlive:original.audio_index">1</property>
  <property name="kdenlive:original.video_index">0</property>
  <property name="kdenlive:original.mute_on_pause">0</property>
  <property name="kdenlive:original.mlt_service">avformat-novalidate</property>
  <property name="kdenlive:original.kdenlive:folderid">-1</property>
  <property name="kdenlive:original.meta.media.frame_rate_num">16425</property>
  <property name="kdenlive:original.meta.media.frame_rate_den">548</property>
  <property name="kdenlive:original.meta.media.colorspace">709</property>
  <property name="kdenlive:original.meta.media.color_trc">1</property>
  <property name="kdenlive:original.meta.media.width">1920</property>
  <property name="kdenlive:original.meta.media.height">1080</property>
  <property name="kdenlive:original.meta.media.color_range">mpeg</property>
  <property name="kdenlive:original.kdenlive:id">51</property>
  <property name="kdenlive:original.kdenlive:file_size">8545603</property>
  <property name="kdenlive:original.kdenlive:file_hash">b8c8df8df8235ee3c8d8b9774dd9a98b</property>
  <property name="kdenlive:original.backup">1</property>
  <property name="kdenlive:audio_max">23</property>
  <property name="global_feed">1</property>
  <property name="meta.media.nb_streams">2</property>
  <property name="meta.media.0.stream.type">video</property>
  <property name="meta.media.0.stream.frame_rate">29.97</property>
  <property name="meta.media.0.stream.sample_aspect_ratio">0</property>
  <property name="meta.media.0.codec.width">640</property>
  <property name="meta.media.0.codec.height">360</property>
  <property name="meta.media.0.codec.rotate">0</property>
  <property name="meta.media.0.codec.frame_rate">29.97</property>
  <property name="meta.media.0.codec.pix_fmt">yuv420p</property>
  <property name="meta.media.0.codec.sample_aspect_ratio">1</property>
  <property name="meta.media.0.codec.colorspace">601</property>
  <property name="meta.media.0.codec.name">h264</property>
  <property name="meta.media.0.codec.long_name">H.264 / AVC / MPEG-4 AVC / MPEG-4 part 10</property>
  <property name="meta.media.0.codec.bit_rate">5893138</property>
  <property name="meta.attr.0.stream.handler_name.markup">Core Media Video</property>
  <property name="meta.attr.0.stream.encoder.markup">Lavc58.111.100 h264_nvenc</property>
  <property name="meta.media.1.stream.type">audio</property>
  <property name="meta.media.1.codec.sample_fmt">fltp</property>
  <property name="meta.media.1.codec.sample_rate">44100</property>
  <property name="meta.media.1.codec.channels">2</property>
  <property name="meta.media.1.codec.name">aac</property>
  <property name="meta.media.1.codec.long_name">AAC (Advanced Audio Coding)</property>
  <property name="meta.media.1.codec.bit_rate">175517</property>
  <property name="meta.attr.1.stream.handler_name.markup">Core Media Audio</property>
  <property name="meta.attr.major_brand.markup">qt  </property>
  <property name="meta.attr.minor_version.markup">512</property>
  <property name="meta.attr.compatible_brands.markup">qt  </property>
  <property name="meta.attr.encoder.markup">Lavf58.62.100</property>
  <property name="meta.media.sample_aspect_num">1</property>
  <property name="meta.media.sample_aspect_den">1</property>
  <property name="meta.media.frame_rate_num">30000</property>
  <property name="meta.media.frame_rate_den">1001</property>
  <property name="meta.media.colorspace">601</property>
  <property name="meta.media.color_trc">2</property>
  <property name="meta.media.width">640</property>
  <property name="meta.media.height">360</property>
  <property name="meta.media.color_range">mpeg</property>
  <property name="meta.media.top_field_first">0</property>
  <property name="meta.media.progressive">1</property>
 </producer>
 <producer id="producer50" in="00:00:00.000" out="00:00:05.320">
  <property name="length">134</property>
  <property name="eof">pause</property>
  <property name="resource">/home/chiller/.cache/kdenlive/proxy/30ecbea1cd56a6ccb94b165da7ab2b00.mov</property>
  <property name="audio_index">1</property>
  <property name="video_index">0</property>
  <property name="mute_on_pause">0</property>
  <property name="mlt_service">avformat-novalidate</property>
  <property name="seekable">1</property>
  <property name="aspect_ratio">1</property>
  <property name="kdenlive:clipname">oldenburg.mov</property>
  <property name="kdenlive:folderid">-1</property>
  <property name="kdenlive:id">52</property>
  <property name="kdenlive:file_size">5513011</property>
  <property name="kdenlive:file_hash">30ecbea1cd56a6ccb94b165da7ab2b00</property>
  <property name="kdenlive:proxy">/home/chiller/.cache/kdenlive/proxy/30ecbea1cd56a6ccb94b165da7ab2b00.mov</property>
  <property name="kdenlive:originalurl">mov/indoor/oldenburg.mov</property>
  <property name="kdenlive:original.mlt_type">producer</property>
  <property name="kdenlive:original.in">0</property>
  <property name="kdenlive:original.out">133</property>
  <property name="kdenlive:original.length">134</property>
  <property name="kdenlive:original.eof">pause</property>
  <property name="kdenlive:original.resource">mov/indoor/oldenburg.mov</property>
  <property name="kdenlive:original.meta.media.nb_streams">5</property>
  <property name="kdenlive:original.meta.media.0.stream.type">video</property>
  <property name="kdenlive:original.meta.media.0.stream.frame_rate">29.9721</property>
  <property name="kdenlive:original.meta.media.0.stream.sample_aspect_ratio">0</property>
  <property name="kdenlive:original.meta.media.0.codec.width">1920</property>
  <property name="kdenlive:original.meta.media.0.codec.height">1080</property>
  <property name="kdenlive:original.meta.media.0.codec.rotate">0</property>
  <property name="kdenlive:original.meta.media.0.codec.frame_rate">600</property>
  <property name="kdenlive:original.meta.media.0.codec.pix_fmt">yuv420p</property>
  <property name="kdenlive:original.meta.media.0.codec.sample_aspect_ratio">0</property>
  <property name="kdenlive:original.meta.media.0.codec.colorspace">709</property>
  <property name="kdenlive:original.meta.media.0.codec.color_trc">1</property>
  <property name="kdenlive:original.meta.media.0.codec.name">hevc</property>
  <property name="kdenlive:original.meta.media.0.codec.long_name">HEVC (High Efficiency Video Coding)</property>
  <property name="kdenlive:original.meta.media.0.codec.bit_rate">8007594</property>
  <property name="kdenlive:original.meta.attr.0.stream.creation_time.markup">2020-02-19T07:43:41.000000Z</property>
  <property name="kdenlive:original.meta.attr.0.stream.handler_name.markup">Core Media Video</property>
  <property name="kdenlive:original.meta.attr.0.stream.encoder.markup">HEVC</property>
  <property name="kdenlive:original.meta.media.1.stream.type">audio</property>
  <property name="kdenlive:original.meta.media.1.codec.sample_fmt">fltp</property>
  <property name="kdenlive:original.meta.media.1.codec.sample_rate">44100</property>
  <property name="kdenlive:original.meta.media.1.codec.channels">2</property>
  <property name="kdenlive:original.meta.media.1.codec.name">aac</property>
  <property name="kdenlive:original.meta.media.1.codec.long_name">AAC (Advanced Audio Coding)</property>
  <property name="kdenlive:original.meta.media.1.codec.bit_rate">167992</property>
  <property name="kdenlive:original.meta.attr.1.stream.creation_time.markup">2020-02-19T07:43:41.000000Z</property>
  <property name="kdenlive:original.meta.attr.1.stream.handler_name.markup">Core Media Audio</property>
  <property name="kdenlive:original.meta.attr.major_brand.markup">qt  </property>
  <property name="kdenlive:original.meta.attr.minor_version.markup">0</property>
  <property name="kdenlive:original.meta.attr.compatible_brands.markup">qt  </property>
  <property name="kdenlive:original.meta.attr.creation_time.markup">2020-02-19T07:43:41.000000Z</property>
  <property name="kdenlive:original.meta.attr.com.apple.quicktime.make.markup">Apple</property>
  <property name="kdenlive:original.meta.attr.com.apple.quicktime.model.markup">iPhone XS</property>
  <property name="kdenlive:original.meta.attr.com.apple.quicktime.software.markup">13.3.1</property>
  <property name="kdenlive:original.meta.attr.com.apple.quicktime.creationdate.markup">2020-02-19T08:43:41+0100</property>
  <property name="kdenlive:original.seekable">1</property>
  <property name="kdenlive:original.width">1920</property>
  <property name="kdenlive:original.height">1080</property>
  <property name="kdenlive:original.meta.media.sample_aspect_num">1</property>
  <property name="kdenlive:original.meta.media.sample_aspect_den">1</property>
  <property name="kdenlive:original.aspect_ratio">1</property>
  <property name="kdenlive:original.audio_index">1</property>
  <property name="kdenlive:original.video_index">0</property>
  <property name="kdenlive:original.mute_on_pause">0</property>
  <property name="kdenlive:original.mlt_service">avformat-novalidate</property>
  <property name="kdenlive:original.kdenlive:folderid">-1</property>
  <property name="kdenlive:original.meta.media.frame_rate_num">96600</property>
  <property name="kdenlive:original.meta.media.frame_rate_den">3223</property>
  <property name="kdenlive:original.meta.media.colorspace">709</property>
  <property name="kdenlive:original.meta.media.color_trc">1</property>
  <property name="kdenlive:original.meta.media.width">1920</property>
  <property name="kdenlive:original.meta.media.height">1080</property>
  <property name="kdenlive:original.meta.media.color_range">mpeg</property>
  <property name="kdenlive:original.kdenlive:id">52</property>
  <property name="kdenlive:original.kdenlive:file_size">5513011</property>
  <property name="kdenlive:original.kdenlive:file_hash">30ecbea1cd56a6ccb94b165da7ab2b00</property>
  <property name="kdenlive:original.backup">1</property>
  <property name="kdenlive:audio_max">31</property>
  <property name="global_feed">1</property>
  <property name="meta.media.nb_streams">2</property>
  <property name="meta.media.0.stream.type">video</property>
  <property name="meta.media.0.stream.frame_rate">29.97</property>
  <property name="meta.media.0.stream.sample_aspect_ratio">0</property>
  <property name="meta.media.0.codec.width">640</property>
  <property name="meta.media.0.codec.height">360</property>
  <property name="meta.media.0.codec.rotate">0</property>
  <property name="meta.media.0.codec.frame_rate">29.97</property>
  <property name="meta.media.0.codec.pix_fmt">yuv420p</property>
  <property name="meta.media.0.codec.sample_aspect_ratio">1</property>
  <property name="meta.media.0.codec.colorspace">601</property>
  <property name="meta.media.0.codec.name">h264</property>
  <property name="meta.media.0.codec.long_name">H.264 / AVC / MPEG-4 AVC / MPEG-4 part 10</property>
  <property name="meta.media.0.codec.bit_rate">8725098</property>
  <property name="meta.attr.0.stream.handler_name.markup">Core Media Video</property>
  <property name="meta.attr.0.stream.encoder.markup">Lavc58.111.100 h264_nvenc</property>
  <property name="meta.media.1.stream.type">audio</property>
  <property name="meta.media.1.codec.sample_fmt">fltp</property>
  <property name="meta.media.1.codec.sample_rate">44100</property>
  <property name="meta.media.1.codec.channels">2</property>
  <property name="meta.media.1.codec.name">aac</property>
  <property name="meta.media.1.codec.long_name">AAC (Advanced Audio Coding)</property>
  <property name="meta.media.1.codec.bit_rate">168911</property>
  <property name="meta.attr.1.stream.handler_name.markup">Core Media Audio</property>
  <property name="meta.attr.major_brand.markup">qt  </property>
  <property name="meta.attr.minor_version.markup">512</property>
  <property name="meta.attr.compatible_brands.markup">qt  </property>
  <property name="meta.attr.encoder.markup">Lavf58.62.100</property>
  <property name="meta.media.sample_aspect_num">1</property>
  <property name="meta.media.sample_aspect_den">1</property>
  <property name="meta.media.frame_rate_num">30000</property>
  <property name="meta.media.frame_rate_den">1001</property>
  <property name="meta.media.colorspace">601</property>
  <property name="meta.media.color_trc">2</property>
  <property name="meta.media.width">640</property>
  <property name="meta.media.height">360</property>
  <property name="meta.media.color_range">mpeg</property>
  <property name="meta.media.top_field_first">0</property>
  <property name="meta.media.progressive">1</property>
 </producer>
 <producer id="producer51" in="00:00:00.000" out="00:00:21.240">
  <property name="length">532</property>
  <property name="eof">pause</property>
  <property name="resource">/home/chiller/.cache/kdenlive/proxy/53e19c451d48d5d8ba4c163f0709c232.mov</property>
  <property name="audio_index">1</property>
  <property name="video_index">0</property>
  <property name="mute_on_pause">0</property>
  <property name="mlt_service">avformat-novalidate</property>
  <property name="seekable">1</property>
  <property name="aspect_ratio">1</property>
  <property name="kdenlive:clipname">kvr.mov</property>
  <property name="kdenlive:folderid">-1</property>
  <property name="kdenlive:id">53</property>
  <property name="kdenlive:file_size">20672539</property>
  <property name="kdenlive:file_hash">53e19c451d48d5d8ba4c163f0709c232</property>
  <property name="kdenlive:proxy">/home/chiller/.cache/kdenlive/proxy/53e19c451d48d5d8ba4c163f0709c232.mov</property>
  <property name="kdenlive:originalurl">mov/kvr.mov</property>
  <property name="kdenlive:original.mlt_type">producer</property>
  <property name="kdenlive:original.in">0</property>
  <property name="kdenlive:original.out">531</property>
  <property name="kdenlive:original.length">532</property>
  <property name="kdenlive:original.eof">pause</property>
  <property name="kdenlive:original.resource">mov/kvr.mov</property>
  <property name="kdenlive:original.meta.media.nb_streams">4</property>
  <property name="kdenlive:original.meta.media.0.stream.type">video</property>
  <property name="kdenlive:original.meta.media.0.stream.frame_rate">29.9742</property>
  <property name="kdenlive:original.meta.media.0.stream.sample_aspect_ratio">0</property>
  <property name="kdenlive:original.meta.media.0.codec.width">1920</property>
  <property name="kdenlive:original.meta.media.0.codec.height">1080</property>
  <property name="kdenlive:original.meta.media.0.codec.rotate">0</property>
  <property name="kdenlive:original.meta.media.0.codec.frame_rate">600</property>
  <property name="kdenlive:original.meta.media.0.codec.pix_fmt">yuv420p</property>
  <property name="kdenlive:original.meta.media.0.codec.sample_aspect_ratio">0</property>
  <property name="kdenlive:original.meta.media.0.codec.colorspace">709</property>
  <property name="kdenlive:original.meta.media.0.codec.color_trc">1</property>
  <property name="kdenlive:original.meta.media.0.codec.name">hevc</property>
  <property name="kdenlive:original.meta.media.0.codec.long_name">HEVC (High Efficiency Video Coding)</property>
  <property name="kdenlive:original.meta.media.0.codec.bit_rate">7577921</property>
  <property name="kdenlive:original.meta.attr.0.stream.creation_time.markup">2019-09-06T08:52:27.000000Z</property>
  <property name="kdenlive:original.meta.attr.0.stream.handler_name.markup">Core Media Video</property>
  <property name="kdenlive:original.meta.attr.0.stream.encoder.markup">HEVC</property>
  <property name="kdenlive:original.meta.media.1.stream.type">audio</property>
  <property name="kdenlive:original.meta.media.1.codec.sample_fmt">fltp</property>
  <property name="kdenlive:original.meta.media.1.codec.sample_rate">44100</property>
  <property name="kdenlive:original.meta.media.1.codec.channels">2</property>
  <property name="kdenlive:original.meta.media.1.codec.name">aac</property>
  <property name="kdenlive:original.meta.media.1.codec.long_name">AAC (Advanced Audio Coding)</property>
  <property name="kdenlive:original.meta.media.1.codec.bit_rate">176037</property>
  <property name="kdenlive:original.meta.attr.1.stream.creation_time.markup">2019-09-06T08:52:27.000000Z</property>
  <property name="kdenlive:original.meta.attr.1.stream.handler_name.markup">Core Media Audio</property>
  <property name="kdenlive:original.meta.attr.major_brand.markup">qt  </property>
  <property name="kdenlive:original.meta.attr.minor_version.markup">0</property>
  <property name="kdenlive:original.meta.attr.compatible_brands.markup">qt  </property>
  <property name="kdenlive:original.meta.attr.creation_time.markup">2019-09-06T08:52:27.000000Z</property>
  <property name="kdenlive:original.meta.attr.com.apple.quicktime.make.markup">Apple</property>
  <property name="kdenlive:original.meta.attr.com.apple.quicktime.model.markup">iPhone XS</property>
  <property name="kdenlive:original.meta.attr.com.apple.quicktime.software.markup">12.4</property>
  <property name="kdenlive:original.meta.attr.com.apple.quicktime.creationdate.markup">2019-09-06T10:52:26+0200</property>
  <property name="kdenlive:original.seekable">1</property>
  <property name="kdenlive:original.width">1920</property>
  <property name="kdenlive:original.height">1080</property>
  <property name="kdenlive:original.meta.media.sample_aspect_num">1</property>
  <property name="kdenlive:original.meta.media.sample_aspect_den">1</property>
  <property name="kdenlive:original.aspect_ratio">1</property>
  <property name="kdenlive:original.audio_index">1</property>
  <property name="kdenlive:original.video_index">0</property>
  <property name="kdenlive:original.mute_on_pause">0</property>
  <property name="kdenlive:original.mlt_service">avformat-novalidate</property>
  <property name="kdenlive:original.kdenlive:folderid">-1</property>
  <property name="kdenlive:original.meta.media.frame_rate_num">11600</property>
  <property name="kdenlive:original.meta.media.frame_rate_den">387</property>
  <property name="kdenlive:original.meta.media.colorspace">709</property>
  <property name="kdenlive:original.meta.media.color_trc">1</property>
  <property name="kdenlive:original.meta.media.width">1920</property>
  <property name="kdenlive:original.meta.media.height">1080</property>
  <property name="kdenlive:original.meta.media.color_range">mpeg</property>
  <property name="kdenlive:original.kdenlive:id">53</property>
  <property name="kdenlive:original.kdenlive:file_size">20672539</property>
  <property name="kdenlive:original.kdenlive:file_hash">53e19c451d48d5d8ba4c163f0709c232</property>
  <property name="kdenlive:original.backup">1</property>
  <property name="kdenlive:audio_max">15</property>
  <property name="global_feed">1</property>
  <property name="meta.media.nb_streams">2</property>
  <property name="meta.media.0.stream.type">video</property>
  <property name="meta.media.0.stream.frame_rate">29.97</property>
  <property name="meta.media.0.stream.sample_aspect_ratio">0</property>
  <property name="meta.media.0.codec.width">640</property>
  <property name="meta.media.0.codec.height">360</property>
  <property name="meta.media.0.codec.rotate">0</property>
  <property name="meta.media.0.codec.frame_rate">29.97</property>
  <property name="meta.media.0.codec.pix_fmt">yuv420p</property>
  <property name="meta.media.0.codec.sample_aspect_ratio">1</property>
  <property name="meta.media.0.codec.colorspace">601</property>
  <property name="meta.media.0.codec.name">h264</property>
  <property name="meta.media.0.codec.long_name">H.264 / AVC / MPEG-4 AVC / MPEG-4 part 10</property>
  <property name="meta.media.0.codec.bit_rate">5293725</property>
  <property name="meta.attr.0.stream.handler_name.markup">Core Media Video</property>
  <property name="meta.attr.0.stream.encoder.markup">Lavc58.111.100 h264_nvenc</property>
  <property name="meta.media.1.stream.type">audio</property>
  <property name="meta.media.1.codec.sample_fmt">fltp</property>
  <property name="meta.media.1.codec.sample_rate">44100</property>
  <property name="meta.media.1.codec.channels">2</property>
  <property name="meta.media.1.codec.name">aac</property>
  <property name="meta.media.1.codec.long_name">AAC (Advanced Audio Coding)</property>
  <property name="meta.media.1.codec.bit_rate">176210</property>
  <property name="meta.attr.1.stream.handler_name.markup">Core Media Audio</property>
  <property name="meta.attr.major_brand.markup">qt  </property>
  <property name="meta.attr.minor_version.markup">512</property>
  <property name="meta.attr.compatible_brands.markup">qt  </property>
  <property name="meta.attr.encoder.markup">Lavf58.62.100</property>
  <property name="meta.media.sample_aspect_num">1</property>
  <property name="meta.media.sample_aspect_den">1</property>
  <property name="meta.media.frame_rate_num">30000</property>
  <property name="meta.media.frame_rate_den">1001</property>
  <property name="meta.media.colorspace">601</property>
  <property name="meta.media.color_trc">2</property>
  <property name="meta.media.width">640</property>
  <property name="meta.media.height">360</property>
  <property name="meta.media.color_range">mpeg</property>
  <property name="meta.media.top_field_first">0</property>
  <property name="meta.media.progressive">1</property>
 </producer>
 <producer id="producer52" in="00:00:00.000" out="00:00:05.280">
  <property name="length">133</property>
  <property name="eof">pause</property>
  <property name="resource">/home/chiller/.cache/kdenlive/proxy/58b1020e7293e3d1f2daa2e50bb0ff8d.mov</property>
  <property name="audio_index">1</property>
  <property name="video_index">0</property>
  <property name="mute_on_pause">0</property>
  <property name="mlt_service">avformat-novalidate</property>
  <property name="seekable">1</property>
  <property name="aspect_ratio">1</property>
  <property name="kdenlive:clipname">83BD7B3E-903C-43EB-AB9E-A6C3C3F170B9.mov</property>
  <property name="kdenlive:folderid">-1</property>
  <property name="kdenlive:id">54</property>
  <property name="kdenlive:file_size">5649907</property>
  <property name="kdenlive:file_hash">58b1020e7293e3d1f2daa2e50bb0ff8d</property>
  <property name="kdenlive:proxy">/home/chiller/.cache/kdenlive/proxy/58b1020e7293e3d1f2daa2e50bb0ff8d.mov</property>
  <property name="kdenlive:originalurl">mov/grass/83BD7B3E-903C-43EB-AB9E-A6C3C3F170B9.mov</property>
  <property name="kdenlive:original.mlt_type">producer</property>
  <property name="kdenlive:original.in">0</property>
  <property name="kdenlive:original.out">132</property>
  <property name="kdenlive:original.length">133</property>
  <property name="kdenlive:original.eof">pause</property>
  <property name="kdenlive:original.resource">mov/grass/83BD7B3E-903C-43EB-AB9E-A6C3C3F170B9.mov</property>
  <property name="kdenlive:original.meta.media.nb_streams">5</property>
  <property name="kdenlive:original.meta.media.0.stream.type">video</property>
  <property name="kdenlive:original.meta.media.0.stream.frame_rate">29.9719</property>
  <property name="kdenlive:original.meta.media.0.stream.sample_aspect_ratio">0</property>
  <property name="kdenlive:original.meta.media.0.codec.width">1920</property>
  <property name="kdenlive:original.meta.media.0.codec.height">1080</property>
  <property name="kdenlive:original.meta.media.0.codec.rotate">0</property>
  <property name="kdenlive:original.meta.media.0.codec.frame_rate">600</property>
  <property name="kdenlive:original.meta.media.0.codec.pix_fmt">yuv420p</property>
  <property name="kdenlive:original.meta.media.0.codec.sample_aspect_ratio">0</property>
  <property name="kdenlive:original.meta.media.0.codec.colorspace">709</property>
  <property name="kdenlive:original.meta.media.0.codec.color_trc">1</property>
  <property name="kdenlive:original.meta.media.0.codec.name">hevc</property>
  <property name="kdenlive:original.meta.media.0.codec.long_name">HEVC (High Efficiency Video Coding)</property>
  <property name="kdenlive:original.meta.media.0.codec.bit_rate">8262372</property>
  <property name="kdenlive:original.meta.attr.0.stream.creation_time.markup">2020-04-12T17:45:56.000000Z</property>
  <property name="kdenlive:original.meta.attr.0.stream.handler_name.markup">Core Media Video</property>
  <property name="kdenlive:original.meta.attr.0.stream.encoder.markup">HEVC</property>
  <property name="kdenlive:original.meta.media.1.stream.type">audio</property>
  <property name="kdenlive:original.meta.media.1.codec.sample_fmt">fltp</property>
  <property name="kdenlive:original.meta.media.1.codec.sample_rate">44100</property>
  <property name="kdenlive:original.meta.media.1.codec.channels">2</property>
  <property name="kdenlive:original.meta.media.1.codec.name">aac</property>
  <property name="kdenlive:original.meta.media.1.codec.long_name">AAC (Advanced Audio Coding)</property>
  <property name="kdenlive:original.meta.media.1.codec.bit_rate">169980</property>
  <property name="kdenlive:original.meta.attr.1.stream.creation_time.markup">2020-04-12T17:45:56.000000Z</property>
  <property name="kdenlive:original.meta.attr.1.stream.handler_name.markup">Core Media Audio</property>
  <property name="kdenlive:original.meta.attr.major_brand.markup">qt  </property>
  <property name="kdenlive:original.meta.attr.minor_version.markup">0</property>
  <property name="kdenlive:original.meta.attr.compatible_brands.markup">qt  </property>
  <property name="kdenlive:original.meta.attr.creation_time.markup">2020-04-12T17:45:56.000000Z</property>
  <property name="kdenlive:original.meta.attr.com.apple.quicktime.make.markup">Apple</property>
  <property name="kdenlive:original.meta.attr.com.apple.quicktime.model.markup">iPhone XS</property>
  <property name="kdenlive:original.meta.attr.com.apple.quicktime.software.markup">13.3.1</property>
  <property name="kdenlive:original.meta.attr.com.apple.quicktime.creationdate.markup">2020-04-12T19:45:55+0200</property>
  <property name="kdenlive:original.seekable">1</property>
  <property name="kdenlive:original.width">1920</property>
  <property name="kdenlive:original.height">1080</property>
  <property name="kdenlive:original.meta.media.sample_aspect_num">1</property>
  <property name="kdenlive:original.meta.media.sample_aspect_den">1</property>
  <property name="kdenlive:original.aspect_ratio">1</property>
  <property name="kdenlive:original.audio_index">1</property>
  <property name="kdenlive:original.video_index">0</property>
  <property name="kdenlive:original.mute_on_pause">0</property>
  <property name="kdenlive:original.mlt_service">avformat-novalidate</property>
  <property name="kdenlive:original.kdenlive:folderid">-1</property>
  <property name="kdenlive:original.meta.media.frame_rate_num">96000</property>
  <property name="kdenlive:original.meta.media.frame_rate_den">3203</property>
  <property name="kdenlive:original.meta.media.colorspace">709</property>
  <property name="kdenlive:original.meta.media.color_trc">1</property>
  <property name="kdenlive:original.meta.media.width">1920</property>
  <property name="kdenlive:original.meta.media.height">1080</property>
  <property name="kdenlive:original.meta.media.color_range">mpeg</property>
  <property name="kdenlive:original.kdenlive:id">54</property>
  <property name="kdenlive:original.kdenlive:file_size">5649907</property>
  <property name="kdenlive:original.kdenlive:file_hash">58b1020e7293e3d1f2daa2e50bb0ff8d</property>
  <property name="kdenlive:original.backup">1</property>
  <property name="kdenlive:audio_max">25</property>
  <property name="global_feed">1</property>
  <property name="meta.media.nb_streams">2</property>
  <property name="meta.media.0.stream.type">video</property>
  <property name="meta.media.0.stream.frame_rate">29.97</property>
  <property name="meta.media.0.stream.sample_aspect_ratio">0</property>
  <property name="meta.media.0.codec.width">640</property>
  <property name="meta.media.0.codec.height">360</property>
  <property name="meta.media.0.codec.rotate">0</property>
  <property name="meta.media.0.codec.frame_rate">29.97</property>
  <property name="meta.media.0.codec.pix_fmt">yuv420p</property>
  <property name="meta.media.0.codec.sample_aspect_ratio">1</property>
  <property name="meta.media.0.codec.colorspace">601</property>
  <property name="meta.media.0.codec.name">h264</property>
  <property name="meta.media.0.codec.long_name">H.264 / AVC / MPEG-4 AVC / MPEG-4 part 10</property>
  <property name="meta.media.0.codec.bit_rate">7302500</property>
  <property name="meta.attr.0.stream.handler_name.markup">Core Media Video</property>
  <property name="meta.attr.0.stream.encoder.markup">Lavc58.111.100 h264_nvenc</property>
  <property name="meta.media.1.stream.type">audio</property>
  <property name="meta.media.1.codec.sample_fmt">fltp</property>
  <property name="meta.media.1.codec.sample_rate">44100</property>
  <property name="meta.media.1.codec.channels">2</property>
  <property name="meta.media.1.codec.name">aac</property>
  <property name="meta.media.1.codec.long_name">AAC (Advanced Audio Coding)</property>
  <property name="meta.media.1.codec.bit_rate">170398</property>
  <property name="meta.attr.1.stream.handler_name.markup">Core Media Audio</property>
  <property name="meta.attr.major_brand.markup">qt  </property>
  <property name="meta.attr.minor_version.markup">512</property>
  <property name="meta.attr.compatible_brands.markup">qt  </property>
  <property name="meta.attr.encoder.markup">Lavf58.62.100</property>
  <property name="meta.media.sample_aspect_num">1</property>
  <property name="meta.media.sample_aspect_den">1</property>
  <property name="meta.media.frame_rate_num">30000</property>
  <property name="meta.media.frame_rate_den">1001</property>
  <property name="meta.media.colorspace">601</property>
  <property name="meta.media.color_trc">2</property>
  <property name="meta.media.width">640</property>
  <property name="meta.media.height">360</property>
  <property name="meta.media.color_range">mpeg</property>
  <property name="meta.media.top_field_first">0</property>
  <property name="meta.media.progressive">1</property>
 </producer>
 <producer id="producer53" in="00:00:00.000" out="00:00:07.840">
  <property name="length">197</property>
  <property name="eof">pause</property>
  <property name="resource">img/tees/toptri.png</property>
  <property name="ttl">25</property>
  <property name="aspect_ratio">1</property>
  <property name="progressive">1</property>
  <property name="seekable">1</property>
  <property name="meta.media.width">142</property>
  <property name="meta.media.height">144</property>
  <property name="mlt_service">qimage</property>
  <property name="kdenlive:clipname"/>
  <property name="kdenlive:duration">00:00:05.000</property>
  <property name="kdenlive:folderid">-1</property>
  <property name="kdenlive:id">55</property>
  <property name="kdenlive:file_size">8841</property>
  <property name="kdenlive:file_hash">42c28b048b505efc729c5ae0072022f5</property>
 </producer>
 <producer id="producer54" in="00:00:00.000" out="00:00:04.960">
  <property name="length">00:00:05.000</property>
  <property name="eof">pause</property>
  <property name="resource">img/tees/pento.png</property>
  <property name="ttl">25</property>
  <property name="aspect_ratio">1</property>
  <property name="progressive">1</property>
  <property name="seekable">1</property>
  <property name="meta.media.width">121</property>
  <property name="meta.media.height">155</property>
  <property name="mlt_service">qimage</property>
  <property name="kdenlive:clipname"/>
  <property name="kdenlive:duration">00:00:05.000</property>
  <property name="kdenlive:folderid">-1</property>
  <property name="kdenlive:id">56</property>
  <property name="kdenlive:file_size">9098</property>
  <property name="kdenlive:file_hash">2506737e519d9eb921ed54512925974e</property>
 </producer>
 <producer id="producer55" in="00:00:00.000" out="00:00:04.960">
  <property name="length">00:00:05.000</property>
  <property name="eof">pause</property>
  <property name="resource">img/tw/tree_small.png</property>
  <property name="ttl">25</property>
  <property name="aspect_ratio">1</property>
  <property name="progressive">1</property>
  <property name="seekable">1</property>
  <property name="meta.media.width">4049</property>
  <property name="meta.media.height">4049</property>
  <property name="mlt_service">qimage</property>
  <property name="kdenlive:clipname"/>
  <property name="kdenlive:duration">00:00:05.000</property>
  <property name="kdenlive:folderid">-1</property>
  <property name="kdenlive:id">57</property>
  <property name="kdenlive:file_size">195456</property>
  <property name="kdenlive:file_hash">03bb650f3e8a30596d23b57948831d6a</property>
 </producer>
 <producer id="producer56" in="00:00:00.000" out="00:00:04.960">
  <property name="length">00:00:05.000</property>
  <property name="eof">pause</property>
  <property name="resource">img/tw/tree_simple.png</property>
  <property name="ttl">25</property>
  <property name="aspect_ratio">1</property>
  <property name="progressive">1</property>
  <property name="seekable">1</property>
  <property name="meta.media.width">4049</property>
  <property name="meta.media.height">5061</property>
  <property name="mlt_service">qimage</property>
  <property name="kdenlive:clipname"/>
  <property name="kdenlive:duration">00:00:05.000</property>
  <property name="kdenlive:folderid">-1</property>
  <property name="kdenlive:id">58</property>
  <property name="kdenlive:file_size">242884</property>
  <property name="kdenlive:file_hash">c695c4b107fe5d40416f2641eeb68593</property>
 </producer>
 <producer id="producer57" in="00:00:00.000" out="00:00:04.960">
  <property name="length">00:00:05.000</property>
  <property name="eof">pause</property>
  <property name="resource">img/tw2020coffe.png</property>
  <property name="ttl">25</property>
  <property name="aspect_ratio">1</property>
  <property name="progressive">1</property>
  <property name="seekable">1</property>
  <property name="meta.media.width">1802</property>
  <property name="meta.media.height">1352</property>
  <property name="mlt_service">qimage</property>
  <property name="kdenlive:clipname"/>
  <property name="kdenlive:duration">00:00:05.000</property>
  <property name="kdenlive:folderid">-1</property>
  <property name="kdenlive:id">59</property>
  <property name="kdenlive:file_size">156593</property>
  <property name="kdenlive:file_hash">9bd07f8bdd5e3e1818cae819885f2caa</property>
  <property name="global_feed">1</property>
 </producer>
 <playlist id="main_bin">
  <property name="kdenlive:docproperties.activeTrack">3</property>
  <property name="kdenlive:docproperties.audioChannels">2</property>
  <property name="kdenlive:docproperties.audioTarget">-1</property>
  <property name="kdenlive:docproperties.dirtypreviewchunks">525,550,575,600</property>
  <property name="kdenlive:docproperties.disablepreview">0</property>
  <property name="kdenlive:docproperties.documentid">1602502092412</property>
  <property name="kdenlive:docproperties.enableTimelineZone">0</property>
  <property name="kdenlive:docproperties.enableexternalproxy">0</property>
  <property name="kdenlive:docproperties.enableproxy">1</property>
  <property name="kdenlive:docproperties.externalproxyparams">../Sub;;S03.MP4;../Clip;;.MXF</property>
  <property name="kdenlive:docproperties.generateimageproxy">0</property>
  <property name="kdenlive:docproperties.generateproxy">1</property>
  <property name="kdenlive:docproperties.groups">[
    {
        "children": [
            {
                "data": "2:4682",
                "leaf": "clip",
                "type": "Leaf"
            },
            {
                "data": "1:4682",
                "leaf": "clip",
                "type": "Leaf"
            }
        ],
        "type": "AVSplit"
    }
]
</property>
  <property name="kdenlive:docproperties.guides">[
]
</property>
  <property name="kdenlive:docproperties.kdenliveversion">20.12.0</property>
  <property name="kdenlive:docproperties.position">409</property>
  <property name="kdenlive:docproperties.previewchunks"/>
  <property name="kdenlive:docproperties.previewextension">mkv</property>
  <property name="kdenlive:docproperties.previewparameters">vcodec=h264_nvenc g=1 bf=0 profile=0 preset=fast qmin=10 qmax=30</property>
  <property name="kdenlive:docproperties.profile">atsc_1080p_25</property>
  <property name="kdenlive:docproperties.proxyextension"/>
  <property name="kdenlive:docproperties.proxyimageminsize">2000</property>
  <property name="kdenlive:docproperties.proxyimagesize">800</property>
  <property name="kdenlive:docproperties.proxyminsize">1000</property>
  <property name="kdenlive:docproperties.proxyparams"/>
  <property name="kdenlive:docproperties.renderaudioquality">256</property>
  <property name="kdenlive:docproperties.rendercategory">Generic (HD for web, mobile devices...)</property>
  <property name="kdenlive:docproperties.renderendguide">-1</property>
  <property name="kdenlive:docproperties.renderexportaudio">0</property>
  <property name="kdenlive:docproperties.renderfield">0</property>
  <property name="kdenlive:docproperties.renderguide">0</property>
  <property name="kdenlive:docproperties.renderplay">0</property>
  <property name="kdenlive:docproperties.renderprofile">MP4 - the dominating format (H264/AAC)</property>
  <property name="kdenlive:docproperties.renderquality">15</property>
  <property name="kdenlive:docproperties.renderratio">1</property>
  <property name="kdenlive:docproperties.renderrescale">0</property>
  <property name="kdenlive:docproperties.renderrescaleheight">540</property>
  <property name="kdenlive:docproperties.renderrescalewidth">960</property>
  <property name="kdenlive:docproperties.renderscanning">0</property>
  <property name="kdenlive:docproperties.renderspeed">2</property>
  <property name="kdenlive:docproperties.renderstartguide">-1</property>
  <property name="kdenlive:docproperties.rendertcoverlay">0</property>
  <property name="kdenlive:docproperties.rendertctype">0</property>
  <property name="kdenlive:docproperties.rendertwopass">0</property>
  <property name="kdenlive:docproperties.renderurl">tw2020.mp4</property>
  <property name="kdenlive:docproperties.renderzone">0</property>
  <property name="kdenlive:docproperties.scrollPos">14826</property>
  <property name="kdenlive:docproperties.seekOffset">30000</property>
  <property name="kdenlive:docproperties.version">1</property>
  <property name="kdenlive:docproperties.verticalzoom">1</property>
  <property name="kdenlive:docproperties.videoTarget">2</property>
  <property name="kdenlive:docproperties.zonein">0</property>
  <property name="kdenlive:docproperties.zoneout">2192</property>
  <property name="kdenlive:docproperties.zoom">0</property>
  <property name="kdenlive:expandedFolders"/>
  <property name="kdenlive:documentnotes"/>
  <property name="xml_retain">1</property>
  <entry producer="producer0" in="00:00:00.000" out="00:03:19.080"/>
  <entry producer="producer1" in="00:00:00.000" out="00:00:11.360"/>
  <entry producer="producer2" in="00:00:00.000" out="00:00:14.160"/>
  <entry producer="producer3" in="00:00:00.000" out="00:00:08.920"/>
  <entry producer="producer4" in="00:00:00.000" out="00:00:04.960"/>
  <entry producer="producer5" in="00:00:00.000" out="00:00:04.960"/>
  <entry producer="producer6" in="00:00:00.000" out="00:00:04.960"/>
  <entry producer="producer7" in="00:00:00.000" out="00:00:04.960"/>
  <entry producer="producer8" in="00:00:00.000" out="00:00:21.920"/>
  <entry producer="producer9" in="00:00:00.000" out="00:00:05.000"/>
  <entry producer="producer10" in="00:00:00.000" out="00:00:04.960"/>
  <entry producer="producer11" in="00:00:00.000" out="00:00:08.440"/>
  <entry producer="producer12" in="00:00:00.000" out="00:00:06.920"/>
  <entry producer="producer13" in="00:00:00.000" out="00:00:07.240"/>
  <entry producer="producer14" in="00:00:00.000" out="00:00:06.960"/>
  <entry producer="producer15" in="00:00:00.000" out="00:00:03.960"/>
  <entry producer="producer16" in="00:00:00.000" out="00:00:21.440"/>
  <entry producer="producer17" in="00:00:00.000" out="00:00:12.400"/>
  <entry producer="producer18" in="00:00:00.000" out="00:00:05.840"/>
  <entry producer="producer19" in="00:00:00.000" out="00:00:11.120"/>
  <entry producer="producer20" in="00:00:00.000" out="00:00:12.680"/>
  <entry producer="producer21" in="00:00:00.000" out="00:00:09.040"/>
  <entry producer="producer22" in="00:00:00.000" out="00:00:13.560"/>
  <entry producer="producer23" in="00:00:00.000" out="00:00:10.880"/>
  <entry producer="producer24" in="00:00:00.000" out="00:00:19.400"/>
  <entry producer="producer25" in="00:00:00.000" out="00:00:22.480"/>
  <entry producer="producer26" in="00:00:00.000" out="00:00:04.960"/>
  <entry producer="producer27" in="00:00:00.000" out="00:00:04.960"/>
  <entry producer="producer28" in="00:00:00.000" out="00:00:05.640"/>
  <entry producer="producer29" in="00:00:00.000" out="00:00:07.840"/>
  <entry producer="producer30" in="00:00:00.000" out="00:00:07.840"/>
  <entry producer="producer35" in="00:00:00.000" out="00:00:07.840"/>
  <entry producer="producer34" in="00:00:00.000" out="00:00:07.840"/>
  <entry producer="producer31" in="00:00:00.000" out="00:00:07.840"/>
  <entry producer="producer32" in="00:00:00.000" out="00:00:04.960"/>
  <entry producer="producer33" in="00:00:00.000" out="00:00:04.960"/>
  <entry producer="producer36" in="00:00:00.000" out="00:00:04.960"/>
  <entry producer="producer37" in="00:00:00.000" out="00:00:04.960"/>
  <entry producer="producer38" in="00:00:00.000" out="00:00:04.960"/>
  <entry producer="producer39" in="00:00:00.000" out="00:00:04.960"/>
  <entry producer="producer40" in="00:00:00.000" out="00:00:20.480"/>
  <entry producer="producer41" in="00:00:00.000" out="00:00:20.800"/>
  <entry producer="producer42" in="00:00:00.000" out="00:00:10.520"/>
  <entry producer="producer43" in="00:00:00.000" out="00:00:14.520"/>
  <entry producer="producer44" in="00:00:00.000" out="00:00:46.120"/>
  <entry producer="producer45" in="00:00:00.000" out="00:00:23.080"/>
  <entry producer="producer46" in="00:00:00.000" out="00:00:06.080"/>
  <entry producer="producer47" in="00:00:00.000" out="00:00:22.680"/>
  <entry producer="producer48" in="00:00:00.000" out="00:00:07.800"/>
  <entry producer="producer49" in="00:00:00.000" out="00:00:07.280"/>
  <entry producer="producer50" in="00:00:00.000" out="00:00:05.320"/>
  <entry producer="producer51" in="00:00:00.000" out="00:00:21.240"/>
  <entry producer="producer52" in="00:00:00.000" out="00:00:05.280"/>
  <entry producer="producer53" in="00:00:00.000" out="00:00:07.840"/>
  <entry producer="producer54" in="00:00:00.000" out="00:00:04.960"/>
  <entry producer="producer55" in="00:00:00.000" out="00:00:04.960"/>
  <entry producer="producer56" in="00:00:00.000" out="00:00:04.960"/>
  <entry producer="producer57" in="00:00:00.000" out="00:00:04.960"/>
 </playlist>
 <producer id="black_track" in="00:00:00.000" out="00:23:15.120">
  <property name="length">2147483647</property>
  <property name="eof">continue</property>
  <property name="resource">black</property>
  <property name="aspect_ratio">1</property>
  <property name="mlt_service">color</property>
  <property name="mlt_image_format">rgb24a</property>
  <property name="set.test_audio">0</property>
 </producer>
 <producer id="producer58" in="00:00:00.000" out="00:03:19.080">
  <property name="length">4978</property>
  <property name="eof">pause</property>
  <property name="resource">music/Silver Medallion - Hey Cinderella _ Copyright Free Music â™«-JBi3wLZeS1M.webm</property>
  <property name="audio_index">0</property>
  <property name="video_index">-1</property>
  <property name="mute_on_pause">0</property>
  <property name="mlt_service">avformat-novalidate</property>
  <property name="meta.media.nb_streams">1</property>
  <property name="meta.media.0.stream.type">audio</property>
  <property name="meta.media.0.codec.sample_fmt">fltp</property>
  <property name="meta.media.0.codec.sample_rate">48000</property>
  <property name="meta.media.0.codec.channels">2</property>
  <property name="meta.media.0.codec.name">opus</property>
  <property name="meta.media.0.codec.long_name">Opus</property>
  <property name="meta.media.0.codec.bit_rate">0</property>
  <property name="meta.attr.0.stream.language.markup">spa</property>
  <property name="meta.attr.encoder.markup">google/video-file</property>
  <property name="seekable">1</property>
  <property name="kdenlive:clipname"/>
  <property name="kdenlive:folderid">-1</property>
  <property name="kdenlive:id">2</property>
  <property name="kdenlive:file_size">3314858</property>
  <property name="kdenlive:file_hash">6e65063f879f750aed24673d37da3704</property>
  <property name="global_feed">1</property>
  <property name="xml">was here</property>
  <property name="set.test_audio">0</property>
  <property name="set.test_image">1</property>
 </producer>
 <playlist id="playlist0">
  <property name="kdenlive:audio_track">1</property>
  <entry producer="producer58" in="00:00:00.000" out="00:03:15.080">
   <property name="kdenlive:id">2</property>
  </entry>
 </playlist>
 <playlist id="playlist1"/>
 <tractor id="tractor0" in="00:00:00.000" out="00:03:15.080">
  <property name="kdenlive:audio_track">1</property>
  <property name="kdenlive:trackheight">69</property>
  <property name="kdenlive:timeline_active">1</property>
  <property name="kdenlive:collapsed">0</property>
  <property name="kdenlive:thumbs_format"/>
  <property name="kdenlive:audio_rec"/>
  <track hide="video" producer="playlist0"/>
  <track hide="video" producer="playlist1"/>
  <filter id="filter0">
   <property name="window">75</property>
   <property name="max_gain">20dB</property>
   <property name="mlt_service">volume</property>
   <property name="internal_added">237</property>
   <property name="disable">1</property>
  </filter>
  <filter id="filter1">
   <property name="channel">-1</property>
   <property name="mlt_service">panner</property>
   <property name="internal_added">237</property>
   <property name="start">0.5</property>
   <property name="disable">1</property>
  </filter>
  <filter id="filter2">
   <property name="iec_scale">0</property>
   <property name="mlt_service">audiolevel</property>
   <property name="disable">1</property>
  </filter>
 </tractor>
 <producer id="producer59" in="00:00:00.000" out="00:00:07.800">
  <property name="length">196</property>
  <property name="eof">pause</property>
  <property name="resource">/home/chiller/.cache/kdenlive/proxy/a1132fd149e2da3e7fd25965c156f5a3.mov</property>
  <property name="audio_index">1</property>
  <property name="video_index">0</property>
  <property name="mute_on_pause">0</property>
  <property name="mlt_service">avformat-novalidate</property>
  <property name="seekable">1</property>
  <property name="aspect_ratio">1</property>
  <property name="kdenlive:clipname">rain_starbucks.mov</property>
  <property name="kdenlive:folderid">-1</property>
  <property name="kdenlive:id">50</property>
  <property name="kdenlive:file_size">8221563</property>
  <property name="kdenlive:file_hash">a1132fd149e2da3e7fd25965c156f5a3</property>
  <property name="kdenlive:proxy">/home/chiller/.cache/kdenlive/proxy/a1132fd149e2da3e7fd25965c156f5a3.mov</property>
  <property name="kdenlive:originalurl">mov/outdoor/rain_starbucks.mov</property>
  <property name="kdenlive:original.mlt_type">producer</property>
  <property name="kdenlive:original.in">0</property>
  <property name="kdenlive:original.out">195</property>
  <property name="kdenlive:original.length">196</property>
  <property name="kdenlive:original.eof">pause</property>
  <property name="kdenlive:original.resource">mov/outdoor/rain_starbucks.mov</property>
  <property name="kdenlive:original.meta.media.nb_streams">5</property>
  <property name="kdenlive:original.meta.media.0.stream.type">video</property>
  <property name="kdenlive:original.meta.media.0.stream.frame_rate">29.9745</property>
  <property name="kdenlive:original.meta.media.0.stream.sample_aspect_ratio">0</property>
  <property name="kdenlive:original.meta.media.0.codec.width">1920</property>
  <property name="kdenlive:original.meta.media.0.codec.height">1080</property>
  <property name="kdenlive:original.meta.media.0.codec.rotate">0</property>
  <property name="kdenlive:original.meta.media.0.codec.frame_rate">600</property>
  <property name="kdenlive:original.meta.media.0.codec.pix_fmt">yuv420p</property>
  <property name="kdenlive:original.meta.media.0.codec.sample_aspect_ratio">0</property>
  <property name="kdenlive:original.meta.media.0.codec.colorspace">709</property>
  <property name="kdenlive:original.meta.media.0.codec.color_trc">1</property>
  <property name="kdenlive:original.meta.media.0.codec.name">hevc</property>
  <property name="kdenlive:original.meta.media.0.codec.long_name">HEVC (High Efficiency Video Coding)</property>
  <property name="kdenlive:original.meta.media.0.codec.bit_rate">8166657</property>
  <property name="kdenlive:original.meta.attr.0.stream.creation_time.markup">2020-06-07T11:43:45.000000Z</property>
  <property name="kdenlive:original.meta.attr.0.stream.handler_name.markup">Core Media Video</property>
  <property name="kdenlive:original.meta.attr.0.stream.encoder.markup">HEVC</property>
  <property name="kdenlive:original.meta.media.1.stream.type">audio</property>
  <property name="kdenlive:original.meta.media.1.codec.sample_fmt">fltp</property>
  <property name="kdenlive:original.meta.media.1.codec.sample_rate">44100</property>
  <property name="kdenlive:original.meta.media.1.codec.channels">2</property>
  <property name="kdenlive:original.meta.media.1.codec.name">aac</property>
  <property name="kdenlive:original.meta.media.1.codec.long_name">AAC (Advanced Audio Coding)</property>
  <property name="kdenlive:original.meta.media.1.codec.bit_rate">191707</property>
  <property name="kdenlive:original.meta.attr.1.stream.creation_time.markup">2020-06-07T11:43:45.000000Z</property>
  <property name="kdenlive:original.meta.attr.1.stream.handler_name.markup">Core Media Audio</property>
  <property name="kdenlive:original.meta.attr.major_brand.markup">qt  </property>
  <property name="kdenlive:original.meta.attr.minor_version.markup">0</property>
  <property name="kdenlive:original.meta.attr.compatible_brands.markup">qt  </property>
  <property name="kdenlive:original.meta.attr.creation_time.markup">2020-06-07T11:43:45.000000Z</property>
  <property name="kdenlive:original.meta.attr.com.apple.quicktime.make.markup">Apple</property>
  <property name="kdenlive:original.meta.attr.com.apple.quicktime.model.markup">iPhone XS</property>
  <property name="kdenlive:original.meta.attr.com.apple.quicktime.software.markup">13.4.1</property>
  <property name="kdenlive:original.meta.attr.com.apple.quicktime.creationdate.markup">2020-06-07T13:43:45+0200</property>
  <property name="kdenlive:original.seekable">1</property>
  <property name="kdenlive:original.width">1920</property>
  <property name="kdenlive:original.height">1080</property>
  <property name="kdenlive:original.meta.media.sample_aspect_num">1</property>
  <property name="kdenlive:original.meta.media.sample_aspect_den">1</property>
  <property name="kdenlive:original.aspect_ratio">1</property>
  <property name="kdenlive:original.audio_index">1</property>
  <property name="kdenlive:original.video_index">0</property>
  <property name="kdenlive:original.mute_on_pause">0</property>
  <property name="kdenlive:original.mlt_service">avformat-novalidate</property>
  <property name="kdenlive:original.kdenlive:folderid">-1</property>
  <property name="kdenlive:original.meta.media.frame_rate_num">5875</property>
  <property name="kdenlive:original.meta.media.frame_rate_den">196</property>
  <property name="kdenlive:original.meta.media.colorspace">709</property>
  <property name="kdenlive:original.meta.media.color_trc">1</property>
  <property name="kdenlive:original.meta.media.width">1920</property>
  <property name="kdenlive:original.meta.media.height">1080</property>
  <property name="kdenlive:original.meta.media.color_range">mpeg</property>
  <property name="kdenlive:original.kdenlive:id">50</property>
  <property name="kdenlive:original.kdenlive:file_size">8221563</property>
  <property name="kdenlive:original.kdenlive:file_hash">a1132fd149e2da3e7fd25965c156f5a3</property>
  <property name="kdenlive:original.backup">1</property>
  <property name="global_feed">1</property>
  <property name="xml">was here</property>
  <property name="meta.media.nb_streams">2</property>
  <property name="meta.media.0.stream.type">video</property>
  <property name="meta.media.0.stream.frame_rate">29.97</property>
  <property name="meta.media.0.stream.sample_aspect_ratio">0</property>
  <property name="meta.media.0.codec.width">640</property>
  <property name="meta.media.0.codec.height">360</property>
  <property name="meta.media.0.codec.rotate">0</property>
  <property name="meta.media.0.codec.frame_rate">29.97</property>
  <property name="meta.media.0.codec.pix_fmt">yuv420p</property>
  <property name="meta.media.0.codec.sample_aspect_ratio">1</property>
  <property name="meta.media.0.codec.colorspace">601</property>
  <property name="meta.media.0.codec.name">h264</property>
  <property name="meta.media.0.codec.long_name">H.264 / AVC / MPEG-4 AVC / MPEG-4 part 10</property>
  <property name="meta.media.0.codec.bit_rate">7014074</property>
  <property name="meta.attr.0.stream.handler_name.markup">Core Media Video</property>
  <property name="meta.attr.0.stream.encoder.markup">Lavc58.111.100 h264_nvenc</property>
  <property name="meta.media.1.stream.type">audio</property>
  <property name="meta.media.1.codec.sample_fmt">fltp</property>
  <property name="meta.media.1.codec.sample_rate">44100</property>
  <property name="meta.media.1.codec.channels">2</property>
  <property name="meta.media.1.codec.name">aac</property>
  <property name="meta.media.1.codec.long_name">AAC (Advanced Audio Coding)</property>
  <property name="meta.media.1.codec.bit_rate">191877</property>
  <property name="meta.attr.1.stream.handler_name.markup">Core Media Audio</property>
  <property name="meta.attr.major_brand.markup">qt  </property>
  <property name="meta.attr.minor_version.markup">512</property>
  <property name="meta.attr.compatible_brands.markup">qt  </property>
  <property name="meta.attr.encoder.markup">Lavf58.62.100</property>
  <property name="meta.media.sample_aspect_num">1</property>
  <property name="meta.media.sample_aspect_den">1</property>
  <property name="meta.media.frame_rate_num">30000</property>
  <property name="meta.media.frame_rate_den">1001</property>
  <property name="meta.media.colorspace">601</property>
  <property name="meta.media.color_trc">2</property>
  <property name="meta.media.width">640</property>
  <property name="meta.media.height">360</property>
  <property name="meta.media.color_range">mpeg</property>
  <property name="meta.media.top_field_first">0</property>
  <property name="meta.media.progressive">1</property>
  <property name="set.test_audio">0</property>
  <property name="set.test_image">1</property>
 </producer>
 <playlist id="playlist2">
  <property name="kdenlive:audio_track">1</property>
  <blank length="00:03:07.280"/>
  <entry producer="producer59" in="00:00:00.000" out="00:00:07.800">
   <property name="kdenlive:id">50</property>
  </entry>
 </playlist>
 <playlist id="playlist3"/>
 <tractor id="tractor1" in="00:00:00.000" out="00:03:15.080">
  <property name="kdenlive:audio_track">1</property>
  <property name="kdenlive:trackheight">69</property>
  <property name="kdenlive:timeline_active">1</property>
  <property name="kdenlive:collapsed">0</property>
  <property name="kdenlive:thumbs_format"/>
  <property name="kdenlive:audio_rec"/>
  <track hide="video" producer="playlist2"/>
  <track hide="video" producer="playlist3"/>
  <filter id="filter3">
   <property name="window">75</property>
   <property name="max_gain">20dB</property>
   <property name="mlt_service">volume</property>
   <property name="internal_added">237</property>
   <property name="disable">1</property>
  </filter>
  <filter id="filter4">
   <property name="channel">-1</property>
   <property name="mlt_service">panner</property>
   <property name="internal_added">237</property>
   <property name="start">0.5</property>
   <property name="disable">1</property>
  </filter>
  <filter id="filter5">
   <property name="iec_scale">0</property>
   <property name="mlt_service">audiolevel</property>
   <property name="disable">1</property>
  </filter>
 </tractor>
 <producer id="producer60" in="00:00:00.000" out="00:00:11.360">
  <property name="length">285</property>
  <property name="eof">pause</property>
  <property name="resource">/home/chiller/.cache/kdenlive/proxy/1d6e9ef5880ade809f9162fb00a934d7.mov</property>
  <property name="audio_index">1</property>
  <property name="video_index">0</property>
  <property name="mute_on_pause">0</property>
  <property name="mlt_service">avformat-novalidate</property>
  <property name="seekable">1</property>
  <property name="aspect_ratio">1</property>
  <property name="kdenlive:clipname">4DB6DAD2-ADF6-4750-B2AD-59366E16A520.mov</property>
  <property name="kdenlive:folderid">-1</property>
  <property name="kdenlive:id">3</property>
  <property name="kdenlive:file_size">11910910</property>
  <property name="kdenlive:file_hash">1d6e9ef5880ade809f9162fb00a934d7</property>
  <property name="kdenlive:proxy">/home/chiller/.cache/kdenlive/proxy/1d6e9ef5880ade809f9162fb00a934d7.mov</property>
  <property name="kdenlive:originalurl">mov/grass/4DB6DAD2-ADF6-4750-B2AD-59366E16A520.mov</property>
  <property name="kdenlive:original.mlt_type">producer</property>
  <property name="kdenlive:original.in">0</property>
  <property name="kdenlive:original.out">284</property>
  <property name="kdenlive:original.length">285</property>
  <property name="kdenlive:original.eof">pause</property>
  <property name="kdenlive:original.resource">mov/grass/4DB6DAD2-ADF6-4750-B2AD-59366E16A520.mov</property>
  <property name="kdenlive:original.meta.media.nb_streams">5</property>
  <property name="kdenlive:original.meta.media.0.stream.type">video</property>
  <property name="kdenlive:original.meta.media.0.stream.frame_rate">29.9737</property>
  <property name="kdenlive:original.meta.media.0.stream.sample_aspect_ratio">0</property>
  <property name="kdenlive:original.meta.media.0.codec.width">1920</property>
  <property name="kdenlive:original.meta.media.0.codec.height">1080</property>
  <property name="kdenlive:original.meta.media.0.codec.rotate">0</property>
  <property name="kdenlive:original.meta.media.0.codec.frame_rate">600</property>
  <property name="kdenlive:original.meta.media.0.codec.pix_fmt">yuv420p</property>
  <property name="kdenlive:original.meta.media.0.codec.sample_aspect_ratio">0</property>
  <property name="kdenlive:original.meta.media.0.codec.colorspace">709</property>
  <property name="kdenlive:original.meta.media.0.codec.color_trc">1</property>
  <property name="kdenlive:original.meta.media.0.codec.name">hevc</property>
  <property name="kdenlive:original.meta.media.0.codec.long_name">HEVC (High Efficiency Video Coding)</property>
  <property name="kdenlive:original.meta.media.0.codec.bit_rate">8223723</property>
  <property name="kdenlive:original.meta.attr.0.stream.creation_time.markup">2020-04-12T16:55:51.000000Z</property>
  <property name="kdenlive:original.meta.attr.0.stream.handler_name.markup">Core Media Video</property>
  <property name="kdenlive:original.meta.attr.0.stream.encoder.markup">HEVC</property>
  <property name="kdenlive:original.meta.media.1.stream.type">audio</property>
  <property name="kdenlive:original.meta.media.1.codec.sample_fmt">fltp</property>
  <property name="kdenlive:original.meta.media.1.codec.sample_rate">44100</property>
  <property name="kdenlive:original.meta.media.1.codec.channels">1</property>
  <property name="kdenlive:original.meta.media.1.codec.name">aac</property>
  <property name="kdenlive:original.meta.media.1.codec.long_name">AAC (Advanced Audio Coding)</property>
  <property name="kdenlive:original.meta.media.1.codec.bit_rate">99579</property>
  <property name="kdenlive:original.meta.attr.1.stream.creation_time.markup">2020-04-12T16:55:51.000000Z</property>
  <property name="kdenlive:original.meta.attr.1.stream.handler_name.markup">Core Media Audio</property>
  <property name="kdenlive:original.meta.attr.major_brand.markup">qt  </property>
  <property name="kdenlive:original.meta.attr.minor_version.markup">0</property>
  <property name="kdenlive:original.meta.attr.compatible_brands.markup">qt  </property>
  <property name="kdenlive:original.meta.attr.creation_time.markup">2020-04-12T16:55:51.000000Z</property>
  <property name="kdenlive:original.meta.attr.com.apple.quicktime.make.markup">Apple</property>
  <property name="kdenlive:original.meta.attr.com.apple.quicktime.model.markup">iPhone XS</property>
  <property name="kdenlive:original.meta.attr.com.apple.quicktime.software.markup">13.3.1</property>
  <property name="kdenlive:original.meta.attr.com.apple.quicktime.creationdate.markup">2020-04-12T18:55:51+0200</property>
  <property name="kdenlive:original.seekable">1</property>
  <property name="kdenlive:original.width">1920</property>
  <property name="kdenlive:original.height">1080</property>
  <property name="kdenlive:original.meta.media.sample_aspect_num">1</property>
  <property name="kdenlive:original.meta.media.sample_aspect_den">1</property>
  <property name="kdenlive:original.aspect_ratio">1</property>
  <property name="kdenlive:original.audio_index">1</property>
  <property name="kdenlive:original.video_index">0</property>
  <property name="kdenlive:original.mute_on_pause">0</property>
  <property name="kdenlive:original.mlt_service">avformat-novalidate</property>
  <property name="kdenlive:original.kdenlive:folderid">-1</property>
  <property name="kdenlive:original.meta.media.frame_rate_num">34200</property>
  <property name="kdenlive:original.meta.media.frame_rate_den">1141</property>
  <property name="kdenlive:original.meta.media.colorspace">709</property>
  <property name="kdenlive:original.meta.media.color_trc">1</property>
  <property name="kdenlive:original.meta.media.width">1920</property>
  <property name="kdenlive:original.meta.media.height">1080</property>
  <property name="kdenlive:original.meta.media.color_range">mpeg</property>
  <property name="kdenlive:original.kdenlive:id">4</property>
  <property name="kdenlive:original.kdenlive:file_size">11910910</property>
  <property name="kdenlive:original.kdenlive:file_hash">1d6e9ef5880ade809f9162fb00a934d7</property>
  <property name="kdenlive:original.backup">1</property>
  <property name="global_feed">1</property>
  <property name="xml">was here</property>
  <property name="meta.media.nb_streams">2</property>
  <property name="meta.media.0.stream.type">video</property>
  <property name="meta.media.0.stream.frame_rate">29.97</property>
  <property name="meta.media.0.stream.sample_aspect_ratio">0</property>
  <property name="meta.media.0.codec.width">640</property>
  <property name="meta.media.0.codec.height">360</property>
  <property name="meta.media.0.codec.rotate">0</property>
  <property name="meta.media.0.codec.frame_rate">29.97</property>
  <property name="meta.media.0.codec.pix_fmt">yuv420p</property>
  <property name="meta.media.0.codec.sample_aspect_ratio">1</property>
  <property name="meta.media.0.codec.colorspace">601</property>
  <property name="meta.media.0.codec.name">h264</property>
  <property name="meta.media.0.codec.long_name">H.264 / AVC / MPEG-4 AVC / MPEG-4 part 10</property>
  <property name="meta.media.0.codec.bit_rate">8167392</property>
  <property name="meta.attr.0.stream.handler_name.markup">Core Media Video</property>
  <property name="meta.attr.0.stream.encoder.markup">Lavc58.106.100 h264_nvenc</property>
  <property name="meta.media.1.stream.type">audio</property>
  <property name="meta.media.1.codec.sample_fmt">fltp</property>
  <property name="meta.media.1.codec.sample_rate">44100</property>
  <property name="meta.media.1.codec.channels">1</property>
  <property name="meta.media.1.codec.name">aac</property>
  <property name="meta.media.1.codec.long_name">AAC (Advanced Audio Coding)</property>
  <property name="meta.media.1.codec.bit_rate">99835</property>
  <property name="meta.attr.1.stream.handler_name.markup">Core Media Audio</property>
  <property name="meta.attr.major_brand.markup">qt  </property>
  <property name="meta.attr.minor_version.markup">512</property>
  <property name="meta.attr.compatible_brands.markup">qt  </property>
  <property name="meta.attr.encoder.markup">Lavf58.58.100</property>
  <property name="meta.media.sample_aspect_num">1</property>
  <property name="meta.media.sample_aspect_den">1</property>
  <property name="meta.media.frame_rate_num">30000</property>
  <property name="meta.media.frame_rate_den">1001</property>
  <property name="meta.media.colorspace">601</property>
  <property name="meta.media.color_trc">2</property>
  <property name="meta.media.width">640</property>
  <property name="meta.media.height">360</property>
  <property name="meta.media.color_range">mpeg</property>
  <property name="meta.media.top_field_first">0</property>
  <property name="meta.media.progressive">1</property>
  <property name="set.test_audio">1</property>
  <property name="set.test_image">0</property>
 </producer>
 <producer id="producer61" in="00:00:00.000" out="00:00:14.160">
  <property name="length">355</property>
  <property name="eof">pause</property>
  <property name="resource">/home/chiller/.cache/kdenlive/proxy/464b1c0b0ee1a37043dd0f93f9a179c3.mov</property>
  <property name="audio_index">1</property>
  <property name="video_index">0</property>
  <property name="mute_on_pause">0</property>
  <property name="mlt_service">avformat-novalidate</property>
  <property name="seekable">1</property>
  <property name="aspect_ratio">1</property>
  <property name="kdenlive:clipname">7C0637DB-E812-447E-90C7-B2E58822BF3E.mov</property>
  <property name="kdenlive:folderid">-1</property>
  <property name="kdenlive:id">4</property>
  <property name="kdenlive:file_size">16484761</property>
  <property name="kdenlive:file_hash">464b1c0b0ee1a37043dd0f93f9a179c3</property>
  <property name="kdenlive:proxy">/home/chiller/.cache/kdenlive/proxy/464b1c0b0ee1a37043dd0f93f9a179c3.mov</property>
  <property name="kdenlive:originalurl">mov/party/7C0637DB-E812-447E-90C7-B2E58822BF3E.mov</property>
  <property name="kdenlive:original.mlt_type">producer</property>
  <property name="kdenlive:original.in">0</property>
  <property name="kdenlive:original.out">354</property>
  <property name="kdenlive:original.length">355</property>
  <property name="kdenlive:original.eof">pause</property>
  <property name="kdenlive:original.resource">mov/party/7C0637DB-E812-447E-90C7-B2E58822BF3E.mov</property>
  <property name="kdenlive:original.meta.media.nb_streams">4</property>
  <property name="kdenlive:original.meta.media.0.stream.type">video</property>
  <property name="kdenlive:original.meta.media.0.stream.frame_rate">29.9719</property>
  <property name="kdenlive:original.meta.media.0.stream.sample_aspect_ratio">0</property>
  <property name="kdenlive:original.meta.media.0.codec.width">1920</property>
  <property name="kdenlive:original.meta.media.0.codec.height">1080</property>
  <property name="kdenlive:original.meta.media.0.codec.rotate">0</property>
  <property name="kdenlive:original.meta.media.0.codec.frame_rate">600</property>
  <property name="kdenlive:original.meta.media.0.codec.pix_fmt">yuv420p</property>
  <property name="kdenlive:original.meta.media.0.codec.sample_aspect_ratio">0</property>
  <property name="kdenlive:original.meta.media.0.codec.colorspace">709</property>
  <property name="kdenlive:original.meta.media.0.codec.color_trc">1</property>
  <property name="kdenlive:original.meta.media.0.codec.name">hevc</property>
  <property name="kdenlive:original.meta.media.0.codec.long_name">HEVC (High Efficiency Video Coding)</property>
  <property name="kdenlive:original.meta.media.0.codec.bit_rate">9065310</property>
  <property name="kdenlive:original.meta.attr.0.stream.creation_time.markup">2019-09-06T17:15:34.000000Z</property>
  <property name="kdenlive:original.meta.attr.0.stream.handler_name.markup">Core Media Video</property>
  <property name="kdenlive:original.meta.attr.0.stream.encoder.markup">HEVC</property>
  <property name="kdenlive:original.meta.media.1.stream.type">audio</property>
  <property name="kdenlive:original.meta.media.1.codec.sample_fmt">fltp</property>
  <property name="kdenlive:original.meta.media.1.codec.sample_rate">44100</property>
  <property name="kdenlive:original.meta.media.1.codec.channels">2</property>
  <property name="kdenlive:original.meta.media.1.codec.name">aac</property>
  <property name="kdenlive:original.meta.media.1.codec.long_name">AAC (Advanced Audio Coding)</property>
  <property name="kdenlive:original.meta.media.1.codec.bit_rate">195980</property>
  <property name="kdenlive:original.meta.attr.1.stream.creation_time.markup">2019-09-06T17:15:34.000000Z</property>
  <property name="kdenlive:original.meta.attr.1.stream.handler_name.markup">Core Media Audio</property>
  <property name="kdenlive:original.meta.attr.major_brand.markup">qt  </property>
  <property name="kdenlive:original.meta.attr.minor_version.markup">0</property>
  <property name="kdenlive:original.meta.attr.compatible_brands.markup">qt  </property>
  <property name="kdenlive:original.meta.attr.creation_time.markup">2019-09-06T17:15:34.000000Z</property>
  <property name="kdenlive:original.meta.attr.com.apple.quicktime.make.markup">Apple</property>
  <property name="kdenlive:original.meta.attr.com.apple.quicktime.model.markup">iPhone XS</property>
  <property name="kdenlive:original.meta.attr.com.apple.quicktime.software.markup">12.4</property>
  <property name="kdenlive:original.meta.attr.com.apple.quicktime.creationdate.markup">2019-09-06T19:15:34+0200</property>
  <property name="kdenlive:original.seekable">1</property>
  <property name="kdenlive:original.width">1920</property>
  <property name="kdenlive:original.height">1080</property>
  <property name="kdenlive:original.meta.media.sample_aspect_num">1</property>
  <property name="kdenlive:original.meta.media.sample_aspect_den">1</property>
  <property name="kdenlive:original.aspect_ratio">1</property>
  <property name="kdenlive:original.audio_index">1</property>
  <property name="kdenlive:original.video_index">0</property>
  <property name="kdenlive:original.mute_on_pause">0</property>
  <property name="kdenlive:original.mlt_service">avformat-novalidate</property>
  <property name="kdenlive:original.kdenlive:folderid">-1</property>
  <property name="kdenlive:original.meta.media.frame_rate_num">15975</property>
  <property name="kdenlive:original.meta.media.frame_rate_den">533</property>
  <property name="kdenlive:original.meta.media.colorspace">709</property>
  <property name="kdenlive:original.meta.media.color_trc">1</property>
  <property name="kdenlive:original.meta.media.width">1920</property>
  <property name="kdenlive:original.meta.media.height">1080</property>
  <property name="kdenlive:original.meta.media.color_range">mpeg</property>
  <property name="kdenlive:original.kdenlive:id">5</property>
  <property name="kdenlive:original.kdenlive:file_size">16484761</property>
  <property name="kdenlive:original.kdenlive:file_hash">464b1c0b0ee1a37043dd0f93f9a179c3</property>
  <property name="kdenlive:original.backup">1</property>
  <property name="global_feed">1</property>
  <property name="xml">was here</property>
  <property name="meta.media.nb_streams">2</property>
  <property name="meta.media.0.stream.type">video</property>
  <property name="meta.media.0.stream.frame_rate">29.97</property>
  <property name="meta.media.0.stream.sample_aspect_ratio">0</property>
  <property name="meta.media.0.codec.width">640</property>
  <property name="meta.media.0.codec.height">360</property>
  <property name="meta.media.0.codec.rotate">0</property>
  <property name="meta.media.0.codec.frame_rate">29.97</property>
  <property name="meta.media.0.codec.pix_fmt">yuv420p</property>
  <property name="meta.media.0.codec.sample_aspect_ratio">1</property>
  <property name="meta.media.0.codec.colorspace">601</property>
  <property name="meta.media.0.codec.name">h264</property>
  <property name="meta.media.0.codec.long_name">H.264 / AVC / MPEG-4 AVC / MPEG-4 part 10</property>
  <property name="meta.media.0.codec.bit_rate">6065898</property>
  <property name="meta.attr.0.stream.handler_name.markup">Core Media Video</property>
  <property name="meta.attr.0.stream.encoder.markup">Lavc58.106.100 h264_nvenc</property>
  <property name="meta.media.1.stream.type">audio</property>
  <property name="meta.media.1.codec.sample_fmt">fltp</property>
  <property name="meta.media.1.codec.sample_rate">44100</property>
  <property name="meta.media.1.codec.channels">2</property>
  <property name="meta.media.1.codec.name">aac</property>
  <property name="meta.media.1.codec.long_name">AAC (Advanced Audio Coding)</property>
  <property name="meta.media.1.codec.bit_rate">196363</property>
  <property name="meta.attr.1.stream.handler_name.markup">Core Media Audio</property>
  <property name="meta.attr.major_brand.markup">qt  </property>
  <property name="meta.attr.minor_version.markup">512</property>
  <property name="meta.attr.compatible_brands.markup">qt  </property>
  <property name="meta.attr.encoder.markup">Lavf58.58.100</property>
  <property name="meta.media.sample_aspect_num">1</property>
  <property name="meta.media.sample_aspect_den">1</property>
  <property name="meta.media.frame_rate_num">30000</property>
  <property name="meta.media.frame_rate_den">1001</property>
  <property name="meta.media.colorspace">601</property>
  <property name="meta.media.color_trc">2</property>
  <property name="meta.media.width">640</property>
  <property name="meta.media.height">360</property>
  <property name="meta.media.color_range">mpeg</property>
  <property name="meta.media.top_field_first">0</property>
  <property name="meta.media.progressive">1</property>
  <property name="set.test_audio">1</property>
  <property name="set.test_image">0</property>
 </producer>
 <producer id="producer62" in="00:00:00.000" out="00:00:08.920">
  <property name="length">224</property>
  <property name="eof">pause</property>
  <property name="resource">/home/chiller/.cache/kdenlive/proxy/15d65d70f6fafe30f4df6bd289b09b7a.mov</property>
  <property name="audio_index">1</property>
  <property name="video_index">0</property>
  <property name="mute_on_pause">0</property>
  <property name="mlt_service">avformat-novalidate</property>
  <property name="seekable">1</property>
  <property name="aspect_ratio">1</property>
  <property name="kdenlive:clipname">FDBAABF8-2E3A-4BC2-B155-C6E74653980A.mov</property>
  <property name="kdenlive:folderid">-1</property>
  <property name="kdenlive:id">5</property>
  <property name="kdenlive:file_size">12411590</property>
  <property name="kdenlive:file_hash">15d65d70f6fafe30f4df6bd289b09b7a</property>
  <property name="kdenlive:proxy">/home/chiller/.cache/kdenlive/proxy/15d65d70f6fafe30f4df6bd289b09b7a.mov</property>
  <property name="kdenlive:originalurl">mov/party/FDBAABF8-2E3A-4BC2-B155-C6E74653980A.mov</property>
  <property name="kdenlive:original.mlt_type">producer</property>
  <property name="kdenlive:original.in">0</property>
  <property name="kdenlive:original.out">223</property>
  <property name="kdenlive:original.length">224</property>
  <property name="kdenlive:original.eof">pause</property>
  <property name="kdenlive:original.resource">mov/party/FDBAABF8-2E3A-4BC2-B155-C6E74653980A.mov</property>
  <property name="kdenlive:original.meta.media.nb_streams">5</property>
  <property name="kdenlive:original.meta.media.0.stream.type">video</property>
  <property name="kdenlive:original.meta.media.0.stream.frame_rate">29.972</property>
  <property name="kdenlive:original.meta.media.0.stream.sample_aspect_ratio">0</property>
  <property name="kdenlive:original.meta.media.0.codec.width">1920</property>
  <property name="kdenlive:original.meta.media.0.codec.height">1080</property>
  <property name="kdenlive:original.meta.media.0.codec.rotate">0</property>
  <property name="kdenlive:original.meta.media.0.codec.frame_rate">600</property>
  <property name="kdenlive:original.meta.media.0.codec.pix_fmt">yuv420p</property>
  <property name="kdenlive:original.meta.media.0.codec.sample_aspect_ratio">0</property>
  <property name="kdenlive:original.meta.media.0.codec.colorspace">709</property>
  <property name="kdenlive:original.meta.media.0.codec.color_trc">1</property>
  <property name="kdenlive:original.meta.media.0.codec.name">hevc</property>
  <property name="kdenlive:original.meta.media.0.codec.long_name">HEVC (High Efficiency Video Coding)</property>
  <property name="kdenlive:original.meta.media.0.codec.bit_rate">10888038</property>
  <property name="kdenlive:original.meta.attr.0.stream.creation_time.markup">2020-09-13T00:29:49.000000Z</property>
  <property name="kdenlive:original.meta.attr.0.stream.handler_name.markup">Core Media Video</property>
  <property name="kdenlive:original.meta.attr.0.stream.encoder.markup">HEVC</property>
  <property name="kdenlive:original.meta.media.1.stream.type">audio</property>
  <property name="kdenlive:original.meta.media.1.codec.sample_fmt">fltp</property>
  <property name="kdenlive:original.meta.media.1.codec.sample_rate">44100</property>
  <property name="kdenlive:original.meta.media.1.codec.channels">2</property>
  <property name="kdenlive:original.meta.media.1.codec.name">aac</property>
  <property name="kdenlive:original.meta.media.1.codec.long_name">AAC (Advanced Audio Coding)</property>
  <property name="kdenlive:original.meta.media.1.codec.bit_rate">184925</property>
  <property name="kdenlive:original.meta.attr.1.stream.creation_time.markup">2020-09-13T00:29:49.000000Z</property>
  <property name="kdenlive:original.meta.attr.1.stream.handler_name.markup">Core Media Audio</property>
  <property name="kdenlive:original.meta.attr.major_brand.markup">qt  </property>
  <property name="kdenlive:original.meta.attr.minor_version.markup">0</property>
  <property name="kdenlive:original.meta.attr.compatible_brands.markup">qt  </property>
  <property name="kdenlive:original.meta.attr.creation_time.markup">2020-09-13T00:29:49.000000Z</property>
  <property name="kdenlive:original.meta.attr.com.apple.quicktime.make.markup">Apple</property>
  <property name="kdenlive:original.meta.attr.com.apple.quicktime.model.markup">iPhone XS</property>
  <property name="kdenlive:original.meta.attr.com.apple.quicktime.software.markup">13.6.1</property>
  <property name="kdenlive:original.meta.attr.com.apple.quicktime.creationdate.markup">2020-09-13T02:29:49+0200</property>
  <property name="kdenlive:original.seekable">1</property>
  <property name="kdenlive:original.width">1920</property>
  <property name="kdenlive:original.height">1080</property>
  <property name="kdenlive:original.meta.media.sample_aspect_num">1</property>
  <property name="kdenlive:original.meta.media.sample_aspect_den">1</property>
  <property name="kdenlive:original.aspect_ratio">1</property>
  <property name="kdenlive:original.audio_index">1</property>
  <property name="kdenlive:original.video_index">0</property>
  <property name="kdenlive:original.mute_on_pause">0</property>
  <property name="kdenlive:original.mlt_service">avformat-novalidate</property>
  <property name="kdenlive:original.kdenlive:folderid">-1</property>
  <property name="kdenlive:original.meta.media.frame_rate_num">32160</property>
  <property name="kdenlive:original.meta.media.frame_rate_den">1073</property>
  <property name="kdenlive:original.meta.media.colorspace">709</property>
  <property name="kdenlive:original.meta.media.color_trc">1</property>
  <property name="kdenlive:original.meta.media.width">1920</property>
  <property name="kdenlive:original.meta.media.height">1080</property>
  <property name="kdenlive:original.meta.media.color_range">mpeg</property>
  <property name="kdenlive:original.kdenlive:id">6</property>
  <property name="kdenlive:original.kdenlive:file_size">12411590</property>
  <property name="kdenlive:original.kdenlive:file_hash">15d65d70f6fafe30f4df6bd289b09b7a</property>
  <property name="kdenlive:original.backup">1</property>
  <property name="global_feed">1</property>
  <property name="xml">was here</property>
  <property name="meta.media.nb_streams">2</property>
  <property name="meta.media.0.stream.type">video</property>
  <property name="meta.media.0.stream.frame_rate">29.97</property>
  <property name="meta.media.0.stream.sample_aspect_ratio">0</property>
  <property name="meta.media.0.codec.width">640</property>
  <property name="meta.media.0.codec.height">360</property>
  <property name="meta.media.0.codec.rotate">0</property>
  <property name="meta.media.0.codec.frame_rate">29.97</property>
  <property name="meta.media.0.codec.pix_fmt">yuv420p</property>
  <property name="meta.media.0.codec.sample_aspect_ratio">1</property>
  <property name="meta.media.0.codec.colorspace">601</property>
  <property name="meta.media.0.codec.name">h264</property>
  <property name="meta.media.0.codec.long_name">H.264 / AVC / MPEG-4 AVC / MPEG-4 part 10</property>
  <property name="meta.media.0.codec.bit_rate">5152236</property>
  <property name="meta.attr.0.stream.handler_name.markup">Core Media Video</property>
  <property name="meta.attr.0.stream.encoder.markup">Lavc58.106.100 h264_nvenc</property>
  <property name="meta.media.1.stream.type">audio</property>
  <property name="meta.media.1.codec.sample_fmt">fltp</property>
  <property name="meta.media.1.codec.sample_rate">44100</property>
  <property name="meta.media.1.codec.channels">2</property>
  <property name="meta.media.1.codec.name">aac</property>
  <property name="meta.media.1.codec.long_name">AAC (Advanced Audio Coding)</property>
  <property name="meta.media.1.codec.bit_rate">185496</property>
  <property name="meta.attr.1.stream.handler_name.markup">Core Media Audio</property>
  <property name="meta.attr.major_brand.markup">qt  </property>
  <property name="meta.attr.minor_version.markup">512</property>
  <property name="meta.attr.compatible_brands.markup">qt  </property>
  <property name="meta.attr.encoder.markup">Lavf58.58.100</property>
  <property name="meta.media.sample_aspect_num">1</property>
  <property name="meta.media.sample_aspect_den">1</property>
  <property name="meta.media.frame_rate_num">30000</property>
  <property name="meta.media.frame_rate_den">1001</property>
  <property name="meta.media.colorspace">601</property>
  <property name="meta.media.color_trc">2</property>
  <property name="meta.media.width">640</property>
  <property name="meta.media.height">360</property>
  <property name="meta.media.color_range">mpeg</property>
  <property name="meta.media.top_field_first">0</property>
  <property name="meta.media.progressive">1</property>
  <property name="set.test_audio">1</property>
  <property name="set.test_image">0</property>
 </producer>
 <producer id="producer63" in="00:00:00.000" out="00:00:21.920">
  <property name="length">549</property>
  <property name="eof">pause</property>
  <property name="resource">/home/chiller/.cache/kdenlive/proxy/307f0b99b5feb36159d7023dadca84e4.mov</property>
  <property name="audio_index">1</property>
  <property name="video_index">0</property>
  <property name="mute_on_pause">0</property>
  <property name="mlt_service">avformat-novalidate</property>
  <property name="seekable">1</property>
  <property name="aspect_ratio">1</property>
  <property name="kdenlive:clipname">ED492362-0377-4361-A842-79638E142FF6.mov</property>
  <property name="kdenlive:folderid">-1</property>
  <property name="kdenlive:id">10</property>
  <property name="kdenlive:file_size">34236796</property>
  <property name="kdenlive:file_hash">307f0b99b5feb36159d7023dadca84e4</property>
  <property name="kdenlive:proxy">/home/chiller/.cache/kdenlive/proxy/307f0b99b5feb36159d7023dadca84e4.mov</property>
  <property name="kdenlive:originalurl">mov/party/ED492362-0377-4361-A842-79638E142FF6.mov</property>
  <property name="kdenlive:original.mlt_type">producer</property>
  <property name="kdenlive:original.in">0</property>
  <property name="kdenlive:original.out">548</property>
  <property name="kdenlive:original.length">549</property>
  <property name="kdenlive:original.eof">pause</property>
  <property name="kdenlive:original.resource">mov/party/ED492362-0377-4361-A842-79638E142FF6.mov</property>
  <property name="kdenlive:original.meta.media.nb_streams">5</property>
  <property name="kdenlive:original.meta.media.0.stream.type">video</property>
  <property name="kdenlive:original.meta.media.0.stream.frame_rate">26.5322</property>
  <property name="kdenlive:original.meta.media.0.stream.sample_aspect_ratio">0</property>
  <property name="kdenlive:original.meta.media.0.codec.width">1920</property>
  <property name="kdenlive:original.meta.media.0.codec.height">1080</property>
  <property name="kdenlive:original.meta.media.0.codec.rotate">0</property>
  <property name="kdenlive:original.meta.media.0.codec.frame_rate">600</property>
  <property name="kdenlive:original.meta.media.0.codec.pix_fmt">yuv420p</property>
  <property name="kdenlive:original.meta.media.0.codec.sample_aspect_ratio">0</property>
  <property name="kdenlive:original.meta.media.0.codec.colorspace">709</property>
  <property name="kdenlive:original.meta.media.0.codec.color_trc">1</property>
  <property name="kdenlive:original.meta.media.0.codec.name">hevc</property>
  <property name="kdenlive:original.meta.media.0.codec.long_name">HEVC (High Efficiency Video Coding)</property>
  <property name="kdenlive:original.meta.media.0.codec.bit_rate">12241980</property>
  <property name="kdenlive:original.meta.attr.0.stream.creation_time.markup">2020-09-13T00:35:16.000000Z</property>
  <property name="kdenlive:original.meta.attr.0.stream.handler_name.markup">Core Media Video</property>
  <property name="kdenlive:original.meta.attr.0.stream.encoder.markup">HEVC</property>
  <property name="kdenlive:original.meta.media.1.stream.type">audio</property>
  <property name="kdenlive:original.meta.media.1.codec.sample_fmt">fltp</property>
  <property name="kdenlive:original.meta.media.1.codec.sample_rate">44100</property>
  <property name="kdenlive:original.meta.media.1.codec.channels">2</property>
  <property name="kdenlive:original.meta.media.1.codec.name">aac</property>
  <property name="kdenlive:original.meta.media.1.codec.long_name">AAC (Advanced Audio Coding)</property>
  <property name="kdenlive:original.meta.media.1.codec.bit_rate">192922</property>
  <property name="kdenlive:original.meta.attr.1.stream.creation_time.markup">2020-09-13T00:35:16.000000Z</property>
  <property name="kdenlive:original.meta.attr.1.stream.handler_name.markup">Core Media Audio</property>
  <property name="kdenlive:original.meta.attr.major_brand.markup">qt  </property>
  <property name="kdenlive:original.meta.attr.minor_version.markup">0</property>
  <property name="kdenlive:original.meta.attr.compatible_brands.markup">qt  </property>
  <property name="kdenlive:original.meta.attr.creation_time.markup">2020-09-13T00:35:16.000000Z</property>
  <property name="kdenlive:original.meta.attr.com.apple.quicktime.make.markup">Apple</property>
  <property name="kdenlive:original.meta.attr.com.apple.quicktime.model.markup">iPhone XS</property>
  <property name="kdenlive:original.meta.attr.com.apple.quicktime.software.markup">13.6.1</property>
  <property name="kdenlive:original.meta.attr.com.apple.quicktime.creationdate.markup">2020-09-13T02:35:16+0200</property>
  <property name="kdenlive:original.seekable">1</property>
  <property name="kdenlive:original.width">1920</property>
  <property name="kdenlive:original.height">1080</property>
  <property name="kdenlive:original.meta.media.sample_aspect_num">1</property>
  <property name="kdenlive:original.meta.media.sample_aspect_den">1</property>
  <property name="kdenlive:original.aspect_ratio">1</property>
  <property name="kdenlive:original.audio_index">1</property>
  <property name="kdenlive:original.video_index">0</property>
  <property name="kdenlive:original.mute_on_pause">0</property>
  <property name="kdenlive:original.mlt_service">avformat-novalidate</property>
  <property name="kdenlive:original.kdenlive:folderid">-1</property>
  <property name="kdenlive:original.meta.media.frame_rate_num">43725</property>
  <property name="kdenlive:original.meta.media.frame_rate_den">1648</property>
  <property name="kdenlive:original.meta.media.colorspace">709</property>
  <property name="kdenlive:original.meta.media.color_trc">1</property>
  <property name="kdenlive:original.meta.media.width">1920</property>
  <property name="kdenlive:original.meta.media.height">1080</property>
  <property name="kdenlive:original.meta.media.color_range">mpeg</property>
  <property name="kdenlive:original.kdenlive:id">11</property>
  <property name="kdenlive:original.kdenlive:file_size">34236796</property>
  <property name="kdenlive:original.kdenlive:file_hash">307f0b99b5feb36159d7023dadca84e4</property>
  <property name="kdenlive:original.backup">1</property>
  <property name="global_feed">1</property>
  <property name="xml">was here</property>
  <property name="meta.media.nb_streams">2</property>
  <property name="meta.media.0.stream.type">video</property>
  <property name="meta.media.0.stream.frame_rate">29.97</property>
  <property name="meta.media.0.stream.sample_aspect_ratio">0</property>
  <property name="meta.media.0.codec.width">640</property>
  <property name="meta.media.0.codec.height">360</property>
  <property name="meta.media.0.codec.rotate">0</property>
  <property name="meta.media.0.codec.frame_rate">29.97</property>
  <property name="meta.media.0.codec.pix_fmt">yuv420p</property>
  <property name="meta.media.0.codec.sample_aspect_ratio">1</property>
  <property name="meta.media.0.codec.colorspace">601</property>
  <property name="meta.media.0.codec.name">h264</property>
  <property name="meta.media.0.codec.long_name">H.264 / AVC / MPEG-4 AVC / MPEG-4 part 10</property>
  <property name="meta.media.0.codec.bit_rate">5466773</property>
  <property name="meta.attr.0.stream.handler_name.markup">Core Media Video</property>
  <property name="meta.attr.0.stream.encoder.markup">Lavc58.106.100 h264_nvenc</property>
  <property name="meta.media.1.stream.type">audio</property>
  <property name="meta.media.1.codec.sample_fmt">fltp</property>
  <property name="meta.media.1.codec.sample_rate">44100</property>
  <property name="meta.media.1.codec.channels">2</property>
  <property name="meta.media.1.codec.name">aac</property>
  <property name="meta.media.1.codec.long_name">AAC (Advanced Audio Coding)</property>
  <property name="meta.media.1.codec.bit_rate">193206</property>
  <property name="meta.attr.1.stream.handler_name.markup">Core Media Audio</property>
  <property name="meta.attr.major_brand.markup">qt  </property>
  <property name="meta.attr.minor_version.markup">512</property>
  <property name="meta.attr.compatible_brands.markup">qt  </property>
  <property name="meta.attr.encoder.markup">Lavf58.58.100</property>
  <property name="meta.media.sample_aspect_num">1</property>
  <property name="meta.media.sample_aspect_den">1</property>
  <property name="meta.media.frame_rate_num">30000</property>
  <property name="meta.media.frame_rate_den">1001</property>
  <property name="meta.media.colorspace">601</property>
  <property name="meta.media.color_trc">2</property>
  <property name="meta.media.width">640</property>
  <property name="meta.media.height">360</property>
  <property name="meta.media.color_range">mpeg</property>
  <property name="meta.media.top_field_first">0</property>
  <property name="meta.media.progressive">1</property>
  <property name="set.test_audio">1</property>
  <property name="set.test_image">0</property>
 </producer>
 <producer id="producer64" in="00:00:00.000" out="00:00:05.000">
  <property name="length">126</property>
  <property name="eof">pause</property>
  <property name="resource">/home/chiller/.cache/kdenlive/proxy/467efe028048117e614e1bd58098bbd9.mov</property>
  <property name="audio_index">1</property>
  <property name="video_index">0</property>
  <property name="mute_on_pause">0</property>
  <property name="mlt_service">avformat-novalidate</property>
  <property name="seekable">1</property>
  <property name="aspect_ratio">1</property>
  <property name="kdenlive:clipname">bank.mov</property>
  <property name="kdenlive:folderid">-1</property>
  <property name="kdenlive:id">11</property>
  <property name="kdenlive:file_size">5364848</property>
  <property name="kdenlive:file_hash">467efe028048117e614e1bd58098bbd9</property>
  <property name="kdenlive:proxy">/home/chiller/.cache/kdenlive/proxy/467efe028048117e614e1bd58098bbd9.mov</property>
  <property name="kdenlive:originalurl">mov/outdoor/bank.mov</property>
  <property name="kdenlive:original.mlt_type">producer</property>
  <property name="kdenlive:original.in">0</property>
  <property name="kdenlive:original.out">125</property>
  <property name="kdenlive:original.length">126</property>
  <property name="kdenlive:original.eof">pause</property>
  <property name="kdenlive:original.resource">mov/outdoor/bank.mov</property>
  <property name="kdenlive:original.meta.media.nb_streams">5</property>
  <property name="kdenlive:original.meta.media.0.stream.type">video</property>
  <property name="kdenlive:original.meta.media.0.stream.frame_rate">29.9702</property>
  <property name="kdenlive:original.meta.media.0.stream.sample_aspect_ratio">0</property>
  <property name="kdenlive:original.meta.media.0.codec.width">1920</property>
  <property name="kdenlive:original.meta.media.0.codec.height">1080</property>
  <property name="kdenlive:original.meta.media.0.codec.rotate">0</property>
  <property name="kdenlive:original.meta.media.0.codec.frame_rate">600</property>
  <property name="kdenlive:original.meta.media.0.codec.pix_fmt">yuv420p</property>
  <property name="kdenlive:original.meta.media.0.codec.sample_aspect_ratio">0</property>
  <property name="kdenlive:original.meta.media.0.codec.colorspace">709</property>
  <property name="kdenlive:original.meta.media.0.codec.color_trc">1</property>
  <property name="kdenlive:original.meta.media.0.codec.name">hevc</property>
  <property name="kdenlive:original.meta.media.0.codec.long_name">HEVC (High Efficiency Video Coding)</property>
  <property name="kdenlive:original.meta.media.0.codec.bit_rate">8386138</property>
  <property name="kdenlive:original.meta.attr.0.stream.creation_time.markup">2020-04-12T18:10:27.000000Z</property>
  <property name="kdenlive:original.meta.attr.0.stream.handler_name.markup">Core Media Video</property>
  <property name="kdenlive:original.meta.attr.0.stream.encoder.markup">HEVC</property>
  <property name="kdenlive:original.meta.media.1.stream.type">audio</property>
  <property name="kdenlive:original.meta.media.1.codec.sample_fmt">fltp</property>
  <property name="kdenlive:original.meta.media.1.codec.sample_rate">44100</property>
  <property name="kdenlive:original.meta.media.1.codec.channels">1</property>
  <property name="kdenlive:original.meta.media.1.codec.name">aac</property>
  <property name="kdenlive:original.meta.media.1.codec.long_name">AAC (Advanced Audio Coding)</property>
  <property name="kdenlive:original.meta.media.1.codec.bit_rate">97262</property>
  <property name="kdenlive:original.meta.attr.1.stream.creation_time.markup">2020-04-12T18:10:27.000000Z</property>
  <property name="kdenlive:original.meta.attr.1.stream.handler_name.markup">Core Media Audio</property>
  <property name="kdenlive:original.meta.attr.major_brand.markup">qt  </property>
  <property name="kdenlive:original.meta.attr.minor_version.markup">0</property>
  <property name="kdenlive:original.meta.attr.compatible_brands.markup">qt  </property>
  <property name="kdenlive:original.meta.attr.creation_time.markup">2020-04-12T18:10:27.000000Z</property>
  <property name="kdenlive:original.meta.attr.com.apple.quicktime.make.markup">Apple</property>
  <property name="kdenlive:original.meta.attr.com.apple.quicktime.model.markup">iPhone XS</property>
  <property name="kdenlive:original.meta.attr.com.apple.quicktime.software.markup">13.3.1</property>
  <property name="kdenlive:original.meta.attr.com.apple.quicktime.creationdate.markup">2020-04-12T20:10:27+0200</property>
  <property name="kdenlive:original.seekable">1</property>
  <property name="kdenlive:original.width">1920</property>
  <property name="kdenlive:original.height">1080</property>
  <property name="kdenlive:original.meta.media.sample_aspect_num">1</property>
  <property name="kdenlive:original.meta.media.sample_aspect_den">1</property>
  <property name="kdenlive:original.aspect_ratio">1</property>
  <property name="kdenlive:original.audio_index">1</property>
  <property name="kdenlive:original.video_index">0</property>
  <property name="kdenlive:original.mute_on_pause">0</property>
  <property name="kdenlive:original.mlt_service">avformat-novalidate</property>
  <property name="kdenlive:original.kdenlive:folderid">-1</property>
  <property name="kdenlive:original.meta.media.frame_rate_num">90600</property>
  <property name="kdenlive:original.meta.media.frame_rate_den">3023</property>
  <property name="kdenlive:original.meta.media.colorspace">709</property>
  <property name="kdenlive:original.meta.media.color_trc">1</property>
  <property name="kdenlive:original.meta.media.width">1920</property>
  <property name="kdenlive:original.meta.media.height">1080</property>
  <property name="kdenlive:original.meta.media.color_range">mpeg</property>
  <property name="kdenlive:original.kdenlive:id">12</property>
  <property name="kdenlive:original.kdenlive:file_size">5364848</property>
  <property name="kdenlive:original.kdenlive:file_hash">467efe028048117e614e1bd58098bbd9</property>
  <property name="kdenlive:original.backup">1</property>
  <property name="global_feed">1</property>
  <property name="xml">was here</property>
  <property name="meta.media.nb_streams">2</property>
  <property name="meta.media.0.stream.type">video</property>
  <property name="meta.media.0.stream.frame_rate">29.97</property>
  <property name="meta.media.0.stream.sample_aspect_ratio">0</property>
  <property name="meta.media.0.codec.width">640</property>
  <property name="meta.media.0.codec.height">360</property>
  <property name="meta.media.0.codec.rotate">0</property>
  <property name="meta.media.0.codec.frame_rate">29.97</property>
  <property name="meta.media.0.codec.pix_fmt">yuv420p</property>
  <property name="meta.media.0.codec.sample_aspect_ratio">1</property>
  <property name="meta.media.0.codec.colorspace">601</property>
  <property name="meta.media.0.codec.name">h264</property>
  <property name="meta.media.0.codec.long_name">H.264 / AVC / MPEG-4 AVC / MPEG-4 part 10</property>
  <property name="meta.media.0.codec.bit_rate">8630974</property>
  <property name="meta.attr.0.stream.handler_name.markup">Core Media Video</property>
  <property name="meta.attr.0.stream.encoder.markup">Lavc58.106.100 h264_nvenc</property>
  <property name="meta.media.1.stream.type">audio</property>
  <property name="meta.media.1.codec.sample_fmt">fltp</property>
  <property name="meta.media.1.codec.sample_rate">44100</property>
  <property name="meta.media.1.codec.channels">1</property>
  <property name="meta.media.1.codec.name">aac</property>
  <property name="meta.media.1.codec.long_name">AAC (Advanced Audio Coding)</property>
  <property name="meta.media.1.codec.bit_rate">97786</property>
  <property name="meta.attr.1.stream.handler_name.markup">Core Media Audio</property>
  <property name="meta.attr.major_brand.markup">qt  </property>
  <property name="meta.attr.minor_version.markup">512</property>
  <property name="meta.attr.compatible_brands.markup">qt  </property>
  <property name="meta.attr.encoder.markup">Lavf58.58.100</property>
  <property name="meta.media.sample_aspect_num">1</property>
  <property name="meta.media.sample_aspect_den">1</property>
  <property name="meta.media.frame_rate_num">30000</property>
  <property name="meta.media.frame_rate_den">1001</property>
  <property name="meta.media.colorspace">601</property>
  <property name="meta.media.color_trc">2</property>
  <property name="meta.media.width">640</property>
  <property name="meta.media.height">360</property>
  <property name="meta.media.color_range">mpeg</property>
  <property name="meta.media.top_field_first">0</property>
  <property name="meta.media.progressive">1</property>
  <property name="set.test_audio">1</property>
  <property name="set.test_image">0</property>
 </producer>
 <producer id="producer65" in="00:00:00.000" out="00:00:04.960">
  <property name="length">125</property>
  <property name="eof">pause</property>
  <property name="resource">/home/chiller/.cache/kdenlive/proxy/90567f20c5e6c2297562d760c303e721.mov</property>
  <property name="audio_index">1</property>
  <property name="video_index">0</property>
  <property name="mute_on_pause">0</property>
  <property name="mlt_service">avformat-novalidate</property>
  <property name="seekable">1</property>
  <property name="aspect_ratio">1</property>
  <property name="kdenlive:clipname">B599C16F-8752-499F-B0C3-140DB6FF2BC1.mov</property>
  <property name="kdenlive:folderid">-1</property>
  <property name="kdenlive:id">12</property>
  <property name="kdenlive:file_size">5268460</property>
  <property name="kdenlive:file_hash">90567f20c5e6c2297562d760c303e721</property>
  <property name="kdenlive:proxy">/home/chiller/.cache/kdenlive/proxy/90567f20c5e6c2297562d760c303e721.mov</property>
  <property name="kdenlive:originalurl">mov/outdoor/B599C16F-8752-499F-B0C3-140DB6FF2BC1.mov</property>
  <property name="kdenlive:original.mlt_type">producer</property>
  <property name="kdenlive:original.in">0</property>
  <property name="kdenlive:original.out">124</property>
  <property name="kdenlive:original.length">125</property>
  <property name="kdenlive:original.eof">pause</property>
  <property name="kdenlive:original.resource">mov/outdoor/B599C16F-8752-499F-B0C3-140DB6FF2BC1.mov</property>
  <property name="kdenlive:original.meta.media.nb_streams">5</property>
  <property name="kdenlive:original.meta.media.0.stream.type">video</property>
  <property name="kdenlive:original.meta.media.0.stream.frame_rate">29.97</property>
  <property name="kdenlive:original.meta.media.0.stream.sample_aspect_ratio">0</property>
  <property name="kdenlive:original.meta.media.0.codec.width">1920</property>
  <property name="kdenlive:original.meta.media.0.codec.height">1080</property>
  <property name="kdenlive:original.meta.media.0.codec.rotate">0</property>
  <property name="kdenlive:original.meta.media.0.codec.frame_rate">600</property>
  <property name="kdenlive:original.meta.media.0.codec.pix_fmt">yuv420p</property>
  <property name="kdenlive:original.meta.media.0.codec.sample_aspect_ratio">0</property>
  <property name="kdenlive:original.meta.media.0.codec.colorspace">709</property>
  <property name="kdenlive:original.meta.media.0.codec.color_trc">1</property>
  <property name="kdenlive:original.meta.media.0.codec.name">hevc</property>
  <property name="kdenlive:original.meta.media.0.codec.long_name">HEVC (High Efficiency Video Coding)</property>
  <property name="kdenlive:original.meta.media.0.codec.bit_rate">8215517</property>
  <property name="kdenlive:original.meta.attr.0.stream.creation_time.markup">2020-01-14T14:23:40.000000Z</property>
  <property name="kdenlive:original.meta.attr.0.stream.handler_name.markup">Core Media Video</property>
  <property name="kdenlive:original.meta.attr.0.stream.encoder.markup">HEVC</property>
  <property name="kdenlive:original.meta.media.1.stream.type">audio</property>
  <property name="kdenlive:original.meta.media.1.codec.sample_fmt">fltp</property>
  <property name="kdenlive:original.meta.media.1.codec.sample_rate">44100</property>
  <property name="kdenlive:original.meta.media.1.codec.channels">2</property>
  <property name="kdenlive:original.meta.media.1.codec.name">aac</property>
  <property name="kdenlive:original.meta.media.1.codec.long_name">AAC (Advanced Audio Coding)</property>
  <property name="kdenlive:original.meta.media.1.codec.bit_rate">169972</property>
  <property name="kdenlive:original.meta.attr.1.stream.creation_time.markup">2020-01-14T14:23:40.000000Z</property>
  <property name="kdenlive:original.meta.attr.1.stream.handler_name.markup">Core Media Audio</property>
  <property name="kdenlive:original.meta.attr.major_brand.markup">qt  </property>
  <property name="kdenlive:original.meta.attr.minor_version.markup">0</property>
  <property name="kdenlive:original.meta.attr.compatible_brands.markup">qt  </property>
  <property name="kdenlive:original.meta.attr.creation_time.markup">2020-01-14T14:23:40.000000Z</property>
  <property name="kdenlive:original.meta.attr.com.apple.quicktime.make.markup">Apple</property>
  <property name="kdenlive:original.meta.attr.com.apple.quicktime.model.markup">iPhone XS</property>
  <property name="kdenlive:original.meta.attr.com.apple.quicktime.software.markup">13.3</property>
  <property name="kdenlive:original.meta.attr.com.apple.quicktime.creationdate.markup">2020-01-14T15:23:40+0100</property>
  <property name="kdenlive:original.seekable">1</property>
  <property name="kdenlive:original.width">1920</property>
  <property name="kdenlive:original.height">1080</property>
  <property name="kdenlive:original.meta.media.sample_aspect_num">1</property>
  <property name="kdenlive:original.meta.media.sample_aspect_den">1</property>
  <property name="kdenlive:original.aspect_ratio">1</property>
  <property name="kdenlive:original.audio_index">1</property>
  <property name="kdenlive:original.video_index">0</property>
  <property name="kdenlive:original.mute_on_pause">0</property>
  <property name="kdenlive:original.mlt_service">avformat-novalidate</property>
  <property name="kdenlive:original.kdenlive:folderid">-1</property>
  <property name="kdenlive:original.meta.media.frame_rate_num">30000</property>
  <property name="kdenlive:original.meta.media.frame_rate_den">1001</property>
  <property name="kdenlive:original.meta.media.colorspace">709</property>
  <property name="kdenlive:original.meta.media.color_trc">1</property>
  <property name="kdenlive:original.meta.media.width">1920</property>
  <property name="kdenlive:original.meta.media.height">1080</property>
  <property name="kdenlive:original.meta.media.color_range">mpeg</property>
  <property name="kdenlive:original.kdenlive:id">13</property>
  <property name="kdenlive:original.kdenlive:file_size">5268460</property>
  <property name="kdenlive:original.kdenlive:file_hash">90567f20c5e6c2297562d760c303e721</property>
  <property name="kdenlive:original.backup">1</property>
  <property name="global_feed">1</property>
  <property name="xml">was here</property>
  <property name="meta.media.nb_streams">2</property>
  <property name="meta.media.0.stream.type">video</property>
  <property name="meta.media.0.stream.frame_rate">29.97</property>
  <property name="meta.media.0.stream.sample_aspect_ratio">0</property>
  <property name="meta.media.0.codec.width">640</property>
  <property name="meta.media.0.codec.height">360</property>
  <property name="meta.media.0.codec.rotate">0</property>
  <property name="meta.media.0.codec.frame_rate">29.97</property>
  <property name="meta.media.0.codec.pix_fmt">yuv420p</property>
  <property name="meta.media.0.codec.sample_aspect_ratio">1</property>
  <property name="meta.media.0.codec.colorspace">601</property>
  <property name="meta.media.0.codec.name">h264</property>
  <property name="meta.media.0.codec.long_name">H.264 / AVC / MPEG-4 AVC / MPEG-4 part 10</property>
  <property name="meta.media.0.codec.bit_rate">8619636</property>
  <property name="meta.attr.0.stream.handler_name.markup">Core Media Video</property>
  <property name="meta.attr.0.stream.encoder.markup">Lavc58.106.100 h264_nvenc</property>
  <property name="meta.media.1.stream.type">audio</property>
  <property name="meta.media.1.codec.sample_fmt">fltp</property>
  <property name="meta.media.1.codec.sample_rate">44100</property>
  <property name="meta.media.1.codec.channels">2</property>
  <property name="meta.media.1.codec.name">aac</property>
  <property name="meta.media.1.codec.long_name">AAC (Advanced Audio Coding)</property>
  <property name="meta.media.1.codec.bit_rate">170964</property>
  <property name="meta.attr.1.stream.handler_name.markup">Core Media Audio</property>
  <property name="meta.attr.major_brand.markup">qt  </property>
  <property name="meta.attr.minor_version.markup">512</property>
  <property name="meta.attr.compatible_brands.markup">qt  </property>
  <property name="meta.attr.encoder.markup">Lavf58.58.100</property>
  <property name="meta.media.sample_aspect_num">1</property>
  <property name="meta.media.sample_aspect_den">1</property>
  <property name="meta.media.frame_rate_num">30000</property>
  <property name="meta.media.frame_rate_den">1001</property>
  <property name="meta.media.colorspace">601</property>
  <property name="meta.media.color_trc">2</property>
  <property name="meta.media.width">640</property>
  <property name="meta.media.height">360</property>
  <property name="meta.media.color_range">mpeg</property>
  <property name="meta.media.top_field_first">0</property>
  <property name="meta.media.progressive">1</property>
  <property name="set.test_audio">1</property>
  <property name="set.test_image">0</property>
 </producer>
 <producer id="producer66" in="00:00:00.000" out="00:00:08.440">
  <property name="length">212</property>
  <property name="eof">pause</property>
  <property name="resource">/home/chiller/.cache/kdenlive/proxy/5ec2c4186498c92b076784f781b668cb.mov</property>
  <property name="audio_index">1</property>
  <property name="video_index">0</property>
  <property name="mute_on_pause">0</property>
  <property name="mlt_service">avformat-novalidate</property>
  <property name="seekable">1</property>
  <property name="aspect_ratio">1</property>
  <property name="kdenlive:clipname">D62BAD6B-6C73-4D92-A675-19C3C15E2066.mov</property>
  <property name="kdenlive:folderid">-1</property>
  <property name="kdenlive:id">13</property>
  <property name="kdenlive:file_size">9503345</property>
  <property name="kdenlive:file_hash">5ec2c4186498c92b076784f781b668cb</property>
  <property name="kdenlive:proxy">/home/chiller/.cache/kdenlive/proxy/5ec2c4186498c92b076784f781b668cb.mov</property>
  <property name="kdenlive:originalurl">mov/outdoor/D62BAD6B-6C73-4D92-A675-19C3C15E2066.mov</property>
  <property name="kdenlive:original.mlt_type">producer</property>
  <property name="kdenlive:original.in">0</property>
  <property name="kdenlive:original.out">211</property>
  <property name="kdenlive:original.length">212</property>
  <property name="kdenlive:original.eof">pause</property>
  <property name="kdenlive:original.resource">mov/outdoor/D62BAD6B-6C73-4D92-A675-19C3C15E2066.mov</property>
  <property name="kdenlive:original.meta.media.nb_streams">5</property>
  <property name="kdenlive:original.meta.media.0.stream.type">video</property>
  <property name="kdenlive:original.meta.media.0.stream.frame_rate">29.9764</property>
  <property name="kdenlive:original.meta.media.0.stream.sample_aspect_ratio">0</property>
  <property name="kdenlive:original.meta.media.0.codec.width">1920</property>
  <property name="kdenlive:original.meta.media.0.codec.height">1080</property>
  <property name="kdenlive:original.meta.media.0.codec.rotate">0</property>
  <property name="kdenlive:original.meta.media.0.codec.frame_rate">600</property>
  <property name="kdenlive:original.meta.media.0.codec.pix_fmt">yuv420p</property>
  <property name="kdenlive:original.meta.media.0.codec.sample_aspect_ratio">0</property>
  <property name="kdenlive:original.meta.media.0.codec.colorspace">709</property>
  <property name="kdenlive:original.meta.media.0.codec.color_trc">1</property>
  <property name="kdenlive:original.meta.media.0.codec.name">hevc</property>
  <property name="kdenlive:original.meta.media.0.codec.long_name">HEVC (High Efficiency Video Coding)</property>
  <property name="kdenlive:original.meta.media.0.codec.bit_rate">8843341</property>
  <property name="kdenlive:original.meta.attr.0.stream.creation_time.markup">2019-12-17T15:08:33.000000Z</property>
  <property name="kdenlive:original.meta.attr.0.stream.handler_name.markup">Core Media Video</property>
  <property name="kdenlive:original.meta.attr.0.stream.encoder.markup">HEVC</property>
  <property name="kdenlive:original.meta.media.1.stream.type">audio</property>
  <property name="kdenlive:original.meta.media.1.codec.sample_fmt">fltp</property>
  <property name="kdenlive:original.meta.media.1.codec.sample_rate">44100</property>
  <property name="kdenlive:original.meta.media.1.codec.channels">1</property>
  <property name="kdenlive:original.meta.media.1.codec.name">aac</property>
  <property name="kdenlive:original.meta.media.1.codec.long_name">AAC (Advanced Audio Coding)</property>
  <property name="kdenlive:original.meta.media.1.codec.bit_rate">99211</property>
  <property name="kdenlive:original.meta.attr.1.stream.creation_time.markup">2019-12-17T15:08:33.000000Z</property>
  <property name="kdenlive:original.meta.attr.1.stream.handler_name.markup">Core Media Audio</property>
  <property name="kdenlive:original.meta.attr.major_brand.markup">qt  </property>
  <property name="kdenlive:original.meta.attr.minor_version.markup">0</property>
  <property name="kdenlive:original.meta.attr.compatible_brands.markup">qt  </property>
  <property name="kdenlive:original.meta.attr.creation_time.markup">2019-12-17T15:08:33.000000Z</property>
  <property name="kdenlive:original.meta.attr.com.apple.quicktime.make.markup">Apple</property>
  <property name="kdenlive:original.meta.attr.com.apple.quicktime.model.markup">iPhone XS</property>
  <property name="kdenlive:original.meta.attr.com.apple.quicktime.software.markup">13.3</property>
  <property name="kdenlive:original.meta.attr.com.apple.quicktime.creationdate.markup">2019-12-17T16:08:33+0100</property>
  <property name="kdenlive:original.seekable">1</property>
  <property name="kdenlive:original.width">1920</property>
  <property name="kdenlive:original.height">1080</property>
  <property name="kdenlive:original.meta.media.sample_aspect_num">1</property>
  <property name="kdenlive:original.meta.media.sample_aspect_den">1</property>
  <property name="kdenlive:original.aspect_ratio">1</property>
  <property name="kdenlive:original.audio_index">1</property>
  <property name="kdenlive:original.video_index">0</property>
  <property name="kdenlive:original.mute_on_pause">0</property>
  <property name="kdenlive:original.mlt_service">avformat-novalidate</property>
  <property name="kdenlive:original.kdenlive:folderid">-1</property>
  <property name="kdenlive:original.meta.media.frame_rate_num">38100</property>
  <property name="kdenlive:original.meta.media.frame_rate_den">1271</property>
  <property name="kdenlive:original.meta.media.colorspace">709</property>
  <property name="kdenlive:original.meta.media.color_trc">1</property>
  <property name="kdenlive:original.meta.media.width">1920</property>
  <property name="kdenlive:original.meta.media.height">1080</property>
  <property name="kdenlive:original.meta.media.color_range">mpeg</property>
  <property name="kdenlive:original.kdenlive:id">14</property>
  <property name="kdenlive:original.kdenlive:file_size">9503345</property>
  <property name="kdenlive:original.kdenlive:file_hash">5ec2c4186498c92b076784f781b668cb</property>
  <property name="kdenlive:original.backup">1</property>
  <property name="global_feed">1</property>
  <property name="xml">was here</property>
  <property name="meta.media.nb_streams">2</property>
  <property name="meta.media.0.stream.type">video</property>
  <property name="meta.media.0.stream.frame_rate">29.97</property>
  <property name="meta.media.0.stream.sample_aspect_ratio">0</property>
  <property name="meta.media.0.codec.width">640</property>
  <property name="meta.media.0.codec.height">360</property>
  <property name="meta.media.0.codec.rotate">0</property>
  <property name="meta.media.0.codec.frame_rate">29.97</property>
  <property name="meta.media.0.codec.pix_fmt">yuv420p</property>
  <property name="meta.media.0.codec.sample_aspect_ratio">1</property>
  <property name="meta.media.0.codec.colorspace">601</property>
  <property name="meta.media.0.codec.name">h264</property>
  <property name="meta.media.0.codec.long_name">H.264 / AVC / MPEG-4 AVC / MPEG-4 part 10</property>
  <property name="meta.media.0.codec.bit_rate">6509823</property>
  <property name="meta.attr.0.stream.handler_name.markup">Core Media Video</property>
  <property name="meta.attr.0.stream.encoder.markup">Lavc58.106.100 h264_nvenc</property>
  <property name="meta.media.1.stream.type">audio</property>
  <property name="meta.media.1.codec.sample_fmt">fltp</property>
  <property name="meta.media.1.codec.sample_rate">44100</property>
  <property name="meta.media.1.codec.channels">1</property>
  <property name="meta.media.1.codec.name">aac</property>
  <property name="meta.media.1.codec.long_name">AAC (Advanced Audio Coding)</property>
  <property name="meta.media.1.codec.bit_rate">99494</property>
  <property name="meta.attr.1.stream.handler_name.markup">Core Media Audio</property>
  <property name="meta.attr.major_brand.markup">qt  </property>
  <property name="meta.attr.minor_version.markup">512</property>
  <property name="meta.attr.compatible_brands.markup">qt  </property>
  <property name="meta.attr.encoder.markup">Lavf58.58.100</property>
  <property name="meta.media.sample_aspect_num">1</property>
  <property name="meta.media.sample_aspect_den">1</property>
  <property name="meta.media.frame_rate_num">30000</property>
  <property name="meta.media.frame_rate_den">1001</property>
  <property name="meta.media.colorspace">601</property>
  <property name="meta.media.color_trc">2</property>
  <property name="meta.media.width">640</property>
  <property name="meta.media.height">360</property>
  <property name="meta.media.color_range">mpeg</property>
  <property name="meta.media.top_field_first">0</property>
  <property name="meta.media.progressive">1</property>
  <property name="set.test_audio">1</property>
  <property name="set.test_image">0</property>
 </producer>
 <producer id="producer67" in="00:00:00.000" out="00:00:06.920">
  <property name="length">174</property>
  <property name="eof">pause</property>
  <property name="resource">/home/chiller/.cache/kdenlive/proxy/7130cc5c806bb092307855ad3222000b.mov</property>
  <property name="audio_index">1</property>
  <property name="video_index">0</property>
  <property name="mute_on_pause">0</property>
  <property name="mlt_service">avformat-novalidate</property>
  <property name="seekable">1</property>
  <property name="aspect_ratio">1</property>
  <property name="kdenlive:clipname">flixbus3.mov</property>
  <property name="kdenlive:folderid">-1</property>
  <property name="kdenlive:id">14</property>
  <property name="kdenlive:file_size">6155756</property>
  <property name="kdenlive:file_hash">7130cc5c806bb092307855ad3222000b</property>
  <property name="kdenlive:proxy">/home/chiller/.cache/kdenlive/proxy/7130cc5c806bb092307855ad3222000b.mov</property>
  <property name="kdenlive:originalurl">mov/travel/flixbus3.mov</property>
  <property name="kdenlive:original.mlt_type">producer</property>
  <property name="kdenlive:original.in">0</property>
  <property name="kdenlive:original.out">173</property>
  <property name="kdenlive:original.length">174</property>
  <property name="kdenlive:original.eof">pause</property>
  <property name="kdenlive:original.resource">mov/travel/flixbus3.mov</property>
  <property name="kdenlive:original.meta.media.nb_streams">4</property>
  <property name="kdenlive:original.meta.media.0.stream.type">video</property>
  <property name="kdenlive:original.meta.media.0.stream.frame_rate">29.9712</property>
  <property name="kdenlive:original.meta.media.0.stream.sample_aspect_ratio">0</property>
  <property name="kdenlive:original.meta.media.0.codec.width">1920</property>
  <property name="kdenlive:original.meta.media.0.codec.height">1080</property>
  <property name="kdenlive:original.meta.media.0.codec.rotate">0</property>
  <property name="kdenlive:original.meta.media.0.codec.frame_rate">600</property>
  <property name="kdenlive:original.meta.media.0.codec.pix_fmt">yuv420p</property>
  <property name="kdenlive:original.meta.media.0.codec.sample_aspect_ratio">0</property>
  <property name="kdenlive:original.meta.media.0.codec.colorspace">709</property>
  <property name="kdenlive:original.meta.media.0.codec.color_trc">1</property>
  <property name="kdenlive:original.meta.media.0.codec.name">hevc</property>
  <property name="kdenlive:original.meta.media.0.codec.long_name">HEVC (High Efficiency Video Coding)</property>
  <property name="kdenlive:original.meta.media.0.codec.bit_rate">6977633</property>
  <property name="kdenlive:original.meta.attr.0.stream.creation_time.markup">2019-08-11T14:49:35.000000Z</property>
  <property name="kdenlive:original.meta.attr.0.stream.handler_name.markup">Core Media Video</property>
  <property name="kdenlive:original.meta.attr.0.stream.encoder.markup">HEVC</property>
  <property name="kdenlive:original.meta.media.1.stream.type">audio</property>
  <property name="kdenlive:original.meta.media.1.codec.sample_fmt">fltp</property>
  <property name="kdenlive:original.meta.media.1.codec.sample_rate">44100</property>
  <property name="kdenlive:original.meta.media.1.codec.channels">1</property>
  <property name="kdenlive:original.meta.media.1.codec.name">aac</property>
  <property name="kdenlive:original.meta.media.1.codec.long_name">AAC (Advanced Audio Coding)</property>
  <property name="kdenlive:original.meta.media.1.codec.bit_rate">105128</property>
  <property name="kdenlive:original.meta.attr.1.stream.creation_time.markup">2019-08-11T14:49:35.000000Z</property>
  <property name="kdenlive:original.meta.attr.1.stream.handler_name.markup">Core Media Audio</property>
  <property name="kdenlive:original.meta.attr.major_brand.markup">qt  </property>
  <property name="kdenlive:original.meta.attr.minor_version.markup">0</property>
  <property name="kdenlive:original.meta.attr.compatible_brands.markup">qt  </property>
  <property name="kdenlive:original.meta.attr.creation_time.markup">2019-08-11T14:49:35.000000Z</property>
  <property name="kdenlive:original.meta.attr.com.apple.quicktime.make.markup">Apple</property>
  <property name="kdenlive:original.meta.attr.com.apple.quicktime.model.markup">iPhone XS</property>
  <property name="kdenlive:original.meta.attr.com.apple.quicktime.software.markup">12.3.1</property>
  <property name="kdenlive:original.meta.attr.com.apple.quicktime.creationdate.markup">2019-08-11T16:49:35+0200</property>
  <property name="kdenlive:original.seekable">1</property>
  <property name="kdenlive:original.width">1920</property>
  <property name="kdenlive:original.height">1080</property>
  <property name="kdenlive:original.meta.media.sample_aspect_num">1</property>
  <property name="kdenlive:original.meta.media.sample_aspect_den">1</property>
  <property name="kdenlive:original.aspect_ratio">1</property>
  <property name="kdenlive:original.audio_index">1</property>
  <property name="kdenlive:original.video_index">0</property>
  <property name="kdenlive:original.mute_on_pause">0</property>
  <property name="kdenlive:original.mlt_service">avformat-novalidate</property>
  <property name="kdenlive:original.kdenlive:folderid">-1</property>
  <property name="kdenlive:original.meta.media.frame_rate_num">10400</property>
  <property name="kdenlive:original.meta.media.frame_rate_den">347</property>
  <property name="kdenlive:original.meta.media.colorspace">709</property>
  <property name="kdenlive:original.meta.media.color_trc">1</property>
  <property name="kdenlive:original.meta.media.width">1920</property>
  <property name="kdenlive:original.meta.media.height">1080</property>
  <property name="kdenlive:original.meta.media.color_range">mpeg</property>
  <property name="kdenlive:original.kdenlive:id">16</property>
  <property name="kdenlive:original.kdenlive:file_size">6155756</property>
  <property name="kdenlive:original.kdenlive:file_hash">7130cc5c806bb092307855ad3222000b</property>
  <property name="kdenlive:original.backup">1</property>
  <property name="global_feed">1</property>
  <property name="xml">was here</property>
  <property name="meta.media.nb_streams">2</property>
  <property name="meta.media.0.stream.type">video</property>
  <property name="meta.media.0.stream.frame_rate">29.97</property>
  <property name="meta.media.0.stream.sample_aspect_ratio">0</property>
  <property name="meta.media.0.codec.width">640</property>
  <property name="meta.media.0.codec.height">360</property>
  <property name="meta.media.0.codec.rotate">0</property>
  <property name="meta.media.0.codec.frame_rate">29.97</property>
  <property name="meta.media.0.codec.pix_fmt">yuv420p</property>
  <property name="meta.media.0.codec.sample_aspect_ratio">1</property>
  <property name="meta.media.0.codec.colorspace">601</property>
  <property name="meta.media.0.codec.name">h264</property>
  <property name="meta.media.0.codec.long_name">H.264 / AVC / MPEG-4 AVC / MPEG-4 part 10</property>
  <property name="meta.media.0.codec.bit_rate">6483254</property>
  <property name="meta.attr.0.stream.handler_name.markup">Core Media Video</property>
  <property name="meta.attr.0.stream.encoder.markup">Lavc58.106.100 h264_nvenc</property>
  <property name="meta.media.1.stream.type">audio</property>
  <property name="meta.media.1.codec.sample_fmt">fltp</property>
  <property name="meta.media.1.codec.sample_rate">44100</property>
  <property name="meta.media.1.codec.channels">1</property>
  <property name="meta.media.1.codec.name">aac</property>
  <property name="meta.media.1.codec.long_name">AAC (Advanced Audio Coding)</property>
  <property name="meta.media.1.codec.bit_rate">105211</property>
  <property name="meta.attr.1.stream.handler_name.markup">Core Media Audio</property>
  <property name="meta.attr.major_brand.markup">qt  </property>
  <property name="meta.attr.minor_version.markup">512</property>
  <property name="meta.attr.compatible_brands.markup">qt  </property>
  <property name="meta.attr.encoder.markup">Lavf58.58.100</property>
  <property name="meta.media.sample_aspect_num">1</property>
  <property name="meta.media.sample_aspect_den">1</property>
  <property name="meta.media.frame_rate_num">30000</property>
  <property name="meta.media.frame_rate_den">1001</property>
  <property name="meta.media.colorspace">601</property>
  <property name="meta.media.color_trc">2</property>
  <property name="meta.media.width">640</property>
  <property name="meta.media.height">360</property>
  <property name="meta.media.color_range">mpeg</property>
  <property name="meta.media.top_field_first">0</property>
  <property name="meta.media.progressive">1</property>
  <property name="set.test_audio">1</property>
  <property name="set.test_image">0</property>
 </producer>
 <producer id="producer68" in="00:00:00.000" out="00:00:07.240">
  <property name="length">182</property>
  <property name="eof">pause</property>
  <property name="resource">/home/chiller/.cache/kdenlive/proxy/6066f62950a113db4e5d3fc08b49f2ba.mov</property>
  <property name="audio_index">1</property>
  <property name="video_index">0</property>
  <property name="mute_on_pause">0</property>
  <property name="mlt_service">avformat-novalidate</property>
  <property name="seekable">1</property>
  <property name="aspect_ratio">1</property>
  <property name="kdenlive:clipname">university3.mov</property>
  <property name="kdenlive:folderid">-1</property>
  <property name="kdenlive:id">15</property>
  <property name="kdenlive:file_size">10660069</property>
  <property name="kdenlive:file_hash">6066f62950a113db4e5d3fc08b49f2ba</property>
  <property name="kdenlive:proxy">/home/chiller/.cache/kdenlive/proxy/6066f62950a113db4e5d3fc08b49f2ba.mov</property>
  <property name="kdenlive:originalurl">mov/indoor/uni/university3.mov</property>
  <property name="kdenlive:original.mlt_type">producer</property>
  <property name="kdenlive:original.in">0</property>
  <property name="kdenlive:original.out">181</property>
  <property name="kdenlive:original.length">182</property>
  <property name="kdenlive:original.eof">pause</property>
  <property name="kdenlive:original.resource">mov/indoor/uni/university3.mov</property>
  <property name="kdenlive:original.meta.media.nb_streams">5</property>
  <property name="kdenlive:original.meta.media.0.stream.type">video</property>
  <property name="kdenlive:original.meta.media.0.stream.frame_rate">29.9725</property>
  <property name="kdenlive:original.meta.media.0.stream.sample_aspect_ratio">0</property>
  <property name="kdenlive:original.meta.media.0.codec.width">1920</property>
  <property name="kdenlive:original.meta.media.0.codec.height">1080</property>
  <property name="kdenlive:original.meta.media.0.codec.rotate">0</property>
  <property name="kdenlive:original.meta.media.0.codec.frame_rate">600</property>
  <property name="kdenlive:original.meta.media.0.codec.pix_fmt">yuv420p</property>
  <property name="kdenlive:original.meta.media.0.codec.sample_aspect_ratio">0</property>
  <property name="kdenlive:original.meta.media.0.codec.colorspace">709</property>
  <property name="kdenlive:original.meta.media.0.codec.color_trc">1</property>
  <property name="kdenlive:original.meta.media.0.codec.name">hevc</property>
  <property name="kdenlive:original.meta.media.0.codec.long_name">HEVC (High Efficiency Video Coding)</property>
  <property name="kdenlive:original.meta.media.0.codec.bit_rate">11523998</property>
  <property name="kdenlive:original.meta.attr.0.stream.creation_time.markup">2020-01-17T12:45:11.000000Z</property>
  <property name="kdenlive:original.meta.attr.0.stream.handler_name.markup">Core Media Video</property>
  <property name="kdenlive:original.meta.attr.0.stream.encoder.markup">HEVC</property>
  <property name="kdenlive:original.meta.media.1.stream.type">audio</property>
  <property name="kdenlive:original.meta.media.1.codec.sample_fmt">fltp</property>
  <property name="kdenlive:original.meta.media.1.codec.sample_rate">44100</property>
  <property name="kdenlive:original.meta.media.1.codec.channels">2</property>
  <property name="kdenlive:original.meta.media.1.codec.name">aac</property>
  <property name="kdenlive:original.meta.media.1.codec.long_name">AAC (Advanced Audio Coding)</property>
  <property name="kdenlive:original.meta.media.1.codec.bit_rate">169395</property>
  <property name="kdenlive:original.meta.attr.1.stream.creation_time.markup">2020-01-17T12:45:11.000000Z</property>
  <property name="kdenlive:original.meta.attr.1.stream.handler_name.markup">Core Media Audio</property>
  <property name="kdenlive:original.meta.attr.major_brand.markup">qt  </property>
  <property name="kdenlive:original.meta.attr.minor_version.markup">0</property>
  <property name="kdenlive:original.meta.attr.compatible_brands.markup">qt  </property>
  <property name="kdenlive:original.meta.attr.creation_time.markup">2020-01-17T12:45:11.000000Z</property>
  <property name="kdenlive:original.meta.attr.com.apple.quicktime.make.markup">Apple</property>
  <property name="kdenlive:original.meta.attr.com.apple.quicktime.model.markup">iPhone XS</property>
  <property name="kdenlive:original.meta.attr.com.apple.quicktime.software.markup">13.3</property>
  <property name="kdenlive:original.meta.attr.com.apple.quicktime.creationdate.markup">2020-01-17T13:45:11+0100</property>
  <property name="kdenlive:original.seekable">1</property>
  <property name="kdenlive:original.width">1920</property>
  <property name="kdenlive:original.height">1080</property>
  <property name="kdenlive:original.meta.media.sample_aspect_num">1</property>
  <property name="kdenlive:original.meta.media.sample_aspect_den">1</property>
  <property name="kdenlive:original.aspect_ratio">1</property>
  <property name="kdenlive:original.audio_index">1</property>
  <property name="kdenlive:original.video_index">0</property>
  <property name="kdenlive:original.mute_on_pause">0</property>
  <property name="kdenlive:original.mlt_service">avformat-novalidate</property>
  <property name="kdenlive:original.kdenlive:folderid">-1</property>
  <property name="kdenlive:original.meta.media.frame_rate_num">32700</property>
  <property name="kdenlive:original.meta.media.frame_rate_den">1091</property>
  <property name="kdenlive:original.meta.media.colorspace">709</property>
  <property name="kdenlive:original.meta.media.color_trc">1</property>
  <property name="kdenlive:original.meta.media.width">1920</property>
  <property name="kdenlive:original.meta.media.height">1080</property>
  <property name="kdenlive:original.meta.media.color_range">mpeg</property>
  <property name="kdenlive:original.kdenlive:id">15</property>
  <property name="kdenlive:original.kdenlive:file_size">10660069</property>
  <property name="kdenlive:original.kdenlive:file_hash">6066f62950a113db4e5d3fc08b49f2ba</property>
  <property name="kdenlive:original.backup">1</property>
  <property name="global_feed">1</property>
  <property name="xml">was here</property>
  <property name="meta.media.nb_streams">2</property>
  <property name="meta.media.0.stream.type">video</property>
  <property name="meta.media.0.stream.frame_rate">29.97</property>
  <property name="meta.media.0.stream.sample_aspect_ratio">0</property>
  <property name="meta.media.0.codec.width">640</property>
  <property name="meta.media.0.codec.height">360</property>
  <property name="meta.media.0.codec.rotate">0</property>
  <property name="meta.media.0.codec.frame_rate">29.97</property>
  <property name="meta.media.0.codec.pix_fmt">yuv420p</property>
  <property name="meta.media.0.codec.sample_aspect_ratio">1</property>
  <property name="meta.media.0.codec.colorspace">601</property>
  <property name="meta.media.0.codec.name">h264</property>
  <property name="meta.media.0.codec.long_name">H.264 / AVC / MPEG-4 AVC / MPEG-4 part 10</property>
  <property name="meta.media.0.codec.bit_rate">6038658</property>
  <property name="meta.attr.0.stream.handler_name.markup">Core Media Video</property>
  <property name="meta.attr.0.stream.encoder.markup">Lavc58.106.100 h264_nvenc</property>
  <property name="meta.media.1.stream.type">audio</property>
  <property name="meta.media.1.codec.sample_fmt">fltp</property>
  <property name="meta.media.1.codec.sample_rate">44100</property>
  <property name="meta.media.1.codec.channels">2</property>
  <property name="meta.media.1.codec.name">aac</property>
  <property name="meta.media.1.codec.long_name">AAC (Advanced Audio Coding)</property>
  <property name="meta.media.1.codec.bit_rate">170352</property>
  <property name="meta.attr.1.stream.handler_name.markup">Core Media Audio</property>
  <property name="meta.attr.major_brand.markup">qt  </property>
  <property name="meta.attr.minor_version.markup">512</property>
  <property name="meta.attr.compatible_brands.markup">qt  </property>
  <property name="meta.attr.encoder.markup">Lavf58.58.100</property>
  <property name="meta.media.sample_aspect_num">1</property>
  <property name="meta.media.sample_aspect_den">1</property>
  <property name="meta.media.frame_rate_num">30000</property>
  <property name="meta.media.frame_rate_den">1001</property>
  <property name="meta.media.colorspace">601</property>
  <property name="meta.media.color_trc">2</property>
  <property name="meta.media.width">640</property>
  <property name="meta.media.height">360</property>
  <property name="meta.media.color_range">mpeg</property>
  <property name="meta.media.top_field_first">0</property>
  <property name="meta.media.progressive">1</property>
  <property name="set.test_audio">1</property>
  <property name="set.test_image">0</property>
 </producer>
 <producer id="producer69" in="00:00:00.000" out="00:00:06.960">
  <property name="length">175</property>
  <property name="eof">pause</property>
  <property name="resource">/home/chiller/.cache/kdenlive/proxy/fdebaa9e6f1f468e6d2b85dfcd9087cc.mov</property>
  <property name="audio_index">1</property>
  <property name="video_index">0</property>
  <property name="mute_on_pause">0</property>
  <property name="mlt_service">avformat-novalidate</property>
  <property name="seekable">1</property>
  <property name="aspect_ratio">1</property>
  <property name="kdenlive:clipname">BEA4D49F-3254-4C3D-80FD-253C7A64F3A3.mov</property>
  <property name="kdenlive:folderid">-1</property>
  <property name="kdenlive:id">16</property>
  <property name="kdenlive:file_size">7493482</property>
  <property name="kdenlive:file_hash">fdebaa9e6f1f468e6d2b85dfcd9087cc</property>
  <property name="kdenlive:proxy">/home/chiller/.cache/kdenlive/proxy/fdebaa9e6f1f468e6d2b85dfcd9087cc.mov</property>
  <property name="kdenlive:originalurl">mov/water/BEA4D49F-3254-4C3D-80FD-253C7A64F3A3.mov</property>
  <property name="kdenlive:original.mlt_type">producer</property>
  <property name="kdenlive:original.in">0</property>
  <property name="kdenlive:original.out">174</property>
  <property name="kdenlive:original.length">175</property>
  <property name="kdenlive:original.eof">pause</property>
  <property name="kdenlive:original.resource">mov/water/BEA4D49F-3254-4C3D-80FD-253C7A64F3A3.mov</property>
  <property name="kdenlive:original.meta.media.nb_streams">5</property>
  <property name="kdenlive:original.meta.media.0.stream.type">video</property>
  <property name="kdenlive:original.meta.media.0.stream.frame_rate">29.9715</property>
  <property name="kdenlive:original.meta.media.0.stream.sample_aspect_ratio">0</property>
  <property name="kdenlive:original.meta.media.0.codec.width">1920</property>
  <property name="kdenlive:original.meta.media.0.codec.height">1080</property>
  <property name="kdenlive:original.meta.media.0.codec.rotate">0</property>
  <property name="kdenlive:original.meta.media.0.codec.frame_rate">600</property>
  <property name="kdenlive:original.meta.media.0.codec.pix_fmt">yuv420p</property>
  <property name="kdenlive:original.meta.media.0.codec.sample_aspect_ratio">0</property>
  <property name="kdenlive:original.meta.media.0.codec.colorspace">709</property>
  <property name="kdenlive:original.meta.media.0.codec.color_trc">1</property>
  <property name="kdenlive:original.meta.media.0.codec.name">hevc</property>
  <property name="kdenlive:original.meta.media.0.codec.long_name">HEVC (High Efficiency Video Coding)</property>
  <property name="kdenlive:original.meta.media.0.codec.bit_rate">8425007</property>
  <property name="kdenlive:original.meta.attr.0.stream.creation_time.markup">2020-04-12T17:52:26.000000Z</property>
  <property name="kdenlive:original.meta.attr.0.stream.handler_name.markup">Core Media Video</property>
  <property name="kdenlive:original.meta.attr.0.stream.encoder.markup">HEVC</property>
  <property name="kdenlive:original.meta.media.1.stream.type">audio</property>
  <property name="kdenlive:original.meta.media.1.codec.sample_fmt">fltp</property>
  <property name="kdenlive:original.meta.media.1.codec.sample_rate">44100</property>
  <property name="kdenlive:original.meta.media.1.codec.channels">1</property>
  <property name="kdenlive:original.meta.media.1.codec.name">aac</property>
  <property name="kdenlive:original.meta.media.1.codec.long_name">AAC (Advanced Audio Coding)</property>
  <property name="kdenlive:original.meta.media.1.codec.bit_rate">99605</property>
  <property name="kdenlive:original.meta.attr.1.stream.creation_time.markup">2020-04-12T17:52:26.000000Z</property>
  <property name="kdenlive:original.meta.attr.1.stream.handler_name.markup">Core Media Audio</property>
  <property name="kdenlive:original.meta.attr.major_brand.markup">qt  </property>
  <property name="kdenlive:original.meta.attr.minor_version.markup">0</property>
  <property name="kdenlive:original.meta.attr.compatible_brands.markup">qt  </property>
  <property name="kdenlive:original.meta.attr.creation_time.markup">2020-04-12T17:52:26.000000Z</property>
  <property name="kdenlive:original.meta.attr.com.apple.quicktime.make.markup">Apple</property>
  <property name="kdenlive:original.meta.attr.com.apple.quicktime.model.markup">iPhone XS</property>
  <property name="kdenlive:original.meta.attr.com.apple.quicktime.software.markup">13.3.1</property>
  <property name="kdenlive:original.meta.attr.com.apple.quicktime.creationdate.markup">2020-04-12T19:52:24+0200</property>
  <property name="kdenlive:original.seekable">1</property>
  <property name="kdenlive:original.width">1920</property>
  <property name="kdenlive:original.height">1080</property>
  <property name="kdenlive:original.meta.media.sample_aspect_num">1</property>
  <property name="kdenlive:original.meta.media.sample_aspect_den">1</property>
  <property name="kdenlive:original.aspect_ratio">1</property>
  <property name="kdenlive:original.audio_index">1</property>
  <property name="kdenlive:original.video_index">0</property>
  <property name="kdenlive:original.mute_on_pause">0</property>
  <property name="kdenlive:original.mlt_service">avformat-novalidate</property>
  <property name="kdenlive:original.kdenlive:folderid">-1</property>
  <property name="kdenlive:original.meta.media.frame_rate_num">31500</property>
  <property name="kdenlive:original.meta.media.frame_rate_den">1051</property>
  <property name="kdenlive:original.meta.media.colorspace">709</property>
  <property name="kdenlive:original.meta.media.color_trc">1</property>
  <property name="kdenlive:original.meta.media.width">1920</property>
  <property name="kdenlive:original.meta.media.height">1080</property>
  <property name="kdenlive:original.meta.media.color_range">mpeg</property>
  <property name="kdenlive:original.kdenlive:id">16</property>
  <property name="kdenlive:original.kdenlive:file_size">7493482</property>
  <property name="kdenlive:original.kdenlive:file_hash">fdebaa9e6f1f468e6d2b85dfcd9087cc</property>
  <property name="kdenlive:original.backup">1</property>
  <property name="global_feed">1</property>
  <property name="xml">was here</property>
  <property name="meta.media.nb_streams">2</property>
  <property name="meta.media.0.stream.type">video</property>
  <property name="meta.media.0.stream.frame_rate">29.97</property>
  <property name="meta.media.0.stream.sample_aspect_ratio">0</property>
  <property name="meta.media.0.codec.width">640</property>
  <property name="meta.media.0.codec.height">360</property>
  <property name="meta.media.0.codec.rotate">0</property>
  <property name="meta.media.0.codec.frame_rate">29.97</property>
  <property name="meta.media.0.codec.pix_fmt">yuv420p</property>
  <property name="meta.media.0.codec.sample_aspect_ratio">1</property>
  <property name="meta.media.0.codec.colorspace">601</property>
  <property name="meta.media.0.codec.name">h264</property>
  <property name="meta.media.0.codec.long_name">H.264 / AVC / MPEG-4 AVC / MPEG-4 part 10</property>
  <property name="meta.media.0.codec.bit_rate">6071099</property>
  <property name="meta.attr.0.stream.handler_name.markup">Core Media Video</property>
  <property name="meta.attr.0.stream.encoder.markup">Lavc58.106.100 h264_nvenc</property>
  <property name="meta.media.1.stream.type">audio</property>
  <property name="meta.media.1.codec.sample_fmt">fltp</property>
  <property name="meta.media.1.codec.sample_rate">44100</property>
  <property name="meta.media.1.codec.channels">1</property>
  <property name="meta.media.1.codec.name">aac</property>
  <property name="meta.media.1.codec.long_name">AAC (Advanced Audio Coding)</property>
  <property name="meta.media.1.codec.bit_rate">99870</property>
  <property name="meta.attr.1.stream.handler_name.markup">Core Media Audio</property>
  <property name="meta.attr.major_brand.markup">qt  </property>
  <property name="meta.attr.minor_version.markup">512</property>
  <property name="meta.attr.compatible_brands.markup">qt  </property>
  <property name="meta.attr.encoder.markup">Lavf58.58.100</property>
  <property name="meta.media.sample_aspect_num">1</property>
  <property name="meta.media.sample_aspect_den">1</property>
  <property name="meta.media.frame_rate_num">30000</property>
  <property name="meta.media.frame_rate_den">1001</property>
  <property name="meta.media.colorspace">601</property>
  <property name="meta.media.color_trc">2</property>
  <property name="meta.media.width">640</property>
  <property name="meta.media.height">360</property>
  <property name="meta.media.color_range">mpeg</property>
  <property name="meta.media.top_field_first">0</property>
  <property name="meta.media.progressive">1</property>
  <property name="set.test_audio">1</property>
  <property name="set.test_image">0</property>
 </producer>
 <producer id="producer70" in="00:00:00.000" out="00:00:03.960">
  <property name="length">100</property>
  <property name="eof">pause</property>
  <property name="resource">/home/chiller/.cache/kdenlive/proxy/71814888dd13bc8d27fb450f64486fa1.mov</property>
  <property name="audio_index">1</property>
  <property name="video_index">0</property>
  <property name="mute_on_pause">0</property>
  <property name="mlt_service">avformat-novalidate</property>
  <property name="seekable">1</property>
  <property name="aspect_ratio">1</property>
  <property name="kdenlive:clipname">starbucks.mov</property>
  <property name="kdenlive:folderid">-1</property>
  <property name="kdenlive:id">17</property>
  <property name="kdenlive:file_size">4025926</property>
  <property name="kdenlive:file_hash">71814888dd13bc8d27fb450f64486fa1</property>
  <property name="kdenlive:proxy">/home/chiller/.cache/kdenlive/proxy/71814888dd13bc8d27fb450f64486fa1.mov</property>
  <property name="kdenlive:originalurl">mov/night/starbucks.mov</property>
  <property name="kdenlive:original.mlt_type">producer</property>
  <property name="kdenlive:original.in">0</property>
  <property name="kdenlive:original.out">99</property>
  <property name="kdenlive:original.length">100</property>
  <property name="kdenlive:original.eof">pause</property>
  <property name="kdenlive:original.resource">mov/night/starbucks.mov</property>
  <property name="kdenlive:original.meta.media.nb_streams">5</property>
  <property name="kdenlive:original.meta.media.0.stream.type">video</property>
  <property name="kdenlive:original.meta.media.0.stream.frame_rate">29.975</property>
  <property name="kdenlive:original.meta.media.0.stream.sample_aspect_ratio">0</property>
  <property name="kdenlive:original.meta.media.0.codec.width">1920</property>
  <property name="kdenlive:original.meta.media.0.codec.height">1080</property>
  <property name="kdenlive:original.meta.media.0.codec.rotate">0</property>
  <property name="kdenlive:original.meta.media.0.codec.frame_rate">600</property>
  <property name="kdenlive:original.meta.media.0.codec.pix_fmt">yuv420p</property>
  <property name="kdenlive:original.meta.media.0.codec.sample_aspect_ratio">0</property>
  <property name="kdenlive:original.meta.media.0.codec.colorspace">709</property>
  <property name="kdenlive:original.meta.media.0.codec.color_trc">1</property>
  <property name="kdenlive:original.meta.media.0.codec.name">hevc</property>
  <property name="kdenlive:original.meta.media.0.codec.long_name">HEVC (High Efficiency Video Coding)</property>
  <property name="kdenlive:original.meta.media.0.codec.bit_rate">7816048</property>
  <property name="kdenlive:original.meta.attr.0.stream.creation_time.markup">2020-01-15T16:57:44.000000Z</property>
  <property name="kdenlive:original.meta.attr.0.stream.handler_name.markup">Core Media Video</property>
  <property name="kdenlive:original.meta.attr.0.stream.encoder.markup">HEVC</property>
  <property name="kdenlive:original.meta.media.1.stream.type">audio</property>
  <property name="kdenlive:original.meta.media.1.codec.sample_fmt">fltp</property>
  <property name="kdenlive:original.meta.media.1.codec.sample_rate">44100</property>
  <property name="kdenlive:original.meta.media.1.codec.channels">2</property>
  <property name="kdenlive:original.meta.media.1.codec.name">aac</property>
  <property name="kdenlive:original.meta.media.1.codec.long_name">AAC (Advanced Audio Coding)</property>
  <property name="kdenlive:original.meta.media.1.codec.bit_rate">189765</property>
  <property name="kdenlive:original.meta.attr.1.stream.creation_time.markup">2020-01-15T16:57:44.000000Z</property>
  <property name="kdenlive:original.meta.attr.1.stream.handler_name.markup">Core Media Audio</property>
  <property name="kdenlive:original.meta.attr.major_brand.markup">qt  </property>
  <property name="kdenlive:original.meta.attr.minor_version.markup">0</property>
  <property name="kdenlive:original.meta.attr.compatible_brands.markup">qt  </property>
  <property name="kdenlive:original.meta.attr.creation_time.markup">2020-01-15T16:57:44.000000Z</property>
  <property name="kdenlive:original.meta.attr.com.apple.quicktime.make.markup">Apple</property>
  <property name="kdenlive:original.meta.attr.com.apple.quicktime.model.markup">iPhone XS</property>
  <property name="kdenlive:original.meta.attr.com.apple.quicktime.software.markup">13.3</property>
  <property name="kdenlive:original.meta.attr.com.apple.quicktime.creationdate.markup">2020-01-15T17:57:44+0100</property>
  <property name="kdenlive:original.seekable">1</property>
  <property name="kdenlive:original.width">1920</property>
  <property name="kdenlive:original.height">1080</property>
  <property name="kdenlive:original.meta.media.sample_aspect_num">1</property>
  <property name="kdenlive:original.meta.media.sample_aspect_den">1</property>
  <property name="kdenlive:original.aspect_ratio">1</property>
  <property name="kdenlive:original.audio_index">1</property>
  <property name="kdenlive:original.video_index">0</property>
  <property name="kdenlive:original.mute_on_pause">0</property>
  <property name="kdenlive:original.mlt_service">avformat-novalidate</property>
  <property name="kdenlive:original.kdenlive:folderid">-1</property>
  <property name="kdenlive:original.meta.media.frame_rate_num">36000</property>
  <property name="kdenlive:original.meta.media.frame_rate_den">1201</property>
  <property name="kdenlive:original.meta.media.colorspace">709</property>
  <property name="kdenlive:original.meta.media.color_trc">1</property>
  <property name="kdenlive:original.meta.media.width">1920</property>
  <property name="kdenlive:original.meta.media.height">1080</property>
  <property name="kdenlive:original.meta.media.color_range">mpeg</property>
  <property name="kdenlive:original.kdenlive:id">17</property>
  <property name="kdenlive:original.kdenlive:file_size">4025926</property>
  <property name="kdenlive:original.kdenlive:file_hash">71814888dd13bc8d27fb450f64486fa1</property>
  <property name="kdenlive:original.backup">1</property>
  <property name="global_feed">1</property>
  <property name="xml">was here</property>
  <property name="meta.media.nb_streams">2</property>
  <property name="meta.media.0.stream.type">video</property>
  <property name="meta.media.0.stream.frame_rate">29.97</property>
  <property name="meta.media.0.stream.sample_aspect_ratio">0</property>
  <property name="meta.media.0.codec.width">640</property>
  <property name="meta.media.0.codec.height">360</property>
  <property name="meta.media.0.codec.rotate">0</property>
  <property name="meta.media.0.codec.frame_rate">29.97</property>
  <property name="meta.media.0.codec.pix_fmt">yuv420p</property>
  <property name="meta.media.0.codec.sample_aspect_ratio">1</property>
  <property name="meta.media.0.codec.colorspace">601</property>
  <property name="meta.media.0.codec.name">h264</property>
  <property name="meta.media.0.codec.long_name">H.264 / AVC / MPEG-4 AVC / MPEG-4 part 10</property>
  <property name="meta.media.0.codec.bit_rate">6414947</property>
  <property name="meta.attr.0.stream.handler_name.markup">Core Media Video</property>
  <property name="meta.attr.0.stream.encoder.markup">Lavc58.106.100 h264_nvenc</property>
  <property name="meta.media.1.stream.type">audio</property>
  <property name="meta.media.1.codec.sample_fmt">fltp</property>
  <property name="meta.media.1.codec.sample_rate">44100</property>
  <property name="meta.media.1.codec.channels">2</property>
  <property name="meta.media.1.codec.name">aac</property>
  <property name="meta.media.1.codec.long_name">AAC (Advanced Audio Coding)</property>
  <property name="meta.media.1.codec.bit_rate">191220</property>
  <property name="meta.attr.1.stream.handler_name.markup">Core Media Audio</property>
  <property name="meta.attr.major_brand.markup">qt  </property>
  <property name="meta.attr.minor_version.markup">512</property>
  <property name="meta.attr.compatible_brands.markup">qt  </property>
  <property name="meta.attr.encoder.markup">Lavf58.58.100</property>
  <property name="meta.media.sample_aspect_num">1</property>
  <property name="meta.media.sample_aspect_den">1</property>
  <property name="meta.media.frame_rate_num">30000</property>
  <property name="meta.media.frame_rate_den">1001</property>
  <property name="meta.media.colorspace">601</property>
  <property name="meta.media.color_trc">2</property>
  <property name="meta.media.width">640</property>
  <property name="meta.media.height">360</property>
  <property name="meta.media.color_range">mpeg</property>
  <property name="meta.media.top_field_first">0</property>
  <property name="meta.media.progressive">1</property>
  <property name="set.test_audio">1</property>
  <property name="set.test_image">0</property>
 </producer>
 <producer id="producer71" in="00:00:00.000" out="00:00:12.400">
  <property name="length">311</property>
  <property name="eof">pause</property>
  <property name="resource">/home/chiller/.cache/kdenlive/proxy/ad328b0f934c530983fb7c3793fb304b.mov</property>
  <property name="audio_index">1</property>
  <property name="video_index">0</property>
  <property name="mute_on_pause">0</property>
  <property name="mlt_service">avformat-novalidate</property>
  <property name="seekable">1</property>
  <property name="aspect_ratio">1</property>
  <property name="kdenlive:clipname">84A324B0-CFC5-40E2-9DCC-242D19370812.mov</property>
  <property name="kdenlive:folderid">-1</property>
  <property name="kdenlive:id">19</property>
  <property name="kdenlive:file_size">13514156</property>
  <property name="kdenlive:file_hash">ad328b0f934c530983fb7c3793fb304b</property>
  <property name="kdenlive:proxy">/home/chiller/.cache/kdenlive/proxy/ad328b0f934c530983fb7c3793fb304b.mov</property>
  <property name="kdenlive:originalurl">mov/night/84A324B0-CFC5-40E2-9DCC-242D19370812.mov</property>
  <property name="kdenlive:original.mlt_type">producer</property>
  <property name="kdenlive:original.in">0</property>
  <property name="kdenlive:original.out">310</property>
  <property name="kdenlive:original.length">311</property>
  <property name="kdenlive:original.eof">pause</property>
  <property name="kdenlive:original.resource">mov/night/84A324B0-CFC5-40E2-9DCC-242D19370812.mov</property>
  <property name="kdenlive:original.meta.media.nb_streams">5</property>
  <property name="kdenlive:original.meta.media.0.stream.type">video</property>
  <property name="kdenlive:original.meta.media.0.stream.frame_rate">26.2756</property>
  <property name="kdenlive:original.meta.media.0.stream.sample_aspect_ratio">0</property>
  <property name="kdenlive:original.meta.media.0.codec.width">1920</property>
  <property name="kdenlive:original.meta.media.0.codec.height">1080</property>
  <property name="kdenlive:original.meta.media.0.codec.rotate">0</property>
  <property name="kdenlive:original.meta.media.0.codec.frame_rate">600</property>
  <property name="kdenlive:original.meta.media.0.codec.pix_fmt">yuv420p</property>
  <property name="kdenlive:original.meta.media.0.codec.sample_aspect_ratio">0</property>
  <property name="kdenlive:original.meta.media.0.codec.colorspace">709</property>
  <property name="kdenlive:original.meta.media.0.codec.color_trc">1</property>
  <property name="kdenlive:original.meta.media.0.codec.name">hevc</property>
  <property name="kdenlive:original.meta.media.0.codec.long_name">HEVC (High Efficiency Video Coding)</property>
  <property name="kdenlive:original.meta.media.0.codec.bit_rate">8556719</property>
  <property name="kdenlive:original.meta.attr.0.stream.creation_time.markup">2020-04-29T19:23:42.000000Z</property>
  <property name="kdenlive:original.meta.attr.0.stream.handler_name.markup">Core Media Video</property>
  <property name="kdenlive:original.meta.attr.0.stream.encoder.markup">HEVC</property>
  <property name="kdenlive:original.meta.media.1.stream.type">audio</property>
  <property name="kdenlive:original.meta.media.1.codec.sample_fmt">fltp</property>
  <property name="kdenlive:original.meta.media.1.codec.sample_rate">44100</property>
  <property name="kdenlive:original.meta.media.1.codec.channels">1</property>
  <property name="kdenlive:original.meta.media.1.codec.name">aac</property>
  <property name="kdenlive:original.meta.media.1.codec.long_name">AAC (Advanced Audio Coding)</property>
  <property name="kdenlive:original.meta.media.1.codec.bit_rate">97751</property>
  <property name="kdenlive:original.meta.attr.1.stream.creation_time.markup">2020-04-29T19:23:42.000000Z</property>
  <property name="kdenlive:original.meta.attr.1.stream.handler_name.markup">Core Media Audio</property>
  <property name="kdenlive:original.meta.attr.major_brand.markup">qt  </property>
  <property name="kdenlive:original.meta.attr.minor_version.markup">0</property>
  <property name="kdenlive:original.meta.attr.compatible_brands.markup">qt  </property>
  <property name="kdenlive:original.meta.attr.creation_time.markup">2020-04-29T19:23:42.000000Z</property>
  <property name="kdenlive:original.meta.attr.com.apple.quicktime.make.markup">Apple</property>
  <property name="kdenlive:original.meta.attr.com.apple.quicktime.model.markup">iPhone XS</property>
  <property name="kdenlive:original.meta.attr.com.apple.quicktime.software.markup">13.3.1</property>
  <property name="kdenlive:original.meta.attr.com.apple.quicktime.creationdate.markup">2020-04-29T21:23:41+0200</property>
  <property name="kdenlive:original.seekable">1</property>
  <property name="kdenlive:original.width">1920</property>
  <property name="kdenlive:original.height">1080</property>
  <property name="kdenlive:original.meta.media.sample_aspect_num">1</property>
  <property name="kdenlive:original.meta.media.sample_aspect_den">1</property>
  <property name="kdenlive:original.aspect_ratio">1</property>
  <property name="kdenlive:original.audio_index">1</property>
  <property name="kdenlive:original.video_index">0</property>
  <property name="kdenlive:original.mute_on_pause">0</property>
  <property name="kdenlive:original.mlt_service">avformat-novalidate</property>
  <property name="kdenlive:original.kdenlive:folderid">-1</property>
  <property name="kdenlive:original.meta.media.frame_rate_num">65400</property>
  <property name="kdenlive:original.meta.media.frame_rate_den">2489</property>
  <property name="kdenlive:original.meta.media.colorspace">709</property>
  <property name="kdenlive:original.meta.media.color_trc">1</property>
  <property name="kdenlive:original.meta.media.width">1920</property>
  <property name="kdenlive:original.meta.media.height">1080</property>
  <property name="kdenlive:original.meta.media.color_range">mpeg</property>
  <property name="kdenlive:original.kdenlive:id">19</property>
  <property name="kdenlive:original.kdenlive:file_size">13514156</property>
  <property name="kdenlive:original.kdenlive:file_hash">ad328b0f934c530983fb7c3793fb304b</property>
  <property name="kdenlive:original.backup">1</property>
  <property name="global_feed">1</property>
  <property name="xml">was here</property>
  <property name="meta.media.nb_streams">2</property>
  <property name="meta.media.0.stream.type">video</property>
  <property name="meta.media.0.stream.frame_rate">24</property>
  <property name="meta.media.0.stream.sample_aspect_ratio">0</property>
  <property name="meta.media.0.codec.width">640</property>
  <property name="meta.media.0.codec.height">360</property>
  <property name="meta.media.0.codec.rotate">0</property>
  <property name="meta.media.0.codec.frame_rate">24</property>
  <property name="meta.media.0.codec.pix_fmt">yuv420p</property>
  <property name="meta.media.0.codec.sample_aspect_ratio">1</property>
  <property name="meta.media.0.codec.colorspace">601</property>
  <property name="meta.media.0.codec.name">h264</property>
  <property name="meta.media.0.codec.long_name">H.264 / AVC / MPEG-4 AVC / MPEG-4 part 10</property>
  <property name="meta.media.0.codec.bit_rate">2997845</property>
  <property name="meta.attr.0.stream.handler_name.markup">Core Media Video</property>
  <property name="meta.attr.0.stream.encoder.markup">Lavc58.106.100 h264_nvenc</property>
  <property name="meta.media.1.stream.type">audio</property>
  <property name="meta.media.1.codec.sample_fmt">fltp</property>
  <property name="meta.media.1.codec.sample_rate">44100</property>
  <property name="meta.media.1.codec.channels">1</property>
  <property name="meta.media.1.codec.name">aac</property>
  <property name="meta.media.1.codec.long_name">AAC (Advanced Audio Coding)</property>
  <property name="meta.media.1.codec.bit_rate">97953</property>
  <property name="meta.attr.1.stream.handler_name.markup">Core Media Audio</property>
  <property name="meta.attr.major_brand.markup">qt  </property>
  <property name="meta.attr.minor_version.markup">512</property>
  <property name="meta.attr.compatible_brands.markup">qt  </property>
  <property name="meta.attr.encoder.markup">Lavf58.58.100</property>
  <property name="meta.media.sample_aspect_num">1</property>
  <property name="meta.media.sample_aspect_den">1</property>
  <property name="meta.media.frame_rate_num">24</property>
  <property name="meta.media.frame_rate_den">1</property>
  <property name="meta.media.colorspace">601</property>
  <property name="meta.media.color_trc">2</property>
  <property name="meta.media.width">640</property>
  <property name="meta.media.height">360</property>
  <property name="meta.media.color_range">mpeg</property>
  <property name="meta.media.top_field_first">0</property>
  <property name="meta.media.progressive">1</property>
  <property name="set.test_audio">1</property>
  <property name="set.test_image">0</property>
 </producer>
 <producer id="producer72" in="00:00:00.000" out="00:00:11.120">
  <property name="length">279</property>
  <property name="eof">pause</property>
  <property name="resource">/home/chiller/.cache/kdenlive/proxy/7621d87454f0d4a51c1b3e24e69aa67f.mov</property>
  <property name="audio_index">1</property>
  <property name="video_index">0</property>
  <property name="mute_on_pause">0</property>
  <property name="mlt_service">avformat-novalidate</property>
  <property name="seekable">1</property>
  <property name="aspect_ratio">1</property>
  <property name="kdenlive:clipname">C8E647CC-C6F6-48B1-88CC-1FEE02A7B3A6.mov</property>
  <property name="kdenlive:folderid">-1</property>
  <property name="kdenlive:id">21</property>
  <property name="kdenlive:file_size">11492151</property>
  <property name="kdenlive:file_hash">7621d87454f0d4a51c1b3e24e69aa67f</property>
  <property name="kdenlive:proxy">/home/chiller/.cache/kdenlive/proxy/7621d87454f0d4a51c1b3e24e69aa67f.mov</property>
  <property name="kdenlive:originalurl">mov/outdoor/C8E647CC-C6F6-48B1-88CC-1FEE02A7B3A6.mov</property>
  <property name="kdenlive:original.mlt_type">producer</property>
  <property name="kdenlive:original.in">0</property>
  <property name="kdenlive:original.out">278</property>
  <property name="kdenlive:original.length">279</property>
  <property name="kdenlive:original.eof">pause</property>
  <property name="kdenlive:original.resource">mov/outdoor/C8E647CC-C6F6-48B1-88CC-1FEE02A7B3A6.mov</property>
  <property name="kdenlive:original.meta.media.nb_streams">5</property>
  <property name="kdenlive:original.meta.media.0.stream.type">video</property>
  <property name="kdenlive:original.meta.media.0.stream.frame_rate">29.9731</property>
  <property name="kdenlive:original.meta.media.0.stream.sample_aspect_ratio">0</property>
  <property name="kdenlive:original.meta.media.0.codec.width">1920</property>
  <property name="kdenlive:original.meta.media.0.codec.height">1080</property>
  <property name="kdenlive:original.meta.media.0.codec.rotate">0</property>
  <property name="kdenlive:original.meta.media.0.codec.frame_rate">600</property>
  <property name="kdenlive:original.meta.media.0.codec.pix_fmt">yuv420p</property>
  <property name="kdenlive:original.meta.media.0.codec.sample_aspect_ratio">0</property>
  <property name="kdenlive:original.meta.media.0.codec.colorspace">709</property>
  <property name="kdenlive:original.meta.media.0.codec.color_trc">1</property>
  <property name="kdenlive:original.meta.media.0.codec.name">hevc</property>
  <property name="kdenlive:original.meta.media.0.codec.long_name">HEVC (High Efficiency Video Coding)</property>
  <property name="kdenlive:original.meta.media.0.codec.bit_rate">8044929</property>
  <property name="kdenlive:original.meta.attr.0.stream.creation_time.markup">2020-07-11T17:38:20.000000Z</property>
  <property name="kdenlive:original.meta.attr.0.stream.handler_name.markup">Core Media Video</property>
  <property name="kdenlive:original.meta.attr.0.stream.encoder.markup">HEVC</property>
  <property name="kdenlive:original.meta.media.1.stream.type">audio</property>
  <property name="kdenlive:original.meta.media.1.codec.sample_fmt">fltp</property>
  <property name="kdenlive:original.meta.media.1.codec.sample_rate">44100</property>
  <property name="kdenlive:original.meta.media.1.codec.channels">2</property>
  <property name="kdenlive:original.meta.media.1.codec.name">aac</property>
  <property name="kdenlive:original.meta.media.1.codec.long_name">AAC (Advanced Audio Coding)</property>
  <property name="kdenlive:original.meta.media.1.codec.bit_rate">177210</property>
  <property name="kdenlive:original.meta.attr.1.stream.creation_time.markup">2020-07-11T17:38:20.000000Z</property>
  <property name="kdenlive:original.meta.attr.1.stream.handler_name.markup">Core Media Audio</property>
  <property name="kdenlive:original.meta.attr.major_brand.markup">qt  </property>
  <property name="kdenlive:original.meta.attr.minor_version.markup">0</property>
  <property name="kdenlive:original.meta.attr.compatible_brands.markup">qt  </property>
  <property name="kdenlive:original.meta.attr.creation_time.markup">2020-07-11T17:38:20.000000Z</property>
  <property name="kdenlive:original.meta.attr.com.apple.quicktime.make.markup">Apple</property>
  <property name="kdenlive:original.meta.attr.com.apple.quicktime.model.markup">iPhone XS</property>
  <property name="kdenlive:original.meta.attr.com.apple.quicktime.software.markup">13.5.1</property>
  <property name="kdenlive:original.meta.attr.com.apple.quicktime.creationdate.markup">2020-07-11T19:38:20+0200</property>
  <property name="kdenlive:original.seekable">1</property>
  <property name="kdenlive:original.width">1920</property>
  <property name="kdenlive:original.height">1080</property>
  <property name="kdenlive:original.meta.media.sample_aspect_num">1</property>
  <property name="kdenlive:original.meta.media.sample_aspect_den">1</property>
  <property name="kdenlive:original.aspect_ratio">1</property>
  <property name="kdenlive:original.audio_index">1</property>
  <property name="kdenlive:original.video_index">0</property>
  <property name="kdenlive:original.mute_on_pause">0</property>
  <property name="kdenlive:original.mlt_service">avformat-novalidate</property>
  <property name="kdenlive:original.kdenlive:folderid">-1</property>
  <property name="kdenlive:original.meta.media.frame_rate_num">100200</property>
  <property name="kdenlive:original.meta.media.frame_rate_den">3343</property>
  <property name="kdenlive:original.meta.media.colorspace">709</property>
  <property name="kdenlive:original.meta.media.color_trc">1</property>
  <property name="kdenlive:original.meta.media.width">1920</property>
  <property name="kdenlive:original.meta.media.height">1080</property>
  <property name="kdenlive:original.meta.media.color_range">mpeg</property>
  <property name="kdenlive:original.kdenlive:id">21</property>
  <property name="kdenlive:original.kdenlive:file_size">11492151</property>
  <property name="kdenlive:original.kdenlive:file_hash">7621d87454f0d4a51c1b3e24e69aa67f</property>
  <property name="kdenlive:original.backup">1</property>
  <property name="global_feed">1</property>
  <property name="xml">was here</property>
  <property name="meta.media.nb_streams">2</property>
  <property name="meta.media.0.stream.type">video</property>
  <property name="meta.media.0.stream.frame_rate">29.97</property>
  <property name="meta.media.0.stream.sample_aspect_ratio">0</property>
  <property name="meta.media.0.codec.width">640</property>
  <property name="meta.media.0.codec.height">360</property>
  <property name="meta.media.0.codec.rotate">0</property>
  <property name="meta.media.0.codec.frame_rate">29.97</property>
  <property name="meta.media.0.codec.pix_fmt">yuv420p</property>
  <property name="meta.media.0.codec.sample_aspect_ratio">1</property>
  <property name="meta.media.0.codec.colorspace">601</property>
  <property name="meta.media.0.codec.name">h264</property>
  <property name="meta.media.0.codec.long_name">H.264 / AVC / MPEG-4 AVC / MPEG-4 part 10</property>
  <property name="meta.media.0.codec.bit_rate">8505187</property>
  <property name="meta.attr.0.stream.handler_name.markup">Core Media Video</property>
  <property name="meta.attr.0.stream.encoder.markup">Lavc58.106.100 h264_nvenc</property>
  <property name="meta.media.1.stream.type">audio</property>
  <property name="meta.media.1.codec.sample_fmt">fltp</property>
  <property name="meta.media.1.codec.sample_rate">44100</property>
  <property name="meta.media.1.codec.channels">2</property>
  <property name="meta.media.1.codec.name">aac</property>
  <property name="meta.media.1.codec.long_name">AAC (Advanced Audio Coding)</property>
  <property name="meta.media.1.codec.bit_rate">177333</property>
  <property name="meta.attr.1.stream.handler_name.markup">Core Media Audio</property>
  <property name="meta.attr.major_brand.markup">qt  </property>
  <property name="meta.attr.minor_version.markup">512</property>
  <property name="meta.attr.compatible_brands.markup">qt  </property>
  <property name="meta.attr.encoder.markup">Lavf58.58.100</property>
  <property name="meta.media.sample_aspect_num">1</property>
  <property name="meta.media.sample_aspect_den">1</property>
  <property name="meta.media.frame_rate_num">30000</property>
  <property name="meta.media.frame_rate_den">1001</property>
  <property name="meta.media.colorspace">601</property>
  <property name="meta.media.color_trc">2</property>
  <property name="meta.media.width">640</property>
  <property name="meta.media.height">360</property>
  <property name="meta.media.color_range">mpeg</property>
  <property name="meta.media.top_field_first">0</property>
  <property name="meta.media.progressive">1</property>
  <property name="set.test_audio">1</property>
  <property name="set.test_image">0</property>
 </producer>
 <producer id="producer73" in="00:00:00.000" out="00:00:12.680">
  <property name="length">318</property>
  <property name="eof">pause</property>
  <property name="resource">/home/chiller/.cache/kdenlive/proxy/2f301a96ec656cbb5c30dd7cb26ab48f.mov</property>
  <property name="audio_index">1</property>
  <property name="video_index">0</property>
  <property name="mute_on_pause">0</property>
  <property name="mlt_service">avformat-novalidate</property>
  <property name="seekable">1</property>
  <property name="aspect_ratio">1</property>
  <property name="kdenlive:clipname">multi_screen_drop.mov</property>
  <property name="kdenlive:folderid">-1</property>
  <property name="kdenlive:id">22</property>
  <property name="kdenlive:file_size">12943677</property>
  <property name="kdenlive:file_hash">2f301a96ec656cbb5c30dd7cb26ab48f</property>
  <property name="kdenlive:proxy">/home/chiller/.cache/kdenlive/proxy/2f301a96ec656cbb5c30dd7cb26ab48f.mov</property>
  <property name="kdenlive:originalurl">mov/multi_screens/multi_screen_drop.mov</property>
  <property name="kdenlive:original.mlt_type">producer</property>
  <property name="kdenlive:original.in">0</property>
  <property name="kdenlive:original.out">317</property>
  <property name="kdenlive:original.length">318</property>
  <property name="kdenlive:original.eof">pause</property>
  <property name="kdenlive:original.resource">mov/multi_screens/multi_screen_drop.mov</property>
  <property name="kdenlive:original.meta.media.nb_streams">5</property>
  <property name="kdenlive:original.meta.media.0.stream.type">video</property>
  <property name="kdenlive:original.meta.media.0.stream.frame_rate">29.9725</property>
  <property name="kdenlive:original.meta.media.0.stream.sample_aspect_ratio">0</property>
  <property name="kdenlive:original.meta.media.0.codec.width">1920</property>
  <property name="kdenlive:original.meta.media.0.codec.height">1080</property>
  <property name="kdenlive:original.meta.media.0.codec.rotate">0</property>
  <property name="kdenlive:original.meta.media.0.codec.frame_rate">600</property>
  <property name="kdenlive:original.meta.media.0.codec.pix_fmt">yuv420p</property>
  <property name="kdenlive:original.meta.media.0.codec.sample_aspect_ratio">0</property>
  <property name="kdenlive:original.meta.media.0.codec.colorspace">709</property>
  <property name="kdenlive:original.meta.media.0.codec.color_trc">1</property>
  <property name="kdenlive:original.meta.media.0.codec.name">hevc</property>
  <property name="kdenlive:original.meta.media.0.codec.long_name">HEVC (High Efficiency Video Coding)</property>
  <property name="kdenlive:original.meta.media.0.codec.bit_rate">7935463</property>
  <property name="kdenlive:original.meta.attr.0.stream.creation_time.markup">2020-06-22T19:39:50.000000Z</property>
  <property name="kdenlive:original.meta.attr.0.stream.handler_name.markup">Core Media Video</property>
  <property name="kdenlive:original.meta.attr.0.stream.encoder.markup">HEVC</property>
  <property name="kdenlive:original.meta.media.1.stream.type">audio</property>
  <property name="kdenlive:original.meta.media.1.codec.sample_fmt">fltp</property>
  <property name="kdenlive:original.meta.media.1.codec.sample_rate">44100</property>
  <property name="kdenlive:original.meta.media.1.codec.channels">2</property>
  <property name="kdenlive:original.meta.media.1.codec.name">aac</property>
  <property name="kdenlive:original.meta.media.1.codec.long_name">AAC (Advanced Audio Coding)</property>
  <property name="kdenlive:original.meta.media.1.codec.bit_rate">174285</property>
  <property name="kdenlive:original.meta.attr.1.stream.creation_time.markup">2020-06-22T19:39:50.000000Z</property>
  <property name="kdenlive:original.meta.attr.1.stream.handler_name.markup">Core Media Audio</property>
  <property name="kdenlive:original.meta.attr.major_brand.markup">qt  </property>
  <property name="kdenlive:original.meta.attr.minor_version.markup">0</property>
  <property name="kdenlive:original.meta.attr.compatible_brands.markup">qt  </property>
  <property name="kdenlive:original.meta.attr.creation_time.markup">2020-06-22T19:39:50.000000Z</property>
  <property name="kdenlive:original.meta.attr.com.apple.quicktime.make.markup">Apple</property>
  <property name="kdenlive:original.meta.attr.com.apple.quicktime.model.markup">iPhone XS</property>
  <property name="kdenlive:original.meta.attr.com.apple.quicktime.software.markup">13.5.1</property>
  <property name="kdenlive:original.meta.attr.com.apple.quicktime.creationdate.markup">2020-06-22T21:39:50+0200</property>
  <property name="kdenlive:original.seekable">1</property>
  <property name="kdenlive:original.width">1920</property>
  <property name="kdenlive:original.height">1080</property>
  <property name="kdenlive:original.meta.media.sample_aspect_num">1</property>
  <property name="kdenlive:original.meta.media.sample_aspect_den">1</property>
  <property name="kdenlive:original.aspect_ratio">1</property>
  <property name="kdenlive:original.audio_index">1</property>
  <property name="kdenlive:original.video_index">0</property>
  <property name="kdenlive:original.mute_on_pause">0</property>
  <property name="kdenlive:original.mlt_service">avformat-novalidate</property>
  <property name="kdenlive:original.kdenlive:folderid">-1</property>
  <property name="kdenlive:original.meta.media.frame_rate_num">228600</property>
  <property name="kdenlive:original.meta.media.frame_rate_den">7627</property>
  <property name="kdenlive:original.meta.media.colorspace">709</property>
  <property name="kdenlive:original.meta.media.color_trc">1</property>
  <property name="kdenlive:original.meta.media.width">1920</property>
  <property name="kdenlive:original.meta.media.height">1080</property>
  <property name="kdenlive:original.meta.media.color_range">mpeg</property>
  <property name="kdenlive:original.kdenlive:id">22</property>
  <property name="kdenlive:original.kdenlive:file_size">12943677</property>
  <property name="kdenlive:original.kdenlive:file_hash">2f301a96ec656cbb5c30dd7cb26ab48f</property>
  <property name="kdenlive:original.backup">1</property>
  <property name="global_feed">1</property>
  <property name="xml">was here</property>
  <property name="meta.media.nb_streams">2</property>
  <property name="meta.media.0.stream.type">video</property>
  <property name="meta.media.0.stream.frame_rate">29.97</property>
  <property name="meta.media.0.stream.sample_aspect_ratio">0</property>
  <property name="meta.media.0.codec.width">640</property>
  <property name="meta.media.0.codec.height">360</property>
  <property name="meta.media.0.codec.rotate">0</property>
  <property name="meta.media.0.codec.frame_rate">29.97</property>
  <property name="meta.media.0.codec.pix_fmt">yuv420p</property>
  <property name="meta.media.0.codec.sample_aspect_ratio">1</property>
  <property name="meta.media.0.codec.colorspace">601</property>
  <property name="meta.media.0.codec.name">h264</property>
  <property name="meta.media.0.codec.long_name">H.264 / AVC / MPEG-4 AVC / MPEG-4 part 10</property>
  <property name="meta.media.0.codec.bit_rate">7288471</property>
  <property name="meta.attr.0.stream.handler_name.markup">Core Media Video</property>
  <property name="meta.attr.0.stream.encoder.markup">Lavc58.106.100 h264_nvenc</property>
  <property name="meta.media.1.stream.type">audio</property>
  <property name="meta.media.1.codec.sample_fmt">fltp</property>
  <property name="meta.media.1.codec.sample_rate">44100</property>
  <property name="meta.media.1.codec.channels">2</property>
  <property name="meta.media.1.codec.name">aac</property>
  <property name="meta.media.1.codec.long_name">AAC (Advanced Audio Coding)</property>
  <property name="meta.media.1.codec.bit_rate">174718</property>
  <property name="meta.attr.1.stream.handler_name.markup">Core Media Audio</property>
  <property name="meta.attr.major_brand.markup">qt  </property>
  <property name="meta.attr.minor_version.markup">512</property>
  <property name="meta.attr.compatible_brands.markup">qt  </property>
  <property name="meta.attr.encoder.markup">Lavf58.58.100</property>
  <property name="meta.media.sample_aspect_num">1</property>
  <property name="meta.media.sample_aspect_den">1</property>
  <property name="meta.media.frame_rate_num">30000</property>
  <property name="meta.media.frame_rate_den">1001</property>
  <property name="meta.media.colorspace">601</property>
  <property name="meta.media.color_trc">2</property>
  <property name="meta.media.width">640</property>
  <property name="meta.media.height">360</property>
  <property name="meta.media.color_range">mpeg</property>
  <property name="meta.media.top_field_first">0</property>
  <property name="meta.media.progressive">1</property>
  <property name="set.test_audio">1</property>
  <property name="set.test_image">0</property>
 </producer>
 <producer id="producer74" in="00:00:00.000" out="00:00:09.040">
  <property name="length">227</property>
  <property name="eof">pause</property>
  <property name="resource">/home/chiller/.cache/kdenlive/proxy/e6d5882d2219cc06d1544a791e64c204.mov</property>
  <property name="audio_index">1</property>
  <property name="video_index">0</property>
  <property name="mute_on_pause">0</property>
  <property name="mlt_service">avformat-novalidate</property>
  <property name="seekable">1</property>
  <property name="aspect_ratio">1</property>
  <property name="kdenlive:clipname">oldeburg_door.mov</property>
  <property name="kdenlive:folderid">-1</property>
  <property name="kdenlive:id">23</property>
  <property name="kdenlive:file_size">9144489</property>
  <property name="kdenlive:file_hash">e6d5882d2219cc06d1544a791e64c204</property>
  <property name="kdenlive:proxy">/home/chiller/.cache/kdenlive/proxy/e6d5882d2219cc06d1544a791e64c204.mov</property>
  <property name="kdenlive:originalurl">mov/travel/oldeburg_door.mov</property>
  <property name="kdenlive:original.mlt_type">producer</property>
  <property name="kdenlive:original.in">0</property>
  <property name="kdenlive:original.out">226</property>
  <property name="kdenlive:original.length">227</property>
  <property name="kdenlive:original.eof">pause</property>
  <property name="kdenlive:original.resource">mov/travel/oldeburg_door.mov</property>
  <property name="kdenlive:original.meta.media.nb_streams">5</property>
  <property name="kdenlive:original.meta.media.0.stream.type">video</property>
  <property name="kdenlive:original.meta.media.0.stream.frame_rate">29.9725</property>
  <property name="kdenlive:original.meta.media.0.stream.sample_aspect_ratio">0</property>
  <property name="kdenlive:original.meta.media.0.codec.width">1920</property>
  <property name="kdenlive:original.meta.media.0.codec.height">1080</property>
  <property name="kdenlive:original.meta.media.0.codec.rotate">0</property>
  <property name="kdenlive:original.meta.media.0.codec.frame_rate">600</property>
  <property name="kdenlive:original.meta.media.0.codec.pix_fmt">yuv420p</property>
  <property name="kdenlive:original.meta.media.0.codec.sample_aspect_ratio">0</property>
  <property name="kdenlive:original.meta.media.0.codec.colorspace">709</property>
  <property name="kdenlive:original.meta.media.0.codec.color_trc">1</property>
  <property name="kdenlive:original.meta.media.0.codec.name">hevc</property>
  <property name="kdenlive:original.meta.media.0.codec.long_name">HEVC (High Efficiency Video Coding)</property>
  <property name="kdenlive:original.meta.media.0.codec.bit_rate">7855549</property>
  <property name="kdenlive:original.meta.attr.0.stream.creation_time.markup">2020-02-18T14:30:00.000000Z</property>
  <property name="kdenlive:original.meta.attr.0.stream.handler_name.markup">Core Media Video</property>
  <property name="kdenlive:original.meta.attr.0.stream.encoder.markup">HEVC</property>
  <property name="kdenlive:original.meta.media.1.stream.type">audio</property>
  <property name="kdenlive:original.meta.media.1.codec.sample_fmt">fltp</property>
  <property name="kdenlive:original.meta.media.1.codec.sample_rate">44100</property>
  <property name="kdenlive:original.meta.media.1.codec.channels">2</property>
  <property name="kdenlive:original.meta.media.1.codec.name">aac</property>
  <property name="kdenlive:original.meta.media.1.codec.long_name">AAC (Advanced Audio Coding)</property>
  <property name="kdenlive:original.meta.media.1.codec.bit_rate">176059</property>
  <property name="kdenlive:original.meta.attr.1.stream.creation_time.markup">2020-02-18T14:30:00.000000Z</property>
  <property name="kdenlive:original.meta.attr.1.stream.handler_name.markup">Core Media Audio</property>
  <property name="kdenlive:original.meta.attr.major_brand.markup">qt  </property>
  <property name="kdenlive:original.meta.attr.minor_version.markup">0</property>
  <property name="kdenlive:original.meta.attr.compatible_brands.markup">qt  </property>
  <property name="kdenlive:original.meta.attr.creation_time.markup">2020-02-18T14:30:00.000000Z</property>
  <property name="kdenlive:original.meta.attr.com.apple.quicktime.make.markup">Apple</property>
  <property name="kdenlive:original.meta.attr.com.apple.quicktime.model.markup">iPhone XS</property>
  <property name="kdenlive:original.meta.attr.com.apple.quicktime.software.markup">13.3.1</property>
  <property name="kdenlive:original.meta.attr.com.apple.quicktime.creationdate.markup">2020-02-18T15:29:59+0100</property>
  <property name="kdenlive:original.seekable">1</property>
  <property name="kdenlive:original.width">1920</property>
  <property name="kdenlive:original.height">1080</property>
  <property name="kdenlive:original.meta.media.sample_aspect_num">1</property>
  <property name="kdenlive:original.meta.media.sample_aspect_den">1</property>
  <property name="kdenlive:original.aspect_ratio">1</property>
  <property name="kdenlive:original.audio_index">1</property>
  <property name="kdenlive:original.video_index">0</property>
  <property name="kdenlive:original.mute_on_pause">0</property>
  <property name="kdenlive:original.mlt_service">avformat-novalidate</property>
  <property name="kdenlive:original.kdenlive:folderid">-1</property>
  <property name="kdenlive:original.meta.media.frame_rate_num">10880</property>
  <property name="kdenlive:original.meta.media.frame_rate_den">363</property>
  <property name="kdenlive:original.meta.media.colorspace">709</property>
  <property name="kdenlive:original.meta.media.color_trc">1</property>
  <property name="kdenlive:original.meta.media.width">1920</property>
  <property name="kdenlive:original.meta.media.height">1080</property>
  <property name="kdenlive:original.meta.media.color_range">mpeg</property>
  <property name="kdenlive:original.kdenlive:id">23</property>
  <property name="kdenlive:original.kdenlive:file_size">9144489</property>
  <property name="kdenlive:original.kdenlive:file_hash">e6d5882d2219cc06d1544a791e64c204</property>
  <property name="kdenlive:original.backup">1</property>
  <property name="global_feed">1</property>
  <property name="xml">was here</property>
  <property name="meta.media.nb_streams">2</property>
  <property name="meta.media.0.stream.type">video</property>
  <property name="meta.media.0.stream.frame_rate">29.97</property>
  <property name="meta.media.0.stream.sample_aspect_ratio">0</property>
  <property name="meta.media.0.codec.width">640</property>
  <property name="meta.media.0.codec.height">360</property>
  <property name="meta.media.0.codec.rotate">0</property>
  <property name="meta.media.0.codec.frame_rate">29.97</property>
  <property name="meta.media.0.codec.pix_fmt">yuv420p</property>
  <property name="meta.media.0.codec.sample_aspect_ratio">1</property>
  <property name="meta.media.0.codec.colorspace">601</property>
  <property name="meta.media.0.codec.name">h264</property>
  <property name="meta.media.0.codec.long_name">H.264 / AVC / MPEG-4 AVC / MPEG-4 part 10</property>
  <property name="meta.media.0.codec.bit_rate">5279724</property>
  <property name="meta.attr.0.stream.handler_name.markup">Core Media Video</property>
  <property name="meta.attr.0.stream.encoder.markup">Lavc58.106.100 h264_nvenc</property>
  <property name="meta.media.1.stream.type">audio</property>
  <property name="meta.media.1.codec.sample_fmt">fltp</property>
  <property name="meta.media.1.codec.sample_rate">44100</property>
  <property name="meta.media.1.codec.channels">2</property>
  <property name="meta.media.1.codec.name">aac</property>
  <property name="meta.media.1.codec.long_name">AAC (Advanced Audio Coding)</property>
  <property name="meta.media.1.codec.bit_rate">176460</property>
  <property name="meta.attr.1.stream.handler_name.markup">Core Media Audio</property>
  <property name="meta.attr.major_brand.markup">qt  </property>
  <property name="meta.attr.minor_version.markup">512</property>
  <property name="meta.attr.compatible_brands.markup">qt  </property>
  <property name="meta.attr.encoder.markup">Lavf58.58.100</property>
  <property name="meta.media.sample_aspect_num">1</property>
  <property name="meta.media.sample_aspect_den">1</property>
  <property name="meta.media.frame_rate_num">30000</property>
  <property name="meta.media.frame_rate_den">1001</property>
  <property name="meta.media.colorspace">601</property>
  <property name="meta.media.color_trc">2</property>
  <property name="meta.media.width">640</property>
  <property name="meta.media.height">360</property>
  <property name="meta.media.color_range">mpeg</property>
  <property name="meta.media.top_field_first">0</property>
  <property name="meta.media.progressive">1</property>
  <property name="set.test_audio">1</property>
  <property name="set.test_image">0</property>
 </producer>
 <producer id="producer75" in="00:00:00.000" out="00:00:13.560">
  <property name="length">340</property>
  <property name="eof">pause</property>
  <property name="resource">/home/chiller/.cache/kdenlive/proxy/ac215e462ddf9214c5ef1add5316605a.mov</property>
  <property name="audio_index">1</property>
  <property name="video_index">0</property>
  <property name="mute_on_pause">0</property>
  <property name="mlt_service">avformat-novalidate</property>
  <property name="seekable">1</property>
  <property name="aspect_ratio">1</property>
  <property name="kdenlive:clipname">plane.mov</property>
  <property name="kdenlive:folderid">-1</property>
  <property name="kdenlive:id">24</property>
  <property name="kdenlive:file_size">16296561</property>
  <property name="kdenlive:file_hash">ac215e462ddf9214c5ef1add5316605a</property>
  <property name="kdenlive:proxy">/home/chiller/.cache/kdenlive/proxy/ac215e462ddf9214c5ef1add5316605a.mov</property>
  <property name="kdenlive:originalurl">mov/travel/plane.mov</property>
  <property name="kdenlive:original.mlt_type">producer</property>
  <property name="kdenlive:original.in">0</property>
  <property name="kdenlive:original.out">339</property>
  <property name="kdenlive:original.length">340</property>
  <property name="kdenlive:original.eof">pause</property>
  <property name="kdenlive:original.resource">mov/travel/plane.mov</property>
  <property name="kdenlive:original.meta.media.nb_streams">4</property>
  <property name="kdenlive:original.meta.media.0.stream.type">video</property>
  <property name="kdenlive:original.meta.media.0.stream.frame_rate">29.9743</property>
  <property name="kdenlive:original.meta.media.0.stream.sample_aspect_ratio">0</property>
  <property name="kdenlive:original.meta.media.0.codec.width">1920</property>
  <property name="kdenlive:original.meta.media.0.codec.height">1080</property>
  <property name="kdenlive:original.meta.media.0.codec.rotate">0</property>
  <property name="kdenlive:original.meta.media.0.codec.frame_rate">600</property>
  <property name="kdenlive:original.meta.media.0.codec.pix_fmt">yuv420p</property>
  <property name="kdenlive:original.meta.media.0.codec.sample_aspect_ratio">0</property>
  <property name="kdenlive:original.meta.media.0.codec.colorspace">709</property>
  <property name="kdenlive:original.meta.media.0.codec.color_trc">1</property>
  <property name="kdenlive:original.meta.media.0.codec.name">hevc</property>
  <property name="kdenlive:original.meta.media.0.codec.long_name">HEVC (High Efficiency Video Coding)</property>
  <property name="kdenlive:original.meta.media.0.codec.bit_rate">9369876</property>
  <property name="kdenlive:original.meta.attr.0.stream.creation_time.markup">2019-08-20T13:47:16.000000Z</property>
  <property name="kdenlive:original.meta.attr.0.stream.handler_name.markup">Core Media Video</property>
  <property name="kdenlive:original.meta.attr.0.stream.encoder.markup">HEVC</property>
  <property name="kdenlive:original.meta.media.1.stream.type">audio</property>
  <property name="kdenlive:original.meta.media.1.codec.sample_fmt">fltp</property>
  <property name="kdenlive:original.meta.media.1.codec.sample_rate">44100</property>
  <property name="kdenlive:original.meta.media.1.codec.channels">2</property>
  <property name="kdenlive:original.meta.media.1.codec.name">aac</property>
  <property name="kdenlive:original.meta.media.1.codec.long_name">AAC (Advanced Audio Coding)</property>
  <property name="kdenlive:original.meta.media.1.codec.bit_rate">190701</property>
  <property name="kdenlive:original.meta.attr.1.stream.creation_time.markup">2019-08-20T13:47:16.000000Z</property>
  <property name="kdenlive:original.meta.attr.1.stream.handler_name.markup">Core Media Audio</property>
  <property name="kdenlive:original.meta.attr.major_brand.markup">qt  </property>
  <property name="kdenlive:original.meta.attr.minor_version.markup">0</property>
  <property name="kdenlive:original.meta.attr.compatible_brands.markup">qt  </property>
  <property name="kdenlive:original.meta.attr.creation_time.markup">2019-08-20T13:47:16.000000Z</property>
  <property name="kdenlive:original.meta.attr.com.apple.quicktime.make.markup">Apple</property>
  <property name="kdenlive:original.meta.attr.com.apple.quicktime.model.markup">iPhone XS</property>
  <property name="kdenlive:original.meta.attr.com.apple.quicktime.software.markup">12.4</property>
  <property name="kdenlive:original.meta.attr.com.apple.quicktime.creationdate.markup">2019-08-20T15:47:16+0200</property>
  <property name="kdenlive:original.seekable">1</property>
  <property name="kdenlive:original.width">1920</property>
  <property name="kdenlive:original.height">1080</property>
  <property name="kdenlive:original.meta.media.sample_aspect_num">1</property>
  <property name="kdenlive:original.meta.media.sample_aspect_den">1</property>
  <property name="kdenlive:original.aspect_ratio">1</property>
  <property name="kdenlive:original.audio_index">1</property>
  <property name="kdenlive:original.video_index">0</property>
  <property name="kdenlive:original.mute_on_pause">0</property>
  <property name="kdenlive:original.mlt_service">avformat-novalidate</property>
  <property name="kdenlive:original.kdenlive:folderid">-1</property>
  <property name="kdenlive:original.meta.media.frame_rate_num">244800</property>
  <property name="kdenlive:original.meta.media.frame_rate_den">8167</property>
  <property name="kdenlive:original.meta.media.colorspace">709</property>
  <property name="kdenlive:original.meta.media.color_trc">1</property>
  <property name="kdenlive:original.meta.media.width">1920</property>
  <property name="kdenlive:original.meta.media.height">1080</property>
  <property name="kdenlive:original.meta.media.color_range">mpeg</property>
  <property name="kdenlive:original.kdenlive:id">24</property>
  <property name="kdenlive:original.kdenlive:file_size">16296561</property>
  <property name="kdenlive:original.kdenlive:file_hash">ac215e462ddf9214c5ef1add5316605a</property>
  <property name="kdenlive:original.backup">1</property>
  <property name="global_feed">1</property>
  <property name="xml">was here</property>
  <property name="meta.media.nb_streams">2</property>
  <property name="meta.media.0.stream.type">video</property>
  <property name="meta.media.0.stream.frame_rate">29.97</property>
  <property name="meta.media.0.stream.sample_aspect_ratio">0</property>
  <property name="meta.media.0.codec.width">640</property>
  <property name="meta.media.0.codec.height">360</property>
  <property name="meta.media.0.codec.rotate">0</property>
  <property name="meta.media.0.codec.frame_rate">29.97</property>
  <property name="meta.media.0.codec.pix_fmt">yuv420p</property>
  <property name="meta.media.0.codec.sample_aspect_ratio">1</property>
  <property name="meta.media.0.codec.colorspace">601</property>
  <property name="meta.media.0.codec.name">h264</property>
  <property name="meta.media.0.codec.long_name">H.264 / AVC / MPEG-4 AVC / MPEG-4 part 10</property>
  <property name="meta.media.0.codec.bit_rate">5379070</property>
  <property name="meta.attr.0.stream.handler_name.markup">Core Media Video</property>
  <property name="meta.attr.0.stream.encoder.markup">Lavc58.106.100 h264_nvenc</property>
  <property name="meta.media.1.stream.type">audio</property>
  <property name="meta.media.1.codec.sample_fmt">fltp</property>
  <property name="meta.media.1.codec.sample_rate">44100</property>
  <property name="meta.media.1.codec.channels">2</property>
  <property name="meta.media.1.codec.name">aac</property>
  <property name="meta.media.1.codec.long_name">AAC (Advanced Audio Coding)</property>
  <property name="meta.media.1.codec.bit_rate">191285</property>
  <property name="meta.attr.1.stream.handler_name.markup">Core Media Audio</property>
  <property name="meta.attr.major_brand.markup">qt  </property>
  <property name="meta.attr.minor_version.markup">512</property>
  <property name="meta.attr.compatible_brands.markup">qt  </property>
  <property name="meta.attr.encoder.markup">Lavf58.58.100</property>
  <property name="meta.media.sample_aspect_num">1</property>
  <property name="meta.media.sample_aspect_den">1</property>
  <property name="meta.media.frame_rate_num">30000</property>
  <property name="meta.media.frame_rate_den">1001</property>
  <property name="meta.media.colorspace">601</property>
  <property name="meta.media.color_trc">2</property>
  <property name="meta.media.width">640</property>
  <property name="meta.media.height">360</property>
  <property name="meta.media.color_range">mpeg</property>
  <property name="meta.media.top_field_first">0</property>
  <property name="meta.media.progressive">1</property>
  <property name="set.test_audio">1</property>
  <property name="set.test_image">0</property>
 </producer>
 <producer id="producer76" in="00:00:00.000" out="00:00:10.880">
  <property name="length">273</property>
  <property name="eof">pause</property>
  <property name="resource">/home/chiller/.cache/kdenlive/proxy/cb46d3cb7af76bf9d636f4eebc1c6c1e.mov</property>
  <property name="audio_index">1</property>
  <property name="video_index">0</property>
  <property name="mute_on_pause">0</property>
  <property name="mlt_service">avformat-novalidate</property>
  <property name="seekable">1</property>
  <property name="aspect_ratio">1</property>
  <property name="kdenlive:clipname">plane3.mov</property>
  <property name="kdenlive:folderid">-1</property>
  <property name="kdenlive:id">25</property>
  <property name="kdenlive:file_size">13074953</property>
  <property name="kdenlive:file_hash">cb46d3cb7af76bf9d636f4eebc1c6c1e</property>
  <property name="kdenlive:proxy">/home/chiller/.cache/kdenlive/proxy/cb46d3cb7af76bf9d636f4eebc1c6c1e.mov</property>
  <property name="kdenlive:originalurl">mov/travel/plane3.mov</property>
  <property name="kdenlive:original.mlt_type">producer</property>
  <property name="kdenlive:original.in">0</property>
  <property name="kdenlive:original.out">272</property>
  <property name="kdenlive:original.length">273</property>
  <property name="kdenlive:original.eof">pause</property>
  <property name="kdenlive:original.resource">mov/travel/plane3.mov</property>
  <property name="kdenlive:original.meta.media.nb_streams">4</property>
  <property name="kdenlive:original.meta.media.0.stream.type">video</property>
  <property name="kdenlive:original.meta.media.0.stream.frame_rate">29.9725</property>
  <property name="kdenlive:original.meta.media.0.stream.sample_aspect_ratio">0</property>
  <property name="kdenlive:original.meta.media.0.codec.width">1920</property>
  <property name="kdenlive:original.meta.media.0.codec.height">1080</property>
  <property name="kdenlive:original.meta.media.0.codec.rotate">0</property>
  <property name="kdenlive:original.meta.media.0.codec.frame_rate">600</property>
  <property name="kdenlive:original.meta.media.0.codec.pix_fmt">yuv420p</property>
  <property name="kdenlive:original.meta.media.0.codec.sample_aspect_ratio">0</property>
  <property name="kdenlive:original.meta.media.0.codec.colorspace">709</property>
  <property name="kdenlive:original.meta.media.0.codec.color_trc">1</property>
  <property name="kdenlive:original.meta.media.0.codec.name">hevc</property>
  <property name="kdenlive:original.meta.media.0.codec.long_name">HEVC (High Efficiency Video Coding)</property>
  <property name="kdenlive:original.meta.media.0.codec.bit_rate">9387535</property>
  <property name="kdenlive:original.meta.attr.0.stream.creation_time.markup">2019-08-20T13:46:50.000000Z</property>
  <property name="kdenlive:original.meta.attr.0.stream.handler_name.markup">Core Media Video</property>
  <property name="kdenlive:original.meta.attr.0.stream.encoder.markup">HEVC</property>
  <property name="kdenlive:original.meta.media.1.stream.type">audio</property>
  <property name="kdenlive:original.meta.media.1.codec.sample_fmt">fltp</property>
  <property name="kdenlive:original.meta.media.1.codec.sample_rate">44100</property>
  <property name="kdenlive:original.meta.media.1.codec.channels">2</property>
  <property name="kdenlive:original.meta.media.1.codec.name">aac</property>
  <property name="kdenlive:original.meta.media.1.codec.long_name">AAC (Advanced Audio Coding)</property>
  <property name="kdenlive:original.meta.media.1.codec.bit_rate">189316</property>
  <property name="kdenlive:original.meta.attr.1.stream.creation_time.markup">2019-08-20T13:46:50.000000Z</property>
  <property name="kdenlive:original.meta.attr.1.stream.handler_name.markup">Core Media Audio</property>
  <property name="kdenlive:original.meta.attr.major_brand.markup">qt  </property>
  <property name="kdenlive:original.meta.attr.minor_version.markup">0</property>
  <property name="kdenlive:original.meta.attr.compatible_brands.markup">qt  </property>
  <property name="kdenlive:original.meta.attr.creation_time.markup">2019-08-20T13:46:50.000000Z</property>
  <property name="kdenlive:original.meta.attr.com.apple.quicktime.make.markup">Apple</property>
  <property name="kdenlive:original.meta.attr.com.apple.quicktime.model.markup">iPhone XS</property>
  <property name="kdenlive:original.meta.attr.com.apple.quicktime.software.markup">12.4</property>
  <property name="kdenlive:original.meta.attr.com.apple.quicktime.creationdate.markup">2019-08-20T15:46:50+0200</property>
  <property name="kdenlive:original.seekable">1</property>
  <property name="kdenlive:original.width">1920</property>
  <property name="kdenlive:original.height">1080</property>
  <property name="kdenlive:original.meta.media.sample_aspect_num">1</property>
  <property name="kdenlive:original.meta.media.sample_aspect_den">1</property>
  <property name="kdenlive:original.aspect_ratio">1</property>
  <property name="kdenlive:original.audio_index">1</property>
  <property name="kdenlive:original.video_index">0</property>
  <property name="kdenlive:original.mute_on_pause">0</property>
  <property name="kdenlive:original.mlt_service">avformat-novalidate</property>
  <property name="kdenlive:original.kdenlive:folderid">-1</property>
  <property name="kdenlive:original.meta.media.frame_rate_num">32700</property>
  <property name="kdenlive:original.meta.media.frame_rate_den">1091</property>
  <property name="kdenlive:original.meta.media.colorspace">709</property>
  <property name="kdenlive:original.meta.media.color_trc">1</property>
  <property name="kdenlive:original.meta.media.width">1920</property>
  <property name="kdenlive:original.meta.media.height">1080</property>
  <property name="kdenlive:original.meta.media.color_range">mpeg</property>
  <property name="kdenlive:original.kdenlive:id">25</property>
  <property name="kdenlive:original.kdenlive:file_size">13074953</property>
  <property name="kdenlive:original.kdenlive:file_hash">cb46d3cb7af76bf9d636f4eebc1c6c1e</property>
  <property name="kdenlive:original.backup">1</property>
  <property name="global_feed">1</property>
  <property name="xml">was here</property>
  <property name="meta.media.nb_streams">2</property>
  <property name="meta.media.0.stream.type">video</property>
  <property name="meta.media.0.stream.frame_rate">29.97</property>
  <property name="meta.media.0.stream.sample_aspect_ratio">0</property>
  <property name="meta.media.0.codec.width">640</property>
  <property name="meta.media.0.codec.height">360</property>
  <property name="meta.media.0.codec.rotate">0</property>
  <property name="meta.media.0.codec.frame_rate">29.97</property>
  <property name="meta.media.0.codec.pix_fmt">yuv420p</property>
  <property name="meta.media.0.codec.sample_aspect_ratio">1</property>
  <property name="meta.media.0.codec.colorspace">601</property>
  <property name="meta.media.0.codec.name">h264</property>
  <property name="meta.media.0.codec.long_name">H.264 / AVC / MPEG-4 AVC / MPEG-4 part 10</property>
  <property name="meta.media.0.codec.bit_rate">5982783</property>
  <property name="meta.attr.0.stream.handler_name.markup">Core Media Video</property>
  <property name="meta.attr.0.stream.encoder.markup">Lavc58.106.100 h264_nvenc</property>
  <property name="meta.media.1.stream.type">audio</property>
  <property name="meta.media.1.codec.sample_fmt">fltp</property>
  <property name="meta.media.1.codec.sample_rate">44100</property>
  <property name="meta.media.1.codec.channels">2</property>
  <property name="meta.media.1.codec.name">aac</property>
  <property name="meta.media.1.codec.long_name">AAC (Advanced Audio Coding)</property>
  <property name="meta.media.1.codec.bit_rate">189567</property>
  <property name="meta.attr.1.stream.handler_name.markup">Core Media Audio</property>
  <property name="meta.attr.major_brand.markup">qt  </property>
  <property name="meta.attr.minor_version.markup">512</property>
  <property name="meta.attr.compatible_brands.markup">qt  </property>
  <property name="meta.attr.encoder.markup">Lavf58.58.100</property>
  <property name="meta.media.sample_aspect_num">1</property>
  <property name="meta.media.sample_aspect_den">1</property>
  <property name="meta.media.frame_rate_num">30000</property>
  <property name="meta.media.frame_rate_den">1001</property>
  <property name="meta.media.colorspace">601</property>
  <property name="meta.media.color_trc">2</property>
  <property name="meta.media.width">640</property>
  <property name="meta.media.height">360</property>
  <property name="meta.media.color_range">mpeg</property>
  <property name="meta.media.top_field_first">0</property>
  <property name="meta.media.progressive">1</property>
  <property name="set.test_audio">1</property>
  <property name="set.test_image">0</property>
 </producer>
 <producer id="producer77" in="00:00:00.000" out="00:00:19.400">
  <property name="length">486</property>
  <property name="eof">pause</property>
  <property name="resource">/home/chiller/.cache/kdenlive/proxy/10ed6899b4aff20bfe1498d73d916fd1.mov</property>
  <property name="audio_index">1</property>
  <property name="video_index">0</property>
  <property name="mute_on_pause">0</property>
  <property name="mlt_service">avformat-novalidate</property>
  <property name="seekable">1</property>
  <property name="aspect_ratio">1</property>
  <property name="kdenlive:clipname">BF4316B2-5D95-4667-9A74-CD86FE5CEBF5.mov</property>
  <property name="kdenlive:folderid">-1</property>
  <property name="kdenlive:id">26</property>
  <property name="kdenlive:file_size">27499434</property>
  <property name="kdenlive:file_hash">10ed6899b4aff20bfe1498d73d916fd1</property>
  <property name="kdenlive:proxy">/home/chiller/.cache/kdenlive/proxy/10ed6899b4aff20bfe1498d73d916fd1.mov</property>
  <property name="kdenlive:originalurl">mov/party/BF4316B2-5D95-4667-9A74-CD86FE5CEBF5.mov</property>
  <property name="kdenlive:original.mlt_type">producer</property>
  <property name="kdenlive:original.in">0</property>
  <property name="kdenlive:original.out">485</property>
  <property name="kdenlive:original.length">486</property>
  <property name="kdenlive:original.eof">pause</property>
  <property name="kdenlive:original.resource">mov/party/BF4316B2-5D95-4667-9A74-CD86FE5CEBF5.mov</property>
  <property name="kdenlive:original.meta.media.nb_streams">5</property>
  <property name="kdenlive:original.meta.media.0.stream.type">video</property>
  <property name="kdenlive:original.meta.media.0.stream.frame_rate">29.9743</property>
  <property name="kdenlive:original.meta.media.0.stream.sample_aspect_ratio">0</property>
  <property name="kdenlive:original.meta.media.0.codec.width">1920</property>
  <property name="kdenlive:original.meta.media.0.codec.height">1080</property>
  <property name="kdenlive:original.meta.media.0.codec.rotate">0</property>
  <property name="kdenlive:original.meta.media.0.codec.frame_rate">600</property>
  <property name="kdenlive:original.meta.media.0.codec.pix_fmt">yuv420p</property>
  <property name="kdenlive:original.meta.media.0.codec.sample_aspect_ratio">0</property>
  <property name="kdenlive:original.meta.media.0.codec.colorspace">709</property>
  <property name="kdenlive:original.meta.media.0.codec.color_trc">1</property>
  <property name="kdenlive:original.meta.media.0.codec.name">hevc</property>
  <property name="kdenlive:original.meta.media.0.codec.long_name">HEVC (High Efficiency Video Coding)</property>
  <property name="kdenlive:original.meta.media.0.codec.bit_rate">11090609</property>
  <property name="kdenlive:original.meta.attr.0.stream.creation_time.markup">2020-09-13T00:30:12.000000Z</property>
  <property name="kdenlive:original.meta.attr.0.stream.handler_name.markup">Core Media Video</property>
  <property name="kdenlive:original.meta.attr.0.stream.encoder.markup">HEVC</property>
  <property name="kdenlive:original.meta.media.1.stream.type">audio</property>
  <property name="kdenlive:original.meta.media.1.codec.sample_fmt">fltp</property>
  <property name="kdenlive:original.meta.media.1.codec.sample_rate">44100</property>
  <property name="kdenlive:original.meta.media.1.codec.channels">2</property>
  <property name="kdenlive:original.meta.media.1.codec.name">aac</property>
  <property name="kdenlive:original.meta.media.1.codec.long_name">AAC (Advanced Audio Coding)</property>
  <property name="kdenlive:original.meta.media.1.codec.bit_rate">186767</property>
  <property name="kdenlive:original.meta.attr.1.stream.creation_time.markup">2020-09-13T00:30:12.000000Z</property>
  <property name="kdenlive:original.meta.attr.1.stream.handler_name.markup">Core Media Audio</property>
  <property name="kdenlive:original.meta.attr.major_brand.markup">qt  </property>
  <property name="kdenlive:original.meta.attr.minor_version.markup">0</property>
  <property name="kdenlive:original.meta.attr.compatible_brands.markup">qt  </property>
  <property name="kdenlive:original.meta.attr.creation_time.markup">2020-09-13T00:30:12.000000Z</property>
  <property name="kdenlive:original.meta.attr.com.apple.quicktime.make.markup">Apple</property>
  <property name="kdenlive:original.meta.attr.com.apple.quicktime.model.markup">iPhone XS</property>
  <property name="kdenlive:original.meta.attr.com.apple.quicktime.software.markup">13.6.1</property>
  <property name="kdenlive:original.meta.attr.com.apple.quicktime.creationdate.markup">2020-09-13T02:30:11+0200</property>
  <property name="kdenlive:original.seekable">1</property>
  <property name="kdenlive:original.width">1920</property>
  <property name="kdenlive:original.height">1080</property>
  <property name="kdenlive:original.meta.media.sample_aspect_num">1</property>
  <property name="kdenlive:original.meta.media.sample_aspect_den">1</property>
  <property name="kdenlive:original.aspect_ratio">1</property>
  <property name="kdenlive:original.audio_index">1</property>
  <property name="kdenlive:original.video_index">0</property>
  <property name="kdenlive:original.mute_on_pause">0</property>
  <property name="kdenlive:original.mlt_service">avformat-novalidate</property>
  <property name="kdenlive:original.kdenlive:folderid">-1</property>
  <property name="kdenlive:original.meta.media.frame_rate_num">11660</property>
  <property name="kdenlive:original.meta.media.frame_rate_den">389</property>
  <property name="kdenlive:original.meta.media.colorspace">709</property>
  <property name="kdenlive:original.meta.media.color_trc">1</property>
  <property name="kdenlive:original.meta.media.width">1920</property>
  <property name="kdenlive:original.meta.media.height">1080</property>
  <property name="kdenlive:original.meta.media.color_range">mpeg</property>
  <property name="kdenlive:original.kdenlive:id">26</property>
  <property name="kdenlive:original.kdenlive:file_size">27499434</property>
  <property name="kdenlive:original.kdenlive:file_hash">10ed6899b4aff20bfe1498d73d916fd1</property>
  <property name="kdenlive:original.backup">1</property>
  <property name="global_feed">1</property>
  <property name="xml">was here</property>
  <property name="meta.media.nb_streams">2</property>
  <property name="meta.media.0.stream.type">video</property>
  <property name="meta.media.0.stream.frame_rate">29.97</property>
  <property name="meta.media.0.stream.sample_aspect_ratio">0</property>
  <property name="meta.media.0.codec.width">640</property>
  <property name="meta.media.0.codec.height">360</property>
  <property name="meta.media.0.codec.rotate">0</property>
  <property name="meta.media.0.codec.frame_rate">29.97</property>
  <property name="meta.media.0.codec.pix_fmt">yuv420p</property>
  <property name="meta.media.0.codec.sample_aspect_ratio">1</property>
  <property name="meta.media.0.codec.colorspace">601</property>
  <property name="meta.media.0.codec.name">h264</property>
  <property name="meta.media.0.codec.long_name">H.264 / AVC / MPEG-4 AVC / MPEG-4 part 10</property>
  <property name="meta.media.0.codec.bit_rate">5730628</property>
  <property name="meta.attr.0.stream.handler_name.markup">Core Media Video</property>
  <property name="meta.attr.0.stream.encoder.markup">Lavc58.106.100 h264_nvenc</property>
  <property name="meta.media.1.stream.type">audio</property>
  <property name="meta.media.1.codec.sample_fmt">fltp</property>
  <property name="meta.media.1.codec.sample_rate">44100</property>
  <property name="meta.media.1.codec.channels">2</property>
  <property name="meta.media.1.codec.name">aac</property>
  <property name="meta.media.1.codec.long_name">AAC (Advanced Audio Coding)</property>
  <property name="meta.media.1.codec.bit_rate">186946</property>
  <property name="meta.attr.1.stream.handler_name.markup">Core Media Audio</property>
  <property name="meta.attr.major_brand.markup">qt  </property>
  <property name="meta.attr.minor_version.markup">512</property>
  <property name="meta.attr.compatible_brands.markup">qt  </property>
  <property name="meta.attr.encoder.markup">Lavf58.58.100</property>
  <property name="meta.media.sample_aspect_num">1</property>
  <property name="meta.media.sample_aspect_den">1</property>
  <property name="meta.media.frame_rate_num">30000</property>
  <property name="meta.media.frame_rate_den">1001</property>
  <property name="meta.media.colorspace">601</property>
  <property name="meta.media.color_trc">2</property>
  <property name="meta.media.width">640</property>
  <property name="meta.media.height">360</property>
  <property name="meta.media.color_range">mpeg</property>
  <property name="meta.media.top_field_first">0</property>
  <property name="meta.media.progressive">1</property>
  <property name="set.test_audio">1</property>
  <property name="set.test_image">0</property>
 </producer>
 <producer id="producer78" in="00:00:00.000" out="00:00:10.520">
  <property name="length">264</property>
  <property name="eof">pause</property>
  <property name="resource">/home/chiller/.cache/kdenlive/proxy/23a155b2a145ed8e3091ff33160e951d.mov</property>
  <property name="audio_index">1</property>
  <property name="video_index">0</property>
  <property name="mute_on_pause">0</property>
  <property name="mlt_service">avformat-novalidate</property>
  <property name="seekable">1</property>
  <property name="aspect_ratio">1</property>
  <property name="kdenlive:clipname">balcony2.mov</property>
  <property name="kdenlive:folderid">-1</property>
  <property name="kdenlive:id">44</property>
  <property name="kdenlive:file_size">10216731</property>
  <property name="kdenlive:file_hash">23a155b2a145ed8e3091ff33160e951d</property>
  <property name="kdenlive:proxy">/home/chiller/.cache/kdenlive/proxy/23a155b2a145ed8e3091ff33160e951d.mov</property>
  <property name="kdenlive:originalurl">mov/balcony/balcony2.mov</property>
  <property name="global_feed">1</property>
  <property name="kdenlive:original.mlt_type">producer</property>
  <property name="kdenlive:original.in">0</property>
  <property name="kdenlive:original.out">263</property>
  <property name="kdenlive:original.length">264</property>
  <property name="kdenlive:original.eof">pause</property>
  <property name="kdenlive:original.resource">mov/balcony/balcony2.mov</property>
  <property name="kdenlive:original.audio_index">1</property>
  <property name="kdenlive:original.video_index">0</property>
  <property name="kdenlive:original.mute_on_pause">0</property>
  <property name="kdenlive:original.mlt_service">avformat-novalidate</property>
  <property name="kdenlive:original.id">producer42</property>
  <property name="kdenlive:original.seekable">1</property>
  <property name="kdenlive:original.aspect_ratio">1</property>
  <property name="kdenlive:original.kdenlive:folderid">-1</property>
  <property name="kdenlive:original.kdenlive:id">44</property>
  <property name="kdenlive:original.kdenlive:file_size">10216731</property>
  <property name="kdenlive:original.kdenlive:file_hash">23a155b2a145ed8e3091ff33160e951d</property>
  <property name="kdenlive:original.global_feed">1</property>
  <property name="kdenlive:original.meta.media.nb_streams">5</property>
  <property name="kdenlive:original.meta.media.0.stream.type">video</property>
  <property name="kdenlive:original.meta.media.0.stream.frame_rate">29.9715</property>
  <property name="kdenlive:original.meta.media.0.stream.sample_aspect_ratio">0</property>
  <property name="kdenlive:original.meta.media.0.codec.width">1920</property>
  <property name="kdenlive:original.meta.media.0.codec.height">1080</property>
  <property name="kdenlive:original.meta.media.0.codec.rotate">0</property>
  <property name="kdenlive:original.meta.media.0.codec.frame_rate">600</property>
  <property name="kdenlive:original.meta.media.0.codec.pix_fmt">yuv420p</property>
  <property name="kdenlive:original.meta.media.0.codec.sample_aspect_ratio">0</property>
  <property name="kdenlive:original.meta.media.0.codec.colorspace">709</property>
  <property name="kdenlive:original.meta.media.0.codec.color_trc">1</property>
  <property name="kdenlive:original.meta.media.0.codec.name">hevc</property>
  <property name="kdenlive:original.meta.media.0.codec.long_name">HEVC (High Efficiency Video Coding)</property>
  <property name="kdenlive:original.meta.media.0.codec.bit_rate">7626493</property>
  <property name="kdenlive:original.meta.attr.0.stream.creation_time.markup">2020-04-12T17:06:40.000000Z</property>
  <property name="kdenlive:original.meta.attr.0.stream.handler_name.markup">Core Media Video</property>
  <property name="kdenlive:original.meta.attr.0.stream.encoder.markup">HEVC</property>
  <property name="kdenlive:original.meta.media.1.stream.type">audio</property>
  <property name="kdenlive:original.meta.media.1.codec.sample_fmt">fltp</property>
  <property name="kdenlive:original.meta.media.1.codec.sample_rate">44100</property>
  <property name="kdenlive:original.meta.media.1.codec.channels">1</property>
  <property name="kdenlive:original.meta.media.1.codec.name">aac</property>
  <property name="kdenlive:original.meta.media.1.codec.long_name">AAC (Advanced Audio Coding)</property>
  <property name="kdenlive:original.meta.media.1.codec.bit_rate">97257</property>
  <property name="kdenlive:original.meta.attr.1.stream.creation_time.markup">2020-04-12T17:06:40.000000Z</property>
  <property name="kdenlive:original.meta.attr.1.stream.handler_name.markup">Core Media Audio</property>
  <property name="kdenlive:original.meta.attr.major_brand.markup">qt  </property>
  <property name="kdenlive:original.meta.attr.minor_version.markup">0</property>
  <property name="kdenlive:original.meta.attr.compatible_brands.markup">qt  </property>
  <property name="kdenlive:original.meta.attr.creation_time.markup">2020-04-12T17:06:40.000000Z</property>
  <property name="kdenlive:original.meta.attr.com.apple.quicktime.make.markup">Apple</property>
  <property name="kdenlive:original.meta.attr.com.apple.quicktime.model.markup">iPhone XS</property>
  <property name="kdenlive:original.meta.attr.com.apple.quicktime.software.markup">13.3.1</property>
  <property name="kdenlive:original.meta.attr.com.apple.quicktime.creationdate.markup">2020-04-12T19:06:39+0200</property>
  <property name="kdenlive:original.meta.media.sample_aspect_num">1</property>
  <property name="kdenlive:original.meta.media.sample_aspect_den">1</property>
  <property name="kdenlive:original.meta.media.frame_rate_num">94800</property>
  <property name="kdenlive:original.meta.media.frame_rate_den">3163</property>
  <property name="kdenlive:original.meta.media.colorspace">709</property>
  <property name="kdenlive:original.meta.media.color_trc">1</property>
  <property name="kdenlive:original.meta.media.width">1920</property>
  <property name="kdenlive:original.meta.media.height">1080</property>
  <property name="kdenlive:original.meta.media.color_range">mpeg</property>
  <property name="kdenlive:original.meta.media.top_field_first">0</property>
  <property name="kdenlive:original.meta.media.progressive">1</property>
  <property name="kdenlive:original.width">1920</property>
  <property name="kdenlive:original.height">1080</property>
  <property name="kdenlive:original.backup">1</property>
  <property name="xml">was here</property>
  <property name="meta.media.nb_streams">2</property>
  <property name="meta.media.0.stream.type">video</property>
  <property name="meta.media.0.stream.frame_rate">29.97</property>
  <property name="meta.media.0.stream.sample_aspect_ratio">0</property>
  <property name="meta.media.0.codec.width">640</property>
  <property name="meta.media.0.codec.height">360</property>
  <property name="meta.media.0.codec.rotate">0</property>
  <property name="meta.media.0.codec.frame_rate">29.97</property>
  <property name="meta.media.0.codec.pix_fmt">yuv420p</property>
  <property name="meta.media.0.codec.sample_aspect_ratio">1</property>
  <property name="meta.media.0.codec.colorspace">601</property>
  <property name="meta.media.0.codec.name">h264</property>
  <property name="meta.media.0.codec.long_name">H.264 / AVC / MPEG-4 AVC / MPEG-4 part 10</property>
  <property name="meta.media.0.codec.bit_rate">6330668</property>
  <property name="meta.attr.0.stream.handler_name.markup">Core Media Video</property>
  <property name="meta.attr.0.stream.encoder.markup">Lavc58.111.100 h264_nvenc</property>
  <property name="meta.media.1.stream.type">audio</property>
  <property name="meta.media.1.codec.sample_fmt">fltp</property>
  <property name="meta.media.1.codec.sample_rate">44100</property>
  <property name="meta.media.1.codec.channels">1</property>
  <property name="meta.media.1.codec.name">aac</property>
  <property name="meta.media.1.codec.long_name">AAC (Advanced Audio Coding)</property>
  <property name="meta.media.1.codec.bit_rate">97450</property>
  <property name="meta.attr.1.stream.handler_name.markup">Core Media Audio</property>
  <property name="meta.attr.major_brand.markup">qt  </property>
  <property name="meta.attr.minor_version.markup">512</property>
  <property name="meta.attr.compatible_brands.markup">qt  </property>
  <property name="meta.attr.encoder.markup">Lavf58.62.100</property>
  <property name="meta.media.sample_aspect_num">1</property>
  <property name="meta.media.sample_aspect_den">1</property>
  <property name="meta.media.frame_rate_num">30000</property>
  <property name="meta.media.frame_rate_den">1001</property>
  <property name="meta.media.colorspace">601</property>
  <property name="meta.media.color_trc">2</property>
  <property name="meta.media.width">640</property>
  <property name="meta.media.height">360</property>
  <property name="meta.media.color_range">mpeg</property>
  <property name="meta.media.top_field_first">0</property>
  <property name="meta.media.progressive">1</property>
  <property name="set.test_audio">1</property>
  <property name="set.test_image">0</property>
 </producer>
 <producer id="producer79" in="00:00:00.000" out="00:00:14.520">
  <property name="length">364</property>
  <property name="eof">pause</property>
  <property name="resource">/home/chiller/.cache/kdenlive/proxy/22d38ef6261efcb609b54194c2b018aa.mov</property>
  <property name="audio_index">1</property>
  <property name="video_index">0</property>
  <property name="mute_on_pause">0</property>
  <property name="mlt_service">avformat-novalidate</property>
  <property name="seekable">1</property>
  <property name="aspect_ratio">1</property>
  <property name="kdenlive:clipname">cat1.mov</property>
  <property name="kdenlive:folderid">-1</property>
  <property name="kdenlive:id">45</property>
  <property name="kdenlive:file_size">14939273</property>
  <property name="kdenlive:file_hash">22d38ef6261efcb609b54194c2b018aa</property>
  <property name="kdenlive:proxy">/home/chiller/.cache/kdenlive/proxy/22d38ef6261efcb609b54194c2b018aa.mov</property>
  <property name="kdenlive:originalurl">mov/outdoor/cat1.mov</property>
  <property name="kdenlive:original.mlt_type">producer</property>
  <property name="kdenlive:original.in">0</property>
  <property name="kdenlive:original.out">363</property>
  <property name="kdenlive:original.length">364</property>
  <property name="kdenlive:original.eof">pause</property>
  <property name="kdenlive:original.resource">mov/outdoor/cat1.mov</property>
  <property name="kdenlive:original.meta.media.nb_streams">5</property>
  <property name="kdenlive:original.meta.media.0.stream.type">video</property>
  <property name="kdenlive:original.meta.media.0.stream.frame_rate">29.9725</property>
  <property name="kdenlive:original.meta.media.0.stream.sample_aspect_ratio">0</property>
  <property name="kdenlive:original.meta.media.0.codec.width">1920</property>
  <property name="kdenlive:original.meta.media.0.codec.height">1080</property>
  <property name="kdenlive:original.meta.media.0.codec.rotate">0</property>
  <property name="kdenlive:original.meta.media.0.codec.frame_rate">600</property>
  <property name="kdenlive:original.meta.media.0.codec.pix_fmt">yuv420p</property>
  <property name="kdenlive:original.meta.media.0.codec.sample_aspect_ratio">0</property>
  <property name="kdenlive:original.meta.media.0.codec.colorspace">709</property>
  <property name="kdenlive:original.meta.media.0.codec.color_trc">1</property>
  <property name="kdenlive:original.meta.media.0.codec.name">hevc</property>
  <property name="kdenlive:original.meta.media.0.codec.long_name">HEVC (High Efficiency Video Coding)</property>
  <property name="kdenlive:original.meta.media.0.codec.bit_rate">8084768</property>
  <property name="kdenlive:original.meta.attr.0.stream.creation_time.markup">2020-04-12T17:13:59.000000Z</property>
  <property name="kdenlive:original.meta.attr.0.stream.handler_name.markup">Core Media Video</property>
  <property name="kdenlive:original.meta.attr.0.stream.encoder.markup">HEVC</property>
  <property name="kdenlive:original.meta.media.1.stream.type">audio</property>
  <property name="kdenlive:original.meta.media.1.codec.sample_fmt">fltp</property>
  <property name="kdenlive:original.meta.media.1.codec.sample_rate">44100</property>
  <property name="kdenlive:original.meta.media.1.codec.channels">1</property>
  <property name="kdenlive:original.meta.media.1.codec.name">aac</property>
  <property name="kdenlive:original.meta.media.1.codec.long_name">AAC (Advanced Audio Coding)</property>
  <property name="kdenlive:original.meta.media.1.codec.bit_rate">96192</property>
  <property name="kdenlive:original.meta.attr.1.stream.creation_time.markup">2020-04-12T17:13:59.000000Z</property>
  <property name="kdenlive:original.meta.attr.1.stream.handler_name.markup">Core Media Audio</property>
  <property name="kdenlive:original.meta.attr.major_brand.markup">qt  </property>
  <property name="kdenlive:original.meta.attr.minor_version.markup">0</property>
  <property name="kdenlive:original.meta.attr.compatible_brands.markup">qt  </property>
  <property name="kdenlive:original.meta.attr.creation_time.markup">2020-04-12T17:13:59.000000Z</property>
  <property name="kdenlive:original.meta.attr.com.apple.quicktime.make.markup">Apple</property>
  <property name="kdenlive:original.meta.attr.com.apple.quicktime.model.markup">iPhone XS</property>
  <property name="kdenlive:original.meta.attr.com.apple.quicktime.software.markup">13.3.1</property>
  <property name="kdenlive:original.meta.attr.com.apple.quicktime.creationdate.markup">2020-04-12T19:13:59+0200</property>
  <property name="kdenlive:original.seekable">1</property>
  <property name="kdenlive:original.width">1920</property>
  <property name="kdenlive:original.height">1080</property>
  <property name="kdenlive:original.meta.media.sample_aspect_num">1</property>
  <property name="kdenlive:original.meta.media.sample_aspect_den">1</property>
  <property name="kdenlive:original.aspect_ratio">1</property>
  <property name="kdenlive:original.audio_index">1</property>
  <property name="kdenlive:original.video_index">0</property>
  <property name="kdenlive:original.mute_on_pause">0</property>
  <property name="kdenlive:original.mlt_service">avformat-novalidate</property>
  <property name="kdenlive:original.kdenlive:folderid">-1</property>
  <property name="kdenlive:original.meta.media.frame_rate_num">32700</property>
  <property name="kdenlive:original.meta.media.frame_rate_den">1091</property>
  <property name="kdenlive:original.meta.media.colorspace">709</property>
  <property name="kdenlive:original.meta.media.color_trc">1</property>
  <property name="kdenlive:original.meta.media.width">1920</property>
  <property name="kdenlive:original.meta.media.height">1080</property>
  <property name="kdenlive:original.meta.media.color_range">mpeg</property>
  <property name="kdenlive:original.kdenlive:id">45</property>
  <property name="kdenlive:original.kdenlive:file_size">14939273</property>
  <property name="kdenlive:original.kdenlive:file_hash">22d38ef6261efcb609b54194c2b018aa</property>
  <property name="kdenlive:original.backup">1</property>
  <property name="global_feed">1</property>
  <property name="xml">was here</property>
  <property name="meta.media.nb_streams">2</property>
  <property name="meta.media.0.stream.type">video</property>
  <property name="meta.media.0.stream.frame_rate">29.97</property>
  <property name="meta.media.0.stream.sample_aspect_ratio">0</property>
  <property name="meta.media.0.codec.width">640</property>
  <property name="meta.media.0.codec.height">360</property>
  <property name="meta.media.0.codec.rotate">0</property>
  <property name="meta.media.0.codec.frame_rate">29.97</property>
  <property name="meta.media.0.codec.pix_fmt">yuv420p</property>
  <property name="meta.media.0.codec.sample_aspect_ratio">1</property>
  <property name="meta.media.0.codec.colorspace">601</property>
  <property name="meta.media.0.codec.name">h264</property>
  <property name="meta.media.0.codec.long_name">H.264 / AVC / MPEG-4 AVC / MPEG-4 part 10</property>
  <property name="meta.media.0.codec.bit_rate">8363992</property>
  <property name="meta.attr.0.stream.handler_name.markup">Core Media Video</property>
  <property name="meta.attr.0.stream.encoder.markup">Lavc58.111.100 h264_nvenc</property>
  <property name="meta.media.1.stream.type">audio</property>
  <property name="meta.media.1.codec.sample_fmt">fltp</property>
  <property name="meta.media.1.codec.sample_rate">44100</property>
  <property name="meta.media.1.codec.channels">1</property>
  <property name="meta.media.1.codec.name">aac</property>
  <property name="meta.media.1.codec.long_name">AAC (Advanced Audio Coding)</property>
  <property name="meta.media.1.codec.bit_rate">96360</property>
  <property name="meta.attr.1.stream.handler_name.markup">Core Media Audio</property>
  <property name="meta.attr.major_brand.markup">qt  </property>
  <property name="meta.attr.minor_version.markup">512</property>
  <property name="meta.attr.compatible_brands.markup">qt  </property>
  <property name="meta.attr.encoder.markup">Lavf58.62.100</property>
  <property name="meta.media.sample_aspect_num">1</property>
  <property name="meta.media.sample_aspect_den">1</property>
  <property name="meta.media.frame_rate_num">30000</property>
  <property name="meta.media.frame_rate_den">1001</property>
  <property name="meta.media.colorspace">601</property>
  <property name="meta.media.color_trc">2</property>
  <property name="meta.media.width">640</property>
  <property name="meta.media.height">360</property>
  <property name="meta.media.color_range">mpeg</property>
  <property name="meta.media.top_field_first">0</property>
  <property name="meta.media.progressive">1</property>
  <property name="set.test_audio">1</property>
  <property name="set.test_image">0</property>
 </producer>
 <producer id="producer80" in="00:00:00.000" out="00:00:46.120">
  <property name="length">1154</property>
  <property name="eof">pause</property>
  <property name="resource">/home/chiller/.cache/kdenlive/proxy/b98a20d5076f80c9ad370713e0cc32a5.mov</property>
  <property name="audio_index">1</property>
  <property name="video_index">0</property>
  <property name="mute_on_pause">0</property>
  <property name="mlt_service">avformat-novalidate</property>
  <property name="seekable">1</property>
  <property name="aspect_ratio">1</property>
  <property name="kdenlive:clipname">grass_kog.mov</property>
  <property name="kdenlive:folderid">-1</property>
  <property name="kdenlive:id">46</property>
  <property name="kdenlive:file_size">44415220</property>
  <property name="kdenlive:file_hash">b98a20d5076f80c9ad370713e0cc32a5</property>
  <property name="kdenlive:proxy">/home/chiller/.cache/kdenlive/proxy/b98a20d5076f80c9ad370713e0cc32a5.mov</property>
  <property name="kdenlive:originalurl">mov/grass/grass_kog.mov</property>
  <property name="kdenlive:original.mlt_type">producer</property>
  <property name="kdenlive:original.in">0</property>
  <property name="kdenlive:original.out">1153</property>
  <property name="kdenlive:original.length">1154</property>
  <property name="kdenlive:original.eof">pause</property>
  <property name="kdenlive:original.resource">mov/grass/grass_kog.mov</property>
  <property name="kdenlive:original.meta.media.nb_streams">5</property>
  <property name="kdenlive:original.meta.media.0.stream.type">video</property>
  <property name="kdenlive:original.meta.media.0.stream.frame_rate">29.9523</property>
  <property name="kdenlive:original.meta.media.0.stream.sample_aspect_ratio">0</property>
  <property name="kdenlive:original.meta.media.0.codec.width">1920</property>
  <property name="kdenlive:original.meta.media.0.codec.height">1080</property>
  <property name="kdenlive:original.meta.media.0.codec.rotate">0</property>
  <property name="kdenlive:original.meta.media.0.codec.frame_rate">600</property>
  <property name="kdenlive:original.meta.media.0.codec.pix_fmt">yuv420p</property>
  <property name="kdenlive:original.meta.media.0.codec.sample_aspect_ratio">0</property>
  <property name="kdenlive:original.meta.media.0.codec.colorspace">709</property>
  <property name="kdenlive:original.meta.media.0.codec.color_trc">1</property>
  <property name="kdenlive:original.meta.media.0.codec.name">hevc</property>
  <property name="kdenlive:original.meta.media.0.codec.long_name">HEVC (High Efficiency Video Coding)</property>
  <property name="kdenlive:original.meta.media.0.codec.bit_rate">7575590</property>
  <property name="kdenlive:original.meta.attr.0.stream.creation_time.markup">2020-04-12T17:42:28.000000Z</property>
  <property name="kdenlive:original.meta.attr.0.stream.handler_name.markup">Core Media Video</property>
  <property name="kdenlive:original.meta.attr.0.stream.encoder.markup">HEVC</property>
  <property name="kdenlive:original.meta.media.1.stream.type">audio</property>
  <property name="kdenlive:original.meta.media.1.codec.sample_fmt">fltp</property>
  <property name="kdenlive:original.meta.media.1.codec.sample_rate">44100</property>
  <property name="kdenlive:original.meta.media.1.codec.channels">1</property>
  <property name="kdenlive:original.meta.media.1.codec.name">aac</property>
  <property name="kdenlive:original.meta.media.1.codec.long_name">AAC (Advanced Audio Coding)</property>
  <property name="kdenlive:original.meta.media.1.codec.bit_rate">92171</property>
  <property name="kdenlive:original.meta.attr.1.stream.creation_time.markup">2020-04-12T17:42:28.000000Z</property>
  <property name="kdenlive:original.meta.attr.1.stream.handler_name.markup">Core Media Audio</property>
  <property name="kdenlive:original.meta.attr.major_brand.markup">qt  </property>
  <property name="kdenlive:original.meta.attr.minor_version.markup">0</property>
  <property name="kdenlive:original.meta.attr.compatible_brands.markup">qt  </property>
  <property name="kdenlive:original.meta.attr.creation_time.markup">2020-04-12T17:42:28.000000Z</property>
  <property name="kdenlive:original.meta.attr.com.apple.quicktime.make.markup">Apple</property>
  <property name="kdenlive:original.meta.attr.com.apple.quicktime.model.markup">iPhone XS</property>
  <property name="kdenlive:original.meta.attr.com.apple.quicktime.software.markup">13.3.1</property>
  <property name="kdenlive:original.meta.attr.com.apple.quicktime.creationdate.markup">2020-04-12T19:42:27+0200</property>
  <property name="kdenlive:original.seekable">1</property>
  <property name="kdenlive:original.width">1920</property>
  <property name="kdenlive:original.height">1080</property>
  <property name="kdenlive:original.meta.media.sample_aspect_num">1</property>
  <property name="kdenlive:original.meta.media.sample_aspect_den">1</property>
  <property name="kdenlive:original.aspect_ratio">1</property>
  <property name="kdenlive:original.audio_index">1</property>
  <property name="kdenlive:original.video_index">0</property>
  <property name="kdenlive:original.mute_on_pause">0</property>
  <property name="kdenlive:original.mlt_service">avformat-novalidate</property>
  <property name="kdenlive:original.kdenlive:folderid">-1</property>
  <property name="kdenlive:original.meta.media.frame_rate_num">69100</property>
  <property name="kdenlive:original.meta.media.frame_rate_den">2307</property>
  <property name="kdenlive:original.meta.media.colorspace">709</property>
  <property name="kdenlive:original.meta.media.color_trc">1</property>
  <property name="kdenlive:original.meta.media.width">1920</property>
  <property name="kdenlive:original.meta.media.height">1080</property>
  <property name="kdenlive:original.meta.media.color_range">mpeg</property>
  <property name="kdenlive:original.kdenlive:id">46</property>
  <property name="kdenlive:original.kdenlive:file_size">44415220</property>
  <property name="kdenlive:original.kdenlive:file_hash">b98a20d5076f80c9ad370713e0cc32a5</property>
  <property name="kdenlive:original.backup">1</property>
  <property name="global_feed">1</property>
  <property name="xml">was here</property>
  <property name="meta.media.nb_streams">2</property>
  <property name="meta.media.0.stream.type">video</property>
  <property name="meta.media.0.stream.frame_rate">29.97</property>
  <property name="meta.media.0.stream.sample_aspect_ratio">0</property>
  <property name="meta.media.0.codec.width">640</property>
  <property name="meta.media.0.codec.height">360</property>
  <property name="meta.media.0.codec.rotate">0</property>
  <property name="meta.media.0.codec.frame_rate">29.97</property>
  <property name="meta.media.0.codec.pix_fmt">yuv420p</property>
  <property name="meta.media.0.codec.sample_aspect_ratio">1</property>
  <property name="meta.media.0.codec.colorspace">601</property>
  <property name="meta.media.0.codec.name">h264</property>
  <property name="meta.media.0.codec.long_name">H.264 / AVC / MPEG-4 AVC / MPEG-4 part 10</property>
  <property name="meta.media.0.codec.bit_rate">7935221</property>
  <property name="meta.attr.0.stream.handler_name.markup">Core Media Video</property>
  <property name="meta.attr.0.stream.encoder.markup">Lavc58.111.100 h264_nvenc</property>
  <property name="meta.media.1.stream.type">audio</property>
  <property name="meta.media.1.codec.sample_fmt">fltp</property>
  <property name="meta.media.1.codec.sample_rate">44100</property>
  <property name="meta.media.1.codec.channels">1</property>
  <property name="meta.media.1.codec.name">aac</property>
  <property name="meta.media.1.codec.long_name">AAC (Advanced Audio Coding)</property>
  <property name="meta.media.1.codec.bit_rate">92224</property>
  <property name="meta.attr.1.stream.handler_name.markup">Core Media Audio</property>
  <property name="meta.attr.major_brand.markup">qt  </property>
  <property name="meta.attr.minor_version.markup">512</property>
  <property name="meta.attr.compatible_brands.markup">qt  </property>
  <property name="meta.attr.encoder.markup">Lavf58.62.100</property>
  <property name="meta.media.sample_aspect_num">1</property>
  <property name="meta.media.sample_aspect_den">1</property>
  <property name="meta.media.frame_rate_num">30000</property>
  <property name="meta.media.frame_rate_den">1001</property>
  <property name="meta.media.colorspace">601</property>
  <property name="meta.media.color_trc">2</property>
  <property name="meta.media.width">640</property>
  <property name="meta.media.height">360</property>
  <property name="meta.media.color_range">mpeg</property>
  <property name="meta.media.top_field_first">0</property>
  <property name="meta.media.progressive">1</property>
  <property name="set.test_audio">1</property>
  <property name="set.test_image">0</property>
 </producer>
 <producer id="producer81" in="00:00:00.000" out="00:00:23.080">
  <property name="length">578</property>
  <property name="eof">pause</property>
  <property name="resource">/home/chiller/.cache/kdenlive/proxy/34af9c46999e425f0548ab18dd907665.mov</property>
  <property name="audio_index">1</property>
  <property name="video_index">0</property>
  <property name="mute_on_pause">0</property>
  <property name="mlt_service">avformat-novalidate</property>
  <property name="seekable">1</property>
  <property name="aspect_ratio">1</property>
  <property name="kdenlive:clipname">thai.mov</property>
  <property name="kdenlive:folderid">-1</property>
  <property name="kdenlive:id">47</property>
  <property name="kdenlive:file_size">21643843</property>
  <property name="kdenlive:file_hash">34af9c46999e425f0548ab18dd907665</property>
  <property name="kdenlive:proxy">/home/chiller/.cache/kdenlive/proxy/34af9c46999e425f0548ab18dd907665.mov</property>
  <property name="kdenlive:originalurl">mov/outdoor/thai.mov</property>
  <property name="kdenlive:original.mlt_type">producer</property>
  <property name="kdenlive:original.in">0</property>
  <property name="kdenlive:original.out">577</property>
  <property name="kdenlive:original.length">578</property>
  <property name="kdenlive:original.eof">pause</property>
  <property name="kdenlive:original.resource">mov/outdoor/thai.mov</property>
  <property name="kdenlive:original.meta.media.nb_streams">4</property>
  <property name="kdenlive:original.meta.media.0.stream.type">video</property>
  <property name="kdenlive:original.meta.media.0.stream.frame_rate">29.974</property>
  <property name="kdenlive:original.meta.media.0.stream.sample_aspect_ratio">0</property>
  <property name="kdenlive:original.meta.media.0.codec.width">1920</property>
  <property name="kdenlive:original.meta.media.0.codec.height">1080</property>
  <property name="kdenlive:original.meta.media.0.codec.rotate">0</property>
  <property name="kdenlive:original.meta.media.0.codec.frame_rate">600</property>
  <property name="kdenlive:original.meta.media.0.codec.pix_fmt">yuv420p</property>
  <property name="kdenlive:original.meta.media.0.codec.sample_aspect_ratio">0</property>
  <property name="kdenlive:original.meta.media.0.codec.colorspace">709</property>
  <property name="kdenlive:original.meta.media.0.codec.color_trc">1</property>
  <property name="kdenlive:original.meta.media.0.codec.name">hevc</property>
  <property name="kdenlive:original.meta.media.0.codec.long_name">HEVC (High Efficiency Video Coding)</property>
  <property name="kdenlive:original.meta.media.0.codec.bit_rate">7298780</property>
  <property name="kdenlive:original.meta.attr.0.stream.creation_time.markup">2018-12-19T07:58:39.000000Z</property>
  <property name="kdenlive:original.meta.attr.0.stream.handler_name.markup">Core Media Video</property>
  <property name="kdenlive:original.meta.attr.0.stream.encoder.markup">HEVC</property>
  <property name="kdenlive:original.meta.media.1.stream.type">audio</property>
  <property name="kdenlive:original.meta.media.1.codec.sample_fmt">fltp</property>
  <property name="kdenlive:original.meta.media.1.codec.sample_rate">44100</property>
  <property name="kdenlive:original.meta.media.1.codec.channels">2</property>
  <property name="kdenlive:original.meta.media.1.codec.name">aac</property>
  <property name="kdenlive:original.meta.media.1.codec.long_name">AAC (Advanced Audio Coding)</property>
  <property name="kdenlive:original.meta.media.1.codec.bit_rate">176010</property>
  <property name="kdenlive:original.meta.attr.1.stream.creation_time.markup">2018-12-19T07:58:39.000000Z</property>
  <property name="kdenlive:original.meta.attr.1.stream.handler_name.markup">Core Media Audio</property>
  <property name="kdenlive:original.meta.attr.major_brand.markup">qt  </property>
  <property name="kdenlive:original.meta.attr.minor_version.markup">0</property>
  <property name="kdenlive:original.meta.attr.compatible_brands.markup">qt  </property>
  <property name="kdenlive:original.meta.attr.creation_time.markup">2018-12-19T07:58:39.000000Z</property>
  <property name="kdenlive:original.meta.attr.com.apple.quicktime.make.markup">Apple</property>
  <property name="kdenlive:original.meta.attr.com.apple.quicktime.model.markup">iPhone XS</property>
  <property name="kdenlive:original.meta.attr.com.apple.quicktime.software.markup">12.1</property>
  <property name="kdenlive:original.meta.attr.com.apple.quicktime.creationdate.markup">2018-12-19T14:58:39+0700</property>
  <property name="kdenlive:original.seekable">1</property>
  <property name="kdenlive:original.width">1920</property>
  <property name="kdenlive:original.height">1080</property>
  <property name="kdenlive:original.meta.media.sample_aspect_num">1</property>
  <property name="kdenlive:original.meta.media.sample_aspect_den">1</property>
  <property name="kdenlive:original.aspect_ratio">1</property>
  <property name="kdenlive:original.audio_index">1</property>
  <property name="kdenlive:original.video_index">0</property>
  <property name="kdenlive:original.mute_on_pause">0</property>
  <property name="kdenlive:original.mlt_service">avformat-novalidate</property>
  <property name="kdenlive:original.kdenlive:folderid">-1</property>
  <property name="kdenlive:original.meta.media.frame_rate_num">17325</property>
  <property name="kdenlive:original.meta.media.frame_rate_den">578</property>
  <property name="kdenlive:original.meta.media.colorspace">709</property>
  <property name="kdenlive:original.meta.media.color_trc">1</property>
  <property name="kdenlive:original.meta.media.width">1920</property>
  <property name="kdenlive:original.meta.media.height">1080</property>
  <property name="kdenlive:original.meta.media.color_range">mpeg</property>
  <property name="kdenlive:original.kdenlive:id">47</property>
  <property name="kdenlive:original.kdenlive:file_size">21643843</property>
  <property name="kdenlive:original.kdenlive:file_hash">34af9c46999e425f0548ab18dd907665</property>
  <property name="kdenlive:original.backup">1</property>
  <property name="global_feed">1</property>
  <property name="xml">was here</property>
  <property name="meta.media.nb_streams">2</property>
  <property name="meta.media.0.stream.type">video</property>
  <property name="meta.media.0.stream.frame_rate">29.97</property>
  <property name="meta.media.0.stream.sample_aspect_ratio">0</property>
  <property name="meta.media.0.codec.width">640</property>
  <property name="meta.media.0.codec.height">360</property>
  <property name="meta.media.0.codec.rotate">0</property>
  <property name="meta.media.0.codec.frame_rate">29.97</property>
  <property name="meta.media.0.codec.pix_fmt">yuv420p</property>
  <property name="meta.media.0.codec.sample_aspect_ratio">1</property>
  <property name="meta.media.0.codec.colorspace">601</property>
  <property name="meta.media.0.codec.name">h264</property>
  <property name="meta.media.0.codec.long_name">H.264 / AVC / MPEG-4 AVC / MPEG-4 part 10</property>
  <property name="meta.media.0.codec.bit_rate">7430083</property>
  <property name="meta.attr.0.stream.handler_name.markup">Core Media Video</property>
  <property name="meta.attr.0.stream.encoder.markup">Lavc58.111.100 h264_nvenc</property>
  <property name="meta.media.1.stream.type">audio</property>
  <property name="meta.media.1.codec.sample_fmt">fltp</property>
  <property name="meta.media.1.codec.sample_rate">44100</property>
  <property name="meta.media.1.codec.channels">2</property>
  <property name="meta.media.1.codec.name">aac</property>
  <property name="meta.media.1.codec.long_name">AAC (Advanced Audio Coding)</property>
  <property name="meta.media.1.codec.bit_rate">176098</property>
  <property name="meta.attr.1.stream.handler_name.markup">Core Media Audio</property>
  <property name="meta.attr.major_brand.markup">qt  </property>
  <property name="meta.attr.minor_version.markup">512</property>
  <property name="meta.attr.compatible_brands.markup">qt  </property>
  <property name="meta.attr.encoder.markup">Lavf58.62.100</property>
  <property name="meta.media.sample_aspect_num">1</property>
  <property name="meta.media.sample_aspect_den">1</property>
  <property name="meta.media.frame_rate_num">30000</property>
  <property name="meta.media.frame_rate_den">1001</property>
  <property name="meta.media.colorspace">601</property>
  <property name="meta.media.color_trc">2</property>
  <property name="meta.media.width">640</property>
  <property name="meta.media.height">360</property>
  <property name="meta.media.color_range">mpeg</property>
  <property name="meta.media.top_field_first">0</property>
  <property name="meta.media.progressive">1</property>
  <property name="set.test_audio">1</property>
  <property name="set.test_image">0</property>
 </producer>
 <producer id="producer82" in="00:00:00.000" out="00:00:06.080">
  <property name="length">153</property>
  <property name="eof">pause</property>
  <property name="resource">/home/chiller/.cache/kdenlive/proxy/a047c668b7fb98ececb127dca5e72255.mov</property>
  <property name="audio_index">1</property>
  <property name="video_index">0</property>
  <property name="mute_on_pause">0</property>
  <property name="mlt_service">avformat-novalidate</property>
  <property name="seekable">1</property>
  <property name="aspect_ratio">1</property>
  <property name="kdenlive:clipname">prague2.mov</property>
  <property name="kdenlive:folderid">-1</property>
  <property name="kdenlive:id">48</property>
  <property name="kdenlive:file_size">7232225</property>
  <property name="kdenlive:file_hash">a047c668b7fb98ececb127dca5e72255</property>
  <property name="kdenlive:proxy">/home/chiller/.cache/kdenlive/proxy/a047c668b7fb98ececb127dca5e72255.mov</property>
  <property name="kdenlive:originalurl">mov/travel/prague2.mov</property>
  <property name="kdenlive:original.mlt_type">producer</property>
  <property name="kdenlive:original.in">0</property>
  <property name="kdenlive:original.out">152</property>
  <property name="kdenlive:original.length">153</property>
  <property name="kdenlive:original.eof">pause</property>
  <property name="kdenlive:original.resource">mov/travel/prague2.mov</property>
  <property name="kdenlive:original.meta.media.nb_streams">5</property>
  <property name="kdenlive:original.meta.media.0.stream.type">video</property>
  <property name="kdenlive:original.meta.media.0.stream.frame_rate">29.9756</property>
  <property name="kdenlive:original.meta.media.0.stream.sample_aspect_ratio">0</property>
  <property name="kdenlive:original.meta.media.0.codec.width">1920</property>
  <property name="kdenlive:original.meta.media.0.codec.height">1080</property>
  <property name="kdenlive:original.meta.media.0.codec.rotate">0</property>
  <property name="kdenlive:original.meta.media.0.codec.frame_rate">600</property>
  <property name="kdenlive:original.meta.media.0.codec.pix_fmt">yuv420p</property>
  <property name="kdenlive:original.meta.media.0.codec.sample_aspect_ratio">0</property>
  <property name="kdenlive:original.meta.media.0.codec.colorspace">709</property>
  <property name="kdenlive:original.meta.media.0.codec.color_trc">1</property>
  <property name="kdenlive:original.meta.media.0.codec.name">hevc</property>
  <property name="kdenlive:original.meta.media.0.codec.long_name">HEVC (High Efficiency Video Coding)</property>
  <property name="kdenlive:original.meta.media.0.codec.bit_rate">9214704</property>
  <property name="kdenlive:original.meta.attr.0.stream.creation_time.markup">2020-01-02T09:26:16.000000Z</property>
  <property name="kdenlive:original.meta.attr.0.stream.handler_name.markup">Core Media Video</property>
  <property name="kdenlive:original.meta.attr.0.stream.encoder.markup">HEVC</property>
  <property name="kdenlive:original.meta.media.1.stream.type">audio</property>
  <property name="kdenlive:original.meta.media.1.codec.sample_fmt">fltp</property>
  <property name="kdenlive:original.meta.media.1.codec.sample_rate">44100</property>
  <property name="kdenlive:original.meta.media.1.codec.channels">2</property>
  <property name="kdenlive:original.meta.media.1.codec.name">aac</property>
  <property name="kdenlive:original.meta.media.1.codec.long_name">AAC (Advanced Audio Coding)</property>
  <property name="kdenlive:original.meta.media.1.codec.bit_rate">177529</property>
  <property name="kdenlive:original.meta.attr.1.stream.creation_time.markup">2020-01-02T09:26:16.000000Z</property>
  <property name="kdenlive:original.meta.attr.1.stream.handler_name.markup">Core Media Audio</property>
  <property name="kdenlive:original.meta.attr.major_brand.markup">qt  </property>
  <property name="kdenlive:original.meta.attr.minor_version.markup">0</property>
  <property name="kdenlive:original.meta.attr.compatible_brands.markup">qt  </property>
  <property name="kdenlive:original.meta.attr.creation_time.markup">2020-01-02T09:26:16.000000Z</property>
  <property name="kdenlive:original.meta.attr.com.apple.quicktime.make.markup">Apple</property>
  <property name="kdenlive:original.meta.attr.com.apple.quicktime.model.markup">iPhone XS</property>
  <property name="kdenlive:original.meta.attr.com.apple.quicktime.software.markup">13.3</property>
  <property name="kdenlive:original.meta.attr.com.apple.quicktime.creationdate.markup">2020-01-02T10:26:16+0100</property>
  <property name="kdenlive:original.seekable">1</property>
  <property name="kdenlive:original.width">1920</property>
  <property name="kdenlive:original.height">1080</property>
  <property name="kdenlive:original.meta.media.sample_aspect_num">1</property>
  <property name="kdenlive:original.meta.media.sample_aspect_den">1</property>
  <property name="kdenlive:original.aspect_ratio">1</property>
  <property name="kdenlive:original.audio_index">1</property>
  <property name="kdenlive:original.video_index">0</property>
  <property name="kdenlive:original.mute_on_pause">0</property>
  <property name="kdenlive:original.mlt_service">avformat-novalidate</property>
  <property name="kdenlive:original.kdenlive:folderid">-1</property>
  <property name="kdenlive:original.meta.media.frame_rate_num">110400</property>
  <property name="kdenlive:original.meta.media.frame_rate_den">3683</property>
  <property name="kdenlive:original.meta.media.colorspace">709</property>
  <property name="kdenlive:original.meta.media.color_trc">1</property>
  <property name="kdenlive:original.meta.media.width">1920</property>
  <property name="kdenlive:original.meta.media.height">1080</property>
  <property name="kdenlive:original.meta.media.color_range">mpeg</property>
  <property name="kdenlive:original.kdenlive:id">48</property>
  <property name="kdenlive:original.kdenlive:file_size">7232225</property>
  <property name="kdenlive:original.kdenlive:file_hash">a047c668b7fb98ececb127dca5e72255</property>
  <property name="kdenlive:original.backup">1</property>
  <property name="global_feed">1</property>
  <property name="xml">was here</property>
  <property name="meta.media.nb_streams">2</property>
  <property name="meta.media.0.stream.type">video</property>
  <property name="meta.media.0.stream.frame_rate">29.97</property>
  <property name="meta.media.0.stream.sample_aspect_ratio">0</property>
  <property name="meta.media.0.codec.width">640</property>
  <property name="meta.media.0.codec.height">360</property>
  <property name="meta.media.0.codec.rotate">0</property>
  <property name="meta.media.0.codec.frame_rate">29.97</property>
  <property name="meta.media.0.codec.pix_fmt">yuv420p</property>
  <property name="meta.media.0.codec.sample_aspect_ratio">1</property>
  <property name="meta.media.0.codec.colorspace">601</property>
  <property name="meta.media.0.codec.name">h264</property>
  <property name="meta.media.0.codec.long_name">H.264 / AVC / MPEG-4 AVC / MPEG-4 part 10</property>
  <property name="meta.media.0.codec.bit_rate">6735788</property>
  <property name="meta.attr.0.stream.handler_name.markup">Core Media Video</property>
  <property name="meta.attr.0.stream.encoder.markup">Lavc58.111.100 h264_nvenc</property>
  <property name="meta.media.1.stream.type">audio</property>
  <property name="meta.media.1.codec.sample_fmt">fltp</property>
  <property name="meta.media.1.codec.sample_rate">44100</property>
  <property name="meta.media.1.codec.channels">2</property>
  <property name="meta.media.1.codec.name">aac</property>
  <property name="meta.media.1.codec.long_name">AAC (Advanced Audio Coding)</property>
  <property name="meta.media.1.codec.bit_rate">178667</property>
  <property name="meta.attr.1.stream.handler_name.markup">Core Media Audio</property>
  <property name="meta.attr.major_brand.markup">qt  </property>
  <property name="meta.attr.minor_version.markup">512</property>
  <property name="meta.attr.compatible_brands.markup">qt  </property>
  <property name="meta.attr.encoder.markup">Lavf58.62.100</property>
  <property name="meta.media.sample_aspect_num">1</property>
  <property name="meta.media.sample_aspect_den">1</property>
  <property name="meta.media.frame_rate_num">30000</property>
  <property name="meta.media.frame_rate_den">1001</property>
  <property name="meta.media.colorspace">601</property>
  <property name="meta.media.color_trc">2</property>
  <property name="meta.media.width">640</property>
  <property name="meta.media.height">360</property>
  <property name="meta.media.color_range">mpeg</property>
  <property name="meta.media.top_field_first">0</property>
  <property name="meta.media.progressive">1</property>
  <property name="set.test_audio">1</property>
  <property name="set.test_image">0</property>
 </producer>
 <producer id="producer83" in="00:00:00.000" out="00:00:07.800">
  <property name="length">196</property>
  <property name="eof">pause</property>
  <property name="resource">/home/chiller/.cache/kdenlive/proxy/a1132fd149e2da3e7fd25965c156f5a3.mov</property>
  <property name="audio_index">1</property>
  <property name="video_index">0</property>
  <property name="mute_on_pause">0</property>
  <property name="mlt_service">avformat-novalidate</property>
  <property name="seekable">1</property>
  <property name="aspect_ratio">1</property>
  <property name="kdenlive:clipname">rain_starbucks.mov</property>
  <property name="kdenlive:folderid">-1</property>
  <property name="kdenlive:id">50</property>
  <property name="kdenlive:file_size">8221563</property>
  <property name="kdenlive:file_hash">a1132fd149e2da3e7fd25965c156f5a3</property>
  <property name="kdenlive:proxy">/home/chiller/.cache/kdenlive/proxy/a1132fd149e2da3e7fd25965c156f5a3.mov</property>
  <property name="kdenlive:originalurl">mov/outdoor/rain_starbucks.mov</property>
  <property name="kdenlive:original.mlt_type">producer</property>
  <property name="kdenlive:original.in">0</property>
  <property name="kdenlive:original.out">195</property>
  <property name="kdenlive:original.length">196</property>
  <property name="kdenlive:original.eof">pause</property>
  <property name="kdenlive:original.resource">mov/outdoor/rain_starbucks.mov</property>
  <property name="kdenlive:original.meta.media.nb_streams">5</property>
  <property name="kdenlive:original.meta.media.0.stream.type">video</property>
  <property name="kdenlive:original.meta.media.0.stream.frame_rate">29.9745</property>
  <property name="kdenlive:original.meta.media.0.stream.sample_aspect_ratio">0</property>
  <property name="kdenlive:original.meta.media.0.codec.width">1920</property>
  <property name="kdenlive:original.meta.media.0.codec.height">1080</property>
  <property name="kdenlive:original.meta.media.0.codec.rotate">0</property>
  <property name="kdenlive:original.meta.media.0.codec.frame_rate">600</property>
  <property name="kdenlive:original.meta.media.0.codec.pix_fmt">yuv420p</property>
  <property name="kdenlive:original.meta.media.0.codec.sample_aspect_ratio">0</property>
  <property name="kdenlive:original.meta.media.0.codec.colorspace">709</property>
  <property name="kdenlive:original.meta.media.0.codec.color_trc">1</property>
  <property name="kdenlive:original.meta.media.0.codec.name">hevc</property>
  <property name="kdenlive:original.meta.media.0.codec.long_name">HEVC (High Efficiency Video Coding)</property>
  <property name="kdenlive:original.meta.media.0.codec.bit_rate">8166657</property>
  <property name="kdenlive:original.meta.attr.0.stream.creation_time.markup">2020-06-07T11:43:45.000000Z</property>
  <property name="kdenlive:original.meta.attr.0.stream.handler_name.markup">Core Media Video</property>
  <property name="kdenlive:original.meta.attr.0.stream.encoder.markup">HEVC</property>
  <property name="kdenlive:original.meta.media.1.stream.type">audio</property>
  <property name="kdenlive:original.meta.media.1.codec.sample_fmt">fltp</property>
  <property name="kdenlive:original.meta.media.1.codec.sample_rate">44100</property>
  <property name="kdenlive:original.meta.media.1.codec.channels">2</property>
  <property name="kdenlive:original.meta.media.1.codec.name">aac</property>
  <property name="kdenlive:original.meta.media.1.codec.long_name">AAC (Advanced Audio Coding)</property>
  <property name="kdenlive:original.meta.media.1.codec.bit_rate">191707</property>
  <property name="kdenlive:original.meta.attr.1.stream.creation_time.markup">2020-06-07T11:43:45.000000Z</property>
  <property name="kdenlive:original.meta.attr.1.stream.handler_name.markup">Core Media Audio</property>
  <property name="kdenlive:original.meta.attr.major_brand.markup">qt  </property>
  <property name="kdenlive:original.meta.attr.minor_version.markup">0</property>
  <property name="kdenlive:original.meta.attr.compatible_brands.markup">qt  </property>
  <property name="kdenlive:original.meta.attr.creation_time.markup">2020-06-07T11:43:45.000000Z</property>
  <property name="kdenlive:original.meta.attr.com.apple.quicktime.make.markup">Apple</property>
  <property name="kdenlive:original.meta.attr.com.apple.quicktime.model.markup">iPhone XS</property>
  <property name="kdenlive:original.meta.attr.com.apple.quicktime.software.markup">13.4.1</property>
  <property name="kdenlive:original.meta.attr.com.apple.quicktime.creationdate.markup">2020-06-07T13:43:45+0200</property>
  <property name="kdenlive:original.seekable">1</property>
  <property name="kdenlive:original.width">1920</property>
  <property name="kdenlive:original.height">1080</property>
  <property name="kdenlive:original.meta.media.sample_aspect_num">1</property>
  <property name="kdenlive:original.meta.media.sample_aspect_den">1</property>
  <property name="kdenlive:original.aspect_ratio">1</property>
  <property name="kdenlive:original.audio_index">1</property>
  <property name="kdenlive:original.video_index">0</property>
  <property name="kdenlive:original.mute_on_pause">0</property>
  <property name="kdenlive:original.mlt_service">avformat-novalidate</property>
  <property name="kdenlive:original.kdenlive:folderid">-1</property>
  <property name="kdenlive:original.meta.media.frame_rate_num">5875</property>
  <property name="kdenlive:original.meta.media.frame_rate_den">196</property>
  <property name="kdenlive:original.meta.media.colorspace">709</property>
  <property name="kdenlive:original.meta.media.color_trc">1</property>
  <property name="kdenlive:original.meta.media.width">1920</property>
  <property name="kdenlive:original.meta.media.height">1080</property>
  <property name="kdenlive:original.meta.media.color_range">mpeg</property>
  <property name="kdenlive:original.kdenlive:id">50</property>
  <property name="kdenlive:original.kdenlive:file_size">8221563</property>
  <property name="kdenlive:original.kdenlive:file_hash">a1132fd149e2da3e7fd25965c156f5a3</property>
  <property name="kdenlive:original.backup">1</property>
  <property name="global_feed">1</property>
  <property name="xml">was here</property>
  <property name="meta.media.nb_streams">2</property>
  <property name="meta.media.0.stream.type">video</property>
  <property name="meta.media.0.stream.frame_rate">29.97</property>
  <property name="meta.media.0.stream.sample_aspect_ratio">0</property>
  <property name="meta.media.0.codec.width">640</property>
  <property name="meta.media.0.codec.height">360</property>
  <property name="meta.media.0.codec.rotate">0</property>
  <property name="meta.media.0.codec.frame_rate">29.97</property>
  <property name="meta.media.0.codec.pix_fmt">yuv420p</property>
  <property name="meta.media.0.codec.sample_aspect_ratio">1</property>
  <property name="meta.media.0.codec.colorspace">601</property>
  <property name="meta.media.0.codec.name">h264</property>
  <property name="meta.media.0.codec.long_name">H.264 / AVC / MPEG-4 AVC / MPEG-4 part 10</property>
  <property name="meta.media.0.codec.bit_rate">7014074</property>
  <property name="meta.attr.0.stream.handler_name.markup">Core Media Video</property>
  <property name="meta.attr.0.stream.encoder.markup">Lavc58.111.100 h264_nvenc</property>
  <property name="meta.media.1.stream.type">audio</property>
  <property name="meta.media.1.codec.sample_fmt">fltp</property>
  <property name="meta.media.1.codec.sample_rate">44100</property>
  <property name="meta.media.1.codec.channels">2</property>
  <property name="meta.media.1.codec.name">aac</property>
  <property name="meta.media.1.codec.long_name">AAC (Advanced Audio Coding)</property>
  <property name="meta.media.1.codec.bit_rate">191877</property>
  <property name="meta.attr.1.stream.handler_name.markup">Core Media Audio</property>
  <property name="meta.attr.major_brand.markup">qt  </property>
  <property name="meta.attr.minor_version.markup">512</property>
  <property name="meta.attr.compatible_brands.markup">qt  </property>
  <property name="meta.attr.encoder.markup">Lavf58.62.100</property>
  <property name="meta.media.sample_aspect_num">1</property>
  <property name="meta.media.sample_aspect_den">1</property>
  <property name="meta.media.frame_rate_num">30000</property>
  <property name="meta.media.frame_rate_den">1001</property>
  <property name="meta.media.colorspace">601</property>
  <property name="meta.media.color_trc">2</property>
  <property name="meta.media.width">640</property>
  <property name="meta.media.height">360</property>
  <property name="meta.media.color_range">mpeg</property>
  <property name="meta.media.top_field_first">0</property>
  <property name="meta.media.progressive">1</property>
  <property name="set.test_audio">1</property>
  <property name="set.test_image">0</property>
 </producer>
 <playlist id="playlist4">
  <entry producer="producer60" in="00:00:00.000" out="00:00:06.360">
   <property name="kdenlive:id">3</property>
  </entry>
  <blank length="00:00:00.120"/>
  <entry producer="producer60" in="00:00:06.520" out="00:00:06.920">
   <property name="kdenlive:id">3</property>
  </entry>
  <blank length="00:00:00.080"/>
  <entry producer="producer60" in="00:00:07.040" out="00:00:07.520">
   <property name="kdenlive:id">3</property>
  </entry>
  <blank length="00:00:00.080"/>
  <entry producer="producer60" in="00:00:07.640" out="00:00:08.320">
   <property name="kdenlive:id">3</property>
  </entry>
  <blank length="00:00:00.080"/>
  <entry producer="producer60" in="00:00:08.440" out="00:00:08.920">
   <property name="kdenlive:id">3</property>
  </entry>
  <blank length="00:00:00.040"/>
  <entry producer="producer60" in="00:00:09.000" out="00:00:09.280">
   <property name="kdenlive:id">3</property>
  </entry>
  <blank length="00:00:00.040"/>
  <entry producer="producer60" in="00:00:09.360" out="00:00:09.400">
   <property name="kdenlive:id">3</property>
  </entry>
  <blank length="00:00:00.040"/>
  <entry producer="producer60" in="00:00:09.480" out="00:00:09.520">
   <property name="kdenlive:id">3</property>
  </entry>
  <blank length="00:00:00.040"/>
  <entry producer="producer60" in="00:00:09.600" out="00:00:10.080">
   <property name="kdenlive:id">3</property>
  </entry>
  <blank length="00:00:00.080"/>
  <entry producer="producer60" in="00:00:10.200" out="00:00:10.680">
   <property name="kdenlive:id">3</property>
  </entry>
  <blank length="00:00:00.040"/>
  <entry producer="producer60" in="00:00:10.760" out="00:00:11.280">
   <property name="kdenlive:id">3</property>
  </entry>
  <blank length="00:00:00.040"/>
  <entry producer="producer60" in="00:00:11.360" out="00:00:11.360">
   <property name="kdenlive:id">3</property>
  </entry>
  <blank length="00:00:01.360"/>
  <entry producer="producer61" in="00:00:01.160" out="00:00:01.400">
   <property name="kdenlive:id">4</property>
  </entry>
  <entry producer="producer61" in="00:00:02.680" out="00:00:10.520">
   <property name="kdenlive:id">4</property>
  </entry>
  <entry producer="producer62" in="00:00:00.000" out="00:00:00.920">
   <property name="kdenlive:id">5</property>
  </entry>
  <entry producer="producer63" in="00:00:00.000" out="00:00:01.960">
   <property name="kdenlive:id">10</property>
  </entry>
  <entry producer="producer64" in="00:00:00.000" out="00:00:05.000">
   <property name="kdenlive:id">11</property>
  </entry>
  <entry producer="producer63" in="00:00:15.560" out="00:00:19.560">
   <property name="kdenlive:id">10</property>
  </entry>
  <entry producer="producer65" in="00:00:00.000" out="00:00:04.960">
   <property name="kdenlive:id">12</property>
  </entry>
  <entry producer="producer66" in="00:00:00.000" out="00:00:06.560">
   <property name="kdenlive:id">13</property>
   <filter id="filter6">
    <property name="rotate_center">2</property>
    <property name="mlt_service">qtblend</property>
    <property name="kdenlive_id">qtblend</property>
    <property name="rect">00:00:00.000=0 0 1920 1080 1.000000;00:00:06.040=0 0 1920 1080 1.000000;00:00:06.120=-316 -185 2552 1450 0.938462;00:00:06.200=-56 -55 2058 1175 0.940000;00:00:06.400=-44 -127 2171 1232 0.938462;00:00:06.560=-724 -332 3216 1737 0.910000</property>
    <property name="rotation">00:00:00.000=0;00:00:06.040=0;00:00:06.120=0;00:00:06.200=0;00:00:06.400=0;00:00:06.560=20</property>
    <property name="compositing">0</property>
    <property name="distort">2</property>
    <property name="kdenlive:collapsed">0</property>
   </filter>
   <filter id="filter7">
    <property name="start">1</property>
    <property name="level">00:00:00.000=1;00:00:06.400=1;00:00:06.560=2.78</property>
    <property name="mlt_service">brightness</property>
    <property name="kdenlive_id">brightness</property>
    <property name="kdenlive:collapsed">0</property>
   </filter>
  </entry>
  <entry producer="producer67" in="00:00:02.240" out="00:00:03.800">
   <property name="kdenlive:id">14</property>
   <filter id="filter8">
    <property name="rotate_center">1</property>
    <property name="mlt_service">qtblend</property>
    <property name="kdenlive_id">qtblend</property>
    <property name="rect">00:00:02.240=0 0 1920 1080 1.000000;00:00:03.240=0 0 1920 1080 1.000000;00:00:03.360=-771 -198 3658 2057 1.000000;00:00:03.480=-38 -35 2120 1192 1.000000;00:00:03.640=-38 -35 2120 1192 1.000000;00:00:03.800=-2585 -865 6929 3896 1.000000</property>
    <property name="rotation">00:00:02.240=0;00:00:03.240=0;00:00:03.360=0;00:00:03.480=0;00:00:03.640=0;00:00:03.800=10</property>
    <property name="compositing">0</property>
    <property name="distort">0</property>
    <property name="kdenlive:collapsed">0</property>
   </filter>
   <filter id="filter9">
    <property name="start">1</property>
    <property name="level">00:00:02.240=1;00:00:03.640=1;00:00:03.800=3.26</property>
    <property name="mlt_service">brightness</property>
    <property name="kdenlive_id">brightness</property>
    <property name="kdenlive:collapsed">0</property>
   </filter>
  </entry>
  <entry producer="producer68" in="00:00:00.000" out="00:00:05.240">
   <property name="kdenlive:id">15</property>
  </entry>
  <entry producer="producer69" in="00:00:00.520" out="00:00:03.880">
   <property name="kdenlive:id">16</property>
  </entry>
  <entry producer="producer70" in="00:00:00.000" out="00:00:03.480">
   <property name="kdenlive:id">17</property>
  </entry>
  <entry producer="producer70" in="00:00:03.520" out="00:00:03.800">
   <property name="kdenlive:id">17</property>
  </entry>
  <entry producer="producer70" in="00:00:03.840" out="00:00:03.960">
   <property name="kdenlive:id">17</property>
  </entry>
  <entry producer="producer71" in="00:00:00.000" out="00:00:12.400">
   <property name="kdenlive:id">19</property>
  </entry>
  <entry producer="producer72" in="00:00:00.000" out="00:00:00.600">
   <property name="kdenlive:id">21</property>
  </entry>
  <entry producer="producer72" in="00:00:00.880" out="00:00:01.600">
   <property name="kdenlive:id">21</property>
  </entry>
  <entry producer="producer72" in="00:00:02.280" out="00:00:02.640">
   <property name="kdenlive:id">21</property>
  </entry>
  <entry producer="producer72" in="00:00:03.040" out="00:00:03.360">
   <property name="kdenlive:id">21</property>
  </entry>
  <entry producer="producer72" in="00:00:03.600" out="00:00:03.640">
   <property name="kdenlive:id">21</property>
  </entry>
  <entry producer="producer72" in="00:00:03.960" out="00:00:04.360">
   <property name="kdenlive:id">21</property>
  </entry>
  <blank length="00:00:00.040"/>
  <entry producer="producer72" in="00:00:04.400" out="00:00:04.800">
   <property name="kdenlive:id">21</property>
  </entry>
  <blank length="00:00:00.040"/>
  <entry producer="producer72" in="00:00:04.840" out="00:00:04.880">
   <property name="kdenlive:id">21</property>
  </entry>
  <blank length="00:00:00.040"/>
  <entry producer="producer72" in="00:00:04.880" out="00:00:04.920">
   <property name="kdenlive:id">21</property>
  </entry>
  <blank length="00:00:00.040"/>
  <entry producer="producer72" in="00:00:04.920" out="00:00:04.960">
   <property name="kdenlive:id">21</property>
  </entry>
  <blank length="00:00:00.040"/>
  <entry producer="producer72" in="00:00:04.960" out="00:00:05.000">
   <property name="kdenlive:id">21</property>
  </entry>
  <blank length="00:00:00.040"/>
  <entry producer="producer72" in="00:00:05.000" out="00:00:05.040">
   <property name="kdenlive:id">21</property>
  </entry>
  <blank length="00:00:00.040"/>
  <entry producer="producer72" in="00:00:05.080" out="00:00:05.120">
   <property name="kdenlive:id">21</property>
  </entry>
  <blank length="00:00:00.040"/>
  <entry producer="producer72" in="00:00:05.160" out="00:00:05.200">
   <property name="kdenlive:id">21</property>
  </entry>
  <blank length="00:00:00.040"/>
  <entry producer="producer72" in="00:00:05.240" out="00:00:05.240">
   <property name="kdenlive:id">21</property>
  </entry>
  <blank length="00:00:00.040"/>
  <entry producer="producer72" in="00:00:05.280" out="00:00:05.280">
   <property name="kdenlive:id">21</property>
  </entry>
  <blank length="00:00:00.040"/>
  <entry producer="producer72" in="00:00:05.320" out="00:00:05.320">
   <property name="kdenlive:id">21</property>
  </entry>
  <blank length="00:00:00.040"/>
  <entry producer="producer72" in="00:00:05.360" out="00:00:05.360">
   <property name="kdenlive:id">21</property>
  </entry>
  <blank length="00:00:00.040"/>
  <entry producer="producer72" in="00:00:05.400" out="00:00:05.400">
   <property name="kdenlive:id">21</property>
  </entry>
  <blank length="00:00:00.040"/>
  <entry producer="producer72" in="00:00:05.440" out="00:00:05.440">
   <property name="kdenlive:id">21</property>
  </entry>
  <blank length="00:00:00.040"/>
  <entry producer="producer72" in="00:00:05.480" out="00:00:05.480">
   <property name="kdenlive:id">21</property>
  </entry>
  <blank length="00:00:00.040"/>
  <entry producer="producer72" in="00:00:05.520" out="00:00:08.120">
   <property name="kdenlive:id">21</property>
  </entry>
  <entry producer="producer72" in="00:00:08.160" out="00:00:08.360">
   <property name="kdenlive:id">21</property>
   <filter id="filter10">
    <property name="rotate_center">1</property>
    <property name="mlt_service">qtblend</property>
    <property name="kdenlive_id">qtblend</property>
    <property name="rect">00:00:08.160=0 0 1920 1080 1.000000;00:00:08.200=0 0 1920 1080 1.000000;00:00:08.360=-1301 -732 3221 1812 1.000000</property>
    <property name="rotation">00:00:08.160=0;00:00:08.200=0;00:00:08.360=0</property>
    <property name="compositing">0</property>
    <property name="distort">0</property>
    <property name="kdenlive:collapsed">0</property>
   </filter>
  </entry>
  <blank length="00:00:00.240"/>
  <entry producer="producer73" in="00:00:00.040" out="00:00:00.080">
   <property name="kdenlive:id">22</property>
   <filter id="filter11">
    <property name="version">0.1</property>
    <property name="mlt_service">frei0r.distort0r</property>
    <property name="kdenlive_id">frei0r.distort0r</property>
    <property name="Amplitude">00:00:00.040=0.115;00:00:00.080=-0.008</property>
    <property name="Frequency">00:00:00.040=0.28;00:00:00.080=0.28</property>
    <property name="kdenlive:collapsed">0</property>
   </filter>
   <filter id="filter12">
    <property name="version">0.1</property>
    <property name="mlt_service">frei0r.colorize</property>
    <property name="kdenlive_id">frei0r.colorize</property>
    <property name="hue">00:00:00.040=0.5;00:00:00.080=0.880556</property>
    <property name="saturation">00:00:00.040=0.8;00:00:00.080=0.666667</property>
    <property name="lightness">00:00:00.040=0.758333;00:00:00.080=0.241667</property>
    <property name="kdenlive:collapsed">0</property>
   </filter>
  </entry>
  <entry producer="producer73" in="00:00:03.480" out="00:00:03.480">
   <property name="kdenlive:id">22</property>
  </entry>
  <entry producer="producer73" in="00:00:04.080" out="00:00:12.680">
   <property name="kdenlive:id">22</property>
  </entry>
  <entry producer="producer74" in="00:00:00.000" out="00:00:07.160">
   <property name="kdenlive:id">23</property>
  </entry>
  <entry producer="producer75" in="00:00:00.000" out="00:00:00.560">
   <property name="kdenlive:id">24</property>
  </entry>
  <entry producer="producer74" in="00:00:07.200" out="00:00:08.160">
   <property name="kdenlive:id">23</property>
  </entry>
  <entry producer="producer76" in="00:00:04.000" out="00:00:04.720">
   <property name="kdenlive:id">25</property>
  </entry>
  <entry producer="producer74" in="00:00:08.200" out="00:00:09.040">
   <property name="kdenlive:id">23</property>
  </entry>
  <entry producer="producer76" in="00:00:04.760" out="00:00:10.880">
   <property name="kdenlive:id">25</property>
  </entry>
  <blank length="00:00:00.800"/>
  <entry producer="producer77" in="00:00:00.000" out="00:00:09.200">
   <property name="kdenlive:id">26</property>
   <filter id="filter13" out="00:00:00.360">
    <property name="start">0</property>
    <property name="mlt_service">brightness</property>
    <property name="kdenlive_id">fade_from_black</property>
    <property name="end">1</property>
    <property name="alpha">-1</property>
   </filter>
  </entry>
  <entry producer="producer78" in="00:00:00.000" out="00:00:10.520">
   <property name="kdenlive:id">44</property>
  </entry>
  <entry producer="producer79" in="00:00:00.000" out="00:00:05.080">
   <property name="kdenlive:id">45</property>
  </entry>
  <entry producer="producer80" in="00:00:03.520" out="00:00:09.600">
   <property name="kdenlive:id">46</property>
  </entry>
  <entry producer="producer81" in="00:00:00.000" out="00:00:20.280">
   <property name="kdenlive:id">47</property>
  </entry>
  <entry producer="producer81" in="00:00:20.320" out="00:00:21.120">
   <property name="kdenlive:id">47</property>
   <filter id="filter14">
    <property name="rotate_center">1</property>
    <property name="mlt_service">qtblend</property>
    <property name="kdenlive_id">qtblend</property>
    <property name="rect">00:00:20.320=0 0 1920 1080 1.000000;00:00:20.600=0 0 1920 1080 1.000000;00:00:20.720=-355 -200 2644 1488 1.000000;00:00:20.800=0 0 1920 1080 1.000000;00:00:20.960=0 0 1920 1080 1.000000;00:00:21.120=-624 -283 3488 1961 1.000000</property>
    <property name="rotation">00:00:20.320=0;00:00:20.600=0;00:00:20.720=7;00:00:20.800=0;00:00:20.960=0;00:00:21.120=2.4</property>
    <property name="compositing">0</property>
    <property name="distort">0</property>
    <property name="kdenlive:collapsed">0</property>
   </filter>
   <filter id="filter15">
    <property name="gamma">00:00:20.320=1;00:00:21.040=1;00:00:21.120=2.98</property>
    <property name="mlt_service">gamma</property>
    <property name="kdenlive_id">gamma</property>
    <property name="kdenlive:collapsed">0</property>
   </filter>
  </entry>
  <entry producer="producer82" in="00:00:00.000" out="00:00:02.400">
   <property name="kdenlive:id">48</property>
  </entry>
  <entry producer="producer82" in="00:00:02.560" out="00:00:02.600">
   <property name="kdenlive:id">48</property>
  </entry>
  <entry producer="producer82" in="00:00:02.760" out="00:00:02.800">
   <property name="kdenlive:id">48</property>
  </entry>
  <entry producer="producer82" in="00:00:03.080" out="00:00:03.120">
   <property name="kdenlive:id">48</property>
  </entry>
  <entry producer="producer82" in="00:00:03.440" out="00:00:03.440">
   <property name="kdenlive:id">48</property>
  </entry>
  <entry producer="producer82" in="00:00:03.640" out="00:00:03.640">
   <property name="kdenlive:id">48</property>
  </entry>
  <entry producer="producer82" in="00:00:03.760" out="00:00:03.760">
   <property name="kdenlive:id">48</property>
  </entry>
  <entry producer="producer82" in="00:00:03.920" out="00:00:03.920">
   <property name="kdenlive:id">48</property>
  </entry>
  <entry producer="producer82" in="00:00:04.160" out="00:00:04.160">
   <property name="kdenlive:id">48</property>
  </entry>
  <entry producer="producer82" in="00:00:04.400" out="00:00:04.400">
   <property name="kdenlive:id">48</property>
  </entry>
  <entry producer="producer82" in="00:00:04.600" out="00:00:04.600">
   <property name="kdenlive:id">48</property>
  </entry>
  <entry producer="producer82" in="00:00:04.840" out="00:00:04.840">
   <property name="kdenlive:id">48</property>
  </entry>
  <entry producer="producer82" in="00:00:05.120" out="00:00:05.120">
   <property name="kdenlive:id">48</property>
  </entry>
  <entry producer="producer82" in="00:00:05.360" out="00:00:06.080">
   <property name="kdenlive:id">48</property>
  </entry>
  <blank length="00:00:26.120"/>
  <entry producer="producer83" in="00:00:00.000" out="00:00:07.800">
   <property name="kdenlive:id">50</property>
  </entry>
 </playlist>
 <playlist id="playlist5"/>
 <tractor id="tractor2" in="00:00:00.000" out="00:03:15.080">
  <property name="kdenlive:trackheight">69</property>
  <property name="kdenlive:timeline_active">1</property>
  <property name="kdenlive:collapsed">0</property>
  <property name="kdenlive:thumbs_format"/>
  <property name="kdenlive:audio_rec"/>
  <track hide="audio" producer="playlist4"/>
  <track producer="playlist5"/>
 </tractor>
 <producer id="producer84" in="00:00:00.000" out="00:00:08.920">
  <property name="length">224</property>
  <property name="eof">pause</property>
  <property name="resource">/home/chiller/.cache/kdenlive/proxy/15d65d70f6fafe30f4df6bd289b09b7a.mov</property>
  <property name="audio_index">1</property>
  <property name="video_index">0</property>
  <property name="mute_on_pause">0</property>
  <property name="mlt_service">avformat-novalidate</property>
  <property name="seekable">1</property>
  <property name="aspect_ratio">1</property>
  <property name="kdenlive:clipname">FDBAABF8-2E3A-4BC2-B155-C6E74653980A.mov</property>
  <property name="kdenlive:folderid">-1</property>
  <property name="kdenlive:id">5</property>
  <property name="kdenlive:file_size">12411590</property>
  <property name="kdenlive:file_hash">15d65d70f6fafe30f4df6bd289b09b7a</property>
  <property name="kdenlive:proxy">/home/chiller/.cache/kdenlive/proxy/15d65d70f6fafe30f4df6bd289b09b7a.mov</property>
  <property name="kdenlive:originalurl">mov/party/FDBAABF8-2E3A-4BC2-B155-C6E74653980A.mov</property>
  <property name="kdenlive:original.mlt_type">producer</property>
  <property name="kdenlive:original.in">0</property>
  <property name="kdenlive:original.out">223</property>
  <property name="kdenlive:original.length">224</property>
  <property name="kdenlive:original.eof">pause</property>
  <property name="kdenlive:original.resource">mov/party/FDBAABF8-2E3A-4BC2-B155-C6E74653980A.mov</property>
  <property name="kdenlive:original.meta.media.nb_streams">5</property>
  <property name="kdenlive:original.meta.media.0.stream.type">video</property>
  <property name="kdenlive:original.meta.media.0.stream.frame_rate">29.972</property>
  <property name="kdenlive:original.meta.media.0.stream.sample_aspect_ratio">0</property>
  <property name="kdenlive:original.meta.media.0.codec.width">1920</property>
  <property name="kdenlive:original.meta.media.0.codec.height">1080</property>
  <property name="kdenlive:original.meta.media.0.codec.rotate">0</property>
  <property name="kdenlive:original.meta.media.0.codec.frame_rate">600</property>
  <property name="kdenlive:original.meta.media.0.codec.pix_fmt">yuv420p</property>
  <property name="kdenlive:original.meta.media.0.codec.sample_aspect_ratio">0</property>
  <property name="kdenlive:original.meta.media.0.codec.colorspace">709</property>
  <property name="kdenlive:original.meta.media.0.codec.color_trc">1</property>
  <property name="kdenlive:original.meta.media.0.codec.name">hevc</property>
  <property name="kdenlive:original.meta.media.0.codec.long_name">HEVC (High Efficiency Video Coding)</property>
  <property name="kdenlive:original.meta.media.0.codec.bit_rate">10888038</property>
  <property name="kdenlive:original.meta.attr.0.stream.creation_time.markup">2020-09-13T00:29:49.000000Z</property>
  <property name="kdenlive:original.meta.attr.0.stream.handler_name.markup">Core Media Video</property>
  <property name="kdenlive:original.meta.attr.0.stream.encoder.markup">HEVC</property>
  <property name="kdenlive:original.meta.media.1.stream.type">audio</property>
  <property name="kdenlive:original.meta.media.1.codec.sample_fmt">fltp</property>
  <property name="kdenlive:original.meta.media.1.codec.sample_rate">44100</property>
  <property name="kdenlive:original.meta.media.1.codec.channels">2</property>
  <property name="kdenlive:original.meta.media.1.codec.name">aac</property>
  <property name="kdenlive:original.meta.media.1.codec.long_name">AAC (Advanced Audio Coding)</property>
  <property name="kdenlive:original.meta.media.1.codec.bit_rate">184925</property>
  <property name="kdenlive:original.meta.attr.1.stream.creation_time.markup">2020-09-13T00:29:49.000000Z</property>
  <property name="kdenlive:original.meta.attr.1.stream.handler_name.markup">Core Media Audio</property>
  <property name="kdenlive:original.meta.attr.major_brand.markup">qt  </property>
  <property name="kdenlive:original.meta.attr.minor_version.markup">0</property>
  <property name="kdenlive:original.meta.attr.compatible_brands.markup">qt  </property>
  <property name="kdenlive:original.meta.attr.creation_time.markup">2020-09-13T00:29:49.000000Z</property>
  <property name="kdenlive:original.meta.attr.com.apple.quicktime.make.markup">Apple</property>
  <property name="kdenlive:original.meta.attr.com.apple.quicktime.model.markup">iPhone XS</property>
  <property name="kdenlive:original.meta.attr.com.apple.quicktime.software.markup">13.6.1</property>
  <property name="kdenlive:original.meta.attr.com.apple.quicktime.creationdate.markup">2020-09-13T02:29:49+0200</property>
  <property name="kdenlive:original.seekable">1</property>
  <property name="kdenlive:original.width">1920</property>
  <property name="kdenlive:original.height">1080</property>
  <property name="kdenlive:original.meta.media.sample_aspect_num">1</property>
  <property name="kdenlive:original.meta.media.sample_aspect_den">1</property>
  <property name="kdenlive:original.aspect_ratio">1</property>
  <property name="kdenlive:original.audio_index">1</property>
  <property name="kdenlive:original.video_index">0</property>
  <property name="kdenlive:original.mute_on_pause">0</property>
  <property name="kdenlive:original.mlt_service">avformat-novalidate</property>
  <property name="kdenlive:original.kdenlive:folderid">-1</property>
  <property name="kdenlive:original.meta.media.frame_rate_num">32160</property>
  <property name="kdenlive:original.meta.media.frame_rate_den">1073</property>
  <property name="kdenlive:original.meta.media.colorspace">709</property>
  <property name="kdenlive:original.meta.media.color_trc">1</property>
  <property name="kdenlive:original.meta.media.width">1920</property>
  <property name="kdenlive:original.meta.media.height">1080</property>
  <property name="kdenlive:original.meta.media.color_range">mpeg</property>
  <property name="kdenlive:original.kdenlive:id">6</property>
  <property name="kdenlive:original.kdenlive:file_size">12411590</property>
  <property name="kdenlive:original.kdenlive:file_hash">15d65d70f6fafe30f4df6bd289b09b7a</property>
  <property name="kdenlive:original.backup">1</property>
  <property name="global_feed">1</property>
  <property name="xml">was here</property>
  <property name="meta.media.nb_streams">2</property>
  <property name="meta.media.0.stream.type">video</property>
  <property name="meta.media.0.stream.frame_rate">29.97</property>
  <property name="meta.media.0.stream.sample_aspect_ratio">0</property>
  <property name="meta.media.0.codec.width">640</property>
  <property name="meta.media.0.codec.height">360</property>
  <property name="meta.media.0.codec.rotate">0</property>
  <property name="meta.media.0.codec.frame_rate">29.97</property>
  <property name="meta.media.0.codec.pix_fmt">yuv420p</property>
  <property name="meta.media.0.codec.sample_aspect_ratio">1</property>
  <property name="meta.media.0.codec.colorspace">601</property>
  <property name="meta.media.0.codec.name">h264</property>
  <property name="meta.media.0.codec.long_name">H.264 / AVC / MPEG-4 AVC / MPEG-4 part 10</property>
  <property name="meta.media.0.codec.bit_rate">5152236</property>
  <property name="meta.attr.0.stream.handler_name.markup">Core Media Video</property>
  <property name="meta.attr.0.stream.encoder.markup">Lavc58.106.100 h264_nvenc</property>
  <property name="meta.media.1.stream.type">audio</property>
  <property name="meta.media.1.codec.sample_fmt">fltp</property>
  <property name="meta.media.1.codec.sample_rate">44100</property>
  <property name="meta.media.1.codec.channels">2</property>
  <property name="meta.media.1.codec.name">aac</property>
  <property name="meta.media.1.codec.long_name">AAC (Advanced Audio Coding)</property>
  <property name="meta.media.1.codec.bit_rate">185496</property>
  <property name="meta.attr.1.stream.handler_name.markup">Core Media Audio</property>
  <property name="meta.attr.major_brand.markup">qt  </property>
  <property name="meta.attr.minor_version.markup">512</property>
  <property name="meta.attr.compatible_brands.markup">qt  </property>
  <property name="meta.attr.encoder.markup">Lavf58.58.100</property>
  <property name="meta.media.sample_aspect_num">1</property>
  <property name="meta.media.sample_aspect_den">1</property>
  <property name="meta.media.frame_rate_num">30000</property>
  <property name="meta.media.frame_rate_den">1001</property>
  <property name="meta.media.colorspace">601</property>
  <property name="meta.media.color_trc">2</property>
  <property name="meta.media.width">640</property>
  <property name="meta.media.height">360</property>
  <property name="meta.media.color_range">mpeg</property>
  <property name="meta.media.top_field_first">0</property>
  <property name="meta.media.progressive">1</property>
  <property name="set.test_audio">1</property>
  <property name="set.test_image">0</property>
 </producer>
 <producer id="producer85" in="00:00:00.000" out="00:00:21.920">
  <property name="length">549</property>
  <property name="eof">pause</property>
  <property name="resource">/home/chiller/.cache/kdenlive/proxy/307f0b99b5feb36159d7023dadca84e4.mov</property>
  <property name="audio_index">1</property>
  <property name="video_index">0</property>
  <property name="mute_on_pause">0</property>
  <property name="mlt_service">avformat-novalidate</property>
  <property name="seekable">1</property>
  <property name="aspect_ratio">1</property>
  <property name="kdenlive:clipname">ED492362-0377-4361-A842-79638E142FF6.mov</property>
  <property name="kdenlive:folderid">-1</property>
  <property name="kdenlive:id">10</property>
  <property name="kdenlive:file_size">34236796</property>
  <property name="kdenlive:file_hash">307f0b99b5feb36159d7023dadca84e4</property>
  <property name="kdenlive:proxy">/home/chiller/.cache/kdenlive/proxy/307f0b99b5feb36159d7023dadca84e4.mov</property>
  <property name="kdenlive:originalurl">mov/party/ED492362-0377-4361-A842-79638E142FF6.mov</property>
  <property name="kdenlive:original.mlt_type">producer</property>
  <property name="kdenlive:original.in">0</property>
  <property name="kdenlive:original.out">548</property>
  <property name="kdenlive:original.length">549</property>
  <property name="kdenlive:original.eof">pause</property>
  <property name="kdenlive:original.resource">mov/party/ED492362-0377-4361-A842-79638E142FF6.mov</property>
  <property name="kdenlive:original.meta.media.nb_streams">5</property>
  <property name="kdenlive:original.meta.media.0.stream.type">video</property>
  <property name="kdenlive:original.meta.media.0.stream.frame_rate">26.5322</property>
  <property name="kdenlive:original.meta.media.0.stream.sample_aspect_ratio">0</property>
  <property name="kdenlive:original.meta.media.0.codec.width">1920</property>
  <property name="kdenlive:original.meta.media.0.codec.height">1080</property>
  <property name="kdenlive:original.meta.media.0.codec.rotate">0</property>
  <property name="kdenlive:original.meta.media.0.codec.frame_rate">600</property>
  <property name="kdenlive:original.meta.media.0.codec.pix_fmt">yuv420p</property>
  <property name="kdenlive:original.meta.media.0.codec.sample_aspect_ratio">0</property>
  <property name="kdenlive:original.meta.media.0.codec.colorspace">709</property>
  <property name="kdenlive:original.meta.media.0.codec.color_trc">1</property>
  <property name="kdenlive:original.meta.media.0.codec.name">hevc</property>
  <property name="kdenlive:original.meta.media.0.codec.long_name">HEVC (High Efficiency Video Coding)</property>
  <property name="kdenlive:original.meta.media.0.codec.bit_rate">12241980</property>
  <property name="kdenlive:original.meta.attr.0.stream.creation_time.markup">2020-09-13T00:35:16.000000Z</property>
  <property name="kdenlive:original.meta.attr.0.stream.handler_name.markup">Core Media Video</property>
  <property name="kdenlive:original.meta.attr.0.stream.encoder.markup">HEVC</property>
  <property name="kdenlive:original.meta.media.1.stream.type">audio</property>
  <property name="kdenlive:original.meta.media.1.codec.sample_fmt">fltp</property>
  <property name="kdenlive:original.meta.media.1.codec.sample_rate">44100</property>
  <property name="kdenlive:original.meta.media.1.codec.channels">2</property>
  <property name="kdenlive:original.meta.media.1.codec.name">aac</property>
  <property name="kdenlive:original.meta.media.1.codec.long_name">AAC (Advanced Audio Coding)</property>
  <property name="kdenlive:original.meta.media.1.codec.bit_rate">192922</property>
  <property name="kdenlive:original.meta.attr.1.stream.creation_time.markup">2020-09-13T00:35:16.000000Z</property>
  <property name="kdenlive:original.meta.attr.1.stream.handler_name.markup">Core Media Audio</property>
  <property name="kdenlive:original.meta.attr.major_brand.markup">qt  </property>
  <property name="kdenlive:original.meta.attr.minor_version.markup">0</property>
  <property name="kdenlive:original.meta.attr.compatible_brands.markup">qt  </property>
  <property name="kdenlive:original.meta.attr.creation_time.markup">2020-09-13T00:35:16.000000Z</property>
  <property name="kdenlive:original.meta.attr.com.apple.quicktime.make.markup">Apple</property>
  <property name="kdenlive:original.meta.attr.com.apple.quicktime.model.markup">iPhone XS</property>
  <property name="kdenlive:original.meta.attr.com.apple.quicktime.software.markup">13.6.1</property>
  <property name="kdenlive:original.meta.attr.com.apple.quicktime.creationdate.markup">2020-09-13T02:35:16+0200</property>
  <property name="kdenlive:original.seekable">1</property>
  <property name="kdenlive:original.width">1920</property>
  <property name="kdenlive:original.height">1080</property>
  <property name="kdenlive:original.meta.media.sample_aspect_num">1</property>
  <property name="kdenlive:original.meta.media.sample_aspect_den">1</property>
  <property name="kdenlive:original.aspect_ratio">1</property>
  <property name="kdenlive:original.audio_index">1</property>
  <property name="kdenlive:original.video_index">0</property>
  <property name="kdenlive:original.mute_on_pause">0</property>
  <property name="kdenlive:original.mlt_service">avformat-novalidate</property>
  <property name="kdenlive:original.kdenlive:folderid">-1</property>
  <property name="kdenlive:original.meta.media.frame_rate_num">43725</property>
  <property name="kdenlive:original.meta.media.frame_rate_den">1648</property>
  <property name="kdenlive:original.meta.media.colorspace">709</property>
  <property name="kdenlive:original.meta.media.color_trc">1</property>
  <property name="kdenlive:original.meta.media.width">1920</property>
  <property name="kdenlive:original.meta.media.height">1080</property>
  <property name="kdenlive:original.meta.media.color_range">mpeg</property>
  <property name="kdenlive:original.kdenlive:id">11</property>
  <property name="kdenlive:original.kdenlive:file_size">34236796</property>
  <property name="kdenlive:original.kdenlive:file_hash">307f0b99b5feb36159d7023dadca84e4</property>
  <property name="kdenlive:original.backup">1</property>
  <property name="global_feed">1</property>
  <property name="xml">was here</property>
  <property name="meta.media.nb_streams">2</property>
  <property name="meta.media.0.stream.type">video</property>
  <property name="meta.media.0.stream.frame_rate">29.97</property>
  <property name="meta.media.0.stream.sample_aspect_ratio">0</property>
  <property name="meta.media.0.codec.width">640</property>
  <property name="meta.media.0.codec.height">360</property>
  <property name="meta.media.0.codec.rotate">0</property>
  <property name="meta.media.0.codec.frame_rate">29.97</property>
  <property name="meta.media.0.codec.pix_fmt">yuv420p</property>
  <property name="meta.media.0.codec.sample_aspect_ratio">1</property>
  <property name="meta.media.0.codec.colorspace">601</property>
  <property name="meta.media.0.codec.name">h264</property>
  <property name="meta.media.0.codec.long_name">H.264 / AVC / MPEG-4 AVC / MPEG-4 part 10</property>
  <property name="meta.media.0.codec.bit_rate">5466773</property>
  <property name="meta.attr.0.stream.handler_name.markup">Core Media Video</property>
  <property name="meta.attr.0.stream.encoder.markup">Lavc58.106.100 h264_nvenc</property>
  <property name="meta.media.1.stream.type">audio</property>
  <property name="meta.media.1.codec.sample_fmt">fltp</property>
  <property name="meta.media.1.codec.sample_rate">44100</property>
  <property name="meta.media.1.codec.channels">2</property>
  <property name="meta.media.1.codec.name">aac</property>
  <property name="meta.media.1.codec.long_name">AAC (Advanced Audio Coding)</property>
  <property name="meta.media.1.codec.bit_rate">193206</property>
  <property name="meta.attr.1.stream.handler_name.markup">Core Media Audio</property>
  <property name="meta.attr.major_brand.markup">qt  </property>
  <property name="meta.attr.minor_version.markup">512</property>
  <property name="meta.attr.compatible_brands.markup">qt  </property>
  <property name="meta.attr.encoder.markup">Lavf58.58.100</property>
  <property name="meta.media.sample_aspect_num">1</property>
  <property name="meta.media.sample_aspect_den">1</property>
  <property name="meta.media.frame_rate_num">30000</property>
  <property name="meta.media.frame_rate_den">1001</property>
  <property name="meta.media.colorspace">601</property>
  <property name="meta.media.color_trc">2</property>
  <property name="meta.media.width">640</property>
  <property name="meta.media.height">360</property>
  <property name="meta.media.color_range">mpeg</property>
  <property name="meta.media.top_field_first">0</property>
  <property name="meta.media.progressive">1</property>
  <property name="set.test_audio">1</property>
  <property name="set.test_image">0</property>
 </producer>
 <producer id="producer86" in="00:00:00.000" out="00:00:06.960">
  <property name="length">175</property>
  <property name="eof">pause</property>
  <property name="resource">/home/chiller/.cache/kdenlive/proxy/fdebaa9e6f1f468e6d2b85dfcd9087cc.mov</property>
  <property name="audio_index">1</property>
  <property name="video_index">0</property>
  <property name="mute_on_pause">0</property>
  <property name="mlt_service">avformat-novalidate</property>
  <property name="seekable">1</property>
  <property name="aspect_ratio">1</property>
  <property name="kdenlive:clipname">BEA4D49F-3254-4C3D-80FD-253C7A64F3A3.mov</property>
  <property name="kdenlive:folderid">-1</property>
  <property name="kdenlive:id">16</property>
  <property name="kdenlive:file_size">7493482</property>
  <property name="kdenlive:file_hash">fdebaa9e6f1f468e6d2b85dfcd9087cc</property>
  <property name="kdenlive:proxy">/home/chiller/.cache/kdenlive/proxy/fdebaa9e6f1f468e6d2b85dfcd9087cc.mov</property>
  <property name="kdenlive:originalurl">mov/water/BEA4D49F-3254-4C3D-80FD-253C7A64F3A3.mov</property>
  <property name="kdenlive:original.mlt_type">producer</property>
  <property name="kdenlive:original.in">0</property>
  <property name="kdenlive:original.out">174</property>
  <property name="kdenlive:original.length">175</property>
  <property name="kdenlive:original.eof">pause</property>
  <property name="kdenlive:original.resource">mov/water/BEA4D49F-3254-4C3D-80FD-253C7A64F3A3.mov</property>
  <property name="kdenlive:original.meta.media.nb_streams">5</property>
  <property name="kdenlive:original.meta.media.0.stream.type">video</property>
  <property name="kdenlive:original.meta.media.0.stream.frame_rate">29.9715</property>
  <property name="kdenlive:original.meta.media.0.stream.sample_aspect_ratio">0</property>
  <property name="kdenlive:original.meta.media.0.codec.width">1920</property>
  <property name="kdenlive:original.meta.media.0.codec.height">1080</property>
  <property name="kdenlive:original.meta.media.0.codec.rotate">0</property>
  <property name="kdenlive:original.meta.media.0.codec.frame_rate">600</property>
  <property name="kdenlive:original.meta.media.0.codec.pix_fmt">yuv420p</property>
  <property name="kdenlive:original.meta.media.0.codec.sample_aspect_ratio">0</property>
  <property name="kdenlive:original.meta.media.0.codec.colorspace">709</property>
  <property name="kdenlive:original.meta.media.0.codec.color_trc">1</property>
  <property name="kdenlive:original.meta.media.0.codec.name">hevc</property>
  <property name="kdenlive:original.meta.media.0.codec.long_name">HEVC (High Efficiency Video Coding)</property>
  <property name="kdenlive:original.meta.media.0.codec.bit_rate">8425007</property>
  <property name="kdenlive:original.meta.attr.0.stream.creation_time.markup">2020-04-12T17:52:26.000000Z</property>
  <property name="kdenlive:original.meta.attr.0.stream.handler_name.markup">Core Media Video</property>
  <property name="kdenlive:original.meta.attr.0.stream.encoder.markup">HEVC</property>
  <property name="kdenlive:original.meta.media.1.stream.type">audio</property>
  <property name="kdenlive:original.meta.media.1.codec.sample_fmt">fltp</property>
  <property name="kdenlive:original.meta.media.1.codec.sample_rate">44100</property>
  <property name="kdenlive:original.meta.media.1.codec.channels">1</property>
  <property name="kdenlive:original.meta.media.1.codec.name">aac</property>
  <property name="kdenlive:original.meta.media.1.codec.long_name">AAC (Advanced Audio Coding)</property>
  <property name="kdenlive:original.meta.media.1.codec.bit_rate">99605</property>
  <property name="kdenlive:original.meta.attr.1.stream.creation_time.markup">2020-04-12T17:52:26.000000Z</property>
  <property name="kdenlive:original.meta.attr.1.stream.handler_name.markup">Core Media Audio</property>
  <property name="kdenlive:original.meta.attr.major_brand.markup">qt  </property>
  <property name="kdenlive:original.meta.attr.minor_version.markup">0</property>
  <property name="kdenlive:original.meta.attr.compatible_brands.markup">qt  </property>
  <property name="kdenlive:original.meta.attr.creation_time.markup">2020-04-12T17:52:26.000000Z</property>
  <property name="kdenlive:original.meta.attr.com.apple.quicktime.make.markup">Apple</property>
  <property name="kdenlive:original.meta.attr.com.apple.quicktime.model.markup">iPhone XS</property>
  <property name="kdenlive:original.meta.attr.com.apple.quicktime.software.markup">13.3.1</property>
  <property name="kdenlive:original.meta.attr.com.apple.quicktime.creationdate.markup">2020-04-12T19:52:24+0200</property>
  <property name="kdenlive:original.seekable">1</property>
  <property name="kdenlive:original.width">1920</property>
  <property name="kdenlive:original.height">1080</property>
  <property name="kdenlive:original.meta.media.sample_aspect_num">1</property>
  <property name="kdenlive:original.meta.media.sample_aspect_den">1</property>
  <property name="kdenlive:original.aspect_ratio">1</property>
  <property name="kdenlive:original.audio_index">1</property>
  <property name="kdenlive:original.video_index">0</property>
  <property name="kdenlive:original.mute_on_pause">0</property>
  <property name="kdenlive:original.mlt_service">avformat-novalidate</property>
  <property name="kdenlive:original.kdenlive:folderid">-1</property>
  <property name="kdenlive:original.meta.media.frame_rate_num">31500</property>
  <property name="kdenlive:original.meta.media.frame_rate_den">1051</property>
  <property name="kdenlive:original.meta.media.colorspace">709</property>
  <property name="kdenlive:original.meta.media.color_trc">1</property>
  <property name="kdenlive:original.meta.media.width">1920</property>
  <property name="kdenlive:original.meta.media.height">1080</property>
  <property name="kdenlive:original.meta.media.color_range">mpeg</property>
  <property name="kdenlive:original.kdenlive:id">16</property>
  <property name="kdenlive:original.kdenlive:file_size">7493482</property>
  <property name="kdenlive:original.kdenlive:file_hash">fdebaa9e6f1f468e6d2b85dfcd9087cc</property>
  <property name="kdenlive:original.backup">1</property>
  <property name="global_feed">1</property>
  <property name="xml">was here</property>
  <property name="meta.media.nb_streams">2</property>
  <property name="meta.media.0.stream.type">video</property>
  <property name="meta.media.0.stream.frame_rate">29.97</property>
  <property name="meta.media.0.stream.sample_aspect_ratio">0</property>
  <property name="meta.media.0.codec.width">640</property>
  <property name="meta.media.0.codec.height">360</property>
  <property name="meta.media.0.codec.rotate">0</property>
  <property name="meta.media.0.codec.frame_rate">29.97</property>
  <property name="meta.media.0.codec.pix_fmt">yuv420p</property>
  <property name="meta.media.0.codec.sample_aspect_ratio">1</property>
  <property name="meta.media.0.codec.colorspace">601</property>
  <property name="meta.media.0.codec.name">h264</property>
  <property name="meta.media.0.codec.long_name">H.264 / AVC / MPEG-4 AVC / MPEG-4 part 10</property>
  <property name="meta.media.0.codec.bit_rate">6071099</property>
  <property name="meta.attr.0.stream.handler_name.markup">Core Media Video</property>
  <property name="meta.attr.0.stream.encoder.markup">Lavc58.106.100 h264_nvenc</property>
  <property name="meta.media.1.stream.type">audio</property>
  <property name="meta.media.1.codec.sample_fmt">fltp</property>
  <property name="meta.media.1.codec.sample_rate">44100</property>
  <property name="meta.media.1.codec.channels">1</property>
  <property name="meta.media.1.codec.name">aac</property>
  <property name="meta.media.1.codec.long_name">AAC (Advanced Audio Coding)</property>
  <property name="meta.media.1.codec.bit_rate">99870</property>
  <property name="meta.attr.1.stream.handler_name.markup">Core Media Audio</property>
  <property name="meta.attr.major_brand.markup">qt  </property>
  <property name="meta.attr.minor_version.markup">512</property>
  <property name="meta.attr.compatible_brands.markup">qt  </property>
  <property name="meta.attr.encoder.markup">Lavf58.58.100</property>
  <property name="meta.media.sample_aspect_num">1</property>
  <property name="meta.media.sample_aspect_den">1</property>
  <property name="meta.media.frame_rate_num">30000</property>
  <property name="meta.media.frame_rate_den">1001</property>
  <property name="meta.media.colorspace">601</property>
  <property name="meta.media.color_trc">2</property>
  <property name="meta.media.width">640</property>
  <property name="meta.media.height">360</property>
  <property name="meta.media.color_range">mpeg</property>
  <property name="meta.media.top_field_first">0</property>
  <property name="meta.media.progressive">1</property>
  <property name="set.test_audio">1</property>
  <property name="set.test_image">0</property>
 </producer>
 <producer id="producer87" in="00:00:00.000" out="00:00:21.440">
  <property name="length">537</property>
  <property name="eof">pause</property>
  <property name="resource">/home/chiller/.cache/kdenlive/proxy/6189286fbaf8f776998cd0838a1378d1.mov</property>
  <property name="audio_index">1</property>
  <property name="video_index">0</property>
  <property name="mute_on_pause">0</property>
  <property name="mlt_service">avformat-novalidate</property>
  <property name="seekable">1</property>
  <property name="aspect_ratio">1</property>
  <property name="kdenlive:clipname">852D7D9B-A804-4BB7-A60D-D1046410C4EE.mov</property>
  <property name="kdenlive:folderid">-1</property>
  <property name="kdenlive:id">18</property>
  <property name="kdenlive:file_size">22802282</property>
  <property name="kdenlive:file_hash">6189286fbaf8f776998cd0838a1378d1</property>
  <property name="kdenlive:proxy">/home/chiller/.cache/kdenlive/proxy/6189286fbaf8f776998cd0838a1378d1.mov</property>
  <property name="kdenlive:originalurl">mov/night/852D7D9B-A804-4BB7-A60D-D1046410C4EE.mov</property>
  <property name="kdenlive:original.mlt_type">producer</property>
  <property name="kdenlive:original.in">0</property>
  <property name="kdenlive:original.out">536</property>
  <property name="kdenlive:original.length">537</property>
  <property name="kdenlive:original.eof">pause</property>
  <property name="kdenlive:original.resource">mov/night/852D7D9B-A804-4BB7-A60D-D1046410C4EE.mov</property>
  <property name="kdenlive:original.meta.media.nb_streams">5</property>
  <property name="kdenlive:original.meta.media.0.stream.type">video</property>
  <property name="kdenlive:original.meta.media.0.stream.frame_rate">29.048</property>
  <property name="kdenlive:original.meta.media.0.stream.sample_aspect_ratio">0</property>
  <property name="kdenlive:original.meta.media.0.codec.width">1920</property>
  <property name="kdenlive:original.meta.media.0.codec.height">1080</property>
  <property name="kdenlive:original.meta.media.0.codec.rotate">0</property>
  <property name="kdenlive:original.meta.media.0.codec.frame_rate">600</property>
  <property name="kdenlive:original.meta.media.0.codec.pix_fmt">yuv420p</property>
  <property name="kdenlive:original.meta.media.0.codec.sample_aspect_ratio">0</property>
  <property name="kdenlive:original.meta.media.0.codec.colorspace">709</property>
  <property name="kdenlive:original.meta.media.0.codec.color_trc">1</property>
  <property name="kdenlive:original.meta.media.0.codec.name">hevc</property>
  <property name="kdenlive:original.meta.media.0.codec.long_name">HEVC (High Efficiency Video Coding)</property>
  <property name="kdenlive:original.meta.media.0.codec.bit_rate">8277485</property>
  <property name="kdenlive:original.meta.attr.0.stream.creation_time.markup">2020-01-11T06:58:41.000000Z</property>
  <property name="kdenlive:original.meta.attr.0.stream.handler_name.markup">Core Media Video</property>
  <property name="kdenlive:original.meta.attr.0.stream.encoder.markup">HEVC</property>
  <property name="kdenlive:original.meta.media.1.stream.type">audio</property>
  <property name="kdenlive:original.meta.media.1.codec.sample_fmt">fltp</property>
  <property name="kdenlive:original.meta.media.1.codec.sample_rate">44100</property>
  <property name="kdenlive:original.meta.media.1.codec.channels">2</property>
  <property name="kdenlive:original.meta.media.1.codec.name">aac</property>
  <property name="kdenlive:original.meta.media.1.codec.long_name">AAC (Advanced Audio Coding)</property>
  <property name="kdenlive:original.meta.media.1.codec.bit_rate">181885</property>
  <property name="kdenlive:original.meta.attr.1.stream.creation_time.markup">2020-01-11T06:58:41.000000Z</property>
  <property name="kdenlive:original.meta.attr.1.stream.handler_name.markup">Core Media Audio</property>
  <property name="kdenlive:original.meta.attr.major_brand.markup">qt  </property>
  <property name="kdenlive:original.meta.attr.minor_version.markup">0</property>
  <property name="kdenlive:original.meta.attr.compatible_brands.markup">qt  </property>
  <property name="kdenlive:original.meta.attr.creation_time.markup">2020-01-11T06:58:41.000000Z</property>
  <property name="kdenlive:original.meta.attr.com.apple.quicktime.make.markup">Apple</property>
  <property name="kdenlive:original.meta.attr.com.apple.quicktime.model.markup">iPhone XS</property>
  <property name="kdenlive:original.meta.attr.com.apple.quicktime.software.markup">13.3</property>
  <property name="kdenlive:original.meta.attr.com.apple.quicktime.creationdate.markup">2020-01-11T07:58:40+0100</property>
  <property name="kdenlive:original.seekable">1</property>
  <property name="kdenlive:original.width">1920</property>
  <property name="kdenlive:original.height">1080</property>
  <property name="kdenlive:original.meta.media.sample_aspect_num">1</property>
  <property name="kdenlive:original.meta.media.sample_aspect_den">1</property>
  <property name="kdenlive:original.aspect_ratio">1</property>
  <property name="kdenlive:original.audio_index">1</property>
  <property name="kdenlive:original.video_index">0</property>
  <property name="kdenlive:original.mute_on_pause">0</property>
  <property name="kdenlive:original.mlt_service">avformat-novalidate</property>
  <property name="kdenlive:original.kdenlive:folderid">-1</property>
  <property name="kdenlive:original.meta.media.frame_rate_num">374400</property>
  <property name="kdenlive:original.meta.media.frame_rate_den">12889</property>
  <property name="kdenlive:original.meta.media.colorspace">709</property>
  <property name="kdenlive:original.meta.media.color_trc">1</property>
  <property name="kdenlive:original.meta.media.width">1920</property>
  <property name="kdenlive:original.meta.media.height">1080</property>
  <property name="kdenlive:original.meta.media.color_range">mpeg</property>
  <property name="kdenlive:original.kdenlive:id">18</property>
  <property name="kdenlive:original.kdenlive:file_size">22802282</property>
  <property name="kdenlive:original.kdenlive:file_hash">6189286fbaf8f776998cd0838a1378d1</property>
  <property name="kdenlive:original.backup">1</property>
  <property name="global_feed">1</property>
  <property name="xml">was here</property>
  <property name="meta.media.nb_streams">2</property>
  <property name="meta.media.0.stream.type">video</property>
  <property name="meta.media.0.stream.frame_rate">120</property>
  <property name="meta.media.0.stream.sample_aspect_ratio">0</property>
  <property name="meta.media.0.codec.width">640</property>
  <property name="meta.media.0.codec.height">360</property>
  <property name="meta.media.0.codec.rotate">0</property>
  <property name="meta.media.0.codec.frame_rate">120</property>
  <property name="meta.media.0.codec.pix_fmt">yuv420p</property>
  <property name="meta.media.0.codec.sample_aspect_ratio">1</property>
  <property name="meta.media.0.codec.colorspace">601</property>
  <property name="meta.media.0.codec.name">h264</property>
  <property name="meta.media.0.codec.long_name">H.264 / AVC / MPEG-4 AVC / MPEG-4 part 10</property>
  <property name="meta.media.0.codec.bit_rate">16013334</property>
  <property name="meta.attr.0.stream.handler_name.markup">Core Media Video</property>
  <property name="meta.attr.0.stream.encoder.markup">Lavc58.106.100 h264_nvenc</property>
  <property name="meta.media.1.stream.type">audio</property>
  <property name="meta.media.1.codec.sample_fmt">fltp</property>
  <property name="meta.media.1.codec.sample_rate">44100</property>
  <property name="meta.media.1.codec.channels">2</property>
  <property name="meta.media.1.codec.name">aac</property>
  <property name="meta.media.1.codec.long_name">AAC (Advanced Audio Coding)</property>
  <property name="meta.media.1.codec.bit_rate">182217</property>
  <property name="meta.attr.1.stream.handler_name.markup">Core Media Audio</property>
  <property name="meta.attr.major_brand.markup">qt  </property>
  <property name="meta.attr.minor_version.markup">512</property>
  <property name="meta.attr.compatible_brands.markup">qt  </property>
  <property name="meta.attr.encoder.markup">Lavf58.58.100</property>
  <property name="meta.media.sample_aspect_num">1</property>
  <property name="meta.media.sample_aspect_den">1</property>
  <property name="meta.media.frame_rate_num">120</property>
  <property name="meta.media.frame_rate_den">1</property>
  <property name="meta.media.colorspace">601</property>
  <property name="meta.media.color_trc">2</property>
  <property name="meta.media.width">640</property>
  <property name="meta.media.height">360</property>
  <property name="meta.media.color_range">mpeg</property>
  <property name="meta.media.top_field_first">0</property>
  <property name="meta.media.progressive">1</property>
  <property name="set.test_audio">1</property>
  <property name="set.test_image">0</property>
 </producer>
 <producer id="producer88" in="00:00:00.000" out="00:00:03.960">
  <property name="length">100</property>
  <property name="eof">pause</property>
  <property name="resource">/home/chiller/.cache/kdenlive/proxy/71814888dd13bc8d27fb450f64486fa1.mov</property>
  <property name="audio_index">1</property>
  <property name="video_index">0</property>
  <property name="mute_on_pause">0</property>
  <property name="mlt_service">avformat-novalidate</property>
  <property name="seekable">1</property>
  <property name="aspect_ratio">1</property>
  <property name="kdenlive:clipname">starbucks.mov</property>
  <property name="kdenlive:folderid">-1</property>
  <property name="kdenlive:id">17</property>
  <property name="kdenlive:file_size">4025926</property>
  <property name="kdenlive:file_hash">71814888dd13bc8d27fb450f64486fa1</property>
  <property name="kdenlive:proxy">/home/chiller/.cache/kdenlive/proxy/71814888dd13bc8d27fb450f64486fa1.mov</property>
  <property name="kdenlive:originalurl">mov/night/starbucks.mov</property>
  <property name="kdenlive:original.mlt_type">producer</property>
  <property name="kdenlive:original.in">0</property>
  <property name="kdenlive:original.out">99</property>
  <property name="kdenlive:original.length">100</property>
  <property name="kdenlive:original.eof">pause</property>
  <property name="kdenlive:original.resource">mov/night/starbucks.mov</property>
  <property name="kdenlive:original.meta.media.nb_streams">5</property>
  <property name="kdenlive:original.meta.media.0.stream.type">video</property>
  <property name="kdenlive:original.meta.media.0.stream.frame_rate">29.975</property>
  <property name="kdenlive:original.meta.media.0.stream.sample_aspect_ratio">0</property>
  <property name="kdenlive:original.meta.media.0.codec.width">1920</property>
  <property name="kdenlive:original.meta.media.0.codec.height">1080</property>
  <property name="kdenlive:original.meta.media.0.codec.rotate">0</property>
  <property name="kdenlive:original.meta.media.0.codec.frame_rate">600</property>
  <property name="kdenlive:original.meta.media.0.codec.pix_fmt">yuv420p</property>
  <property name="kdenlive:original.meta.media.0.codec.sample_aspect_ratio">0</property>
  <property name="kdenlive:original.meta.media.0.codec.colorspace">709</property>
  <property name="kdenlive:original.meta.media.0.codec.color_trc">1</property>
  <property name="kdenlive:original.meta.media.0.codec.name">hevc</property>
  <property name="kdenlive:original.meta.media.0.codec.long_name">HEVC (High Efficiency Video Coding)</property>
  <property name="kdenlive:original.meta.media.0.codec.bit_rate">7816048</property>
  <property name="kdenlive:original.meta.attr.0.stream.creation_time.markup">2020-01-15T16:57:44.000000Z</property>
  <property name="kdenlive:original.meta.attr.0.stream.handler_name.markup">Core Media Video</property>
  <property name="kdenlive:original.meta.attr.0.stream.encoder.markup">HEVC</property>
  <property name="kdenlive:original.meta.media.1.stream.type">audio</property>
  <property name="kdenlive:original.meta.media.1.codec.sample_fmt">fltp</property>
  <property name="kdenlive:original.meta.media.1.codec.sample_rate">44100</property>
  <property name="kdenlive:original.meta.media.1.codec.channels">2</property>
  <property name="kdenlive:original.meta.media.1.codec.name">aac</property>
  <property name="kdenlive:original.meta.media.1.codec.long_name">AAC (Advanced Audio Coding)</property>
  <property name="kdenlive:original.meta.media.1.codec.bit_rate">189765</property>
  <property name="kdenlive:original.meta.attr.1.stream.creation_time.markup">2020-01-15T16:57:44.000000Z</property>
  <property name="kdenlive:original.meta.attr.1.stream.handler_name.markup">Core Media Audio</property>
  <property name="kdenlive:original.meta.attr.major_brand.markup">qt  </property>
  <property name="kdenlive:original.meta.attr.minor_version.markup">0</property>
  <property name="kdenlive:original.meta.attr.compatible_brands.markup">qt  </property>
  <property name="kdenlive:original.meta.attr.creation_time.markup">2020-01-15T16:57:44.000000Z</property>
  <property name="kdenlive:original.meta.attr.com.apple.quicktime.make.markup">Apple</property>
  <property name="kdenlive:original.meta.attr.com.apple.quicktime.model.markup">iPhone XS</property>
  <property name="kdenlive:original.meta.attr.com.apple.quicktime.software.markup">13.3</property>
  <property name="kdenlive:original.meta.attr.com.apple.quicktime.creationdate.markup">2020-01-15T17:57:44+0100</property>
  <property name="kdenlive:original.seekable">1</property>
  <property name="kdenlive:original.width">1920</property>
  <property name="kdenlive:original.height">1080</property>
  <property name="kdenlive:original.meta.media.sample_aspect_num">1</property>
  <property name="kdenlive:original.meta.media.sample_aspect_den">1</property>
  <property name="kdenlive:original.aspect_ratio">1</property>
  <property name="kdenlive:original.audio_index">1</property>
  <property name="kdenlive:original.video_index">0</property>
  <property name="kdenlive:original.mute_on_pause">0</property>
  <property name="kdenlive:original.mlt_service">avformat-novalidate</property>
  <property name="kdenlive:original.kdenlive:folderid">-1</property>
  <property name="kdenlive:original.meta.media.frame_rate_num">36000</property>
  <property name="kdenlive:original.meta.media.frame_rate_den">1201</property>
  <property name="kdenlive:original.meta.media.colorspace">709</property>
  <property name="kdenlive:original.meta.media.color_trc">1</property>
  <property name="kdenlive:original.meta.media.width">1920</property>
  <property name="kdenlive:original.meta.media.height">1080</property>
  <property name="kdenlive:original.meta.media.color_range">mpeg</property>
  <property name="kdenlive:original.kdenlive:id">17</property>
  <property name="kdenlive:original.kdenlive:file_size">4025926</property>
  <property name="kdenlive:original.kdenlive:file_hash">71814888dd13bc8d27fb450f64486fa1</property>
  <property name="kdenlive:original.backup">1</property>
  <property name="global_feed">1</property>
  <property name="xml">was here</property>
  <property name="meta.media.nb_streams">2</property>
  <property name="meta.media.0.stream.type">video</property>
  <property name="meta.media.0.stream.frame_rate">29.97</property>
  <property name="meta.media.0.stream.sample_aspect_ratio">0</property>
  <property name="meta.media.0.codec.width">640</property>
  <property name="meta.media.0.codec.height">360</property>
  <property name="meta.media.0.codec.rotate">0</property>
  <property name="meta.media.0.codec.frame_rate">29.97</property>
  <property name="meta.media.0.codec.pix_fmt">yuv420p</property>
  <property name="meta.media.0.codec.sample_aspect_ratio">1</property>
  <property name="meta.media.0.codec.colorspace">601</property>
  <property name="meta.media.0.codec.name">h264</property>
  <property name="meta.media.0.codec.long_name">H.264 / AVC / MPEG-4 AVC / MPEG-4 part 10</property>
  <property name="meta.media.0.codec.bit_rate">6414947</property>
  <property name="meta.attr.0.stream.handler_name.markup">Core Media Video</property>
  <property name="meta.attr.0.stream.encoder.markup">Lavc58.106.100 h264_nvenc</property>
  <property name="meta.media.1.stream.type">audio</property>
  <property name="meta.media.1.codec.sample_fmt">fltp</property>
  <property name="meta.media.1.codec.sample_rate">44100</property>
  <property name="meta.media.1.codec.channels">2</property>
  <property name="meta.media.1.codec.name">aac</property>
  <property name="meta.media.1.codec.long_name">AAC (Advanced Audio Coding)</property>
  <property name="meta.media.1.codec.bit_rate">191220</property>
  <property name="meta.attr.1.stream.handler_name.markup">Core Media Audio</property>
  <property name="meta.attr.major_brand.markup">qt  </property>
  <property name="meta.attr.minor_version.markup">512</property>
  <property name="meta.attr.compatible_brands.markup">qt  </property>
  <property name="meta.attr.encoder.markup">Lavf58.58.100</property>
  <property name="meta.media.sample_aspect_num">1</property>
  <property name="meta.media.sample_aspect_den">1</property>
  <property name="meta.media.frame_rate_num">30000</property>
  <property name="meta.media.frame_rate_den">1001</property>
  <property name="meta.media.colorspace">601</property>
  <property name="meta.media.color_trc">2</property>
  <property name="meta.media.width">640</property>
  <property name="meta.media.height">360</property>
  <property name="meta.media.color_range">mpeg</property>
  <property name="meta.media.top_field_first">0</property>
  <property name="meta.media.progressive">1</property>
  <property name="set.test_audio">1</property>
  <property name="set.test_image">0</property>
 </producer>
 <producer id="producer89" in="00:00:00.000" out="00:00:05.840">
  <property name="length">147</property>
  <property name="eof">pause</property>
  <property name="resource">/home/chiller/.cache/kdenlive/proxy/b7f47642bd5be605d52ddc59221ae641.mov</property>
  <property name="audio_index">1</property>
  <property name="video_index">0</property>
  <property name="mute_on_pause">0</property>
  <property name="mlt_service">avformat-novalidate</property>
  <property name="seekable">1</property>
  <property name="aspect_ratio">1</property>
  <property name="kdenlive:clipname">015F52D4-57A8-4F0F-AD02-62F5B535F4BE.mov</property>
  <property name="kdenlive:folderid">-1</property>
  <property name="kdenlive:id">20</property>
  <property name="kdenlive:file_size">7650458</property>
  <property name="kdenlive:file_hash">b7f47642bd5be605d52ddc59221ae641</property>
  <property name="kdenlive:proxy">/home/chiller/.cache/kdenlive/proxy/b7f47642bd5be605d52ddc59221ae641.mov</property>
  <property name="kdenlive:originalurl">mov/outdoor/015F52D4-57A8-4F0F-AD02-62F5B535F4BE.mov</property>
  <property name="kdenlive:original.mlt_type">producer</property>
  <property name="kdenlive:original.in">0</property>
  <property name="kdenlive:original.out">146</property>
  <property name="kdenlive:original.length">147</property>
  <property name="kdenlive:original.eof">pause</property>
  <property name="kdenlive:original.resource">mov/outdoor/015F52D4-57A8-4F0F-AD02-62F5B535F4BE.mov</property>
  <property name="kdenlive:original.meta.media.nb_streams">5</property>
  <property name="kdenlive:original.meta.media.0.stream.type">video</property>
  <property name="kdenlive:original.meta.media.0.stream.frame_rate">29.9745</property>
  <property name="kdenlive:original.meta.media.0.stream.sample_aspect_ratio">0</property>
  <property name="kdenlive:original.meta.media.0.codec.width">1920</property>
  <property name="kdenlive:original.meta.media.0.codec.height">1080</property>
  <property name="kdenlive:original.meta.media.0.codec.rotate">0</property>
  <property name="kdenlive:original.meta.media.0.codec.frame_rate">600</property>
  <property name="kdenlive:original.meta.media.0.codec.pix_fmt">yuv420p</property>
  <property name="kdenlive:original.meta.media.0.codec.sample_aspect_ratio">0</property>
  <property name="kdenlive:original.meta.media.0.codec.colorspace">709</property>
  <property name="kdenlive:original.meta.media.0.codec.color_trc">1</property>
  <property name="kdenlive:original.meta.media.0.codec.name">hevc</property>
  <property name="kdenlive:original.meta.media.0.codec.long_name">HEVC (High Efficiency Video Coding)</property>
  <property name="kdenlive:original.meta.media.0.codec.bit_rate">10216096</property>
  <property name="kdenlive:original.meta.attr.0.stream.creation_time.markup">2020-01-16T20:32:04.000000Z</property>
  <property name="kdenlive:original.meta.attr.0.stream.handler_name.markup">Core Media Video</property>
  <property name="kdenlive:original.meta.attr.0.stream.encoder.markup">HEVC</property>
  <property name="kdenlive:original.meta.media.1.stream.type">audio</property>
  <property name="kdenlive:original.meta.media.1.codec.sample_fmt">fltp</property>
  <property name="kdenlive:original.meta.media.1.codec.sample_rate">44100</property>
  <property name="kdenlive:original.meta.media.1.codec.channels">2</property>
  <property name="kdenlive:original.meta.media.1.codec.name">aac</property>
  <property name="kdenlive:original.meta.media.1.codec.long_name">AAC (Advanced Audio Coding)</property>
  <property name="kdenlive:original.meta.media.1.codec.bit_rate">173942</property>
  <property name="kdenlive:original.meta.attr.1.stream.creation_time.markup">2020-01-16T20:32:04.000000Z</property>
  <property name="kdenlive:original.meta.attr.1.stream.handler_name.markup">Core Media Audio</property>
  <property name="kdenlive:original.meta.attr.major_brand.markup">qt  </property>
  <property name="kdenlive:original.meta.attr.minor_version.markup">0</property>
  <property name="kdenlive:original.meta.attr.compatible_brands.markup">qt  </property>
  <property name="kdenlive:original.meta.attr.creation_time.markup">2020-01-16T20:32:04.000000Z</property>
  <property name="kdenlive:original.meta.attr.com.apple.quicktime.make.markup">Apple</property>
  <property name="kdenlive:original.meta.attr.com.apple.quicktime.model.markup">iPhone XS</property>
  <property name="kdenlive:original.meta.attr.com.apple.quicktime.software.markup">13.3</property>
  <property name="kdenlive:original.meta.attr.com.apple.quicktime.creationdate.markup">2020-01-16T21:32:04+0100</property>
  <property name="kdenlive:original.seekable">1</property>
  <property name="kdenlive:original.width">1920</property>
  <property name="kdenlive:original.height">1080</property>
  <property name="kdenlive:original.meta.media.sample_aspect_num">1</property>
  <property name="kdenlive:original.meta.media.sample_aspect_den">1</property>
  <property name="kdenlive:original.aspect_ratio">1</property>
  <property name="kdenlive:original.audio_index">1</property>
  <property name="kdenlive:original.video_index">0</property>
  <property name="kdenlive:original.mute_on_pause">0</property>
  <property name="kdenlive:original.mlt_service">avformat-novalidate</property>
  <property name="kdenlive:original.kdenlive:folderid">-1</property>
  <property name="kdenlive:original.meta.media.frame_rate_num">105600</property>
  <property name="kdenlive:original.meta.media.frame_rate_den">3523</property>
  <property name="kdenlive:original.meta.media.colorspace">709</property>
  <property name="kdenlive:original.meta.media.color_trc">1</property>
  <property name="kdenlive:original.meta.media.width">1920</property>
  <property name="kdenlive:original.meta.media.height">1080</property>
  <property name="kdenlive:original.meta.media.color_range">mpeg</property>
  <property name="kdenlive:original.kdenlive:id">20</property>
  <property name="kdenlive:original.kdenlive:file_size">7650458</property>
  <property name="kdenlive:original.kdenlive:file_hash">b7f47642bd5be605d52ddc59221ae641</property>
  <property name="kdenlive:original.backup">1</property>
  <property name="global_feed">1</property>
  <property name="xml">was here</property>
  <property name="meta.media.nb_streams">2</property>
  <property name="meta.media.0.stream.type">video</property>
  <property name="meta.media.0.stream.frame_rate">29.97</property>
  <property name="meta.media.0.stream.sample_aspect_ratio">0</property>
  <property name="meta.media.0.codec.width">640</property>
  <property name="meta.media.0.codec.height">360</property>
  <property name="meta.media.0.codec.rotate">0</property>
  <property name="meta.media.0.codec.frame_rate">29.97</property>
  <property name="meta.media.0.codec.pix_fmt">yuv420p</property>
  <property name="meta.media.0.codec.sample_aspect_ratio">1</property>
  <property name="meta.media.0.codec.colorspace">601</property>
  <property name="meta.media.0.codec.name">h264</property>
  <property name="meta.media.0.codec.long_name">H.264 / AVC / MPEG-4 AVC / MPEG-4 part 10</property>
  <property name="meta.media.0.codec.bit_rate">7814239</property>
  <property name="meta.attr.0.stream.handler_name.markup">Core Media Video</property>
  <property name="meta.attr.0.stream.encoder.markup">Lavc58.106.100 h264_nvenc</property>
  <property name="meta.media.1.stream.type">audio</property>
  <property name="meta.media.1.codec.sample_fmt">fltp</property>
  <property name="meta.media.1.codec.sample_rate">44100</property>
  <property name="meta.media.1.codec.channels">2</property>
  <property name="meta.media.1.codec.name">aac</property>
  <property name="meta.media.1.codec.long_name">AAC (Advanced Audio Coding)</property>
  <property name="meta.media.1.codec.bit_rate">174265</property>
  <property name="meta.attr.1.stream.handler_name.markup">Core Media Audio</property>
  <property name="meta.attr.major_brand.markup">qt  </property>
  <property name="meta.attr.minor_version.markup">512</property>
  <property name="meta.attr.compatible_brands.markup">qt  </property>
  <property name="meta.attr.encoder.markup">Lavf58.58.100</property>
  <property name="meta.media.sample_aspect_num">1</property>
  <property name="meta.media.sample_aspect_den">1</property>
  <property name="meta.media.frame_rate_num">30000</property>
  <property name="meta.media.frame_rate_den">1001</property>
  <property name="meta.media.colorspace">601</property>
  <property name="meta.media.color_trc">2</property>
  <property name="meta.media.width">640</property>
  <property name="meta.media.height">360</property>
  <property name="meta.media.color_range">mpeg</property>
  <property name="meta.media.top_field_first">0</property>
  <property name="meta.media.progressive">1</property>
  <property name="set.test_audio">1</property>
  <property name="set.test_image">0</property>
 </producer>
 <producer id="producer90" in="00:00:00.000" out="00:00:19.400">
  <property name="length">486</property>
  <property name="eof">pause</property>
  <property name="resource">/home/chiller/.cache/kdenlive/proxy/10ed6899b4aff20bfe1498d73d916fd1.mov</property>
  <property name="audio_index">1</property>
  <property name="video_index">0</property>
  <property name="mute_on_pause">0</property>
  <property name="mlt_service">avformat-novalidate</property>
  <property name="seekable">1</property>
  <property name="aspect_ratio">1</property>
  <property name="kdenlive:clipname">BF4316B2-5D95-4667-9A74-CD86FE5CEBF5.mov</property>
  <property name="kdenlive:folderid">-1</property>
  <property name="kdenlive:id">26</property>
  <property name="kdenlive:file_size">27499434</property>
  <property name="kdenlive:file_hash">10ed6899b4aff20bfe1498d73d916fd1</property>
  <property name="kdenlive:proxy">/home/chiller/.cache/kdenlive/proxy/10ed6899b4aff20bfe1498d73d916fd1.mov</property>
  <property name="kdenlive:originalurl">mov/party/BF4316B2-5D95-4667-9A74-CD86FE5CEBF5.mov</property>
  <property name="kdenlive:original.mlt_type">producer</property>
  <property name="kdenlive:original.in">0</property>
  <property name="kdenlive:original.out">485</property>
  <property name="kdenlive:original.length">486</property>
  <property name="kdenlive:original.eof">pause</property>
  <property name="kdenlive:original.resource">mov/party/BF4316B2-5D95-4667-9A74-CD86FE5CEBF5.mov</property>
  <property name="kdenlive:original.meta.media.nb_streams">5</property>
  <property name="kdenlive:original.meta.media.0.stream.type">video</property>
  <property name="kdenlive:original.meta.media.0.stream.frame_rate">29.9743</property>
  <property name="kdenlive:original.meta.media.0.stream.sample_aspect_ratio">0</property>
  <property name="kdenlive:original.meta.media.0.codec.width">1920</property>
  <property name="kdenlive:original.meta.media.0.codec.height">1080</property>
  <property name="kdenlive:original.meta.media.0.codec.rotate">0</property>
  <property name="kdenlive:original.meta.media.0.codec.frame_rate">600</property>
  <property name="kdenlive:original.meta.media.0.codec.pix_fmt">yuv420p</property>
  <property name="kdenlive:original.meta.media.0.codec.sample_aspect_ratio">0</property>
  <property name="kdenlive:original.meta.media.0.codec.colorspace">709</property>
  <property name="kdenlive:original.meta.media.0.codec.color_trc">1</property>
  <property name="kdenlive:original.meta.media.0.codec.name">hevc</property>
  <property name="kdenlive:original.meta.media.0.codec.long_name">HEVC (High Efficiency Video Coding)</property>
  <property name="kdenlive:original.meta.media.0.codec.bit_rate">11090609</property>
  <property name="kdenlive:original.meta.attr.0.stream.creation_time.markup">2020-09-13T00:30:12.000000Z</property>
  <property name="kdenlive:original.meta.attr.0.stream.handler_name.markup">Core Media Video</property>
  <property name="kdenlive:original.meta.attr.0.stream.encoder.markup">HEVC</property>
  <property name="kdenlive:original.meta.media.1.stream.type">audio</property>
  <property name="kdenlive:original.meta.media.1.codec.sample_fmt">fltp</property>
  <property name="kdenlive:original.meta.media.1.codec.sample_rate">44100</property>
  <property name="kdenlive:original.meta.media.1.codec.channels">2</property>
  <property name="kdenlive:original.meta.media.1.codec.name">aac</property>
  <property name="kdenlive:original.meta.media.1.codec.long_name">AAC (Advanced Audio Coding)</property>
  <property name="kdenlive:original.meta.media.1.codec.bit_rate">186767</property>
  <property name="kdenlive:original.meta.attr.1.stream.creation_time.markup">2020-09-13T00:30:12.000000Z</property>
  <property name="kdenlive:original.meta.attr.1.stream.handler_name.markup">Core Media Audio</property>
  <property name="kdenlive:original.meta.attr.major_brand.markup">qt  </property>
  <property name="kdenlive:original.meta.attr.minor_version.markup">0</property>
  <property name="kdenlive:original.meta.attr.compatible_brands.markup">qt  </property>
  <property name="kdenlive:original.meta.attr.creation_time.markup">2020-09-13T00:30:12.000000Z</property>
  <property name="kdenlive:original.meta.attr.com.apple.quicktime.make.markup">Apple</property>
  <property name="kdenlive:original.meta.attr.com.apple.quicktime.model.markup">iPhone XS</property>
  <property name="kdenlive:original.meta.attr.com.apple.quicktime.software.markup">13.6.1</property>
  <property name="kdenlive:original.meta.attr.com.apple.quicktime.creationdate.markup">2020-09-13T02:30:11+0200</property>
  <property name="kdenlive:original.seekable">1</property>
  <property name="kdenlive:original.width">1920</property>
  <property name="kdenlive:original.height">1080</property>
  <property name="kdenlive:original.meta.media.sample_aspect_num">1</property>
  <property name="kdenlive:original.meta.media.sample_aspect_den">1</property>
  <property name="kdenlive:original.aspect_ratio">1</property>
  <property name="kdenlive:original.audio_index">1</property>
  <property name="kdenlive:original.video_index">0</property>
  <property name="kdenlive:original.mute_on_pause">0</property>
  <property name="kdenlive:original.mlt_service">avformat-novalidate</property>
  <property name="kdenlive:original.kdenlive:folderid">-1</property>
  <property name="kdenlive:original.meta.media.frame_rate_num">11660</property>
  <property name="kdenlive:original.meta.media.frame_rate_den">389</property>
  <property name="kdenlive:original.meta.media.colorspace">709</property>
  <property name="kdenlive:original.meta.media.color_trc">1</property>
  <property name="kdenlive:original.meta.media.width">1920</property>
  <property name="kdenlive:original.meta.media.height">1080</property>
  <property name="kdenlive:original.meta.media.color_range">mpeg</property>
  <property name="kdenlive:original.kdenlive:id">26</property>
  <property name="kdenlive:original.kdenlive:file_size">27499434</property>
  <property name="kdenlive:original.kdenlive:file_hash">10ed6899b4aff20bfe1498d73d916fd1</property>
  <property name="kdenlive:original.backup">1</property>
  <property name="global_feed">1</property>
  <property name="xml">was here</property>
  <property name="meta.media.nb_streams">2</property>
  <property name="meta.media.0.stream.type">video</property>
  <property name="meta.media.0.stream.frame_rate">29.97</property>
  <property name="meta.media.0.stream.sample_aspect_ratio">0</property>
  <property name="meta.media.0.codec.width">640</property>
  <property name="meta.media.0.codec.height">360</property>
  <property name="meta.media.0.codec.rotate">0</property>
  <property name="meta.media.0.codec.frame_rate">29.97</property>
  <property name="meta.media.0.codec.pix_fmt">yuv420p</property>
  <property name="meta.media.0.codec.sample_aspect_ratio">1</property>
  <property name="meta.media.0.codec.colorspace">601</property>
  <property name="meta.media.0.codec.name">h264</property>
  <property name="meta.media.0.codec.long_name">H.264 / AVC / MPEG-4 AVC / MPEG-4 part 10</property>
  <property name="meta.media.0.codec.bit_rate">5730628</property>
  <property name="meta.attr.0.stream.handler_name.markup">Core Media Video</property>
  <property name="meta.attr.0.stream.encoder.markup">Lavc58.106.100 h264_nvenc</property>
  <property name="meta.media.1.stream.type">audio</property>
  <property name="meta.media.1.codec.sample_fmt">fltp</property>
  <property name="meta.media.1.codec.sample_rate">44100</property>
  <property name="meta.media.1.codec.channels">2</property>
  <property name="meta.media.1.codec.name">aac</property>
  <property name="meta.media.1.codec.long_name">AAC (Advanced Audio Coding)</property>
  <property name="meta.media.1.codec.bit_rate">186946</property>
  <property name="meta.attr.1.stream.handler_name.markup">Core Media Audio</property>
  <property name="meta.attr.major_brand.markup">qt  </property>
  <property name="meta.attr.minor_version.markup">512</property>
  <property name="meta.attr.compatible_brands.markup">qt  </property>
  <property name="meta.attr.encoder.markup">Lavf58.58.100</property>
  <property name="meta.media.sample_aspect_num">1</property>
  <property name="meta.media.sample_aspect_den">1</property>
  <property name="meta.media.frame_rate_num">30000</property>
  <property name="meta.media.frame_rate_den">1001</property>
  <property name="meta.media.colorspace">601</property>
  <property name="meta.media.color_trc">2</property>
  <property name="meta.media.width">640</property>
  <property name="meta.media.height">360</property>
  <property name="meta.media.color_range">mpeg</property>
  <property name="meta.media.top_field_first">0</property>
  <property name="meta.media.progressive">1</property>
  <property name="set.test_audio">1</property>
  <property name="set.test_image">0</property>
 </producer>
 <producer id="producer91" in="00:00:00.000" out="00:00:22.680">
  <property name="length">568</property>
  <property name="eof">pause</property>
  <property name="resource">/home/chiller/.cache/kdenlive/proxy/c98bfa6754a1e293b3f3e8264ff62cde.mov</property>
  <property name="audio_index">1</property>
  <property name="video_index">0</property>
  <property name="mute_on_pause">0</property>
  <property name="mlt_service">avformat-novalidate</property>
  <property name="seekable">1</property>
  <property name="aspect_ratio">1</property>
  <property name="kdenlive:clipname">river_dm1.mov</property>
  <property name="kdenlive:folderid">-1</property>
  <property name="kdenlive:id">49</property>
  <property name="kdenlive:file_size">22227646</property>
  <property name="kdenlive:file_hash">c98bfa6754a1e293b3f3e8264ff62cde</property>
  <property name="kdenlive:proxy">/home/chiller/.cache/kdenlive/proxy/c98bfa6754a1e293b3f3e8264ff62cde.mov</property>
  <property name="kdenlive:originalurl">mov/water/river_dm1.mov</property>
  <property name="kdenlive:original.mlt_type">producer</property>
  <property name="kdenlive:original.in">0</property>
  <property name="kdenlive:original.out">567</property>
  <property name="kdenlive:original.length">568</property>
  <property name="kdenlive:original.eof">pause</property>
  <property name="kdenlive:original.resource">mov/water/river_dm1.mov</property>
  <property name="kdenlive:original.meta.media.nb_streams">5</property>
  <property name="kdenlive:original.meta.media.0.stream.type">video</property>
  <property name="kdenlive:original.meta.media.0.stream.frame_rate">29.9736</property>
  <property name="kdenlive:original.meta.media.0.stream.sample_aspect_ratio">0</property>
  <property name="kdenlive:original.meta.media.0.codec.width">1920</property>
  <property name="kdenlive:original.meta.media.0.codec.height">1080</property>
  <property name="kdenlive:original.meta.media.0.codec.rotate">0</property>
  <property name="kdenlive:original.meta.media.0.codec.frame_rate">600</property>
  <property name="kdenlive:original.meta.media.0.codec.pix_fmt">yuv420p</property>
  <property name="kdenlive:original.meta.media.0.codec.sample_aspect_ratio">0</property>
  <property name="kdenlive:original.meta.media.0.codec.colorspace">709</property>
  <property name="kdenlive:original.meta.media.0.codec.color_trc">1</property>
  <property name="kdenlive:original.meta.media.0.codec.name">hevc</property>
  <property name="kdenlive:original.meta.media.0.codec.long_name">HEVC (High Efficiency Video Coding)</property>
  <property name="kdenlive:original.meta.media.0.codec.bit_rate">7696020</property>
  <property name="kdenlive:original.meta.attr.0.stream.creation_time.markup">2020-04-27T17:31:45.000000Z</property>
  <property name="kdenlive:original.meta.attr.0.stream.handler_name.markup">Core Media Video</property>
  <property name="kdenlive:original.meta.attr.0.stream.encoder.markup">HEVC</property>
  <property name="kdenlive:original.meta.media.1.stream.type">audio</property>
  <property name="kdenlive:original.meta.media.1.codec.sample_fmt">fltp</property>
  <property name="kdenlive:original.meta.media.1.codec.sample_rate">44100</property>
  <property name="kdenlive:original.meta.media.1.codec.channels">1</property>
  <property name="kdenlive:original.meta.media.1.codec.name">aac</property>
  <property name="kdenlive:original.meta.media.1.codec.long_name">AAC (Advanced Audio Coding)</property>
  <property name="kdenlive:original.meta.media.1.codec.bit_rate">98022</property>
  <property name="kdenlive:original.meta.attr.1.stream.creation_time.markup">2020-04-27T17:31:45.000000Z</property>
  <property name="kdenlive:original.meta.attr.1.stream.handler_name.markup">Core Media Audio</property>
  <property name="kdenlive:original.meta.attr.major_brand.markup">qt  </property>
  <property name="kdenlive:original.meta.attr.minor_version.markup">0</property>
  <property name="kdenlive:original.meta.attr.compatible_brands.markup">qt  </property>
  <property name="kdenlive:original.meta.attr.creation_time.markup">2020-04-27T17:31:45.000000Z</property>
  <property name="kdenlive:original.meta.attr.com.apple.quicktime.make.markup">Apple</property>
  <property name="kdenlive:original.meta.attr.com.apple.quicktime.model.markup">iPhone XS</property>
  <property name="kdenlive:original.meta.attr.com.apple.quicktime.software.markup">13.3.1</property>
  <property name="kdenlive:original.meta.attr.com.apple.quicktime.creationdate.markup">2020-04-27T19:31:45+0200</property>
  <property name="kdenlive:original.seekable">1</property>
  <property name="kdenlive:original.width">1920</property>
  <property name="kdenlive:original.height">1080</property>
  <property name="kdenlive:original.meta.media.sample_aspect_num">1</property>
  <property name="kdenlive:original.meta.media.sample_aspect_den">1</property>
  <property name="kdenlive:original.aspect_ratio">1</property>
  <property name="kdenlive:original.audio_index">1</property>
  <property name="kdenlive:original.video_index">0</property>
  <property name="kdenlive:original.mute_on_pause">0</property>
  <property name="kdenlive:original.mlt_service">avformat-novalidate</property>
  <property name="kdenlive:original.kdenlive:folderid">-1</property>
  <property name="kdenlive:original.meta.media.frame_rate_num">17025</property>
  <property name="kdenlive:original.meta.media.frame_rate_den">568</property>
  <property name="kdenlive:original.meta.media.colorspace">709</property>
  <property name="kdenlive:original.meta.media.color_trc">1</property>
  <property name="kdenlive:original.meta.media.width">1920</property>
  <property name="kdenlive:original.meta.media.height">1080</property>
  <property name="kdenlive:original.meta.media.color_range">mpeg</property>
  <property name="kdenlive:original.kdenlive:id">49</property>
  <property name="kdenlive:original.kdenlive:file_size">22227646</property>
  <property name="kdenlive:original.kdenlive:file_hash">c98bfa6754a1e293b3f3e8264ff62cde</property>
  <property name="kdenlive:original.backup">1</property>
  <property name="global_feed">1</property>
  <property name="xml">was here</property>
  <property name="meta.media.nb_streams">2</property>
  <property name="meta.media.0.stream.type">video</property>
  <property name="meta.media.0.stream.frame_rate">29.97</property>
  <property name="meta.media.0.stream.sample_aspect_ratio">0</property>
  <property name="meta.media.0.codec.width">640</property>
  <property name="meta.media.0.codec.height">360</property>
  <property name="meta.media.0.codec.rotate">0</property>
  <property name="meta.media.0.codec.frame_rate">29.97</property>
  <property name="meta.media.0.codec.pix_fmt">yuv420p</property>
  <property name="meta.media.0.codec.sample_aspect_ratio">1</property>
  <property name="meta.media.0.codec.colorspace">601</property>
  <property name="meta.media.0.codec.name">h264</property>
  <property name="meta.media.0.codec.long_name">H.264 / AVC / MPEG-4 AVC / MPEG-4 part 10</property>
  <property name="meta.media.0.codec.bit_rate">8248915</property>
  <property name="meta.attr.0.stream.handler_name.markup">Core Media Video</property>
  <property name="meta.attr.0.stream.encoder.markup">Lavc58.111.100 h264_nvenc</property>
  <property name="meta.media.1.stream.type">audio</property>
  <property name="meta.media.1.codec.sample_fmt">fltp</property>
  <property name="meta.media.1.codec.sample_rate">44100</property>
  <property name="meta.media.1.codec.channels">1</property>
  <property name="meta.media.1.codec.name">aac</property>
  <property name="meta.media.1.codec.long_name">AAC (Advanced Audio Coding)</property>
  <property name="meta.media.1.codec.bit_rate">98076</property>
  <property name="meta.attr.1.stream.handler_name.markup">Core Media Audio</property>
  <property name="meta.attr.major_brand.markup">qt  </property>
  <property name="meta.attr.minor_version.markup">512</property>
  <property name="meta.attr.compatible_brands.markup">qt  </property>
  <property name="meta.attr.encoder.markup">Lavf58.62.100</property>
  <property name="meta.media.sample_aspect_num">1</property>
  <property name="meta.media.sample_aspect_den">1</property>
  <property name="meta.media.frame_rate_num">30000</property>
  <property name="meta.media.frame_rate_den">1001</property>
  <property name="meta.media.colorspace">601</property>
  <property name="meta.media.color_trc">2</property>
  <property name="meta.media.width">640</property>
  <property name="meta.media.height">360</property>
  <property name="meta.media.color_range">mpeg</property>
  <property name="meta.media.top_field_first">0</property>
  <property name="meta.media.progressive">1</property>
  <property name="set.test_audio">1</property>
  <property name="set.test_image">0</property>
 </producer>
 <producer id="producer92" in="00:00:00.000" out="00:00:14.520">
  <property name="length">364</property>
  <property name="eof">pause</property>
  <property name="resource">/home/chiller/.cache/kdenlive/proxy/22d38ef6261efcb609b54194c2b018aa.mov</property>
  <property name="audio_index">1</property>
  <property name="video_index">0</property>
  <property name="mute_on_pause">0</property>
  <property name="mlt_service">avformat-novalidate</property>
  <property name="seekable">1</property>
  <property name="aspect_ratio">1</property>
  <property name="kdenlive:clipname">cat1.mov</property>
  <property name="kdenlive:folderid">-1</property>
  <property name="kdenlive:id">45</property>
  <property name="kdenlive:file_size">14939273</property>
  <property name="kdenlive:file_hash">22d38ef6261efcb609b54194c2b018aa</property>
  <property name="kdenlive:proxy">/home/chiller/.cache/kdenlive/proxy/22d38ef6261efcb609b54194c2b018aa.mov</property>
  <property name="kdenlive:originalurl">mov/outdoor/cat1.mov</property>
  <property name="kdenlive:original.mlt_type">producer</property>
  <property name="kdenlive:original.in">0</property>
  <property name="kdenlive:original.out">363</property>
  <property name="kdenlive:original.length">364</property>
  <property name="kdenlive:original.eof">pause</property>
  <property name="kdenlive:original.resource">mov/outdoor/cat1.mov</property>
  <property name="kdenlive:original.meta.media.nb_streams">5</property>
  <property name="kdenlive:original.meta.media.0.stream.type">video</property>
  <property name="kdenlive:original.meta.media.0.stream.frame_rate">29.9725</property>
  <property name="kdenlive:original.meta.media.0.stream.sample_aspect_ratio">0</property>
  <property name="kdenlive:original.meta.media.0.codec.width">1920</property>
  <property name="kdenlive:original.meta.media.0.codec.height">1080</property>
  <property name="kdenlive:original.meta.media.0.codec.rotate">0</property>
  <property name="kdenlive:original.meta.media.0.codec.frame_rate">600</property>
  <property name="kdenlive:original.meta.media.0.codec.pix_fmt">yuv420p</property>
  <property name="kdenlive:original.meta.media.0.codec.sample_aspect_ratio">0</property>
  <property name="kdenlive:original.meta.media.0.codec.colorspace">709</property>
  <property name="kdenlive:original.meta.media.0.codec.color_trc">1</property>
  <property name="kdenlive:original.meta.media.0.codec.name">hevc</property>
  <property name="kdenlive:original.meta.media.0.codec.long_name">HEVC (High Efficiency Video Coding)</property>
  <property name="kdenlive:original.meta.media.0.codec.bit_rate">8084768</property>
  <property name="kdenlive:original.meta.attr.0.stream.creation_time.markup">2020-04-12T17:13:59.000000Z</property>
  <property name="kdenlive:original.meta.attr.0.stream.handler_name.markup">Core Media Video</property>
  <property name="kdenlive:original.meta.attr.0.stream.encoder.markup">HEVC</property>
  <property name="kdenlive:original.meta.media.1.stream.type">audio</property>
  <property name="kdenlive:original.meta.media.1.codec.sample_fmt">fltp</property>
  <property name="kdenlive:original.meta.media.1.codec.sample_rate">44100</property>
  <property name="kdenlive:original.meta.media.1.codec.channels">1</property>
  <property name="kdenlive:original.meta.media.1.codec.name">aac</property>
  <property name="kdenlive:original.meta.media.1.codec.long_name">AAC (Advanced Audio Coding)</property>
  <property name="kdenlive:original.meta.media.1.codec.bit_rate">96192</property>
  <property name="kdenlive:original.meta.attr.1.stream.creation_time.markup">2020-04-12T17:13:59.000000Z</property>
  <property name="kdenlive:original.meta.attr.1.stream.handler_name.markup">Core Media Audio</property>
  <property name="kdenlive:original.meta.attr.major_brand.markup">qt  </property>
  <property name="kdenlive:original.meta.attr.minor_version.markup">0</property>
  <property name="kdenlive:original.meta.attr.compatible_brands.markup">qt  </property>
  <property name="kdenlive:original.meta.attr.creation_time.markup">2020-04-12T17:13:59.000000Z</property>
  <property name="kdenlive:original.meta.attr.com.apple.quicktime.make.markup">Apple</property>
  <property name="kdenlive:original.meta.attr.com.apple.quicktime.model.markup">iPhone XS</property>
  <property name="kdenlive:original.meta.attr.com.apple.quicktime.software.markup">13.3.1</property>
  <property name="kdenlive:original.meta.attr.com.apple.quicktime.creationdate.markup">2020-04-12T19:13:59+0200</property>
  <property name="kdenlive:original.seekable">1</property>
  <property name="kdenlive:original.width">1920</property>
  <property name="kdenlive:original.height">1080</property>
  <property name="kdenlive:original.meta.media.sample_aspect_num">1</property>
  <property name="kdenlive:original.meta.media.sample_aspect_den">1</property>
  <property name="kdenlive:original.aspect_ratio">1</property>
  <property name="kdenlive:original.audio_index">1</property>
  <property name="kdenlive:original.video_index">0</property>
  <property name="kdenlive:original.mute_on_pause">0</property>
  <property name="kdenlive:original.mlt_service">avformat-novalidate</property>
  <property name="kdenlive:original.kdenlive:folderid">-1</property>
  <property name="kdenlive:original.meta.media.frame_rate_num">32700</property>
  <property name="kdenlive:original.meta.media.frame_rate_den">1091</property>
  <property name="kdenlive:original.meta.media.colorspace">709</property>
  <property name="kdenlive:original.meta.media.color_trc">1</property>
  <property name="kdenlive:original.meta.media.width">1920</property>
  <property name="kdenlive:original.meta.media.height">1080</property>
  <property name="kdenlive:original.meta.media.color_range">mpeg</property>
  <property name="kdenlive:original.kdenlive:id">45</property>
  <property name="kdenlive:original.kdenlive:file_size">14939273</property>
  <property name="kdenlive:original.kdenlive:file_hash">22d38ef6261efcb609b54194c2b018aa</property>
  <property name="kdenlive:original.backup">1</property>
  <property name="global_feed">1</property>
  <property name="xml">was here</property>
  <property name="meta.media.nb_streams">2</property>
  <property name="meta.media.0.stream.type">video</property>
  <property name="meta.media.0.stream.frame_rate">29.97</property>
  <property name="meta.media.0.stream.sample_aspect_ratio">0</property>
  <property name="meta.media.0.codec.width">640</property>
  <property name="meta.media.0.codec.height">360</property>
  <property name="meta.media.0.codec.rotate">0</property>
  <property name="meta.media.0.codec.frame_rate">29.97</property>
  <property name="meta.media.0.codec.pix_fmt">yuv420p</property>
  <property name="meta.media.0.codec.sample_aspect_ratio">1</property>
  <property name="meta.media.0.codec.colorspace">601</property>
  <property name="meta.media.0.codec.name">h264</property>
  <property name="meta.media.0.codec.long_name">H.264 / AVC / MPEG-4 AVC / MPEG-4 part 10</property>
  <property name="meta.media.0.codec.bit_rate">8363992</property>
  <property name="meta.attr.0.stream.handler_name.markup">Core Media Video</property>
  <property name="meta.attr.0.stream.encoder.markup">Lavc58.111.100 h264_nvenc</property>
  <property name="meta.media.1.stream.type">audio</property>
  <property name="meta.media.1.codec.sample_fmt">fltp</property>
  <property name="meta.media.1.codec.sample_rate">44100</property>
  <property name="meta.media.1.codec.channels">1</property>
  <property name="meta.media.1.codec.name">aac</property>
  <property name="meta.media.1.codec.long_name">AAC (Advanced Audio Coding)</property>
  <property name="meta.media.1.codec.bit_rate">96360</property>
  <property name="meta.attr.1.stream.handler_name.markup">Core Media Audio</property>
  <property name="meta.attr.major_brand.markup">qt  </property>
  <property name="meta.attr.minor_version.markup">512</property>
  <property name="meta.attr.compatible_brands.markup">qt  </property>
  <property name="meta.attr.encoder.markup">Lavf58.62.100</property>
  <property name="meta.media.sample_aspect_num">1</property>
  <property name="meta.media.sample_aspect_den">1</property>
  <property name="meta.media.frame_rate_num">30000</property>
  <property name="meta.media.frame_rate_den">1001</property>
  <property name="meta.media.colorspace">601</property>
  <property name="meta.media.color_trc">2</property>
  <property name="meta.media.width">640</property>
  <property name="meta.media.height">360</property>
  <property name="meta.media.color_range">mpeg</property>
  <property name="meta.media.top_field_first">0</property>
  <property name="meta.media.progressive">1</property>
  <property name="set.test_audio">1</property>
  <property name="set.test_image">0</property>
 </producer>
 <playlist id="playlist6">
  <entry producer="producer26" in="00:00:00.000" out="00:00:04.000">
   <property name="kdenlive:id">28</property>
   <filter id="filter16">
    <property name="rotate_center">1</property>
    <property name="mlt_service">qtblend</property>
    <property name="kdenlive_id">qtblend</property>
    <property name="rect">00:00:00.000=1344 850 442 249 1.000000;00:00:01.280=1913 860 442 249 1.000000</property>
    <property name="rotation">00:00:00.000=0;00:00:01.280=0</property>
    <property name="compositing">0</property>
    <property name="distort">0</property>
    <property name="kdenlive:collapsed">0</property>
   </filter>
  </entry>
  <blank length="00:00:07.800"/>
  <entry producer="producer57" in="00:00:00.000" out="00:00:00.000">
   <property name="kdenlive:id">59</property>
  </entry>
  <blank length="00:00:00.040"/>
  <entry producer="producer57" in="00:00:00.000" out="00:00:00.040">
   <property name="kdenlive:id">59</property>
  </entry>
  <entry producer="producer5" in="00:00:00.000" out="00:00:00.040">
   <property name="kdenlive:id">7</property>
  </entry>
  <entry producer="producer4" in="00:00:00.000" out="00:00:00.080">
   <property name="kdenlive:id">6</property>
  </entry>
  <blank length="00:00:00.040"/>
  <entry producer="producer4" in="00:00:00.000" out="00:00:00.120">
   <property name="kdenlive:id">6</property>
  </entry>
  <blank length="00:00:00.040"/>
  <entry producer="producer7" in="00:00:00.000" out="00:00:00.040">
   <property name="kdenlive:id">9</property>
  </entry>
  <blank length="00:00:00.040"/>
  <entry producer="producer6" in="00:00:00.000" out="00:00:00.160">
   <property name="kdenlive:id">8</property>
  </entry>
  <blank length="00:00:00.280"/>
  <entry producer="producer29" in="00:00:00.000" out="00:00:07.840">
   <property name="kdenlive:id">31</property>
   <filter id="filter17">
    <property name="rotate_center">1</property>
    <property name="mlt_service">qtblend</property>
    <property name="kdenlive_id">qtblend</property>
    <property name="rect">00:00:00.000=864 -346 464 261 1.000000;00:00:00.280=917 -253 464 261 1.000000;00:00:00.440=947 -199 464 261 1.000000;00:00:00.560=1102 -154 464 261 1.000000;00:00:00.640=1318 -146 464 261 1.000000;00:00:00.920=1787 74 464 261 1.000000;00:00:01.280=1872 201 464 261 1.000000;00:00:01.440=1659 210 464 261 1.000000;00:00:01.640=1501 238 464 261 1.000000;00:00:01.960=1404 274 464 261 1.000000;00:00:02.240=1272 294 464 261 1.000000;00:00:02.360=1118 309 464 261 1.000000;00:00:02.520=856 315 409 230 1.000000;00:00:02.640=648 331 409 230 1.000000;00:00:02.720=356 354 409 230 1.000000;00:00:02.840=21 362 409 230 1.000000;00:00:02.920=-366 368 409 230 1.000000</property>
    <property name="rotation">00:00:00.000=0;00:00:00.280=0;00:00:00.440=0;00:00:00.560=0;00:00:00.640=0;00:00:00.920=0;00:00:01.280=0;00:00:01.440=0;00:00:01.640=0;00:00:01.960=0;00:00:02.240=0;00:00:02.360=0;00:00:02.520=0;00:00:02.640=0;00:00:02.720=0;00:00:02.840=0;00:00:02.920=0</property>
    <property name="compositing">0</property>
    <property name="distort">0</property>
    <property name="kdenlive:collapsed">0</property>
   </filter>
  </entry>
  <entry producer="producer84" in="00:00:00.000" out="00:00:00.920">
   <property name="kdenlive:id">5</property>
   <filter id="filter18">
    <property name="version">0.2</property>
    <property name="mlt_service">frei0r.IIRblur</property>
    <property name="kdenlive_id">frei0r.IIRblur</property>
    <property name="Amount">00:00:00.000=0.603</property>
    <property name="Type">0.5</property>
    <property name="Edge">1</property>
    <property name="kdenlive:collapsed">0</property>
   </filter>
   <filter id="filter19">
    <property name="mode">alpha</property>
    <property name="alpha_operation">clear</property>
    <property name="invert">0</property>
    <property name="feather">0</property>
    <property name="feather_passes">1</property>
    <property name="mlt_service">rotoscoping</property>
    <property name="kdenlive_id">rotoscoping</property>
    <property name="spline">{
    "00": [
        [
            [
                0.39475847893114074,
                0.4185388127853881
            ],
            [
                0.39568345323741005,
                0.3675799086757991
            ],
            [
                0.41099691675231237,
                0.3650228310502283
            ]
        ],
        [
            [
                0.46792383349924116,
                0.36661666794214426
            ],
            [
                0.48323729701414353,
                0.36405959031657353
            ],
            [
                0.4834428468599811,
                0.41940205606999825
            ]
        ],
        [
            [
                0.48390480461548596,
                0.5756320842155387
            ],
            [
                0.48411035446132356,
                0.6309745499689633
            ],
            [
                0.4676663667943143,
                0.6291480659506985
            ]
        ],
        [
            [
                0.407502569373073,
                0.6242009132420092
            ],
            [
                0.3910585817060637,
                0.6223744292237443
            ],
            [
                0.391983556012333,
                0.5714155251141552
            ]
        ],
        [
            [
                0.3928616203048935,
                0.520005612101732
            ],
            [
                0.393312379954601,
                0.494413407821229
            ],
            [
                0.393312379954601,
                0.4819987585350714
            ]
        ],
        [
            [
                0.4313078400558757,
                0.46486654252017356
            ],
            [
                0.43853675571852624,
                0.4587212911235257
            ],
            [
                0.44136546184738956,
                0.4561762880198632
            ]
        ],
        [
            [
                0.4392002793783831,
                0.4390440720049658
            ],
            [
                0.4392352016762703,
                0.43265052762259465
            ],
            [
                0.4392002793783831,
                0.4266294227188087
            ]
        ],
        [
            [
                0.42788545486293,
                0.4286157666045933
            ],
            [
                0.39470927187008903,
                0.43916821849782745
            ],
            [
                0.39518348652665086,
                0.42621616795489914
            ]
        ]
    ],
    "01": [
        [
            [
                0.39475847893114074,
                0.4185388127853881
            ],
            [
                0.39568345323741005,
                0.3675799086757991
            ],
            [
                0.41099691675231237,
                0.3650228310502283
            ]
        ],
        [
            [
                0.46792383349924116,
                0.36661666794214426
            ],
            [
                0.48323729701414353,
                0.36405959031657353
            ],
            [
                0.4834428468599811,
                0.41940205606999825
            ]
        ],
        [
            [
                0.48390480461548596,
                0.5756320842155387
            ],
            [
                0.48411035446132356,
                0.6309745499689633
            ],
            [
                0.4676663667943143,
                0.6291480659506985
            ]
        ],
        [
            [
                0.407502569373073,
                0.6242009132420092
            ],
            [
                0.3910585817060637,
                0.6223744292237443
            ],
            [
                0.391983556012333,
                0.5714155251141552
            ]
        ],
        [
            [
                0.39251239732602156,
                0.5504215028528182
            ],
            [
                0.39296315697572903,
                0.5248292985723153
            ],
            [
                0.39296315697572903,
                0.5124146492861573
            ]
        ],
        [
            [
                0.41667539724113845,
                0.4683426443202983
            ],
            [
                0.42334555613759384,
                0.46430788330229666
            ],
            [
                0.4296664920551772,
                0.46163873370577285
            ]
        ],
        [
            [
                0.4510389383621442,
                0.4670391061452498
            ],
            [
                0.4582678540247948,
                0.46089385474860334
            ],
            [
                0.4610965601536581,
                0.45834885164494066
            ]
        ],
        [
            [
                0.4542168674698795,
                0.4378026070763501
            ],
            [
                0.4542517897677667,
                0.4314090626939789
            ],
            [
                0.4542168674698795,
                0.425387957790193
            ]
        ],
        [
            [
                0.42788545486293,
                0.4286157666045933
            ],
            [
                0.39470927187008903,
                0.43916821849782745
            ],
            [
                0.39518348652665086,
                0.42621616795489914
            ]
        ]
    ],
    "02": [
        [
            [
                0.39475847893114074,
                0.4185388127853881
            ],
            [
                0.39568345323741005,
                0.3675799086757991
            ],
            [
                0.41099691675231237,
                0.3650228310502283
            ]
        ],
        [
            [
                0.46792383349924116,
                0.36661666794214426
            ],
            [
                0.48323729701414353,
                0.36405959031657353
            ],
            [
                0.4834428468599811,
                0.41940205606999825
            ]
        ],
        [
            [
                0.48390480461548596,
                0.5756320842155387
            ],
            [
                0.48411035446132356,
                0.6309745499689633
            ],
            [
                0.4676663667943143,
                0.6291480659506985
            ]
        ],
        [
            [
                0.407502569373073,
                0.6242009132420092
            ],
            [
                0.3910585817060637,
                0.6223744292237443
            ],
            [
                0.391983556012333,
                0.5714155251141552
            ]
        ],
        [
            [
                0.39251239732602156,
                0.5504215028528182
            ],
            [
                0.39296315697572903,
                0.5248292985723153
            ],
            [
                0.39296315697572903,
                0.5124146492861573
            ]
        ],
        [
            [
                0.41667539724113845,
                0.4683426443202983
            ],
            [
                0.42334555613759384,
                0.46430788330229666
            ],
            [
                0.4296664920551772,
                0.46163873370577285
            ]
        ],
        [
            [
                0.4510389383621442,
                0.4670391061452498
            ],
            [
                0.4582678540247948,
                0.46089385474860334
            ],
            [
                0.4610965601536581,
                0.45834885164494066
            ]
        ],
        [
            [
                0.4638204993888598,
                0.4396648044692737
            ],
            [
                0.4638554216867469,
                0.43327126008690253
            ],
            [
                0.4638204993888598,
                0.4272501551831166
            ]
        ],
        [
            [
                0.4550899249170595,
                0.42098075729360646
            ],
            [
                0.44848961061637854,
                0.4214773432650527
            ],
            [
                0.4412956172516152,
                0.422656734947238
            ]
        ],
        [
            [
                0.42718700890518596,
                0.43947858472998114
            ],
            [
                0.39401082591234504,
                0.45003103662321536
            ],
            [
                0.3944850405689068,
                0.437078986080287
            ]
        ]
    ],
    "03": [
        [
            [
                0.39475847893114074,
                0.4185388127853881
            ],
            [
                0.39568345323741005,
                0.3675799086757991
            ],
            [
                0.41099691675231237,
                0.3650228310502283
            ]
        ],
        [
            [
                0.46792383349924116,
                0.36661666794214426
            ],
            [
                0.48323729701414353,
                0.36405959031657353
            ],
            [
                0.4834428468599811,
                0.41940205606999825
            ]
        ],
        [
            [
                0.48390480461548596,
                0.5756320842155387
            ],
            [
                0.48411035446132356,
                0.6309745499689633
            ],
            [
                0.4676663667943143,
                0.6291480659506985
            ]
        ],
        [
            [
                0.407502569373073,
                0.6242009132420092
            ],
            [
                0.3910585817060637,
                0.6223744292237443
            ],
            [
                0.391983556012333,
                0.5714155251141552
            ]
        ],
        [
            [
                0.39251239732602156,
                0.5504215028528182
            ],
            [
                0.39296315697572903,
                0.5248292985723153
            ],
            [
                0.39296315697572903,
                0.5124146492861573
            ]
        ],
        [
            [
                0.437454164484023,
                0.4857231533209191
            ],
            [
                0.4441243233804784,
                0.4816883923029174
            ],
            [
                0.4504452592980618,
                0.4790192427063935
            ]
        ],
        [
            [
                0.4758337698620569,
                0.4779019242706375
            ],
            [
                0.4830626855247075,
                0.4717566728739913
            ],
            [
                0.48589139165357076,
                0.46921166977032863
            ]
        ],
        [
            [
                0.4797101449275362,
                0.44897579143389194
            ],
            [
                0.4797450672254234,
                0.44258224705152077
            ],
            [
                0.4797101449275362,
                0.43656114214773484
            ]
        ],
        [
            [
                0.4468831849135673,
                0.4473618870266913
            ],
            [
                0.44028287061288635,
                0.4478584729981378
            ],
            [
                0.43308887724812295,
                0.4490378646803231
            ]
        ],
        [
            [
                0.4264885629474419,
                0.4481688392302913
            ],
            [
                0.393312379954601,
                0.4587212911235257
            ],
            [
                0.3937865946111628,
                0.44576924058059736
            ]
        ]
    ],
    "04": [
        [
            [
                0.39475847893114074,
                0.4185388127853881
            ],
            [
                0.39568345323741005,
                0.3675799086757991
            ],
            [
                0.41099691675231237,
                0.3650228310502283
            ]
        ],
        [
            [
                0.46792383349924116,
                0.36661666794214426
            ],
            [
                0.48323729701414353,
                0.36405959031657353
            ],
            [
                0.4834428468599811,
                0.41940205606999825
            ]
        ],
        [
            [
                0.48390480461548596,
                0.5756320842155387
            ],
            [
                0.48411035446132356,
                0.6309745499689633
            ],
            [
                0.4676663667943143,
                0.6291480659506985
            ]
        ],
        [
            [
                0.407502569373073,
                0.6242009132420092
            ],
            [
                0.3910585817060637,
                0.6223744292237443
            ],
            [
                0.391983556012333,
                0.5714155251141552
            ]
        ],
        [
            [
                0.39251239732602156,
                0.5504215028528182
            ],
            [
                0.39296315697572903,
                0.5248292985723153
            ],
            [
                0.39296315697572903,
                0.5124146492861573
            ]
        ],
        [
            [
                0.4453116815086433,
                0.49627560521415304
            ],
            [
                0.45198184040509864,
                0.4922408441961514
            ],
            [
                0.45830277632268207,
                0.4895716945996275
            ]
        ],
        [
            [
                0.4749607124148769,
                0.501489757914337
            ],
            [
                0.4821896280775275,
                0.49534450651769085
            ],
            [
                0.4850183342063908,
                0.4927995034140282
            ]
        ],
        [
            [
                0.4832023747162563,
                0.46914959652389776
            ],
            [
                0.48323729701414353,
                0.462756052141527
            ],
            [
                0.4832023747162563,
                0.45673494723774055
            ]
        ],
        [
            [
                0.45578837087480356,
                0.46194909993792627
            ],
            [
                0.4491880565741226,
                0.46244568590937307
            ],
            [
                0.4419940632093592,
                0.4636250775915582
            ]
        ],
        [
            [
                0.430155404225598,
                0.4658597144630664
            ],
            [
                0.393312379954601,
                0.4664804469273743
            ],
            [
                0.3937865946111628,
                0.4535283963844459
            ]
        ]
    ],
    "05": [
        [
            [
                0.39475847893114074,
                0.4185388127853881
            ],
            [
                0.39568345323741005,
                0.3675799086757991
            ],
            [
                0.41099691675231237,
                0.3650228310502283
            ]
        ],
        [
            [
                0.46792383349924116,
                0.36661666794214426
            ],
            [
                0.48323729701414353,
                0.36405959031657353
            ],
            [
                0.4834428468599811,
                0.41940205606999825
            ]
        ],
        [
            [
                0.48390480461548596,
                0.5756320842155387
            ],
            [
                0.48411035446132356,
                0.6309745499689633
            ],
            [
                0.4676663667943143,
                0.6291480659506985
            ]
        ],
        [
            [
                0.407502569373073,
                0.6242009132420092
            ],
            [
                0.3910585817060637,
                0.6223744292237443
            ],
            [
                0.391983556012333,
                0.5714155251141552
            ]
        ],
        [
            [
                0.39251239732602156,
                0.5504215028528182
            ],
            [
                0.39296315697572903,
                0.5248292985723153
            ],
            [
                0.39296315697572903,
                0.5124146492861573
            ]
        ],
        [
            [
                0.4496769687445434,
                0.5170701427684669
            ],
            [
                0.4563471276409988,
                0.5130353817504655
            ],
            [
                0.46266806355858214,
                0.5103662321539413
            ]
        ],
        [
            [
                0.4754845468831849,
                0.51514587212911
            ],
            [
                0.4827134625458355,
                0.5090006207324642
            ],
            [
                0.4855421686746988,
                0.5064556176288015
            ]
        ],
        [
            [
                0.4828531517373843,
                0.48932340161390325
            ],
            [
                0.4828880740352715,
                0.48292985723153314
            ],
            [
                0.4828531517373843,
                0.47690875232774654
            ]
        ],
        [
            [
                0.4573598742797275,
                0.48119180633147063
            ],
            [
                0.4507595599790466,
                0.4816883923029174
            ],
            [
                0.4435655666142832,
                0.4828677839851024
            ]
        ],
        [
            [
                0.430679238693906,
                0.47361887026691485
            ],
            [
                0.393836214422909,
                0.4742396027312228
            ],
            [
                0.3943104290794708,
                0.4612875521882944
            ]
        ]
    ],
    "06": [
        [
            [
                0.39475847893114074,
                0.4185388127853881
            ],
            [
                0.39568345323741005,
                0.3675799086757991
            ],
            [
                0.41099691675231237,
                0.3650228310502283
            ]
        ],
        [
            [
                0.46792383349924116,
                0.36661666794214426
            ],
            [
                0.48323729701414353,
                0.36405959031657353
            ],
            [
                0.4834428468599811,
                0.41940205606999825
            ]
        ],
        [
            [
                0.48390480461548596,
                0.5756320842155387
            ],
            [
                0.48411035446132356,
                0.6309745499689633
            ],
            [
                0.4676663667943143,
                0.6291480659506985
            ]
        ],
        [
            [
                0.407502569373073,
                0.6242009132420092
            ],
            [
                0.3910585817060637,
                0.6223744292237443
            ],
            [
                0.391983556012333,
                0.5714155251141552
            ]
        ],
        [
            [
                0.3923377858365855,
                0.5861136195505213
            ],
            [
                0.392788545486293,
                0.5605214152700185
            ],
            [
                0.392788545486293,
                0.5481067659838604
            ]
        ],
        [
            [
                0.45020080321285144,
                0.5369335816263188
            ],
            [
                0.45687096210930683,
                0.5328988206083178
            ],
            [
                0.4631918980268902,
                0.530229671011793
            ]
        ],
        [
            [
                0.4758337698620569,
                0.5542520173805068
            ],
            [
                0.4830626855247075,
                0.548106765983861
            ],
            [
                0.48589139165357076,
                0.5455617628801983
            ]
        ],
        [
            [
                0.4828531517373843,
                0.5194289261328355
            ],
            [
                0.4828880740352715,
                0.5130353817504655
            ],
            [
                0.4828531517373843,
                0.5070142768466787
            ]
        ],
        [
            [
                0.45683603981141957,
                0.5044692737430159
            ],
            [
                0.4502357255107386,
                0.504965859714463
            ],
            [
                0.4430417321459752,
                0.5061452513966478
            ]
        ],
        [
            [
                0.39313776846516496,
                0.494723774053383
            ],
            [
                0.39313776846516496,
                0.4866542520173805
            ],
            [
                0.3936119831217268,
                0.4737022014744521
            ]
        ]
    ],
    "07": [
        [
            [
                0.39308585160607573,
                0.4302264398017059
            ],
            [
                0.39401082591234504,
                0.3792675356921167
            ],
            [
                0.40932428942724736,
                0.37671045806654607
            ]
        ],
        [
            [
                0.4663523300943171,
                0.3715825276566073
            ],
            [
                0.48166579360921946,
                0.3690254500310366
            ],
            [
                0.48187134345505706,
                0.42436791578446154
            ]
        ],
        [
            [
                0.48390480461548596,
                0.5756320842155387
            ],
            [
                0.48411035446132356,
                0.6309745499689633
            ],
            [
                0.4676663667943143,
                0.6291480659506985
            ]
        ],
        [
            [
                0.40905792166386623,
                0.6216278496296868
            ],
            [
                0.39261393399685696,
                0.6198013656114215
            ],
            [
                0.39353890830312627,
                0.568842461501833
            ]
        ],
        [
            [
                0.3919885628577135,
                0.6007008324617568
            ],
            [
                0.392439322507421,
                0.5751086281812539
            ],
            [
                0.392439322507421,
                0.5626939788950958
            ]
        ],
        [
            [
                0.44513707001920727,
                0.5642458100558653
            ],
            [
                0.45180722891566266,
                0.5602110490378647
            ],
            [
                0.45812816483324603,
                0.5575418994413397
            ]
        ],
        [
            [
                0.47565915837262096,
                0.5877715704531324
            ],
            [
                0.4828880740352715,
                0.5816263190564867
            ],
            [
                0.48571678016413483,
                0.5790813159528246
            ]
        ],
        [
            [
                0.48355159769512834,
                0.5548106765983848
            ],
            [
                0.48358651999301555,
                0.548417132216015
            ],
            [
                0.48355159769512834,
                0.5423960273122275
            ]
        ],
        [
            [
                0.45753448576916356,
                0.5395406579764112
            ],
            [
                0.4509341714684826,
                0.5400372439478585
            ],
            [
                0.44374017810371924,
                0.5412166356300432
            ]
        ],
        [
            [
                0.393312379954601,
                0.5139664804469275
            ],
            [
                0.393312379954601,
                0.5058969584109249
            ],
            [
                0.3937865946111628,
                0.49294490786799633
            ]
        ]
    ],
    "08": [
        [
            [
                0.39308585160607573,
                0.4302264398017059
            ],
            [
                0.39401082591234504,
                0.3792675356921167
            ],
            [
                0.40932428942724736,
                0.37671045806654607
            ]
        ],
        [
            [
                0.4663523300943171,
                0.3715825276566073
            ],
            [
                0.48166579360921946,
                0.3690254500310366
            ],
            [
                0.48187134345505706,
                0.42436791578446154
            ]
        ],
        [
            [
                0.48390480461548596,
                0.5756320842155387
            ],
            [
                0.48411035446132356,
                0.6309745499689633
            ],
            [
                0.4676663667943143,
                0.6291480659506985
            ]
        ],
        [
            [
                0.46440976381507976,
                0.6089028341113762
            ],
            [
                0.4479657761480705,
                0.6070763500931099
            ],
            [
                0.4099004714510215,
                0.5701427684667908
            ]
        ],
        [
            [
                0.3926870088154575,
                0.5740093364965178
            ],
            [
                0.39313776846516496,
                0.548417132216015
            ],
            [
                0.39313776846516496,
                0.5360024829298567
            ]
        ],
        [
            [
                0.393312379954601,
                0.5139664804469275
            ],
            [
                0.393312379954601,
                0.5058969584109249
            ],
            [
                0.3937865946111628,
                0.49294490786799633
            ]
        ]
    ],
    "09": [
        [
            [
                0.3906412907539717,
                0.4261916787837047
            ],
            [
                0.391566265060241,
                0.3752327746741155
            ],
            [
                0.4068797285751433,
                0.37267569704854486
            ]
        ],
        [
            [
                0.461812431368981,
                0.3644441043170667
            ],
            [
                0.47712589488388335,
                0.36188702669149597
            ],
            [
                0.47733144472972094,
                0.4172294924449209
            ]
        ],
        [
            [
                0.47709495652748174,
                0.5607345050721494
            ],
            [
                0.4773005063733194,
                0.6160769708255741
            ],
            [
                0.4608565187063101,
                0.6142504868073092
            ]
        ],
        [
            [
                0.46440976381507976,
                0.6089028341113762
            ],
            [
                0.4479657761480705,
                0.6070763500931099
            ],
            [
                0.4256155055002619,
                0.5918684047175667
            ]
        ],
        [
            [
                0.40445259298061814,
                0.6101179391682199
            ],
            [
                0.3968046097433211,
                0.6027312228429547
            ],
            [
                0.39348699144403704,
                0.5983860955927994
            ]
        ],
        [
            [
                0.3926870088154575,
                0.5740093364965178
            ],
            [
                0.39313776846516496,
                0.548417132216015
            ],
            [
                0.39313776846516496,
                0.5360024829298567
            ]
        ],
        [
            [
                0.393312379954601,
                0.5139664804469275
            ],
            [
                0.393312379954601,
                0.5058969584109249
            ],
            [
                0.3937865946111628,
                0.49294490786799633
            ]
        ]
    ],
    "10": [
        [
            [
                0.3891279911788596,
                0.42381220433719113
            ],
            [
                0.3900529654851289,
                0.37285330022760194
            ],
            [
                0.4053664290000312,
                0.3702962226020313
            ]
        ],
        [
            [
                0.460881170091989,
                0.36340955020988686
            ],
            [
                0.4761946336068913,
                0.36085247258431613
            ],
            [
                0.4764001834527289,
                0.41619493833774107
            ]
        ],
        [
            [
                0.4759890837610537,
                0.5601137726078416
            ],
            [
                0.4761946336068913,
                0.6154562383612663
            ],
            [
                0.459750645939882,
                0.6136297543430014
            ]
        ],
        [
            [
                0.4427943329688565,
                0.609721690773196
            ],
            [
                0.429282346778418,
                0.60604179598593
            ],
            [
                0.4132762935801175,
                0.5944547899855163
            ]
        ],
        [
            [
                0.43441592456783656,
                0.5674529277881233
            ],
            [
                0.429544264012572,
                0.5650217256362507
            ],
            [
                0.42668063558582153,
                0.5638423339540662
            ]
        ],
        [
            [
                0.3938012921250218,
                0.6004138216428718
            ],
            [
                0.3906059018683429,
                0.5879888268156425
            ],
            [
                0.38595541586636395,
                0.553776122491206
            ]
        ]
    ],
    "11": [
        [
            [
                0.3876146916037476,
                0.4214327298906776
            ],
            [
                0.3885396659100169,
                0.37047382578108834
            ],
            [
                0.4038531294249192,
                0.3679167481555178
            ]
        ],
        [
            [
                0.4599499088149969,
                0.3623749961027071
            ],
            [
                0.4752633723298993,
                0.3598179184771364
            ],
            [
                0.4754689221757369,
                0.41516038423056123
            ]
        ],
        [
            [
                0.47488321099462566,
                0.5594930401435335
            ],
            [
                0.4750887608404633,
                0.6148355058969583
            ],
            [
                0.458644773173454,
                0.6130090218786933
            ]
        ],
        [
            [
                0.42117890212263326,
                0.610540547435016
            ],
            [
                0.4105989174087655,
                0.6050072418787503
            ],
            [
                0.40093708165997316,
                0.5970411752534658
            ]
        ],
        [
            [
                0.42551073860660027,
                0.5571280777984691
            ],
            [
                0.42325825039287585,
                0.5516759776536313
            ],
            [
                0.42102322332809494,
                0.5467101179391682
            ]
        ],
        [
            [
                0.39048367382573773,
                0.5664390647630871
            ],
            [
                0.38816134101623884,
                0.552917442582247
            ],
            [
                0.386071823525988,
                0.5195323815435547
            ]
        ]
    ],
    "12": [
        [
            [
                0.3861013920286355,
                0.41905325544416405
            ],
            [
                0.38702636633490484,
                0.3680943513345748
            ],
            [
                0.40233982984980715,
                0.36553727370900424
            ]
        ],
        [
            [
                0.4590186475380049,
                0.3613404419955273
            ],
            [
                0.47433211105290723,
                0.35878336436995656
            ],
            [
                0.4745376608987449,
                0.4141258301233814
            ]
        ],
        [
            [
                0.4737773382281977,
                0.5588723076792257
            ],
            [
                0.47398288807403527,
                0.6142147734326505
            ],
            [
                0.457538900407026,
                0.6123882894143855
            ]
        ],
        [
            [
                0.39956347127640995,
                0.6113594040968359
            ],
            [
                0.39191548803911297,
                0.6039726877715705
            ],
            [
                0.38859786973982885,
                0.5996275605214153
            ]
        ],
        [
            [
                0.410005238344683,
                0.566045934202359
            ],
            [
                0.4099877771957395,
                0.5572625698324022
            ],
            [
                0.4344333857167801,
                0.5395716945996276
            ]
        ],
        [
            [
                0.4035620743844945,
                0.5411235257603974
            ],
            [
                0.40143181421337526,
                0.5380198634388579
            ],
            [
                0.3985332634887376,
                0.5354748603351953
            ]
        ],
        [
            [
                0.3853500960363192,
                0.5441340782122902
            ],
            [
                0.3848437227169548,
                0.5290192427063936
            ],
            [
                0.38437227169547755,
                0.49695841092489107
            ]
        ]
    ],
    "13": [
        [
            [
                0.38330760819765947,
                0.41532886065831676
            ],
            [
                0.3842325825039287,
                0.3643699565487275
            ],
            [
                0.3995460460188311,
                0.36181287892315694
            ]
        ],
        [
            [
                0.4576217556225169,
                0.3563745822810643
            ],
            [
                0.4729352191374192,
                0.3538175046554935
            ],
            [
                0.4731407689832568,
                0.40915997040891844
            ]
        ],
        [
            [
                0.47412656120706964,
                0.5545271804290706
            ],
            [
                0.47433211105290723,
                0.6098696461824954
            ],
            [
                0.45788812338589796,
                0.6080431621642304
            ]
        ],
        [
            [
                0.3946743495722018,
                0.6116697703289897
            ],
            [
                0.38702636633490484,
                0.6042830540037244
            ],
            [
                0.3837087480356207,
                0.5999379267535692
            ]
        ]
    ],
    "15": [
        [
            [
                0.38138688181386343,
                0.4119148321046235
            ],
            [
                0.3823118561201327,
                0.3609559279950341
            ],
            [
                0.39762531963503506,
                0.3583988503694637
            ]
        ],
        [
            [
                0.4550025832809768,
                0.35109835633444725
            ],
            [
                0.4703160467958792,
                0.34854127870887647
            ],
            [
                0.4705215966417168,
                0.4038837444623014
            ]
        ],
        [
            [
                0.47238044631270965,
                0.5523546168039931
            ],
            [
                0.47258599615854724,
                0.6076970825574177
            ],
            [
                0.45614200849153796,
                0.6058705985391529
            ]
        ],
        [
            [
                0.39048367382573773,
                0.6076350093109885
            ],
            [
                0.3828356905884407,
                0.6002482929857231
            ],
            [
                0.3795180722891566,
                0.5959031657355679
            ]
        ]
    ],
    "16": [
        [
            [
                0.38138688181386343,
                0.4119148321046235
            ],
            [
                0.3823118561201327,
                0.3609559279950341
            ],
            [
                0.39762531963503506,
                0.3583988503694637
            ]
        ],
        [
            [
                0.4550025832809768,
                0.35109835633444725
            ],
            [
                0.4703160467958792,
                0.34854127870887647
            ],
            [
                0.4705215966417168,
                0.4038837444623014
            ]
        ],
        [
            [
                0.47238044631270965,
                0.5523546168039931
            ],
            [
                0.47258599615854724,
                0.6076970825574177
            ],
            [
                0.45614200849153796,
                0.6058705985391529
            ]
        ],
        [
            [
                0.41189104243059194,
                0.599441340782123
            ],
            [
                0.3988999476165532,
                0.5949720670391061
            ],
            [
                0.39397590361445783,
                0.5934202358783363
            ]
        ],
        [
            [
                0.3906582853151737,
                0.5849782743637507
            ],
            [
                0.38301030207787673,
                0.5775915580384854
            ],
            [
                0.3796926837785926,
                0.5732464307883303
            ]
        ]
    ],
    "17": [
        [
            [
                0.3775454290462713,
                0.40881116978308435
            ],
            [
                0.3784704033525406,
                0.35785226567349476
            ],
            [
                0.39378386686744293,
                0.35529518804792454
            ]
        ],
        [
            [
                0.4506372960450767,
                0.3483050602450618
            ],
            [
                0.465950759559979,
                0.345747982619491
            ],
            [
                0.4661563094058166,
                0.4010904483729159
            ]
        ],
        [
            [
                0.46644365567188545,
                0.5452161934644526
            ],
            [
                0.46664920551772304,
                0.6005586592178771
            ],
            [
                0.45020521785071377,
                0.5987321751996124
            ]
        ],
        [
            [
                0.4314475292474244,
                0.6030415890751097
            ],
            [
                0.42282172166928583,
                0.6073867163252638
            ],
            [
                0.4169547756242361,
                0.6114835505896971
            ]
        ],
        [
            [
                0.38224201152435827,
                0.6026070763500937
            ],
            [
                0.3795180722891566,
                0.6024208566108007
            ],
            [
                0.3767941330539549,
                0.6019242706393549
            ]
        ],
        [
            [
                0.3819975554391479,
                0.5630664183736813
            ],
            [
                0.37654967696874453,
                0.5623836126629423
            ],
            [
                0.37400034922297887,
                0.562073246430789
            ]
        ],
        [
            [
                0.408259123450323,
                0.6022967101179394
            ],
            [
                0.4153134276235376,
                0.5999379267535693
            ],
            [
                0.41754845468831847,
                0.5976412166356303
            ]
        ],
        [
            [
                0.43909551248472145,
                0.5995654872749848
            ],
            [
                0.4266631744368779,
                0.595592799503414
            ],
            [
                0.4236947791164658,
                0.5903165735567972
            ]
        ],
        [
            [
                0.4213549851580234,
                0.5753569211669773
            ],
            [
                0.42020254932774576,
                0.5723153320918684
            ],
            [
                0.4182119783481753,
                0.5687771570453136
            ]
        ],
        [
            [
                0.40790990047145104,
                0.5624456859093727
            ],
            [
                0.40361445783132527,
                0.5561762880198634
            ],
            [
                0.4000174611489436,
                0.5500310366232151
            ]
        ],
        [
            [
                0.3875152785053257,
                0.5343885785226581
            ],
            [
                0.37986729526802865,
                0.527001862197393
            ],
            [
                0.3765496769687446,
                0.5226567349472377
            ]
        ]
    ],
    "18": [
        [
            [
                0.3738785877681152,
                0.40446604253292984
            ],
            [
                0.3748035620743845,
                0.35350713842333953
            ],
            [
                0.39011702558928685,
                0.35095006079777
            ]
        ],
        [
            [
                0.4469704547669206,
                0.3445806654592144
            ],
            [
                0.46228391828182297,
                0.34202358783364367
            ],
            [
                0.46248946812766056,
                0.3973660535870684
            ]
        ],
        [
            [
                0.4643483177986534,
                0.5445954610001448
            ],
            [
                0.46455386764449097,
                0.5999379267535693
            ],
            [
                0.4481098799774817,
                0.5981114427353046
            ]
        ],
        [
            [
                0.3806705081194342,
                0.5945375543140915
            ],
            [
                0.37794656888423256,
                0.5943513345747983
            ],
            [
                0.37522262964903086,
                0.5938547486033526
            ]
        ],
        [
            [
                0.3793783830976078,
                0.5093730602110497
            ],
            [
                0.37393050462720445,
                0.5086902545003104
            ],
            [
                0.3713811768814388,
                0.508379888268157
            ]
        ],
        [
            [
                0.4237995460101274,
                0.5411545623836131
            ],
            [
                0.43085385018334205,
                0.5387957790192427
            ],
            [
                0.4330888772481229,
                0.5364990689013039
            ]
        ],
        [
            [
                0.4367207962283918,
                0.5222842954686533
            ],
            [
                0.4355683603981142,
                0.5192427063935443
            ],
            [
                0.43357778941854375,
                0.5157045313469895
            ]
        ],
        [
            [
                0.41594202898550725,
                0.515890751086281
            ],
            [
                0.4116465863453815,
                0.5096213531967723
            ],
            [
                0.40804958966299976,
                0.5034761018001235
            ]
        ],
        [
            [
                0.3864676095687096,
                0.49342023587833767
            ],
            [
                0.3788196263314126,
                0.4860335195530726
            ],
            [
                0.3755020080321285,
                0.4816883923029174
            ]
        ]
    ],
    "19": [
        [
            [
                0.3707355847830805,
                0.399189821109384
            ],
            [
                0.37166055908934975,
                0.34823091699979364
            ],
            [
                0.3869740226042521,
                0.3456738393742242
            ]
        ],
        [
            [
                0.4459227869855543,
                0.34287365594130453
            ],
            [
                0.46123625050045663,
                0.3403165783157338
            ],
            [
                0.46144180034629423,
                0.3956590440691585
            ]
        ],
        [
            [
                0.4643483177986534,
                0.5445954610001448
            ],
            [
                0.46455386764449097,
                0.5999379267535693
            ],
            [
                0.4481098799774817,
                0.5981114427353046
            ]
        ],
        [
            [
                0.37674175336168586,
                0.5923649879418724
            ],
            [
                0.37401781412648416,
                0.5921787682025793
            ],
            [
                0.3712938748912825,
                0.5916821822311337
            ]
        ],
        [
            [
                0.37815610267155575,
                0.4873370577281198
            ],
            [
                0.3727082242011524,
                0.4866542520173805
            ],
            [
                0.37015889645538674,
                0.48634388578522714
            ]
        ],
        [
            [
                0.4065828531517373,
                0.5001241464928613
            ],
            [
                0.4151388161341016,
                0.505586592178771
            ],
            [
                0.4209009952854898,
                0.5076350093109868
            ]
        ],
        [
            [
                0.43724463069669983,
                0.5265673494723774
            ],
            [
                0.44429893486991445,
                0.5242085661080075
            ],
            [
                0.4465339619346953,
                0.5219118559900683
            ]
        ],
        [
            [
                0.44265758686921597,
                0.48969584109248954
            ],
            [
                0.44150515103893834,
                0.4866542520173805
            ],
            [
                0.4395145800593679,
                0.48311607697082565
            ]
        ],
        [
            [
                0.42362493452069144,
                0.48950962135319603
            ],
            [
                0.41932949188056573,
                0.48324022346368717
            ],
            [
                0.415732495198184,
                0.47709497206703844
            ]
        ],
        [
            [
                0.3831499912694255,
                0.4608317815021736
            ],
            [
                0.3755020080321285,
                0.45344506517690875
            ],
            [
                0.3721843897328444,
                0.4490999379267535
            ]
        ]
    ],
    "20": [
        [
            [
                0.3705609694688311,
                0.3991898165863128
            ],
            [
                0.3714859437751004,
                0.3482309124767225
            ],
            [
                0.38679940729000273,
                0.345673834851153
            ]
        ],
        [
            [
                0.44435128362746473,
                0.33914926126645284
            ],
            [
                0.45966474714236705,
                0.3365921836408821
            ],
            [
                0.45987029698820464,
                0.3919346493943068
            ]
        ],
        [
            [
                0.4606814765204973,
                0.5414917986786053
            ],
            [
                0.4608870263663349,
                0.5968342644320298
            ],
            [
                0.4444430386993256,
                0.5950077804137651
            ]
        ],
        [
            [
                0.437977998952331,
                0.5884543761638734
            ],
            [
                0.43102846167277803,
                0.5865921787709497
            ],
            [
                0.42722193120307317,
                0.5863438857852268
            ]
        ],
        [
            [
                0.42757115418194513,
                0.580384854127871
            ],
            [
                0.42631395145800594,
                0.5800744878957169
            ],
            [
                0.4237646237122403,
                0.5801365611421475
            ]
        ],
        [
            [
                0.42076130609394097,
                0.5773432650527625
            ],
            [
                0.41985332634887373,
                0.5791433891992551
            ],
            [
                0.4175135323904312,
                0.5813159528243328
            ]
        ],
        [
            [
                0.4178627553693033,
                0.5883923029174425
            ],
            [
                0.40710668762004537,
                0.5862818125387957
            ],
            [
                0.3999476165531692,
                0.5863438857852266
            ]
        ],
        [
            [
                0.3740352715208661,
                0.5867783985102432
            ],
            [
                0.3713113322856644,
                0.5865921787709497
            ],
            [
                0.36858739305046273,
                0.5860955927995042
            ]
        ],
        [
            [
                0.3757115418194517,
                0.47243947858473057
            ],
            [
                0.37026366334904837,
                0.4717566728739913
            ],
            [
                0.3690413829229963,
                0.47548106765983866
            ]
        ],
        [
            [
                0.4053605727256853,
                0.47467411545623817
            ],
            [
                0.4139165357080496,
                0.48013656114214776
            ],
            [
                0.41967871485943775,
                0.4821849782743637
            ]
        ],
        [
            [
                0.4335777894185437,
                0.508255741775294
            ],
            [
                0.4406320935917583,
                0.5058969584109249
            ],
            [
                0.4428671206565392,
                0.5036002482929856
            ]
        ],
        [
            [
                0.4566265060240964,
                0.4884543761638738
            ],
            [
                0.45547407019381875,
                0.4854127870887648
            ],
            [
                0.4534834992142483,
                0.4818746120422099
            ]
        ],
        [
            [
                0.44789593155229607,
                0.4730602110490377
            ],
            [
                0.4439497118910424,
                0.46958410924891375
            ],
            [
                0.44227344159245674,
                0.46828057107386706
            ]
        ],
        [
            [
                0.42414876898899945,
                0.47088764742395944
            ],
            [
                0.41985332634887373,
                0.4646182495344507
            ],
            [
                0.416256329666492,
                0.45847299813780185
            ]
        ],
        [
            [
                0.3826261568011175,
                0.4375543140906279
            ],
            [
                0.3749781735638205,
                0.4301675977653631
            ],
            [
                0.3716605552645364,
                0.42582247051520783
            ]
        ]
    ],
    "21": [
        [
            [
                0.36829102010616305,
                0.398258717889851
            ],
            [
                0.3692159944124323,
                0.3472998137802607
            ],
            [
                0.3845294579273347,
                0.3447427361546912
            ]
        ],
        [
            [
                0.44042252523224074,
                0.3354248665916012
            ],
            [
                0.4557359887471431,
                0.3328677889660305
            ],
            [
                0.4559415385929807,
                0.3882102547194552
            ]
        ],
        [
            [
                0.4587607501367012,
                0.5402503337499895
            ],
            [
                0.4589662999825388,
                0.595592799503414
            ],
            [
                0.4425223123155295,
                0.5937663154851494
            ]
        ],
        [
            [
                0.43116815086432686,
                0.5912476722532594
            ],
            [
                0.42421861358477386,
                0.5893854748603351
            ],
            [
                0.420412083115069,
                0.5891371818746124
            ]
        ],
        [
            [
                0.42058669460450493,
                0.5645561762880206
            ],
            [
                0.41932949188056573,
                0.5642458100558659
            ],
            [
                0.41678016413480007,
                0.5643078833022971
            ]
        ],
        [
            [
                0.4111576741749607,
                0.5605834885164498
            ],
            [
                0.41024969442989345,
                0.5623836126629423
            ],
            [
                0.407909900471451,
                0.5645561762880198
            ]
        ],
        [
            [
                0.40895756940806705,
                0.5846679081315955
            ],
            [
                0.39820150165880913,
                0.5825574177529486
            ],
            [
                0.39104243059193294,
                0.5826194909993794
            ]
        ],
        [
            [
                0.3740352715208661,
                0.5867783985102432
            ],
            [
                0.3713113322856644,
                0.5865921787709497
            ],
            [
                0.36858739305046273,
                0.5860955927995042
            ]
        ],
        [
            [
                0.3736162039462197,
                0.46157666045934254
            ],
            [
                0.3681683254758163,
                0.46089385474860334
            ],
            [
                0.36694604504976425,
                0.46461824953445086
            ]
        ],
        [
            [
                0.41129736336650946,
                0.4644320297951581
            ],
            [
                0.41985332634887373,
                0.46989447548106766
            ],
            [
                0.4256155055002619,
                0.47194289261328354
            ]
        ],
        [
            [
                0.4295617251615156,
                0.49677219118559807
            ],
            [
                0.4366160293347302,
                0.494413407821229
            ],
            [
                0.4388510563995111,
                0.49211669770328936
            ]
        ],
        [
            [
                0.4543565566614283,
                0.4803848541278713
            ],
            [
                0.4532041208311507,
                0.47734326505276226
            ],
            [
                0.45121354985158024,
                0.4738050900062074
            ]
        ],
        [
            [
                0.4541819451719923,
                0.46126629422718773
            ],
            [
                0.4502357255107386,
                0.4577901924270639
            ],
            [
                0.4485594552121529,
                0.45648665425201707
            ]
        ],
        [
            [
                0.4250218264361795,
                0.45474860335195444
            ],
            [
                0.42072638379605376,
                0.4484792054624457
            ],
            [
                0.41712938711367203,
                0.44233395406579684
            ]
        ],
        [
            [
                0.3976427448926139,
                0.43711980136561135
            ],
            [
                0.39191548803911297,
                0.43358162631905645
            ],
            [
                0.3876200453989872,
                0.4306021104903786
            ]
        ],
        [
            [
                0.3782608695652174,
                0.42327746741154676
            ],
            [
                0.3706128863279204,
                0.4158907510862818
            ],
            [
                0.36729526802863627,
                0.41154562383612664
            ]
        ]
    ],
    "22": [
        [
            [
                0.366370293722367,
                0.3951550555683115
            ],
            [
                0.36729526802863627,
                0.3441961514587213
            ],
            [
                0.38260873154353864,
                0.3416390738331517
            ]
        ],
        [
            [
                0.44016060800589246,
                0.3335626692541753
            ],
            [
                0.45547407152079483,
                0.3310055916286046
            ],
            [
                0.4556796213666324,
                0.38634805738202926
            ]
        ],
        [
            [
                0.4575384697106492,
                0.5334222766426028
            ],
            [
                0.4577440195564868,
                0.5887647423960273
            ],
            [
                0.44130003188947753,
                0.5869382583777626
            ]
        ],
        [
            [
                0.41353239043129036,
                0.5869025450031056
            ],
            [
                0.40658285315173737,
                0.58504034761018
            ],
            [
                0.4027763226820325,
                0.5847920546244573
            ]
        ],
        [
            [
                0.4111576741749607,
                0.5540037243947865
            ],
            [
                0.4099004714510215,
                0.5536933581626319
            ],
            [
                0.4073511437052558,
                0.5537554314090631
            ]
        ],
        [
            [
                0.40399860310808455,
                0.5360645561762882
            ],
            [
                0.40309062336301726,
                0.5378646803227808
            ],
            [
                0.4007508294045748,
                0.5400372439478577
            ]
        ],
        [
            [
                0.3939409813165706,
                0.5741154562383616
            ],
            [
                0.3831849135673127,
                0.5720049658597144
            ],
            [
                0.3760258425004365,
                0.5720670391061456
            ]
        ],
        [
            [
                0.371066876200454,
                0.5836747361887038
            ],
            [
                0.3683429369652523,
                0.5834885164494102
            ],
            [
                0.36561899773005063,
                0.5829919304779646
            ]
        ],
        [
            [
                0.3723939235201676,
                0.4566108007448795
            ],
            [
                0.36694604504976425,
                0.4559279950341403
            ],
            [
                0.36572376462371214,
                0.4596523898199878
            ]
        ],
        [
            [
                0.4387113672079623,
                0.45375543140906266
            ],
            [
                0.41985332634887373,
                0.46989447548106766
            ],
            [
                0.4256155055002619,
                0.47194289261328354
            ]
        ],
        [
            [
                0.4292125021826436,
                0.49242706393544294
            ],
            [
                0.43626680635585824,
                0.4900682805710739
            ],
            [
                0.4385018334206391,
                0.48777157045313424
            ]
        ],
        [
            [
                0.43284442116291255,
                0.4692737430167597
            ],
            [
                0.43417146848262617,
                0.46865301055245184
            ],
            [
                0.43731447529247425,
                0.46443202979515824
            ]
        ],
        [
            [
                0.4445433909551248,
                0.4771570453134699
            ],
            [
                0.4467434957220185,
                0.4767225325884544
            ],
            [
                0.44943251265933293,
                0.4765983860955928
            ]
        ],
        [
            [
                0.45976951283394446,
                0.4689013035381754
            ],
            [
                0.45861707700366683,
                0.4658597144630664
            ],
            [
                0.4566265060240964,
                0.4623215394165115
            ]
        ],
        [
            [
                0.4588964553867644,
                0.4404717566728736
            ],
            [
                0.4549502357255107,
                0.43699565487274983
            ],
            [
                0.45327396542692505,
                0.4356921166977031
            ]
        ],
        [
            [
                0.4379430766544438,
                0.4448168839230282
            ],
            [
                0.4336476340143181,
                0.4385474860335195
            ],
            [
                0.4300506373319364,
                0.43240223463687066
            ]
        ],
        [
            [
                0.4077702112799022,
                0.4330850403476101
            ],
            [
                0.4020429544264012,
                0.42954686530105524
            ],
            [
                0.3977475117862755,
                0.42656734947237734
            ]
        ],
        [
            [
                0.3780862580757814,
                0.4180012414649298
            ],
            [
                0.37043827483848435,
                0.4106145251396648
            ],
            [
                0.3671206565392003,
                0.4062693978895096
            ]
        ]
    ],
    "23": [
        [
            [
                0.36183039908723946,
                0.3931376797627498
            ],
            [
                0.3627553733935088,
                0.34217877565315963
            ],
            [
                0.3780688369084111,
                0.33962169802759
            ]
        ],
        [
            [
                0.43387459457353406,
                0.33123492258239284
            ],
            [
                0.4491880580884364,
                0.3286778449568223
            ],
            [
                0.449393607934274,
                0.3840203107102469
            ]
        ],
        [
            [
                0.4575384697106492,
                0.5334222766426028
            ],
            [
                0.4577440195564868,
                0.5887647423960273
            ],
            [
                0.44130003188947753,
                0.5869382583777626
            ]
        ],
        [
            [
                0.37778941854374015,
                0.5819677219118573
            ],
            [
                0.3750654793085385,
                0.5817815021725636
            ],
            [
                0.3723415400733368,
                0.5812849162011182
            ]
        ],
        [
            [
                0.3731272917757988,
                0.5566728739913097
            ],
            [
                0.37244630696699843,
                0.5498137802607076
            ],
            [
                0.37646237122402654,
                0.5401924270639354
            ]
        ],
        [
            [
                0.38494848961061634,
                0.5230602110490372
            ],
            [
                0.38798672952680285,
                0.5166045934202359
            ],
            [
                0.3894534660380653,
                0.514245810055865
            ]
        ],
        [
            [
                0.3865199930155404,
                0.5011483550589696
            ],
            [
                0.38658983761131477,
                0.4936374922408442
            ],
            [
                0.3864850707176532,
                0.4897889509621354
            ]
        ],
        [
            [
                0.3647983237297014,
                0.5037554314090626
            ],
            [
                0.3647634014318142,
                0.4923960273122284
            ],
            [
                0.3640824166230138,
                0.48355058969584114
            ]
        ],
        [
            [
                0.36680635585821547,
                0.44885164494103086
            ],
            [
                0.3613584773878121,
                0.44816883923029177
            ],
            [
                0.3601361969617601,
                0.4518932340161392
            ]
        ],
        [
            [
                0.4174786100925441,
                0.44922408441961525
            ],
            [
                0.41967871485943775,
                0.44878957169459965
            ],
            [
                0.42236773179675224,
                0.44866542520173797
            ]
        ],
        [
            [
                0.4540946394272743,
                0.46502172563625094
            ],
            [
                0.45294220359699666,
                0.4619801365611421
            ],
            [
                0.4509516326174262,
                0.45844196151458705
            ]
        ],
        [
            [
                0.45531691985332634,
                0.4254189944134077
            ],
            [
                0.45137070019207265,
                0.42194289261328366
            ],
            [
                0.44969442989348696,
                0.42063935443823713
            ]
        ],
        [
            [
                0.4369827134625458,
                0.4337988826815632
            ],
            [
                0.4326872708224201,
                0.4275294847920546
            ],
            [
                0.42909027414003836,
                0.42138423339540576
            ]
        ],
        [
            [
                0.40942902042954427,
                0.42361887026691497
            ],
            [
                0.40370176357604326,
                0.42008069522036
            ],
            [
                0.39940632093591755,
                0.4171011793916822
            ]
        ],
        [
            [
                0.3780862580757814,
                0.4180012414649298
            ],
            [
                0.37043827483848435,
                0.4106145251396648
            ],
            [
                0.3671206565392003,
                0.4062693978895096
            ]
        ]
    ]
}
</property>
    <property name="kdenlive:collapsed">0</property>
   </filter>
  </entry>
  <entry producer="producer85" in="00:00:00.000" out="00:00:01.960">
   <property name="kdenlive:id">10</property>
   <filter id="filter20">
    <property name="start">2</property>
    <property name="hori">00:00:00.000=1</property>
    <property name="vert">00:00:00.000=1</property>
    <property name="blur">00:00:00.000=30</property>
    <property name="mlt_service">boxblur</property>
    <property name="kdenlive_id">boxblur</property>
    <property name="kdenlive:collapsed">0</property>
   </filter>
   <filter id="filter21">
    <property name="mode">alpha</property>
    <property name="alpha_operation">clear</property>
    <property name="invert">0</property>
    <property name="feather">0</property>
    <property name="feather_passes">1</property>
    <property name="mlt_service">rotoscoping</property>
    <property name="kdenlive_id">rotoscoping</property>
    <property name="spline">{
    "00": [
        [
            [
                0.23792394655704005,
                0.3628310502283106
            ],
            [
                0.2358684480986639,
                0.4168949771689498
            ],
            [
                0.187153134635149,
                0.4662100456621005
            ]
        ],
        [
            [
                0.02353545734840699,
                0.5986301369863014
            ],
            [
                -0.025179856115107917,
                0.6479452054794521
            ],
            [
                -0.03833504624871532,
                0.49269406392694065
            ]
        ],
        [
            [
                -0.07780061664953752,
                0.026940639269406392
            ],
            [
                -0.09095580678314492,
                -0.12831050228310503
            ],
            [
                -0.030524152106885933,
                -0.13305936073059363
            ]
        ],
        [
            [
                0.15077081192189107,
                -0.1473059360730594
            ],
            [
                0.21120246659815006,
                -0.15205479452054796
            ],
            [
                0.22394655704008223,
                -0.13123287671232878
            ]
        ],
        [
            [
                0.26217882836587875,
                -0.06876712328767123
            ],
            [
                0.27492291880781095,
                -0.04794520547945205
            ],
            [
                0.2710174717368962,
                -0.030410958904109588
            ]
        ],
        [
            [
                0.26598150051387476,
                0.02310502283105023
            ],
            [
                0.2620760534429599,
                0.040639269406392696
            ],
            [
                0.26125385405960955,
                0.05232876712328767
            ]
        ],
        [
            [
                0.2582733812949641,
                0.08557077625570776
            ],
            [
                0.25745118191161354,
                0.09726027397260274
            ],
            [
                0.252929085303186,
                0.10383561643835618
            ]
        ],
        [
            [
                0.24707091469681391,
                0.13726027397260268
            ],
            [
                0.2425488180883864,
                0.14383561643835618
            ],
            [
                0.24049331963001025,
                0.1978995433789954
            ]
        ]
    ],
    "05": [
        [
            [
                0.23792394655704005,
                0.3628310502283106
            ],
            [
                0.2358684480986639,
                0.4168949771689498
            ],
            [
                0.187153134635149,
                0.4662100456621005
            ]
        ],
        [
            [
                0.02353545734840699,
                0.5986301369863014
            ],
            [
                -0.025179856115107917,
                0.6479452054794521
            ],
            [
                -0.03833504624871532,
                0.49269406392694065
            ]
        ],
        [
            [
                -0.07780061664953752,
                0.026940639269406392
            ],
            [
                -0.09095580678314492,
                -0.12831050228310503
            ],
            [
                -0.030524152106885933,
                -0.13305936073059363
            ]
        ],
        [
            [
                0.15077081192189107,
                -0.1473059360730594
            ],
            [
                0.21120246659815006,
                -0.15205479452054796
            ],
            [
                0.22394655704008223,
                -0.13123287671232878
            ]
        ],
        [
            [
                0.26217882836587875,
                -0.06876712328767123
            ],
            [
                0.27492291880781095,
                -0.04794520547945205
            ],
            [
                0.2710174717368962,
                -0.030410958904109588
            ]
        ],
        [
            [
                0.26803699897225086,
                0.02401826484018265
            ],
            [
                0.264131551901336,
                0.041552511415525115
            ],
            [
                0.26330935251798565,
                0.053242009132420096
            ]
        ],
        [
            [
                0.2623843782117164,
                0.0956164383561644
            ],
            [
                0.26156217882836585,
                0.10730593607305937
            ],
            [
                0.2570400822199383,
                0.11388127853881282
            ]
        ],
        [
            [
                0.2516957862281603,
                0.1381735159817351
            ],
            [
                0.24717368961973277,
                0.1447488584474886
            ],
            [
                0.2451181911613566,
                0.19881278538812783
            ]
        ]
    ],
    "14": [
        [
            [
                0.24357656731757446,
                0.37926940639269396
            ],
            [
                0.24152106885919833,
                0.43333333333333335
            ],
            [
                0.1928057553956834,
                0.4826484018264839
            ]
        ],
        [
            [
                0.02353545734840699,
                0.5986301369863014
            ],
            [
                -0.025179856115107917,
                0.6479452054794521
            ],
            [
                -0.03833504624871532,
                0.49269406392694065
            ]
        ],
        [
            [
                -0.07780061664953752,
                0.026940639269406392
            ],
            [
                -0.09095580678314492,
                -0.12831050228310503
            ],
            [
                -0.030524152106885933,
                -0.13305936073059363
            ]
        ],
        [
            [
                0.15077081192189107,
                -0.1473059360730594
            ],
            [
                0.21120246659815006,
                -0.15205479452054796
            ],
            [
                0.22394655704008223,
                -0.13123287671232878
            ]
        ],
        [
            [
                0.26217882836587875,
                -0.06876712328767123
            ],
            [
                0.27492291880781095,
                -0.04794520547945205
            ],
            [
                0.2710174717368962,
                -0.030410958904109588
            ]
        ],
        [
            [
                0.26803699897225086,
                0.02401826484018265
            ],
            [
                0.264131551901336,
                0.041552511415525115
            ],
            [
                0.26330935251798565,
                0.053242009132420096
            ]
        ],
        [
            [
                0.2623843782117164,
                0.0956164383561644
            ],
            [
                0.26156217882836585,
                0.10730593607305937
            ],
            [
                0.2570400822199383,
                0.11388127853881282
            ]
        ],
        [
            [
                0.2563206577595067,
                0.14547945205479448
            ],
            [
                0.2517985611510791,
                0.15205479452054796
            ],
            [
                0.24974306269270297,
                0.2061187214611872
            ]
        ]
    ],
    "29": [
        [
            [
                0.2322713257965056,
                0.40027397260273956
            ],
            [
                0.23021582733812945,
                0.45433789954337905
            ],
            [
                0.18150051387461455,
                0.5036529680365296
            ]
        ],
        [
            [
                0.02353545734840699,
                0.5986301369863014
            ],
            [
                -0.025179856115107917,
                0.6479452054794521
            ],
            [
                -0.03833504624871532,
                0.49269406392694065
            ]
        ],
        [
            [
                -0.07780061664953752,
                0.026940639269406392
            ],
            [
                -0.09095580678314492,
                -0.12831050228310503
            ],
            [
                -0.030524152106885933,
                -0.13305936073059363
            ]
        ],
        [
            [
                0.15077081192189107,
                -0.1473059360730594
            ],
            [
                0.21120246659815006,
                -0.15205479452054796
            ],
            [
                0.22394655704008223,
                -0.13123287671232878
            ]
        ],
        [
            [
                0.26217882836587875,
                -0.06876712328767123
            ],
            [
                0.27492291880781095,
                -0.04794520547945205
            ],
            [
                0.2710174717368962,
                -0.030410958904109588
            ]
        ],
        [
            [
                0.26803699897225086,
                0.02401826484018265
            ],
            [
                0.264131551901336,
                0.041552511415525115
            ],
            [
                0.26330935251798565,
                0.053242009132420096
            ]
        ],
        [
            [
                0.2623843782117164,
                0.0956164383561644
            ],
            [
                0.26156217882836585,
                0.10730593607305937
            ],
            [
                0.2570400822199383,
                0.11388127853881282
            ]
        ],
        [
            [
                0.25272353545734844,
                0.1518721461187214
            ],
            [
                0.24820143884892082,
                0.15844748858447488
            ],
            [
                0.2461459403905447,
                0.21251141552511413
            ]
        ]
    ],
    "36": [
        [
            [
                0.2322713257965056,
                0.40027397260273956
            ],
            [
                0.23021582733812945,
                0.45433789954337905
            ],
            [
                0.18150051387461455,
                0.5036529680365296
            ]
        ],
        [
            [
                0.02353545734840699,
                0.5986301369863014
            ],
            [
                -0.025179856115107917,
                0.6479452054794521
            ],
            [
                -0.03833504624871532,
                0.49269406392694065
            ]
        ],
        [
            [
                -0.07780061664953752,
                0.026940639269406392
            ],
            [
                -0.09095580678314492,
                -0.12831050228310503
            ],
            [
                -0.030524152106885933,
                -0.13305936073059363
            ]
        ],
        [
            [
                0.15077081192189107,
                -0.1473059360730594
            ],
            [
                0.21120246659815006,
                -0.15205479452054796
            ],
            [
                0.22394655704008223,
                -0.13123287671232878
            ]
        ],
        [
            [
                0.26217882836587875,
                -0.06876712328767123
            ],
            [
                0.27492291880781095,
                -0.04794520547945205
            ],
            [
                0.2710174717368962,
                -0.030410958904109588
            ]
        ],
        [
            [
                0.26803699897225086,
                0.02401826484018265
            ],
            [
                0.264131551901336,
                0.041552511415525115
            ],
            [
                0.26330935251798565,
                0.053242009132420096
            ]
        ],
        [
            [
                0.2623843782117164,
                0.0956164383561644
            ],
            [
                0.26156217882836585,
                0.10730593607305937
            ],
            [
                0.2570400822199383,
                0.11388127853881282
            ]
        ],
        [
            [
                0.24398766700924976,
                0.15369863013698623
            ],
            [
                0.23946557040082217,
                0.16027397260273973
            ],
            [
                0.237410071942446,
                0.21433789954337895
            ]
        ]
    ]
}
</property>
    <property name="kdenlive:collapsed">0</property>
   </filter>
  </entry>
  <blank length="00:00:19.280"/>
  <entry producer="producer38" in="00:00:00.000" out="00:00:01.360">
   <property name="kdenlive:id">40</property>
   <filter id="filter22">
    <property name="rotate_center">1</property>
    <property name="mlt_service">qtblend</property>
    <property name="kdenlive_id">qtblend</property>
    <property name="rect">00:00:00.000=1321 -188 276 155 1.000000;00:00:00.480=1315 -117 264 148 1.000000;00:00:00.560=1311 -4 264 148 1.000000;00:00:00.640=1313 73 264 148 1.000000;00:00:00.720=1315 152 264 148 1.000000;00:00:00.760=1315 233 264 148 1.000000;00:00:00.880=1361 236 332 186 1.000000;00:00:00.920=1454 248 332 186 1.000000;00:00:01.000=1388 335 266 149 1.000000;00:00:01.080=1449 380 266 149 1.000000;00:00:01.200=1514 459 266 149 1.000000;00:00:01.240=1558 542 266 149 1.000000;00:00:01.280=1575 652 266 149 1.000000;00:00:01.320=1595 802 266 149 1.000000;00:00:01.360=1585 968 266 149 1.000000</property>
    <property name="rotation">00:00:00.000=0;00:00:00.480=0;00:00:00.560=0;00:00:00.640=0;00:00:00.720=0;00:00:00.760=0;00:00:00.880=0;00:00:00.920=0;00:00:01.000=0;00:00:01.080=0;00:00:01.200=0;00:00:01.240=0;00:00:01.280=0;00:00:01.320=0;00:00:01.360=0</property>
    <property name="compositing">0</property>
    <property name="distort">0</property>
    <property name="kdenlive:collapsed">0</property>
   </filter>
  </entry>
  <blank length="00:00:06.240"/>
  <entry producer="producer86" in="00:00:01.520" out="00:00:05.520">
   <property name="kdenlive:id">16</property>
  </entry>
  <blank length="00:00:02.160"/>
  <entry producer="producer87" in="00:00:03.040" out="00:00:04.240">
   <property name="kdenlive:id">18</property>
   <filter id="filter23">
    <property name="version">0.2</property>
    <property name="mlt_service">frei0r.IIRblur</property>
    <property name="kdenlive_id">frei0r.IIRblur</property>
    <property name="Amount">00:00:03.040=0.932;00:00:03.560=0.04</property>
    <property name="Type">0.5</property>
    <property name="Edge">1</property>
    <property name="kdenlive:collapsed">0</property>
   </filter>
   <filter id="filter24" in="00:00:03.600" out="00:00:04.240">
    <property name="start">1</property>
    <property name="mlt_service">brightness</property>
    <property name="kdenlive_id">fade_to_black</property>
    <property name="end">0</property>
    <property name="alpha">1</property>
    <property name="kdenlive:collapsed">0</property>
   </filter>
  </entry>
  <blank length="00:00:00.120"/>
  <entry producer="producer88" in="00:00:03.520" out="00:00:03.520">
   <property name="kdenlive:id">17</property>
   <filter id="filter25">
    <property name="version">0.4</property>
    <property name="mlt_service">frei0r.curves</property>
    <property name="kdenlive_id">frei0r.bezier_curves</property>
    <property name="0">0.5</property>
    <property name="4">1</property>
    <property name="5">-1.000000;-1.000000#0.000000;0.000000#0.100000;0.100000|0.193575;0.929289#0.264286;1.000000#0.326190;1.070711|0.614286;0.595577#0.676190;0.624161#0.772018;0.652745|0.900000;0.900000#1.000000;1.000000#2.000000;2.000000</property>
    <property name="kdenlive:collapsed">0</property>
   </filter>
  </entry>
  <blank length="00:00:00.040"/>
  <entry producer="producer88" in="00:00:03.600" out="00:00:03.600">
   <property name="kdenlive:id">17</property>
   <filter id="filter26">
    <property name="version">0.4</property>
    <property name="mlt_service">frei0r.curves</property>
    <property name="kdenlive_id">frei0r.bezier_curves</property>
    <property name="0">0.5</property>
    <property name="4">1</property>
    <property name="5">-1.000000;-1.000000#0.000000;0.000000#0.100000;0.100000|0.193575;0.929289#0.264286;1.000000#0.326190;1.070711|0.614286;0.595577#0.676190;0.624161#0.772018;0.652745|0.900000;0.900000#1.000000;1.000000#2.000000;2.000000</property>
    <property name="kdenlive:collapsed">0</property>
   </filter>
  </entry>
  <blank length="00:00:00.040"/>
  <entry producer="producer88" in="00:00:03.680" out="00:00:03.680">
   <property name="kdenlive:id">17</property>
   <filter id="filter27">
    <property name="version">0.4</property>
    <property name="mlt_service">frei0r.curves</property>
    <property name="kdenlive_id">frei0r.bezier_curves</property>
    <property name="0">0.5</property>
    <property name="4">1</property>
    <property name="5">-1.000000;-1.000000#0.000000;0.000000#0.100000;0.100000|0.193575;0.929289#0.264286;1.000000#0.326190;1.070711|0.614286;0.595577#0.676190;0.624161#0.772018;0.652745|0.900000;0.900000#1.000000;1.000000#2.000000;2.000000</property>
    <property name="kdenlive:collapsed">0</property>
   </filter>
  </entry>
  <blank length="00:00:00.040"/>
  <entry producer="producer88" in="00:00:03.760" out="00:00:03.760">
   <property name="kdenlive:id">17</property>
   <filter id="filter28">
    <property name="version">0.4</property>
    <property name="mlt_service">frei0r.curves</property>
    <property name="kdenlive_id">frei0r.bezier_curves</property>
    <property name="0">0.5</property>
    <property name="4">1</property>
    <property name="5">-1.000000;-1.000000#0.000000;0.000000#0.100000;0.100000|0.193575;0.929289#0.264286;1.000000#0.326190;1.070711|0.614286;0.595577#0.676190;0.624161#0.772018;0.652745|0.900000;0.900000#1.000000;1.000000#2.000000;2.000000</property>
    <property name="kdenlive:collapsed">0</property>
   </filter>
  </entry>
  <blank length="00:00:06.080"/>
  <entry producer="producer89" in="00:00:02.520" out="00:00:02.520">
   <property name="kdenlive:id">20</property>
  </entry>
  <blank length="00:00:00.040"/>
  <entry producer="producer89" in="00:00:02.880" out="00:00:02.880">
   <property name="kdenlive:id">20</property>
  </entry>
  <blank length="00:00:00.040"/>
  <entry producer="producer89" in="00:00:04.080" out="00:00:04.080">
   <property name="kdenlive:id">20</property>
  </entry>
  <blank length="00:00:00.040"/>
  <entry producer="producer89" in="00:00:05.280" out="00:00:05.280">
   <property name="kdenlive:id">20</property>
  </entry>
  <blank length="00:00:40.160"/>
  <entry producer="producer90" in="00:00:00.000" out="00:00:09.200">
   <property name="kdenlive:id">26</property>
   <filter id="filter29">
    <property name="version">0.2</property>
    <property name="mlt_service">frei0r.IIRblur</property>
    <property name="kdenlive_id">frei0r.IIRblur</property>
    <property name="Amount">00:00:00.000=0.737</property>
    <property name="Type">0.5</property>
    <property name="Edge">1</property>
    <property name="kdenlive:collapsed">0</property>
   </filter>
   <filter id="filter30">
    <property name="mode">alpha</property>
    <property name="alpha_operation">clear</property>
    <property name="invert">0</property>
    <property name="feather">0</property>
    <property name="feather_passes">1</property>
    <property name="mlt_service">rotoscoping</property>
    <property name="kdenlive_id">rotoscoping</property>
    <property name="spline">{
    "000": [
        [
            [
                0.5228160328879754,
                -0.08484018264840183
            ],
            [
                0.36947584789311416,
                -0.08447488584474887
            ],
            [
                0.3820143884892087,
                -0.023470319634703207
            ]
        ],
        [
            [
                0.41603288797533394,
                0.20703196347031963
            ],
            [
                0.42857142857142855,
                0.2680365296803653
            ],
            [
                0.5549845837615616,
                0.30931506849315055
            ]
        ],
        [
            [
                0.9378211716341214,
                0.385662100456621
            ],
            [
                1.064234326824255,
                0.4269406392694064
            ],
            [
                1.078622816032888,
                0.32429223744292235
            ]
        ],
        [
            [
                1.1217882836587874,
                0.016347031963470326
            ],
            [
                1.1361767728674204,
                -0.0863013698630137
            ],
            [
                0.9828365878725591,
                -0.08593607305936074
            ]
        ]
    ],
    "081": [
        [
            [
                0.5228160328879754,
                -0.08484018264840183
            ],
            [
                0.36947584789311416,
                -0.08447488584474887
            ],
            [
                0.3820143884892087,
                -0.023470319634703207
            ]
        ],
        [
            [
                0.41603288797533394,
                0.20703196347031963
            ],
            [
                0.42857142857142855,
                0.2680365296803653
            ],
            [
                0.5549845837615616,
                0.30931506849315055
            ]
        ],
        [
            [
                0.9378211716341214,
                0.385662100456621
            ],
            [
                1.064234326824255,
                0.4269406392694064
            ],
            [
                1.078622816032888,
                0.32429223744292235
            ]
        ],
        [
            [
                1.1217882836587874,
                0.016347031963470326
            ],
            [
                1.1361767728674204,
                -0.0863013698630137
            ],
            [
                0.9828365878725591,
                -0.08593607305936074
            ]
        ]
    ],
    "082": [
        [
            [
                0.31212744090441963,
                -0.18529680365296808
            ],
            [
                0.15878725590955808,
                -0.18493150684931509
            ],
            [
                0.17132579650565263,
                -0.12392694063926941
            ]
        ],
        [
            [
                0.21613566289825278,
                0.09926940639269394
            ],
            [
                0.22867420349434742,
                0.16027397260273973
            ],
            [
                0.3550873586844811,
                0.20155251141552477
            ]
        ],
        [
            [
                0.9378211716341214,
                0.385662100456621
            ],
            [
                1.064234326824255,
                0.4269406392694064
            ],
            [
                1.078622816032888,
                0.32429223744292235
            ]
        ],
        [
            [
                1.1217882836587874,
                0.016347031963470326
            ],
            [
                1.1361767728674204,
                -0.0863013698630137
            ],
            [
                0.9828365878725591,
                -0.08593607305936074
            ]
        ]
    ],
    "084": [
        [
            [
                0.31212744090441963,
                -0.18529680365296808
            ],
            [
                0.15878725590955808,
                -0.18493150684931509
            ],
            [
                0.17132579650565263,
                -0.12392694063926941
            ]
        ],
        [
            [
                0.17091469681397733,
                0.04447488584474871
            ],
            [
                0.18345323741007197,
                0.10547945205479452
            ],
            [
                0.3098663926002062,
                0.1467579908675795
            ]
        ],
        [
            [
                0.9347379239465581,
                0.29799086757990856
            ],
            [
                1.0611510791366907,
                0.3392694063926941
            ],
            [
                1.075539568345324,
                0.23662100456621
            ]
        ],
        [
            [
                1.1217882836587874,
                0.016347031963470326
            ],
            [
                1.1361767728674204,
                -0.0863013698630137
            ],
            [
                0.9828365878725591,
                -0.08593607305936074
            ]
        ]
    ],
    "090": [
        [
            [
                0.31212744090441963,
                -0.18529680365296808
            ],
            [
                0.15878725590955808,
                -0.18493150684931509
            ],
            [
                0.17132579650565263,
                -0.12392694063926941
            ]
        ],
        [
            [
                0.12877697841726612,
                -0.04319634703196363
            ],
            [
                0.14131551901336076,
                0.01780821917808219
            ],
            [
                0.26772867420349583,
                0.05908675799086714
            ]
        ],
        [
            [
                0.9367934224049342,
                0.19205479452054786
            ],
            [
                1.063206577595067,
                0.23333333333333334
            ],
            [
                1.0775950668037002,
                0.13068493150684932
            ]
        ],
        [
            [
                1.1217882836587874,
                0.016347031963470326
            ],
            [
                1.1361767728674204,
                -0.0863013698630137
            ],
            [
                0.9828365878725591,
                -0.08593607305936074
            ]
        ]
    ],
    "097": [
        [
            [
                0.31212744090441963,
                -0.18529680365296808
            ],
            [
                0.15878725590955808,
                -0.18493150684931509
            ],
            [
                0.17132579650565263,
                -0.12392694063926941
            ]
        ],
        [
            [
                0.11849948612538534,
                -0.10347031963470338
            ],
            [
                0.13103802672148,
                -0.04246575342465754
            ],
            [
                0.2574511819116151,
                -0.001187214611872584
            ]
        ],
        [
            [
                0.9450154162384389,
                0.18109589041095883
            ],
            [
                1.0714285714285716,
                0.2223744292237443
            ],
            [
                1.0858170606372048,
                0.1197260273972603
            ]
        ],
        [
            [
                1.1217882836587874,
                0.016347031963470326
            ],
            [
                1.1361767728674204,
                -0.0863013698630137
            ],
            [
                0.9828365878725591,
                -0.08593607305936074
            ]
        ]
    ],
    "103": [
        [
            [
                0.31212744090441963,
                -0.18529680365296808
            ],
            [
                0.15878725590955808,
                -0.18493150684931509
            ],
            [
                0.17132579650565263,
                -0.12392694063926941
            ]
        ],
        [
            [
                0.06094552929085293,
                -0.07972602739726044
            ],
            [
                0.0734840698869476,
                -0.018721461187214614
            ],
            [
                0.19989722507708266,
                0.02255707762557034
            ]
        ],
        [
            [
                0.9306269270298061,
                0.23954337899543374
            ],
            [
                1.0570400822199384,
                0.2808219178082192
            ],
            [
                1.0714285714285723,
                0.17817351598173523
            ]
        ],
        [
            [
                1.1217882836587874,
                0.016347031963470326
            ],
            [
                1.1361767728674204,
                -0.0863013698630137
            ],
            [
                0.9828365878725591,
                -0.08593607305936074
            ]
        ]
    ],
    "104": [
        [
            [
                0.31212744090441963,
                -0.18529680365296808
            ],
            [
                0.15878725590955808,
                -0.18493150684931509
            ],
            [
                0.17132579650565263,
                -0.12392694063926941
            ]
        ],
        [
            [
                -0.02641315519013372,
                -0.04867579908675814
            ],
            [
                -0.013874614594039056,
                0.012328767123287671
            ],
            [
                0.11253854059609608,
                0.05360730593607263
            ]
        ],
        [
            [
                0.9326824254881824,
                0.2669406392694064
            ],
            [
                1.0590955806783147,
                0.3082191780821918
            ],
            [
                1.0734840698869486,
                0.20557077625570785
            ]
        ],
        [
            [
                1.1217882836587874,
                0.016347031963470326
            ],
            [
                1.1361767728674204,
                -0.0863013698630137
            ],
            [
                0.9828365878725591,
                -0.08593607305936074
            ]
        ]
    ],
    "105": [
        [
            [
                0.31212744090441963,
                -0.18529680365296808
            ],
            [
                0.15878725590955808,
                -0.18493150684931509
            ],
            [
                0.17132579650565263,
                -0.12392694063926941
            ]
        ],
        [
            [
                -0.06752312435765685,
                -0.010319634703196495
            ],
            [
                -0.054984583761562185,
                0.050684931506849315
            ],
            [
                0.071428571428573,
                0.09196347031963428
            ]
        ],
        [
            [
                0.4290853031860243,
                0.24319634703196347
            ],
            [
                0.5554984583761563,
                0.2844748858447489
            ],
            [
                0.5698869475847909,
                0.18182648401826493
            ]
        ],
        [
            [
                0.668550873586845,
                0.2548858447488585
            ],
            [
                0.7528263103802674,
                0.2041095890410959
            ],
            [
                0.7846865364850972,
                0.18073059360730592
            ]
        ],
        [
            [
                1.1217882836587874,
                0.016347031963470326
            ],
            [
                1.1361767728674204,
                -0.0863013698630137
            ],
            [
                0.9828365878725591,
                -0.08593607305936074
            ]
        ]
    ],
    "106": [
        [
            [
                0.31212744090441963,
                -0.18529680365296808
            ],
            [
                0.15878725590955808,
                -0.18493150684931509
            ],
            [
                0.17132579650565263,
                -0.12392694063926941
            ]
        ],
        [
            [
                -0.09116135662898264,
                0.040821917808219026
            ],
            [
                -0.07862281603288798,
                0.10182648401826484
            ],
            [
                0.0477903391572472,
                0.1431050228310498
            ]
        ],
        [
            [
                0.4290853031860243,
                0.24319634703196347
            ],
            [
                0.5554984583761563,
                0.2844748858447489
            ],
            [
                0.5698869475847909,
                0.18182648401826493
            ]
        ],
        [
            [
                0.668550873586845,
                0.2548858447488585
            ],
            [
                0.7528263103802674,
                0.2041095890410959
            ],
            [
                0.7846865364850972,
                0.18073059360730592
            ]
        ],
        [
            [
                1.1217882836587874,
                0.016347031963470326
            ],
            [
                1.1361767728674204,
                -0.0863013698630137
            ],
            [
                0.9828365878725591,
                -0.08593607305936074
            ]
        ]
    ],
    "108": [
        [
            [
                0.31212744090441963,
                -0.18529680365296808
            ],
            [
                0.15878725590955808,
                -0.18493150684931509
            ],
            [
                0.17132579650565263,
                -0.12392694063926941
            ]
        ],
        [
            [
                -0.12404933196300115,
                0.09744292237442906
            ],
            [
                -0.11151079136690649,
                0.15844748858447488
            ],
            [
                0.014902363823228706,
                0.1997260273972598
            ]
        ],
        [
            [
                0.4136690647482031,
                0.3253881278538812
            ],
            [
                0.5400822199383352,
                0.36666666666666664
            ],
            [
                0.5544707091469696,
                0.2640182648401826
            ]
        ],
        [
            [
                0.668550873586845,
                0.2548858447488585
            ],
            [
                0.7528263103802674,
                0.2041095890410959
            ],
            [
                0.7846865364850972,
                0.18073059360730592
            ]
        ],
        [
            [
                1.1217882836587874,
                0.016347031963470326
            ],
            [
                1.1361767728674204,
                -0.0863013698630137
            ],
            [
                0.9828365878725591,
                -0.08593607305936074
            ]
        ]
    ],
    "111": [
        [
            [
                0.31212744090441963,
                -0.18529680365296808
            ],
            [
                0.15878725590955808,
                -0.18493150684931509
            ],
            [
                0.17132579650565263,
                -0.12392694063926941
            ]
        ],
        [
            [
                -0.12404933196300115,
                0.09744292237442906
            ],
            [
                -0.11151079136690649,
                0.15844748858447488
            ],
            [
                0.014902363823228706,
                0.1997260273972598
            ]
        ],
        [
            [
                0.3725590955806803,
                0.246849315068493
            ],
            [
                0.498972250770812,
                0.28812785388127854
            ],
            [
                0.5133607399794468,
                0.18547945205479444
            ]
        ],
        [
            [
                0.668550873586845,
                0.2548858447488585
            ],
            [
                0.7528263103802674,
                0.2041095890410959
            ],
            [
                0.7846865364850972,
                0.18073059360730592
            ]
        ],
        [
            [
                1.1217882836587874,
                0.016347031963470326
            ],
            [
                1.1361767728674204,
                -0.0863013698630137
            ],
            [
                0.9828365878725591,
                -0.08593607305936074
            ]
        ]
    ],
    "114": [
        [
            [
                0.31212744090441963,
                -0.18529680365296808
            ],
            [
                0.15878725590955808,
                -0.18493150684931509
            ],
            [
                0.17132579650565263,
                -0.12392694063926941
            ]
        ],
        [
            [
                -0.12713257965056537,
                0.011598173515981568
            ],
            [
                -0.11459403905447071,
                0.0726027397260274
            ],
            [
                0.01181911613566448,
                0.11388127853881232
            ]
        ],
        [
            [
                0.15919835560123335,
                0.13397260273972603
            ],
            [
                0.2163412127440905,
                0.14383561643835618
            ],
            [
                0.24059609455292913,
                0.15004566210045658
            ]
        ],
        [
            [
                0.2140801644398767,
                0.22273972602739725
            ],
            [
                0.2954779033915725,
                0.23881278538812786
            ],
            [
                0.33432682425488186,
                0.24831050228310503
            ]
        ],
        [
            [
                0.36330935251798757,
                0.24502283105022815
            ],
            [
                0.48972250770811926,
                0.28630136986301374
            ],
            [
                0.5041109969167541,
                0.1836529680365296
            ]
        ],
        [
            [
                0.668550873586845,
                0.2548858447488585
            ],
            [
                0.7528263103802674,
                0.2041095890410959
            ],
            [
                0.7846865364850972,
                0.18073059360730592
            ]
        ],
        [
            [
                1.1217882836587874,
                0.016347031963470326
            ],
            [
                1.1361767728674204,
                -0.0863013698630137
            ],
            [
                0.9828365878725591,
                -0.08593607305936074
            ]
        ]
    ],
    "117": [
        [
            [
                0.31212744090441963,
                -0.18529680365296808
            ],
            [
                0.15878725590955808,
                -0.18493150684931509
            ],
            [
                0.17132579650565263,
                -0.12392694063926941
            ]
        ],
        [
            [
                -0.1168550873586846,
                -0.05598173515981753
            ],
            [
                -0.10431654676258995,
                0.005022831050228311
            ],
            [
                0.022096608427545253,
                0.046301369863013205
            ]
        ],
        [
            [
                0.2743062692702981,
                0.099269406392694
            ],
            [
                0.33144912641315527,
                0.1091324200913242
            ],
            [
                0.35570400822199383,
                0.11534246575342458
            ]
        ],
        [
            [
                0.26752312435765674,
                0.23369863013698636
            ],
            [
                0.34892086330935257,
                0.24977168949771691
            ],
            [
                0.3877697841726619,
                0.2592694063926942
            ]
        ],
        [
            [
                0.36330935251798757,
                0.24502283105022815
            ],
            [
                0.48972250770811926,
                0.28630136986301374
            ],
            [
                0.5041109969167541,
                0.1836529680365296
            ]
        ],
        [
            [
                0.668550873586845,
                0.2548858447488585
            ],
            [
                0.7528263103802674,
                0.2041095890410959
            ],
            [
                0.7846865364850972,
                0.18073059360730592
            ]
        ],
        [
            [
                1.1217882836587874,
                0.016347031963470326
            ],
            [
                1.1361767728674204,
                -0.0863013698630137
            ],
            [
                0.9828365878725591,
                -0.08593607305936074
            ]
        ]
    ],
    "119": [
        [
            [
                0.31212744090441963,
                -0.18529680365296808
            ],
            [
                0.15878725590955808,
                -0.18493150684931509
            ],
            [
                0.17132579650565263,
                -0.12392694063926941
            ]
        ],
        [
            [
                -0.08705035971223032,
                -0.154611872146119
            ],
            [
                -0.07451181911613566,
                -0.09360730593607307
            ],
            [
                0.051901336073999535,
                -0.052328767123288183
            ]
        ],
        [
            [
                0.4490236382322715,
                0.06639269406392688
            ],
            [
                0.5061664953751285,
                0.07625570776255708
            ],
            [
                0.530421377183967,
                0.08246575342465748
            ]
        ],
        [
            [
                0.4506680369989723,
                0.25159817351598174
            ],
            [
                0.48972250770811926,
                0.28630136986301374
            ],
            [
                0.5041109969167541,
                0.1836529680365296
            ]
        ],
        [
            [
                0.668550873586845,
                0.2548858447488585
            ],
            [
                0.7528263103802674,
                0.2041095890410959
            ],
            [
                0.7846865364850972,
                0.18073059360730592
            ]
        ],
        [
            [
                1.1217882836587874,
                0.016347031963470326
            ],
            [
                1.1361767728674204,
                -0.0863013698630137
            ],
            [
                0.9828365878725591,
                -0.08593607305936074
            ]
        ]
    ],
    "121": [
        [
            [
                0.31212744090441963,
                -0.18529680365296808
            ],
            [
                0.15878725590955808,
                -0.18493150684931509
            ],
            [
                0.17132579650565263,
                -0.12392694063926941
            ]
        ],
        [
            [
                0.07533401849948602,
                -0.1947945205479455
            ],
            [
                0.08787255909558069,
                -0.13378995433789956
            ],
            [
                0.21428571428571594,
                -0.09251141552511467
            ]
        ],
        [
            [
                0.5394655704008223,
                0.03534246575342459
            ],
            [
                0.5966084275436795,
                0.045205479452054796
            ],
            [
                0.620863309352518,
                0.05141552511415518
            ]
        ],
        [
            [
                0.5565262076053443,
                0.2570776255707763
            ],
            [
                0.5955806783144912,
                0.29178082191780824
            ],
            [
                0.6099691675231261,
                0.18913242009132417
            ]
        ],
        [
            [
                0.7076053442959919,
                0.2968949771689497
            ],
            [
                0.7918807810894143,
                0.2461187214611872
            ],
            [
                0.8237410071942441,
                0.22273972602739722
            ]
        ],
        [
            [
                1.1217882836587874,
                0.016347031963470326
            ],
            [
                1.1361767728674204,
                -0.0863013698630137
            ],
            [
                0.9828365878725591,
                -0.08593607305936074
            ]
        ]
    ],
    "123": [
        [
            [
                0.31212744090441963,
                -0.18529680365296808
            ],
            [
                0.15878725590955808,
                -0.18493150684931509
            ],
            [
                0.17132579650565263,
                -0.12392694063926941
            ]
        ],
        [
            [
                0.07533401849948602,
                -0.1947945205479455
            ],
            [
                0.08787255909558069,
                -0.13378995433789956
            ],
            [
                0.21428571428571594,
                -0.09251141552511467
            ]
        ],
        [
            [
                0.6586844809866395,
                -0.03406392694063934
            ],
            [
                0.7158273381294965,
                -0.024200913242009132
            ],
            [
                0.740082219938335,
                -0.017990867579908757
            ]
        ],
        [
            [
                0.6654676258992807,
                0.1310502283105024
            ],
            [
                0.7045220966084276,
                0.16575342465753426
            ],
            [
                0.7476875642343269,
                0.13287671232876713
            ]
        ],
        [
            [
                0.9367934224049328,
                0.26036529680365295
            ],
            [
                1.0210688591983557,
                0.20958904109589044
            ],
            [
                1.0529290853031852,
                0.1862100456621005
            ]
        ],
        [
            [
                1.1217882836587874,
                0.016347031963470326
            ],
            [
                1.1361767728674204,
                -0.0863013698630137
            ],
            [
                0.9828365878725591,
                -0.08593607305936074
            ]
        ]
    ],
    "125": [
        [
            [
                0.31212744090441963,
                -0.18529680365296808
            ],
            [
                0.15878725590955808,
                -0.18493150684931509
            ],
            [
                0.17132579650565263,
                -0.12392694063926941
            ]
        ],
        [
            [
                0.07533401849948602,
                -0.1947945205479455
            ],
            [
                0.08787255909558069,
                -0.13378995433789956
            ],
            [
                0.21428571428571594,
                -0.09251141552511467
            ]
        ],
        [
            [
                0.8323741007194246,
                -0.059634703196347096
            ],
            [
                0.8895169578622817,
                -0.049771689497716896
            ],
            [
                0.9137718396711202,
                -0.043561643835616524
            ]
        ],
        [
            [
                0.7857142857142858,
                0.19315068493150692
            ],
            [
                0.8247687564234327,
                0.22785388127853884
            ],
            [
                0.867934224049332,
                0.1949771689497717
            ]
        ],
        [
            [
                0.9367934224049328,
                0.26036529680365295
            ],
            [
                1.0210688591983557,
                0.20958904109589044
            ],
            [
                1.0529290853031852,
                0.1862100456621005
            ]
        ],
        [
            [
                1.1217882836587874,
                0.016347031963470326
            ],
            [
                1.1361767728674204,
                -0.0863013698630137
            ],
            [
                0.9828365878725591,
                -0.08593607305936074
            ]
        ]
    ],
    "127": [
        [
            [
                0.31212744090441963,
                -0.18529680365296808
            ],
            [
                0.15878725590955808,
                -0.18493150684931509
            ],
            [
                0.17132579650565263,
                -0.12392694063926941
            ]
        ],
        [
            [
                0.07533401849948602,
                -0.1947945205479455
            ],
            [
                0.08787255909558069,
                -0.13378995433789956
            ],
            [
                0.21428571428571594,
                -0.09251141552511467
            ]
        ],
        [
            [
                0.8693730729701954,
                -0.05780821917808225
            ],
            [
                0.9265159301130524,
                -0.04794520547945205
            ],
            [
                0.9507708119218911,
                -0.04173515981735168
            ]
        ],
        [
            [
                0.8915724563206578,
                0.18949771689497724
            ],
            [
                0.9306269270298048,
                0.22420091324200916
            ],
            [
                0.973792394655704,
                0.191324200913242
            ]
        ],
        [
            [
                0.9367934224049328,
                0.26036529680365295
            ],
            [
                1.0210688591983557,
                0.20958904109589044
            ],
            [
                1.0529290853031852,
                0.1862100456621005
            ]
        ],
        [
            [
                1.1217882836587874,
                0.016347031963470326
            ],
            [
                1.1361767728674204,
                -0.0863013698630137
            ],
            [
                0.9828365878725591,
                -0.08593607305936074
            ]
        ]
    ],
    "129": [
        [
            [
                0.31212744090441963,
                -0.18529680365296808
            ],
            [
                0.15878725590955808,
                -0.18493150684931509
            ],
            [
                0.17132579650565263,
                -0.12392694063926941
            ]
        ],
        [
            [
                0.07533401849948602,
                -0.1947945205479455
            ],
            [
                0.08787255909558069,
                -0.13378995433789956
            ],
            [
                0.21428571428571594,
                -0.09251141552511467
            ]
        ],
        [
            [
                0.9649537512846869,
                -0.046849315068493214
            ],
            [
                1.0220966084275438,
                -0.036986301369863014
            ],
            [
                1.0463514902363822,
                -0.030776255707762643
            ]
        ],
        [
            [
                0.969681397738952,
                0.20958904109589047
            ],
            [
                1.0087358684480987,
                0.2442922374429224
            ],
            [
                1.0519013360739982,
                0.21141552511415523
            ]
        ],
        [
            [
                1.1433710174717366,
                0.29506849315068484
            ],
            [
                1.2276464542651593,
                0.2442922374429224
            ],
            [
                1.2595066803699888,
                0.22091324200913248
            ]
        ],
        [
            [
                1.1217882836587874,
                0.016347031963470326
            ],
            [
                1.1361767728674204,
                -0.0863013698630137
            ],
            [
                0.9828365878725591,
                -0.08593607305936074
            ]
        ]
    ],
    "135": [
        [
            [
                0.31212744090441963,
                -0.18529680365296808
            ],
            [
                0.15878725590955808,
                -0.18493150684931509
            ],
            [
                0.17132579650565263,
                -0.12392694063926941
            ]
        ],
        [
            [
                0.07533401849948602,
                -0.1947945205479455
            ],
            [
                0.08787255909558069,
                -0.13378995433789956
            ],
            [
                0.21428571428571594,
                -0.09251141552511467
            ]
        ],
        [
            [
                0.9649537512846869,
                -0.046849315068493214
            ],
            [
                1.0220966084275438,
                -0.036986301369863014
            ],
            [
                1.0463514902363822,
                -0.030776255707762643
            ]
        ],
        [
            [
                1.0138746145940394,
                0.2278538812785388
            ],
            [
                1.052929085303186,
                0.2625570776255708
            ],
            [
                1.0960945529290855,
                0.2296803652968036
            ]
        ],
        [
            [
                1.1433710174717366,
                0.29506849315068484
            ],
            [
                1.2276464542651593,
                0.2442922374429224
            ],
            [
                1.2595066803699888,
                0.22091324200913248
            ]
        ],
        [
            [
                1.1217882836587874,
                0.016347031963470326
            ],
            [
                1.1361767728674204,
                -0.0863013698630137
            ],
            [
                0.9828365878725591,
                -0.08593607305936074
            ]
        ]
    ],
    "211": [
        [
            [
                0.31212744090441963,
                -0.18529680365296808
            ],
            [
                0.15878725590955808,
                -0.18493150684931509
            ],
            [
                0.17132579650565263,
                -0.12392694063926941
            ]
        ],
        [
            [
                0.07533401849948602,
                -0.1947945205479455
            ],
            [
                0.08787255909558069,
                -0.13378995433789956
            ],
            [
                0.21428571428571594,
                -0.09251141552511467
            ]
        ],
        [
            [
                0.9649537512846869,
                -0.046849315068493214
            ],
            [
                1.0220966084275438,
                -0.036986301369863014
            ],
            [
                1.0463514902363822,
                -0.030776255707762643
            ]
        ],
        [
            [
                1.0138746145940394,
                0.2278538812785388
            ],
            [
                1.052929085303186,
                0.2625570776255708
            ],
            [
                1.0960945529290855,
                0.2296803652968036
            ]
        ],
        [
            [
                1.1433710174717366,
                0.29506849315068484
            ],
            [
                1.2276464542651593,
                0.2442922374429224
            ],
            [
                1.2595066803699888,
                0.22091324200913248
            ]
        ],
        [
            [
                1.1217882836587874,
                0.016347031963470326
            ],
            [
                1.1361767728674204,
                -0.0863013698630137
            ],
            [
                0.9828365878725591,
                -0.08593607305936074
            ]
        ]
    ],
    "216": [
        [
            [
                0.31212744090441963,
                -0.18529680365296808
            ],
            [
                0.15878725590955808,
                -0.18493150684931509
            ],
            [
                0.17132579650565263,
                -0.12392694063926941
            ]
        ],
        [
            [
                0.07533401849948602,
                -0.1947945205479455
            ],
            [
                0.08787255909558069,
                -0.13378995433789956
            ],
            [
                0.21428571428571594,
                -0.09251141552511467
            ]
        ],
        [
            [
                0.9721479958890029,
                0.19059360730593605
            ],
            [
                1.0292908530318603,
                0.2004566210045662
            ],
            [
                1.0535457348406987,
                0.20666666666666664
            ]
        ],
        [
            [
                1.0138746145940394,
                0.2278538812785388
            ],
            [
                1.052929085303186,
                0.2625570776255708
            ],
            [
                1.0960945529290855,
                0.2296803652968036
            ]
        ],
        [
            [
                1.1433710174717366,
                0.29506849315068484
            ],
            [
                1.2276464542651593,
                0.2442922374429224
            ],
            [
                1.2595066803699888,
                0.22091324200913248
            ]
        ],
        [
            [
                1.1217882836587874,
                0.016347031963470326
            ],
            [
                1.1361767728674204,
                -0.0863013698630137
            ],
            [
                0.9828365878725591,
                -0.08593607305936074
            ]
        ]
    ],
    "227": [
        [
            [
                0.5495375128468658,
                -0.10858447488584481
            ],
            [
                0.3961973278520041,
                -0.10821917808219178
            ],
            [
                0.40873586844809867,
                -0.047214611872146164
            ]
        ],
        [
            [
                0.5573484069886949,
                0.08283105022831029
            ],
            [
                0.5698869475847894,
                0.14383561643835618
            ],
            [
                0.6963001027749249,
                0.18511415525114103
            ]
        ],
        [
            [
                0.9906474820143887,
                0.3147945205479452
            ],
            [
                1.0477903391572458,
                0.3246575342465754
            ],
            [
                1.072045220966084,
                0.3308675799086758
            ]
        ],
        [
            [
                1.1433710174717366,
                0.29506849315068484
            ],
            [
                1.2276464542651593,
                0.2442922374429224
            ],
            [
                1.2595066803699888,
                0.22091324200913248
            ]
        ],
        [
            [
                1.1217882836587874,
                0.016347031963470326
            ],
            [
                1.1361767728674204,
                -0.0863013698630137
            ],
            [
                0.9828365878725591,
                -0.08593607305936074
            ]
        ]
    ]
}
</property>
    <property name="kdenlive:collapsed">0</property>
   </filter>
   <filter id="filter31" out="00:00:00.280">
    <property name="start">0</property>
    <property name="mlt_service">brightness</property>
    <property name="kdenlive_id">fade_from_black</property>
    <property name="end">1</property>
    <property name="alpha">-1</property>
    <property name="kdenlive:collapsed">0</property>
   </filter>
  </entry>
  <blank length="00:00:46.040"/>
  <entry producer="producer91" in="00:00:00.000" out="00:00:00.000">
   <property name="kdenlive:id">49</property>
  </entry>
  <blank length="00:00:00.040"/>
  <entry producer="producer91" in="00:00:00.040" out="00:00:00.040">
   <property name="kdenlive:id">49</property>
  </entry>
  <blank length="00:00:00.080"/>
  <entry producer="producer91" in="00:00:00.080" out="00:00:00.080">
   <property name="kdenlive:id">49</property>
  </entry>
  <blank length="00:00:00.080"/>
  <entry producer="producer91" in="00:00:00.120" out="00:00:00.120">
   <property name="kdenlive:id">49</property>
  </entry>
  <blank length="00:00:00.080"/>
  <entry producer="producer91" in="00:00:00.160" out="00:00:00.160">
   <property name="kdenlive:id">49</property>
  </entry>
  <blank length="00:00:00.040"/>
  <entry producer="producer91" in="00:00:00.200" out="00:00:00.200">
   <property name="kdenlive:id">49</property>
  </entry>
  <blank length="00:00:00.080"/>
  <entry producer="producer91" in="00:00:00.240" out="00:00:22.000">
   <property name="kdenlive:id">49</property>
  </entry>
  <entry producer="producer92" in="00:00:10.840" out="00:00:14.520">
   <property name="kdenlive:id">45</property>
  </entry>
 </playlist>
 <playlist id="playlist7"/>
 <tractor id="tractor3" in="00:00:00.000" out="00:03:06.560">
  <property name="kdenlive:trackheight">69</property>
  <property name="kdenlive:timeline_active">1</property>
  <property name="kdenlive:collapsed">0</property>
  <property name="kdenlive:thumbs_format"/>
  <property name="kdenlive:audio_rec"/>
  <track hide="audio" producer="playlist6"/>
  <track producer="playlist7"/>
 </tractor>
 <producer id="producer93" in="00:00:00.000" out="00:00:07.280">
  <property name="length">183</property>
  <property name="eof">pause</property>
  <property name="resource">/home/chiller/.cache/kdenlive/proxy/b8c8df8df8235ee3c8d8b9774dd9a98b.mov</property>
  <property name="audio_index">1</property>
  <property name="video_index">0</property>
  <property name="mute_on_pause">0</property>
  <property name="mlt_service">avformat-novalidate</property>
  <property name="seekable">1</property>
  <property name="aspect_ratio">1</property>
  <property name="kdenlive:clipname">prague_airbnb.mov</property>
  <property name="kdenlive:folderid">-1</property>
  <property name="kdenlive:id">51</property>
  <property name="kdenlive:file_size">8545603</property>
  <property name="kdenlive:file_hash">b8c8df8df8235ee3c8d8b9774dd9a98b</property>
  <property name="kdenlive:proxy">/home/chiller/.cache/kdenlive/proxy/b8c8df8df8235ee3c8d8b9774dd9a98b.mov</property>
  <property name="kdenlive:originalurl">mov/indoor/prague_airbnb.mov</property>
  <property name="kdenlive:original.mlt_type">producer</property>
  <property name="kdenlive:original.in">0</property>
  <property name="kdenlive:original.out">182</property>
  <property name="kdenlive:original.length">183</property>
  <property name="kdenlive:original.eof">pause</property>
  <property name="kdenlive:original.resource">mov/indoor/prague_airbnb.mov</property>
  <property name="kdenlive:original.meta.media.nb_streams">5</property>
  <property name="kdenlive:original.meta.media.0.stream.type">video</property>
  <property name="kdenlive:original.meta.media.0.stream.frame_rate">29.9726</property>
  <property name="kdenlive:original.meta.media.0.stream.sample_aspect_ratio">0</property>
  <property name="kdenlive:original.meta.media.0.codec.width">1920</property>
  <property name="kdenlive:original.meta.media.0.codec.height">1080</property>
  <property name="kdenlive:original.meta.media.0.codec.rotate">0</property>
  <property name="kdenlive:original.meta.media.0.codec.frame_rate">600</property>
  <property name="kdenlive:original.meta.media.0.codec.pix_fmt">yuv420p</property>
  <property name="kdenlive:original.meta.media.0.codec.sample_aspect_ratio">0</property>
  <property name="kdenlive:original.meta.media.0.codec.colorspace">709</property>
  <property name="kdenlive:original.meta.media.0.codec.color_trc">1</property>
  <property name="kdenlive:original.meta.media.0.codec.name">hevc</property>
  <property name="kdenlive:original.meta.media.0.codec.long_name">HEVC (High Efficiency Video Coding)</property>
  <property name="kdenlive:original.meta.media.0.codec.bit_rate">9149968</property>
  <property name="kdenlive:original.meta.attr.0.stream.creation_time.markup">2019-12-31T15:38:19.000000Z</property>
  <property name="kdenlive:original.meta.attr.0.stream.handler_name.markup">Core Media Video</property>
  <property name="kdenlive:original.meta.attr.0.stream.encoder.markup">HEVC</property>
  <property name="kdenlive:original.meta.media.1.stream.type">audio</property>
  <property name="kdenlive:original.meta.media.1.codec.sample_fmt">fltp</property>
  <property name="kdenlive:original.meta.media.1.codec.sample_rate">44100</property>
  <property name="kdenlive:original.meta.media.1.codec.channels">2</property>
  <property name="kdenlive:original.meta.media.1.codec.name">aac</property>
  <property name="kdenlive:original.meta.media.1.codec.long_name">AAC (Advanced Audio Coding)</property>
  <property name="kdenlive:original.meta.media.1.codec.bit_rate">175066</property>
  <property name="kdenlive:original.meta.attr.1.stream.creation_time.markup">2019-12-31T15:38:19.000000Z</property>
  <property name="kdenlive:original.meta.attr.1.stream.handler_name.markup">Core Media Audio</property>
  <property name="kdenlive:original.meta.attr.major_brand.markup">qt  </property>
  <property name="kdenlive:original.meta.attr.minor_version.markup">0</property>
  <property name="kdenlive:original.meta.attr.compatible_brands.markup">qt  </property>
  <property name="kdenlive:original.meta.attr.creation_time.markup">2019-12-31T15:38:19.000000Z</property>
  <property name="kdenlive:original.meta.attr.com.apple.quicktime.make.markup">Apple</property>
  <property name="kdenlive:original.meta.attr.com.apple.quicktime.model.markup">iPhone XS</property>
  <property name="kdenlive:original.meta.attr.com.apple.quicktime.software.markup">13.3</property>
  <property name="kdenlive:original.meta.attr.com.apple.quicktime.creationdate.markup">2019-12-31T16:38:19+0100</property>
  <property name="kdenlive:original.seekable">1</property>
  <property name="kdenlive:original.width">1920</property>
  <property name="kdenlive:original.height">1080</property>
  <property name="kdenlive:original.meta.media.sample_aspect_num">1</property>
  <property name="kdenlive:original.meta.media.sample_aspect_den">1</property>
  <property name="kdenlive:original.aspect_ratio">1</property>
  <property name="kdenlive:original.audio_index">1</property>
  <property name="kdenlive:original.video_index">0</property>
  <property name="kdenlive:original.mute_on_pause">0</property>
  <property name="kdenlive:original.mlt_service">avformat-novalidate</property>
  <property name="kdenlive:original.kdenlive:folderid">-1</property>
  <property name="kdenlive:original.meta.media.frame_rate_num">16425</property>
  <property name="kdenlive:original.meta.media.frame_rate_den">548</property>
  <property name="kdenlive:original.meta.media.colorspace">709</property>
  <property name="kdenlive:original.meta.media.color_trc">1</property>
  <property name="kdenlive:original.meta.media.width">1920</property>
  <property name="kdenlive:original.meta.media.height">1080</property>
  <property name="kdenlive:original.meta.media.color_range">mpeg</property>
  <property name="kdenlive:original.kdenlive:id">51</property>
  <property name="kdenlive:original.kdenlive:file_size">8545603</property>
  <property name="kdenlive:original.kdenlive:file_hash">b8c8df8df8235ee3c8d8b9774dd9a98b</property>
  <property name="kdenlive:original.backup">1</property>
  <property name="kdenlive:audio_max">23</property>
  <property name="global_feed">1</property>
  <property name="xml">was here</property>
  <property name="meta.media.nb_streams">2</property>
  <property name="meta.media.0.stream.type">video</property>
  <property name="meta.media.0.stream.frame_rate">29.97</property>
  <property name="meta.media.0.stream.sample_aspect_ratio">0</property>
  <property name="meta.media.0.codec.width">640</property>
  <property name="meta.media.0.codec.height">360</property>
  <property name="meta.media.0.codec.rotate">0</property>
  <property name="meta.media.0.codec.frame_rate">29.97</property>
  <property name="meta.media.0.codec.pix_fmt">yuv420p</property>
  <property name="meta.media.0.codec.sample_aspect_ratio">1</property>
  <property name="meta.media.0.codec.colorspace">601</property>
  <property name="meta.media.0.codec.name">h264</property>
  <property name="meta.media.0.codec.long_name">H.264 / AVC / MPEG-4 AVC / MPEG-4 part 10</property>
  <property name="meta.media.0.codec.bit_rate">5893138</property>
  <property name="meta.attr.0.stream.handler_name.markup">Core Media Video</property>
  <property name="meta.attr.0.stream.encoder.markup">Lavc58.111.100 h264_nvenc</property>
  <property name="meta.media.1.stream.type">audio</property>
  <property name="meta.media.1.codec.sample_fmt">fltp</property>
  <property name="meta.media.1.codec.sample_rate">44100</property>
  <property name="meta.media.1.codec.channels">2</property>
  <property name="meta.media.1.codec.name">aac</property>
  <property name="meta.media.1.codec.long_name">AAC (Advanced Audio Coding)</property>
  <property name="meta.media.1.codec.bit_rate">175517</property>
  <property name="meta.attr.1.stream.handler_name.markup">Core Media Audio</property>
  <property name="meta.attr.major_brand.markup">qt  </property>
  <property name="meta.attr.minor_version.markup">512</property>
  <property name="meta.attr.compatible_brands.markup">qt  </property>
  <property name="meta.attr.encoder.markup">Lavf58.62.100</property>
  <property name="meta.media.sample_aspect_num">1</property>
  <property name="meta.media.sample_aspect_den">1</property>
  <property name="meta.media.frame_rate_num">30000</property>
  <property name="meta.media.frame_rate_den">1001</property>
  <property name="meta.media.colorspace">601</property>
  <property name="meta.media.color_trc">2</property>
  <property name="meta.media.width">640</property>
  <property name="meta.media.height">360</property>
  <property name="meta.media.color_range">mpeg</property>
  <property name="meta.media.top_field_first">0</property>
  <property name="meta.media.progressive">1</property>
  <property name="set.test_audio">1</property>
  <property name="set.test_image">0</property>
 </producer>
 <producer id="producer94" in="00:00:00.000" out="00:00:22.680">
  <property name="length">568</property>
  <property name="eof">pause</property>
  <property name="resource">/home/chiller/.cache/kdenlive/proxy/c98bfa6754a1e293b3f3e8264ff62cde.mov</property>
  <property name="audio_index">1</property>
  <property name="video_index">0</property>
  <property name="mute_on_pause">0</property>
  <property name="mlt_service">avformat-novalidate</property>
  <property name="seekable">1</property>
  <property name="aspect_ratio">1</property>
  <property name="kdenlive:clipname">river_dm1.mov</property>
  <property name="kdenlive:folderid">-1</property>
  <property name="kdenlive:id">49</property>
  <property name="kdenlive:file_size">22227646</property>
  <property name="kdenlive:file_hash">c98bfa6754a1e293b3f3e8264ff62cde</property>
  <property name="kdenlive:proxy">/home/chiller/.cache/kdenlive/proxy/c98bfa6754a1e293b3f3e8264ff62cde.mov</property>
  <property name="kdenlive:originalurl">mov/water/river_dm1.mov</property>
  <property name="kdenlive:original.mlt_type">producer</property>
  <property name="kdenlive:original.in">0</property>
  <property name="kdenlive:original.out">567</property>
  <property name="kdenlive:original.length">568</property>
  <property name="kdenlive:original.eof">pause</property>
  <property name="kdenlive:original.resource">mov/water/river_dm1.mov</property>
  <property name="kdenlive:original.meta.media.nb_streams">5</property>
  <property name="kdenlive:original.meta.media.0.stream.type">video</property>
  <property name="kdenlive:original.meta.media.0.stream.frame_rate">29.9736</property>
  <property name="kdenlive:original.meta.media.0.stream.sample_aspect_ratio">0</property>
  <property name="kdenlive:original.meta.media.0.codec.width">1920</property>
  <property name="kdenlive:original.meta.media.0.codec.height">1080</property>
  <property name="kdenlive:original.meta.media.0.codec.rotate">0</property>
  <property name="kdenlive:original.meta.media.0.codec.frame_rate">600</property>
  <property name="kdenlive:original.meta.media.0.codec.pix_fmt">yuv420p</property>
  <property name="kdenlive:original.meta.media.0.codec.sample_aspect_ratio">0</property>
  <property name="kdenlive:original.meta.media.0.codec.colorspace">709</property>
  <property name="kdenlive:original.meta.media.0.codec.color_trc">1</property>
  <property name="kdenlive:original.meta.media.0.codec.name">hevc</property>
  <property name="kdenlive:original.meta.media.0.codec.long_name">HEVC (High Efficiency Video Coding)</property>
  <property name="kdenlive:original.meta.media.0.codec.bit_rate">7696020</property>
  <property name="kdenlive:original.meta.attr.0.stream.creation_time.markup">2020-04-27T17:31:45.000000Z</property>
  <property name="kdenlive:original.meta.attr.0.stream.handler_name.markup">Core Media Video</property>
  <property name="kdenlive:original.meta.attr.0.stream.encoder.markup">HEVC</property>
  <property name="kdenlive:original.meta.media.1.stream.type">audio</property>
  <property name="kdenlive:original.meta.media.1.codec.sample_fmt">fltp</property>
  <property name="kdenlive:original.meta.media.1.codec.sample_rate">44100</property>
  <property name="kdenlive:original.meta.media.1.codec.channels">1</property>
  <property name="kdenlive:original.meta.media.1.codec.name">aac</property>
  <property name="kdenlive:original.meta.media.1.codec.long_name">AAC (Advanced Audio Coding)</property>
  <property name="kdenlive:original.meta.media.1.codec.bit_rate">98022</property>
  <property name="kdenlive:original.meta.attr.1.stream.creation_time.markup">2020-04-27T17:31:45.000000Z</property>
  <property name="kdenlive:original.meta.attr.1.stream.handler_name.markup">Core Media Audio</property>
  <property name="kdenlive:original.meta.attr.major_brand.markup">qt  </property>
  <property name="kdenlive:original.meta.attr.minor_version.markup">0</property>
  <property name="kdenlive:original.meta.attr.compatible_brands.markup">qt  </property>
  <property name="kdenlive:original.meta.attr.creation_time.markup">2020-04-27T17:31:45.000000Z</property>
  <property name="kdenlive:original.meta.attr.com.apple.quicktime.make.markup">Apple</property>
  <property name="kdenlive:original.meta.attr.com.apple.quicktime.model.markup">iPhone XS</property>
  <property name="kdenlive:original.meta.attr.com.apple.quicktime.software.markup">13.3.1</property>
  <property name="kdenlive:original.meta.attr.com.apple.quicktime.creationdate.markup">2020-04-27T19:31:45+0200</property>
  <property name="kdenlive:original.seekable">1</property>
  <property name="kdenlive:original.width">1920</property>
  <property name="kdenlive:original.height">1080</property>
  <property name="kdenlive:original.meta.media.sample_aspect_num">1</property>
  <property name="kdenlive:original.meta.media.sample_aspect_den">1</property>
  <property name="kdenlive:original.aspect_ratio">1</property>
  <property name="kdenlive:original.audio_index">1</property>
  <property name="kdenlive:original.video_index">0</property>
  <property name="kdenlive:original.mute_on_pause">0</property>
  <property name="kdenlive:original.mlt_service">avformat-novalidate</property>
  <property name="kdenlive:original.kdenlive:folderid">-1</property>
  <property name="kdenlive:original.meta.media.frame_rate_num">17025</property>
  <property name="kdenlive:original.meta.media.frame_rate_den">568</property>
  <property name="kdenlive:original.meta.media.colorspace">709</property>
  <property name="kdenlive:original.meta.media.color_trc">1</property>
  <property name="kdenlive:original.meta.media.width">1920</property>
  <property name="kdenlive:original.meta.media.height">1080</property>
  <property name="kdenlive:original.meta.media.color_range">mpeg</property>
  <property name="kdenlive:original.kdenlive:id">49</property>
  <property name="kdenlive:original.kdenlive:file_size">22227646</property>
  <property name="kdenlive:original.kdenlive:file_hash">c98bfa6754a1e293b3f3e8264ff62cde</property>
  <property name="kdenlive:original.backup">1</property>
  <property name="global_feed">1</property>
  <property name="kdenlive:audio_max">23</property>
  <property name="xml">was here</property>
  <property name="meta.media.nb_streams">2</property>
  <property name="meta.media.0.stream.type">video</property>
  <property name="meta.media.0.stream.frame_rate">29.97</property>
  <property name="meta.media.0.stream.sample_aspect_ratio">0</property>
  <property name="meta.media.0.codec.width">640</property>
  <property name="meta.media.0.codec.height">360</property>
  <property name="meta.media.0.codec.rotate">0</property>
  <property name="meta.media.0.codec.frame_rate">29.97</property>
  <property name="meta.media.0.codec.pix_fmt">yuv420p</property>
  <property name="meta.media.0.codec.sample_aspect_ratio">1</property>
  <property name="meta.media.0.codec.colorspace">601</property>
  <property name="meta.media.0.codec.name">h264</property>
  <property name="meta.media.0.codec.long_name">H.264 / AVC / MPEG-4 AVC / MPEG-4 part 10</property>
  <property name="meta.media.0.codec.bit_rate">8248915</property>
  <property name="meta.attr.0.stream.handler_name.markup">Core Media Video</property>
  <property name="meta.attr.0.stream.encoder.markup">Lavc58.111.100 h264_nvenc</property>
  <property name="meta.media.1.stream.type">audio</property>
  <property name="meta.media.1.codec.sample_fmt">fltp</property>
  <property name="meta.media.1.codec.sample_rate">44100</property>
  <property name="meta.media.1.codec.channels">1</property>
  <property name="meta.media.1.codec.name">aac</property>
  <property name="meta.media.1.codec.long_name">AAC (Advanced Audio Coding)</property>
  <property name="meta.media.1.codec.bit_rate">98076</property>
  <property name="meta.attr.1.stream.handler_name.markup">Core Media Audio</property>
  <property name="meta.attr.major_brand.markup">qt  </property>
  <property name="meta.attr.minor_version.markup">512</property>
  <property name="meta.attr.compatible_brands.markup">qt  </property>
  <property name="meta.attr.encoder.markup">Lavf58.62.100</property>
  <property name="meta.media.sample_aspect_num">1</property>
  <property name="meta.media.sample_aspect_den">1</property>
  <property name="meta.media.frame_rate_num">30000</property>
  <property name="meta.media.frame_rate_den">1001</property>
  <property name="meta.media.colorspace">601</property>
  <property name="meta.media.color_trc">2</property>
  <property name="meta.media.width">640</property>
  <property name="meta.media.height">360</property>
  <property name="meta.media.color_range">mpeg</property>
  <property name="meta.media.top_field_first">0</property>
  <property name="meta.media.progressive">1</property>
  <property name="set.test_audio">1</property>
  <property name="set.test_image">0</property>
 </producer>
 <producer id="producer95" in="00:00:00.000" out="00:00:05.280">
  <property name="length">133</property>
  <property name="eof">pause</property>
  <property name="resource">/home/chiller/.cache/kdenlive/proxy/58b1020e7293e3d1f2daa2e50bb0ff8d.mov</property>
  <property name="audio_index">1</property>
  <property name="video_index">0</property>
  <property name="mute_on_pause">0</property>
  <property name="mlt_service">avformat-novalidate</property>
  <property name="seekable">1</property>
  <property name="aspect_ratio">1</property>
  <property name="kdenlive:clipname">83BD7B3E-903C-43EB-AB9E-A6C3C3F170B9.mov</property>
  <property name="kdenlive:folderid">-1</property>
  <property name="kdenlive:id">54</property>
  <property name="kdenlive:file_size">5649907</property>
  <property name="kdenlive:file_hash">58b1020e7293e3d1f2daa2e50bb0ff8d</property>
  <property name="kdenlive:proxy">/home/chiller/.cache/kdenlive/proxy/58b1020e7293e3d1f2daa2e50bb0ff8d.mov</property>
  <property name="kdenlive:originalurl">mov/grass/83BD7B3E-903C-43EB-AB9E-A6C3C3F170B9.mov</property>
  <property name="kdenlive:original.mlt_type">producer</property>
  <property name="kdenlive:original.in">0</property>
  <property name="kdenlive:original.out">132</property>
  <property name="kdenlive:original.length">133</property>
  <property name="kdenlive:original.eof">pause</property>
  <property name="kdenlive:original.resource">mov/grass/83BD7B3E-903C-43EB-AB9E-A6C3C3F170B9.mov</property>
  <property name="kdenlive:original.meta.media.nb_streams">5</property>
  <property name="kdenlive:original.meta.media.0.stream.type">video</property>
  <property name="kdenlive:original.meta.media.0.stream.frame_rate">29.9719</property>
  <property name="kdenlive:original.meta.media.0.stream.sample_aspect_ratio">0</property>
  <property name="kdenlive:original.meta.media.0.codec.width">1920</property>
  <property name="kdenlive:original.meta.media.0.codec.height">1080</property>
  <property name="kdenlive:original.meta.media.0.codec.rotate">0</property>
  <property name="kdenlive:original.meta.media.0.codec.frame_rate">600</property>
  <property name="kdenlive:original.meta.media.0.codec.pix_fmt">yuv420p</property>
  <property name="kdenlive:original.meta.media.0.codec.sample_aspect_ratio">0</property>
  <property name="kdenlive:original.meta.media.0.codec.colorspace">709</property>
  <property name="kdenlive:original.meta.media.0.codec.color_trc">1</property>
  <property name="kdenlive:original.meta.media.0.codec.name">hevc</property>
  <property name="kdenlive:original.meta.media.0.codec.long_name">HEVC (High Efficiency Video Coding)</property>
  <property name="kdenlive:original.meta.media.0.codec.bit_rate">8262372</property>
  <property name="kdenlive:original.meta.attr.0.stream.creation_time.markup">2020-04-12T17:45:56.000000Z</property>
  <property name="kdenlive:original.meta.attr.0.stream.handler_name.markup">Core Media Video</property>
  <property name="kdenlive:original.meta.attr.0.stream.encoder.markup">HEVC</property>
  <property name="kdenlive:original.meta.media.1.stream.type">audio</property>
  <property name="kdenlive:original.meta.media.1.codec.sample_fmt">fltp</property>
  <property name="kdenlive:original.meta.media.1.codec.sample_rate">44100</property>
  <property name="kdenlive:original.meta.media.1.codec.channels">2</property>
  <property name="kdenlive:original.meta.media.1.codec.name">aac</property>
  <property name="kdenlive:original.meta.media.1.codec.long_name">AAC (Advanced Audio Coding)</property>
  <property name="kdenlive:original.meta.media.1.codec.bit_rate">169980</property>
  <property name="kdenlive:original.meta.attr.1.stream.creation_time.markup">2020-04-12T17:45:56.000000Z</property>
  <property name="kdenlive:original.meta.attr.1.stream.handler_name.markup">Core Media Audio</property>
  <property name="kdenlive:original.meta.attr.major_brand.markup">qt  </property>
  <property name="kdenlive:original.meta.attr.minor_version.markup">0</property>
  <property name="kdenlive:original.meta.attr.compatible_brands.markup">qt  </property>
  <property name="kdenlive:original.meta.attr.creation_time.markup">2020-04-12T17:45:56.000000Z</property>
  <property name="kdenlive:original.meta.attr.com.apple.quicktime.make.markup">Apple</property>
  <property name="kdenlive:original.meta.attr.com.apple.quicktime.model.markup">iPhone XS</property>
  <property name="kdenlive:original.meta.attr.com.apple.quicktime.software.markup">13.3.1</property>
  <property name="kdenlive:original.meta.attr.com.apple.quicktime.creationdate.markup">2020-04-12T19:45:55+0200</property>
  <property name="kdenlive:original.seekable">1</property>
  <property name="kdenlive:original.width">1920</property>
  <property name="kdenlive:original.height">1080</property>
  <property name="kdenlive:original.meta.media.sample_aspect_num">1</property>
  <property name="kdenlive:original.meta.media.sample_aspect_den">1</property>
  <property name="kdenlive:original.aspect_ratio">1</property>
  <property name="kdenlive:original.audio_index">1</property>
  <property name="kdenlive:original.video_index">0</property>
  <property name="kdenlive:original.mute_on_pause">0</property>
  <property name="kdenlive:original.mlt_service">avformat-novalidate</property>
  <property name="kdenlive:original.kdenlive:folderid">-1</property>
  <property name="kdenlive:original.meta.media.frame_rate_num">96000</property>
  <property name="kdenlive:original.meta.media.frame_rate_den">3203</property>
  <property name="kdenlive:original.meta.media.colorspace">709</property>
  <property name="kdenlive:original.meta.media.color_trc">1</property>
  <property name="kdenlive:original.meta.media.width">1920</property>
  <property name="kdenlive:original.meta.media.height">1080</property>
  <property name="kdenlive:original.meta.media.color_range">mpeg</property>
  <property name="kdenlive:original.kdenlive:id">54</property>
  <property name="kdenlive:original.kdenlive:file_size">5649907</property>
  <property name="kdenlive:original.kdenlive:file_hash">58b1020e7293e3d1f2daa2e50bb0ff8d</property>
  <property name="kdenlive:original.backup">1</property>
  <property name="kdenlive:audio_max">25</property>
  <property name="global_feed">1</property>
  <property name="xml">was here</property>
  <property name="meta.media.nb_streams">2</property>
  <property name="meta.media.0.stream.type">video</property>
  <property name="meta.media.0.stream.frame_rate">29.97</property>
  <property name="meta.media.0.stream.sample_aspect_ratio">0</property>
  <property name="meta.media.0.codec.width">640</property>
  <property name="meta.media.0.codec.height">360</property>
  <property name="meta.media.0.codec.rotate">0</property>
  <property name="meta.media.0.codec.frame_rate">29.97</property>
  <property name="meta.media.0.codec.pix_fmt">yuv420p</property>
  <property name="meta.media.0.codec.sample_aspect_ratio">1</property>
  <property name="meta.media.0.codec.colorspace">601</property>
  <property name="meta.media.0.codec.name">h264</property>
  <property name="meta.media.0.codec.long_name">H.264 / AVC / MPEG-4 AVC / MPEG-4 part 10</property>
  <property name="meta.media.0.codec.bit_rate">7302500</property>
  <property name="meta.attr.0.stream.handler_name.markup">Core Media Video</property>
  <property name="meta.attr.0.stream.encoder.markup">Lavc58.111.100 h264_nvenc</property>
  <property name="meta.media.1.stream.type">audio</property>
  <property name="meta.media.1.codec.sample_fmt">fltp</property>
  <property name="meta.media.1.codec.sample_rate">44100</property>
  <property name="meta.media.1.codec.channels">2</property>
  <property name="meta.media.1.codec.name">aac</property>
  <property name="meta.media.1.codec.long_name">AAC (Advanced Audio Coding)</property>
  <property name="meta.media.1.codec.bit_rate">170398</property>
  <property name="meta.attr.1.stream.handler_name.markup">Core Media Audio</property>
  <property name="meta.attr.major_brand.markup">qt  </property>
  <property name="meta.attr.minor_version.markup">512</property>
  <property name="meta.attr.compatible_brands.markup">qt  </property>
  <property name="meta.attr.encoder.markup">Lavf58.62.100</property>
  <property name="meta.media.sample_aspect_num">1</property>
  <property name="meta.media.sample_aspect_den">1</property>
  <property name="meta.media.frame_rate_num">30000</property>
  <property name="meta.media.frame_rate_den">1001</property>
  <property name="meta.media.colorspace">601</property>
  <property name="meta.media.color_trc">2</property>
  <property name="meta.media.width">640</property>
  <property name="meta.media.height">360</property>
  <property name="meta.media.color_range">mpeg</property>
  <property name="meta.media.top_field_first">0</property>
  <property name="meta.media.progressive">1</property>
  <property name="set.test_audio">1</property>
  <property name="set.test_image">0</property>
 </producer>
 <playlist id="playlist8">
  <entry producer="producer27" in="00:00:00.000" out="00:00:04.000">
   <property name="kdenlive:id">29</property>
   <filter id="filter32">
    <property name="rotate_center">1</property>
    <property name="mlt_service">qtblend</property>
    <property name="kdenlive_id">qtblend</property>
    <property name="rect">00:00:00.000=-1064 -714 3451 1942 1.000000;00:00:01.400=-3062 -1220 4120 2318 1.000000</property>
    <property name="rotation">00:00:00.000=0;00:00:01.400=0</property>
    <property name="compositing">0</property>
    <property name="distort">0</property>
    <property name="kdenlive:collapsed">0</property>
   </filter>
  </entry>
  <blank length="00:00:09.000"/>
  <entry producer="producer30" in="00:00:00.000" out="00:00:07.840">
   <property name="kdenlive:id">32</property>
   <filter id="filter33">
    <property name="rotate_center">1</property>
    <property name="mlt_service">qtblend</property>
    <property name="kdenlive_id">qtblend</property>
    <property name="rect">00:00:00.000=1998 405 311 175 1.000000;00:00:02.760=1921 422 271 152 1.000000;00:00:02.840=1791 403 190 107 1.000000;00:00:02.880=1564 414 190 107 1.000000;00:00:02.960=1324 427 174 98 1.000000;00:00:03.040=1137 432 174 98 1.000000;00:00:03.080=973 432 174 98 1.000000;00:00:03.120=908 430 174 98 1.000000;00:00:03.200=799 419 174 98 1.000000;00:00:03.240=752 419 174 98 1.000000;00:00:03.320=683 412 174 98 1.000000;00:00:03.440=678 387 174 98 1.000000;00:00:03.520=748 350 174 98 1.000000;00:00:03.600=820 312 174 98 1.000000;00:00:03.640=856 279 174 98 1.000000;00:00:03.680=972 243 174 98 1.000000;00:00:03.720=1034 218 174 98 1.000000;00:00:03.800=1163 173 174 98 1.000000;00:00:03.920=1428 88 174 98 1.000000;00:00:04.000=1580 61 174 98 1.000000;00:00:04.040=1647 48 174 98 1.000000;00:00:04.080=1767 18 174 98 1.000000;00:00:04.120=1827 11 174 98 1.000000;00:00:04.160=1906 7 174 98 1.000000</property>
    <property name="rotation">00:00:00.000=0;00:00:02.760=0;00:00:02.840=0;00:00:02.880=0;00:00:02.960=0;00:00:03.040=0;00:00:03.080=0;00:00:03.120=0;00:00:03.200=0;00:00:03.240=0;00:00:03.320=0;00:00:03.440=0;00:00:03.520=0;00:00:03.600=0;00:00:03.640=0;00:00:03.680=0;00:00:03.720=0;00:00:03.800=0;00:00:03.920=0;00:00:04.000=0;00:00:04.040=0;00:00:04.080=0;00:00:04.120=0;00:00:04.160=0</property>
    <property name="compositing">0</property>
    <property name="distort">0</property>
    <property name="kdenlive:collapsed">0</property>
   </filter>
  </entry>
  <entry producer="producer34" in="00:00:00.000" out="00:00:00.920">
   <property name="kdenlive:id">34</property>
   <filter id="filter34">
    <property name="rotate_center">1</property>
    <property name="mlt_service">qtblend</property>
    <property name="kdenlive_id">qtblend</property>
    <property name="rect">00:00:00.000=1110 289 335 189 1.000000;00:00:00.200=1081 286 335 189 1.000000;00:00:00.320=1074 289 335 189 1.000000;00:00:00.400=1053 289 335 189 1.000000;00:00:00.600=1031 280 335 189 1.000000;00:00:00.760=1015 261 335 189 1.000000;00:00:00.920=981 251 335 189 1.000000</property>
    <property name="rotation">00:00:00.000=0;00:00:00.200=0;00:00:00.320=0;00:00:00.400=0;00:00:00.600=0;00:00:00.760=0;00:00:00.920=0</property>
    <property name="compositing">0</property>
    <property name="distort">0</property>
    <property name="kdenlive:collapsed">0</property>
   </filter>
  </entry>
  <entry producer="producer36" in="00:00:00.000" out="00:00:01.960">
   <property name="kdenlive:id">38</property>
   <filter id="filter35">
    <property name="rotate_center">1</property>
    <property name="mlt_service">qtblend</property>
    <property name="kdenlive_id">qtblend</property>
    <property name="rect">00:00:00.000=1289 -276 793 446 1.000000;00:00:00.160=1258 -268 793 446 1.000000;00:00:00.560=1204 -253 793 446 1.000000;00:00:01.480=1220 -231 793 446 1.000000;00:00:01.560=1200 -225 793 446 1.000000</property>
    <property name="rotation">00:00:00.000=0;00:00:00.160=0;00:00:00.560=0;00:00:01.480=0;00:00:01.560=0</property>
    <property name="compositing">0</property>
    <property name="distort">0</property>
    <property name="kdenlive:collapsed">0</property>
   </filter>
  </entry>
  <blank length="00:01:21.280"/>
  <entry producer="producer41" in="00:00:00.000" out="00:00:09.200">
   <property name="kdenlive:id">43</property>
   <filter id="filter36" out="00:00:00.160">
    <property name="start">0</property>
    <property name="mlt_service">brightness</property>
    <property name="kdenlive_id">fade_from_black</property>
    <property name="end">1</property>
    <property name="alpha">-1</property>
    <property name="kdenlive:collapsed">0</property>
   </filter>
   <filter id="filter37">
    <property name="rotate_center">1</property>
    <property name="mlt_service">qtblend</property>
    <property name="kdenlive_id">qtblend</property>
    <property name="rect">00:00:00.000=-88 -95 1081 608 1.000000;00:00:01.400=-88 -95 1081 608 1.000000;00:00:02.280=-171 -22 1081 608 1.000000;00:00:02.880=-275 -113 1081 608 1.000000;00:00:03.080=-384 -126 1081 608 1.000000;00:00:03.200=-538 -221 1081 608 1.000000;00:00:03.360=-791 -284 1081 608 1.000000;00:00:08.280=-791 -284 1081 608 1.000000;00:00:08.320=-264 -484 1081 608 1.000000;00:00:08.440=-187 -405 1081 608 1.000000;00:00:08.560=-102 -316 1081 608 1.000000;00:00:08.720=-39 -227 1081 608 1.000000;00:00:08.840=40 -249 1081 608 1.000000</property>
    <property name="rotation">00:00:00.000=0;00:00:01.400=0;00:00:02.280=0;00:00:02.880=0;00:00:03.080=0;00:00:03.200=0;00:00:03.360=0;00:00:08.280=0;00:00:08.320=0;00:00:08.440=0;00:00:08.560=0;00:00:08.720=0;00:00:08.840=0</property>
    <property name="compositing">0</property>
    <property name="distort">0</property>
    <property name="kdenlive:collapsed">0</property>
   </filter>
  </entry>
  <blank length="00:00:48.200"/>
  <entry producer="producer93" in="00:00:00.000" out="00:00:00.000">
   <property name="kdenlive:id">51</property>
  </entry>
  <blank length="00:00:00.040"/>
  <entry producer="producer93" in="00:00:00.160" out="00:00:00.160">
   <property name="kdenlive:id">51</property>
  </entry>
  <blank length="00:00:00.040"/>
  <entry producer="producer93" in="00:00:00.240" out="00:00:00.240">
   <property name="kdenlive:id">51</property>
  </entry>
  <entry producer="producer93" in="00:00:00.480" out="00:00:00.480">
   <property name="kdenlive:id">51</property>
  </entry>
  <entry producer="producer93" in="00:00:01.040" out="00:00:01.040">
   <property name="kdenlive:id">51</property>
  </entry>
  <entry producer="producer93" in="00:00:01.760" out="00:00:01.760">
   <property name="kdenlive:id">51</property>
  </entry>
  <entry producer="producer93" in="00:00:02.560" out="00:00:02.560">
   <property name="kdenlive:id">51</property>
  </entry>
  <entry producer="producer93" in="00:00:02.560" out="00:00:02.560">
   <property name="kdenlive:id">51</property>
  </entry>
  <blank length="00:00:05.880"/>
  <entry producer="producer94" in="00:00:00.240" out="00:00:00.240">
   <property name="kdenlive:id">49</property>
  </entry>
  <blank length="00:00:00.040"/>
  <entry producer="producer94" in="00:00:00.320" out="00:00:00.320">
   <property name="kdenlive:id">49</property>
  </entry>
  <blank length="00:00:00.040"/>
  <entry producer="producer94" in="00:00:00.400" out="00:00:00.400">
   <property name="kdenlive:id">49</property>
  </entry>
  <blank length="00:00:00.040"/>
  <entry producer="producer94" in="00:00:00.480" out="00:00:00.480">
   <property name="kdenlive:id">49</property>
  </entry>
  <blank length="00:00:00.040"/>
  <entry producer="producer94" in="00:00:00.560" out="00:00:00.560">
   <property name="kdenlive:id">49</property>
  </entry>
  <blank length="00:00:00.040"/>
  <entry producer="producer94" in="00:00:00.600" out="00:00:00.600">
   <property name="kdenlive:id">49</property>
  </entry>
  <blank length="00:00:05.840"/>
  <entry producer="producer95" in="00:00:00.000" out="00:00:00.000">
   <property name="kdenlive:id">54</property>
   <filter id="filter38">
    <property name="version">0.2</property>
    <property name="mlt_service">frei0r.alphagrad</property>
    <property name="kdenlive_id">frei0r.alphagrad</property>
    <property name="Position">00:00:00.000=0.545</property>
    <property name="Transition width">00:00:00.000=0.642</property>
    <property name="Tilt">00:00:00.000=0.55</property>
    <property name="Min">00:00:00.000=0</property>
    <property name="Max">00:00:00.000=1</property>
    <property name="Operation">0</property>
    <property name="kdenlive:collapsed">0</property>
   </filter>
  </entry>
  <blank length="00:00:00.040"/>
  <entry producer="producer95" in="00:00:00.040" out="00:00:00.040">
   <property name="kdenlive:id">54</property>
   <filter id="filter39">
    <property name="version">0.2</property>
    <property name="mlt_service">frei0r.alphagrad</property>
    <property name="kdenlive_id">frei0r.alphagrad</property>
    <property name="Position">00:00:00.040=0.545</property>
    <property name="Transition width">00:00:00.040=0.642</property>
    <property name="Tilt">00:00:00.040=0.55</property>
    <property name="Min">00:00:00.040=0</property>
    <property name="Max">00:00:00.040=1</property>
    <property name="Operation">0</property>
   </filter>
  </entry>
  <blank length="00:00:00.040"/>
  <entry producer="producer95" in="00:00:00.120" out="00:00:00.120">
   <property name="kdenlive:id">54</property>
   <filter id="filter40">
    <property name="version">0.2</property>
    <property name="mlt_service">frei0r.alphagrad</property>
    <property name="kdenlive_id">frei0r.alphagrad</property>
    <property name="Position">00:00:00.120=0.545</property>
    <property name="Transition width">00:00:00.120=0.642</property>
    <property name="Tilt">00:00:00.120=0.55</property>
    <property name="Min">00:00:00.120=0</property>
    <property name="Max">00:00:00.120=1</property>
    <property name="Operation">0</property>
   </filter>
  </entry>
  <blank length="00:00:00.040"/>
  <entry producer="producer95" in="00:00:00.200" out="00:00:00.200">
   <property name="kdenlive:id">54</property>
   <filter id="filter41">
    <property name="version">0.2</property>
    <property name="mlt_service">frei0r.alphagrad</property>
    <property name="kdenlive_id">frei0r.alphagrad</property>
    <property name="Position">00:00:00.200=0.545</property>
    <property name="Transition width">00:00:00.200=0.642</property>
    <property name="Tilt">00:00:00.200=0.55</property>
    <property name="Min">00:00:00.200=0</property>
    <property name="Max">00:00:00.200=1</property>
    <property name="Operation">0</property>
   </filter>
  </entry>
  <blank length="00:00:00.040"/>
  <entry producer="producer95" in="00:00:00.280" out="00:00:00.280">
   <property name="kdenlive:id">54</property>
   <filter id="filter42">
    <property name="version">0.2</property>
    <property name="mlt_service">frei0r.alphagrad</property>
    <property name="kdenlive_id">frei0r.alphagrad</property>
    <property name="Position">00:00:00.280=0.545</property>
    <property name="Transition width">00:00:00.280=0.642</property>
    <property name="Tilt">00:00:00.280=0.55</property>
    <property name="Min">00:00:00.280=0</property>
    <property name="Max">00:00:00.280=1</property>
    <property name="Operation">0</property>
   </filter>
  </entry>
 </playlist>
 <playlist id="playlist9"/>
 <tractor id="tractor4" in="00:00:00.000" out="00:02:55.480">
  <property name="kdenlive:trackheight">69</property>
  <property name="kdenlive:timeline_active">1</property>
  <property name="kdenlive:collapsed">0</property>
  <property name="kdenlive:thumbs_format"/>
  <property name="kdenlive:audio_rec"/>
  <track hide="audio" producer="playlist8"/>
  <track producer="playlist9"/>
 </tractor>
 <playlist id="playlist10">
  <entry producer="producer28" in="00:00:00.000" out="00:00:04.000">
   <property name="kdenlive:id">30</property>
   <filter id="filter43">
    <property name="rotate_center">1</property>
    <property name="mlt_service">qtblend</property>
    <property name="kdenlive_id">qtblend</property>
    <property name="rect">00:00:00.000=-311 349 1920 1080 1.000000;00:00:01.600=-1748 366 1920 1080 1.000000</property>
    <property name="rotation">00:00:00.000=0;00:00:01.600=0</property>
    <property name="compositing">0</property>
    <property name="distort">0</property>
    <property name="kdenlive:collapsed">0</property>
   </filter>
  </entry>
  <blank length="00:00:09.000"/>
  <entry producer="producer35" in="00:00:00.000" out="00:00:07.840">
   <property name="kdenlive:id">33</property>
   <filter id="filter44">
    <property name="rotate_center">1</property>
    <property name="mlt_service">qtblend</property>
    <property name="kdenlive_id">qtblend</property>
    <property name="rect">00:00:00.000=1901 442 136 77 1.000000;00:00:02.840=1901 442 136 77 1.000000;00:00:02.880=1775 391 136 77 1.000000;00:00:02.920=1657 398 136 77 1.000000;00:00:03.000=1443 407 136 77 1.000000;00:00:03.040=1332 412 136 77 1.000000;00:00:03.080=1174 415 136 77 1.000000;00:00:03.120=1102 419 136 77 1.000000;00:00:03.160=1048 418 136 77 1.000000;00:00:03.200=1008 412 136 77 1.000000;00:00:03.240=954 413 136 77 1.000000;00:00:03.280=910 410 136 77 1.000000;00:00:03.360=889 400 136 77 1.000000;00:00:03.440=892 380 136 77 1.000000;00:00:03.480=926 366 136 77 1.000000;00:00:03.520=949 350 136 77 1.000000;00:00:03.560=988 335 136 77 1.000000;00:00:03.600=1035 315 136 77 1.000000;00:00:03.640=1085 285 136 77 1.000000;00:00:03.680=1175 249 136 77 1.000000;00:00:03.720=1239 235 136 77 1.000000;00:00:03.760=1316 200 136 77 1.000000;00:00:03.800=1379 192 136 77 1.000000;00:00:03.840=1448 170 136 77 1.000000;00:00:03.880=1597 121 136 77 1.000000;00:00:03.920=1666 111 136 77 1.000000;00:00:03.960=1746 98 136 77 1.000000;00:00:04.000=1823 78 136 77 1.000000;00:00:04.040=1926 81 136 77 1.000000</property>
    <property name="rotation">00:00:00.000=0;00:00:02.840=0;00:00:02.880=0;00:00:02.920=0;00:00:03.000=0;00:00:03.040=0;00:00:03.080=0;00:00:03.120=0;00:00:03.160=0;00:00:03.200=0;00:00:03.240=0;00:00:03.280=0;00:00:03.360=0;00:00:03.440=0;00:00:03.480=0;00:00:03.520=0;00:00:03.560=0;00:00:03.600=0;00:00:03.640=0;00:00:03.680=0;00:00:03.720=0;00:00:03.760=0;00:00:03.800=0;00:00:03.840=0;00:00:03.880=0;00:00:03.920=0;00:00:03.960=0;00:00:04.000=0;00:00:04.040=0</property>
    <property name="compositing">0</property>
    <property name="distort">0</property>
    <property name="kdenlive:collapsed">0</property>
   </filter>
  </entry>
  <entry producer="producer32" in="00:00:00.000" out="00:00:00.920">
   <property name="kdenlive:id">36</property>
   <filter id="filter45">
    <property name="rotate_center">1</property>
    <property name="mlt_service">qtblend</property>
    <property name="kdenlive_id">qtblend</property>
    <property name="rect">00:00:00.000=529 262 243 138 1.000000;00:00:00.040=523 248 243 138 1.000000;00:00:00.120=510 236 243 138 1.000000;00:00:00.320=514 242 243 138 1.000000;00:00:00.520=495 238 243 138 1.000000;00:00:00.600=491 222 243 138 1.000000;00:00:00.680=472 209 243 138 1.000000;00:00:00.800=447 207 243 138 1.000000;00:00:00.920=430 208 243 138 1.000000</property>
    <property name="rotation">00:00:00.000=0;00:00:00.040=0;00:00:00.120=0;00:00:00.320=0;00:00:00.520=0;00:00:00.600=0;00:00:00.680=0;00:00:00.800=0;00:00:00.920=0</property>
    <property name="compositing">0</property>
    <property name="distort">0</property>
    <property name="kdenlive:collapsed">0</property>
   </filter>
  </entry>
  <entry producer="producer37" in="00:00:00.000" out="00:00:01.960">
   <property name="kdenlive:id">39</property>
   <filter id="filter46">
    <property name="rotate_center">1</property>
    <property name="mlt_service">qtblend</property>
    <property name="kdenlive_id">qtblend</property>
    <property name="rect">00:00:00.000=804 -91 538 302 1.000000;00:00:00.760=839 -110 538 302 1.000000;00:00:01.280=841 -130 538 302 1.000000;00:00:01.720=802 -134 538 302 1.000000;00:00:01.960=790 -135 538 302 1.000000</property>
    <property name="rotation">00:00:00.000=0;00:00:00.760=0;00:00:01.280=0;00:00:01.720=0;00:00:01.960=0</property>
    <property name="compositing">0</property>
    <property name="distort">0</property>
    <property name="kdenlive:collapsed">0</property>
   </filter>
  </entry>
 </playlist>
 <playlist id="playlist11"/>
 <tractor id="tractor5" in="00:00:00.000" out="00:00:23.840">
  <property name="kdenlive:trackheight">69</property>
  <property name="kdenlive:timeline_active">1</property>
  <property name="kdenlive:collapsed">0</property>
  <property name="kdenlive:thumbs_format"/>
  <property name="kdenlive:audio_rec"/>
  <track hide="audio" producer="playlist10"/>
  <track producer="playlist11"/>
 </tractor>
 <playlist id="playlist12">
  <entry producer="producer55" in="00:00:00.000" out="00:00:04.000">
   <property name="kdenlive:id">57</property>
   <filter id="filter47">
    <property name="rotate_center">1</property>
    <property name="mlt_service">qtblend</property>
    <property name="kdenlive_id">qtblend</property>
    <property name="rect">00:00:00.000=0 0 1920 1080 1.000000;00:00:01.000=1417 0 1920 1080 1.000000</property>
    <property name="rotation">00:00:00.000=0;00:00:01.000=0</property>
    <property name="compositing">0</property>
    <property name="distort">0</property>
    <property name="kdenlive:collapsed">0</property>
   </filter>
  </entry>
  <blank length="00:00:09.000"/>
  <entry producer="producer34" in="00:00:00.000" out="00:00:07.840">
   <property name="kdenlive:id">34</property>
   <filter id="filter48">
    <property name="rotate_center">1</property>
    <property name="mlt_service">qtblend</property>
    <property name="kdenlive_id">qtblend</property>
    <property name="rect">00:00:00.000=1931 376 175 98 1.000000;00:00:02.760=1931 376 175 98 1.000000;00:00:02.800=1753 378 175 98 1.000000;00:00:02.840=1626 380 175 98 1.000000;00:00:02.880=1383 390 175 98 1.000000;00:00:02.920=1288 404 175 98 1.000000;00:00:02.960=1182 408 175 98 1.000000;00:00:03.000=1082 409 175 98 1.000000;00:00:03.040=996 410 175 98 1.000000;00:00:03.080=849 399 175 98 1.000000;00:00:03.120=770 409 175 98 1.000000;00:00:03.160=707 397 175 98 1.000000;00:00:03.240=620 397 175 98 1.000000;00:00:03.280=563 388 175 98 1.000000;00:00:03.400=542 359 175 98 1.000000;00:00:03.440=549 345 175 98 1.000000;00:00:03.480=594 318 175 98 1.000000;00:00:03.520=619 310 175 98 1.000000;00:00:03.560=651 288 175 98 1.000000;00:00:03.600=697 271 175 98 1.000000;00:00:03.640=734 241 175 98 1.000000;00:00:03.680=857 204 165 92 1.000000;00:00:03.720=907 183 165 92 1.000000;00:00:03.760=970 159 165 92 1.000000;00:00:03.800=1029 131 165 92 1.000000;00:00:03.840=1089 114 165 92 1.000000;00:00:03.880=1230 72 165 92 1.000000;00:00:03.920=1292 56 165 92 1.000000;00:00:03.960=1352 43 165 92 1.000000;00:00:04.000=1435 30 165 92 1.000000;00:00:04.040=1495 16 165 92 1.000000;00:00:04.080=1625 -2 165 92 1.000000;00:00:04.120=1684 -14 165 92 1.000000;00:00:04.160=1737 -20 165 92 1.000000;00:00:04.200=1788 -28 165 92 1.000000;00:00:04.240=1836 -39 165 92 1.000000;00:00:04.280=1933 -38 165 92 1.000000</property>
    <property name="rotation">00:00:00.000=0;00:00:02.760=0;00:00:02.800=0;00:00:02.840=0;00:00:02.880=0;00:00:02.920=0;00:00:02.960=0;00:00:03.000=0;00:00:03.040=0;00:00:03.080=0;00:00:03.120=0;00:00:03.160=0;00:00:03.240=0;00:00:03.280=0;00:00:03.400=0;00:00:03.440=0;00:00:03.480=0;00:00:03.520=0;00:00:03.560=0;00:00:03.600=0;00:00:03.640=0;00:00:03.680=0;00:00:03.720=0;00:00:03.760=0;00:00:03.800=0;00:00:03.840=0;00:00:03.880=0;00:00:03.920=0;00:00:03.960=0;00:00:04.000=0;00:00:04.040=0;00:00:04.080=0;00:00:04.120=0;00:00:04.160=0;00:00:04.200=0;00:00:04.240=0;00:00:04.280=0</property>
    <property name="compositing">0</property>
    <property name="distort">0</property>
    <property name="kdenlive:collapsed">0</property>
   </filter>
  </entry>
  <entry producer="producer33" in="00:00:00.000" out="00:00:00.920">
   <property name="kdenlive:id">37</property>
   <filter id="filter49">
    <property name="rotate_center">1</property>
    <property name="mlt_service">qtblend</property>
    <property name="kdenlive_id">qtblend</property>
    <property name="rect">00:00:00.000=1789 1000 413 232 1.000000;00:00:00.240=1759 970 413 232 1.000000;00:00:00.520=1688 940 413 232 1.000000;00:00:00.920=1633 887 413 232 1.000000</property>
    <property name="rotation">00:00:00.000=0;00:00:00.240=0;00:00:00.520=0;00:00:00.920=0</property>
    <property name="compositing">0</property>
    <property name="distort">0</property>
    <property name="kdenlive:collapsed">0</property>
   </filter>
  </entry>
  <entry producer="producer39" in="00:00:00.000" out="00:00:01.960">
   <property name="kdenlive:id">41</property>
   <filter id="filter50">
    <property name="rotate_center">1</property>
    <property name="mlt_service">qtblend</property>
    <property name="kdenlive_id">qtblend</property>
    <property name="rect">00:00:00.000=390 -62 478 269 1.000000;00:00:00.400=397 -46 478 269 1.000000;00:00:01.160=381 -49 478 269 1.000000;00:00:01.720=372 -49 478 269 1.000000</property>
    <property name="rotation">00:00:00.000=0;00:00:00.400=0;00:00:01.160=0;00:00:01.720=0</property>
    <property name="compositing">0</property>
    <property name="distort">0</property>
    <property name="kdenlive:collapsed">0</property>
   </filter>
  </entry>
 </playlist>
 <playlist id="playlist13"/>
 <tractor id="tractor6" in="00:00:00.000" out="00:00:23.840">
  <property name="kdenlive:trackheight">69</property>
  <property name="kdenlive:timeline_active">1</property>
  <property name="kdenlive:collapsed">0</property>
  <property name="kdenlive:thumbs_format"/>
  <property name="kdenlive:audio_rec"/>
  <track hide="audio" producer="playlist12"/>
  <track producer="playlist13"/>
 </tractor>
 <playlist id="playlist14">
  <entry producer="producer56" in="00:00:00.000" out="00:00:04.000">
   <property name="kdenlive:id">58</property>
   <filter id="filter51">
    <property name="rotate_center">1</property>
    <property name="mlt_service">qtblend</property>
    <property name="kdenlive_id">qtblend</property>
    <property name="rect">00:00:00.000=-559 0 1920 1080 1.000000;00:00:01.840=-1406 0 1920 1080 1.000000</property>
    <property name="rotation">00:00:00.000=0;00:00:01.840=0</property>
    <property name="compositing">0</property>
    <property name="distort">0</property>
    <property name="kdenlive:collapsed">0</property>
   </filter>
  </entry>
  <blank length="00:00:09.000"/>
  <entry producer="producer31" in="00:00:00.000" out="00:00:07.840">
   <property name="kdenlive:id">35</property>
   <filter id="filter52">
    <property name="rotate_center">1</property>
    <property name="mlt_service">qtblend</property>
    <property name="kdenlive_id">qtblend</property>
    <property name="rect">00:00:00.000=337 -176 285 160 1.000000;00:00:00.240=337 -176 285 160 1.000000;00:00:00.400=510 -128 285 160 1.000000;00:00:00.440=587 -61 285 160 1.000000;00:00:00.480=616 -34 285 160 1.000000;00:00:00.520=662 -26 285 160 1.000000;00:00:00.560=724 -6 285 160 1.000000;00:00:00.600=800 1 285 160 1.000000;00:00:00.640=942 23 285 160 1.000000;00:00:00.680=1008 33 285 160 1.000000;00:00:00.720=1074 63 285 160 1.000000;00:00:00.760=1132 86 285 160 1.000000;00:00:00.800=1158 105 285 160 1.000000;00:00:00.840=1204 133 285 160 1.000000;00:00:00.920=1300 211 285 160 1.000000;00:00:01.120=1370 273 285 160 1.000000;00:00:01.280=1293 287 285 160 1.000000;00:00:01.440=1199 313 285 160 1.000000;00:00:01.640=1085 332 285 160 1.000000;00:00:01.840=1038 343 285 160 1.000000;00:00:02.120=950 374 285 160 1.000000;00:00:02.240=886 376 285 160 1.000000;00:00:02.360=758 387 285 160 1.000000;00:00:02.480=550 389 285 160 1.000000;00:00:02.560=413 391 285 160 1.000000;00:00:02.600=329 395 285 160 1.000000;00:00:02.640=241 397 285 160 1.000000;00:00:02.680=41 404 285 160 1.000000;00:00:02.720=-97 403 285 160 1.000000;00:00:02.760=-165 410 285 160 1.000000;00:00:02.800=-240 414 285 160 1.000000</property>
    <property name="rotation">00:00:00.000=0;00:00:00.240=0;00:00:00.400=0;00:00:00.440=0;00:00:00.480=0;00:00:00.520=0;00:00:00.560=0;00:00:00.600=0;00:00:00.640=0;00:00:00.680=0;00:00:00.720=0;00:00:00.760=0;00:00:00.800=0;00:00:00.840=0;00:00:00.920=0;00:00:01.120=0;00:00:01.280=0;00:00:01.440=0;00:00:01.640=0;00:00:01.840=0;00:00:02.120=0;00:00:02.240=0;00:00:02.360=0;00:00:02.480=0;00:00:02.560=0;00:00:02.600=0;00:00:02.640=0;00:00:02.680=0;00:00:02.720=0;00:00:02.760=0;00:00:02.800=0</property>
    <property name="compositing">0</property>
    <property name="distort">0</property>
    <property name="kdenlive:collapsed">0</property>
   </filter>
  </entry>
 </playlist>
 <playlist id="playlist15"/>
 <tractor id="tractor7" in="00:00:00.000" out="00:00:20.880">
  <property name="kdenlive:trackheight">69</property>
  <property name="kdenlive:timeline_active">1</property>
  <property name="kdenlive:collapsed">0</property>
  <property name="kdenlive:thumbs_format"/>
  <property name="kdenlive:audio_rec"/>
  <track hide="audio" producer="playlist14"/>
  <track producer="playlist15"/>
 </tractor>
 <playlist id="playlist16">
  <blank length="00:00:13.040"/>
  <entry producer="producer53" in="00:00:00.000" out="00:00:03.960">
   <property name="kdenlive:id">55</property>
   <filter id="filter53">
    <property name="rotate_center">1</property>
    <property name="mlt_service">qtblend</property>
    <property name="kdenlive_id">qtblend</property>
    <property name="rect">00:00:00.000=-120 -53 149 85 1.000000;00:00:00.320=-120 -53 149 85 1.000000;00:00:00.360=-42 -43 149 85 1.000000;00:00:00.400=-5 -33 149 85 1.000000;00:00:00.440=88 15 150 85 1.000000;00:00:00.480=127 20 150 85 1.000000;00:00:00.520=197 32 150 85 1.000000;00:00:00.560=260 52 150 85 1.000000;00:00:00.600=330 48 150 85 1.000000;00:00:00.640=467 77 150 85 1.000000;00:00:00.680=536 100 150 85 1.000000;00:00:00.720=604 124 150 85 1.000000;00:00:00.760=669 151 150 85 1.000000;00:00:00.800=709 175 150 85 1.000000;00:00:00.840=753 198 150 85 1.000000;00:00:00.880=815 239 150 85 1.000000;00:00:00.920=847 256 150 85 1.000000;00:00:00.960=875 283 150 85 1.000000;00:00:01.000=878 289 150 85 1.000000;00:00:01.040=893 288 150 85 1.000000;00:00:01.080=907 292 150 85 1.000000;00:00:01.200=906 321 150 85 1.000000;00:00:01.280=860 332 150 85 1.000000;00:00:01.320=851 334 150 85 1.000000;00:00:01.360=830 342 150 85 1.000000;00:00:01.400=805 347 150 85 1.000000;00:00:01.480=746 355 150 85 1.000000;00:00:01.520=726 356 150 85 1.000000;00:00:01.560=711 361 150 85 1.000000;00:00:01.600=698 362 150 85 1.000000;00:00:01.640=683 362 150 85 1.000000;00:00:01.680=659 368 150 85 1.000000;00:00:01.800=638 376 150 85 1.000000;00:00:01.920=614 389 150 85 1.000000;00:00:02.000=601 394 150 85 1.000000;00:00:02.080=560 408 150 85 1.000000;00:00:02.120=551 409 150 85 1.000000;00:00:02.160=522 419 150 85 1.000000;00:00:02.200=507 421 150 85 1.000000;00:00:02.240=490 424 150 85 1.000000;00:00:02.280=435 419 150 85 1.000000;00:00:02.320=390 423 150 85 1.000000;00:00:02.360=341 418 150 85 1.000000;00:00:02.400=301 424 150 85 1.000000;00:00:02.440=230 428 150 85 1.000000;00:00:02.480=104 425 150 85 1.000000;00:00:02.520=22 437 150 85 1.000000;00:00:02.560=-70 433 150 85 1.000000;00:00:02.600=-136 424 150 85 1.000000</property>
    <property name="rotation">00:00:00.000=0;00:00:00.320=0;00:00:00.360=0;00:00:00.400=0;00:00:00.440=0;00:00:00.480=0;00:00:00.520=0;00:00:00.560=0;00:00:00.600=0;00:00:00.640=0;00:00:00.680=0;00:00:00.720=0;00:00:00.760=0;00:00:00.800=0;00:00:00.840=0;00:00:00.880=0;00:00:00.920=0;00:00:00.960=0;00:00:01.000=0;00:00:01.040=0;00:00:01.080=0;00:00:01.200=0;00:00:01.280=0;00:00:01.320=0;00:00:01.360=0;00:00:01.400=0;00:00:01.480=0;00:00:01.520=0;00:00:01.560=0;00:00:01.600=0;00:00:01.640=0;00:00:01.680=0;00:00:01.800=0;00:00:01.920=0;00:00:02.000=0;00:00:02.080=0;00:00:02.120=0;00:00:02.160=0;00:00:02.200=0;00:00:02.240=0;00:00:02.280=0;00:00:02.320=0;00:00:02.360=0;00:00:02.400=0;00:00:02.440=0;00:00:02.480=0;00:00:02.520=0;00:00:02.560=0;00:00:02.600=0</property>
    <property name="compositing">0</property>
    <property name="distort">0</property>
    <property name="kdenlive:collapsed">0</property>
   </filter>
  </entry>
 </playlist>
 <playlist id="playlist17"/>
 <tractor id="tractor8" in="00:00:00.000" out="00:00:17.000">
  <property name="kdenlive:trackheight">69</property>
  <property name="kdenlive:timeline_active">1</property>
  <property name="kdenlive:collapsed">0</property>
  <property name="kdenlive:thumbs_format"/>
  <property name="kdenlive:audio_rec"/>
  <track hide="audio" producer="playlist16"/>
  <track producer="playlist17"/>
 </tractor>
 <playlist id="playlist18">
  <blank length="00:00:13.040"/>
  <entry producer="producer54" in="00:00:00.000" out="00:00:03.240">
   <property name="kdenlive:id">56</property>
   <filter id="filter54">
    <property name="rotate_center">1</property>
    <property name="mlt_service">qtblend</property>
    <property name="kdenlive_id">qtblend</property>
    <property name="rect">00:00:00.000=648 -333 580 326 1.000000;00:00:00.400=652 -316 571 321 1.000000;00:00:00.480=770 -230 569 320 1.000000;00:00:00.560=895 -207 567 319 1.000000;00:00:00.640=1142 -199 565 318 1.000000;00:00:00.720=1276 -142 563 317 1.000000;00:00:00.800=1392 -73 561 316 1.000000;00:00:00.880=1537 8 559 315 1.000000;00:00:00.920=1588 34 558 314 1.000000;00:00:01.040=1685 105 555 312 1.000000;00:00:01.120=1671 85 553 311 1.000000;00:00:01.280=1563 139 549 309 1.000000;00:00:01.560=1381 174 543 305 1.000000;00:00:01.920=1251 205 537 302 1.000000;00:00:02.080=1175 242 537 302 1.000000;00:00:02.240=1087 236 537 302 1.000000;00:00:02.360=951 253 537 302 1.000000;00:00:02.440=863 253 537 302 1.000000;00:00:02.480=746 256 537 302 1.000000;00:00:02.560=587 248 537 302 1.000000;00:00:02.600=536 248 537 302 1.000000;00:00:02.680=269 256 537 302 1.000000;00:00:02.720=146 256 537 302 1.000000;00:00:02.760=33 265 537 302 1.000000;00:00:02.800=-104 259 537 302 1.000000;00:00:02.840=-195 256 537 302 1.000000;00:00:02.880=-431 282 537 302 1.000000</property>
    <property name="rotation">00:00:00.000=0;00:00:00.400=0;00:00:00.480=0;00:00:00.560=0;00:00:00.640=0;00:00:00.720=0;00:00:00.800=0;00:00:00.880=0;00:00:00.920=0;00:00:01.040=0;00:00:01.120=0;00:00:01.280=0;00:00:01.560=0;00:00:01.920=0;00:00:02.080=0;00:00:02.240=0;00:00:02.360=0;00:00:02.440=0;00:00:02.480=0;00:00:02.560=0;00:00:02.600=0;00:00:02.680=0;00:00:02.720=0;00:00:02.760=0;00:00:02.800=0;00:00:02.840=0;00:00:02.880=0</property>
    <property name="compositing">0</property>
    <property name="distort">0</property>
    <property name="kdenlive:collapsed">0</property>
   </filter>
  </entry>
 </playlist>
 <playlist id="playlist19"/>
 <tractor id="tractor9" in="00:00:00.000" out="00:00:16.280">
  <property name="kdenlive:trackheight">69</property>
  <property name="kdenlive:timeline_active">1</property>
  <property name="kdenlive:collapsed">0</property>
  <property name="kdenlive:thumbs_format"/>
  <property name="kdenlive:audio_rec"/>
  <track hide="audio" producer="playlist18"/>
  <track producer="playlist19"/>
 </tractor>
 <playlist id="timeline_preview"/>
 <tractor id="tractor10" global_feed="1" in="00:00:00.000" out="00:23:15.120">
  <track producer="black_track"/>
  <track producer="tractor0"/>
  <track producer="tractor1"/>
  <track producer="tractor2"/>
  <track producer="tractor3"/>
  <track producer="tractor4"/>
  <track producer="tractor5"/>
  <track producer="tractor6"/>
  <track producer="tractor7"/>
  <track producer="tractor8"/>
  <track producer="tractor9"/>
  <track hide="both" producer="timeline_preview"/>
  <transition id="transition0" in="00:02:48.880" out="00:02:49.280">
   <property name="a_track">4</property>
   <property name="b_track">5</property>
   <property name="version">0.2</property>
   <property name="mlt_service">frei0r.burn</property>
   <property name="kdenlive_id">frei0r.burn</property>
  </transition>
  <transition id="transition1" in="00:02:55.200" out="00:02:55.480">
   <property name="a_track">4</property>
   <property name="b_track">5</property>
   <property name="version">0.2</property>
   <property name="mlt_service">frei0r.burn</property>
   <property name="kdenlive_id">frei0r.burn</property>
  </transition>
  <transition id="transition2" in="00:00:57.000" out="00:00:58.200">
   <property name="a_track">3</property>
   <property name="b_track">4</property>
   <property name="version">0.2</property>
   <property name="mlt_service">frei0r.lighten</property>
   <property name="kdenlive_id">frei0r.lighten</property>
  </transition>
  <transition id="transition3" in="00:00:50.800" out="00:00:54.800">
   <property name="a_track">3</property>
   <property name="b_track">4</property>
   <property name="version">0.2</property>
   <property name="mlt_service">frei0r.burn</property>
   <property name="kdenlive_id">frei0r.burn</property>
   <property name="force_track">0</property>
  </transition>
  <transition id="transition4">
   <property name="a_track">0</property>
   <property name="b_track">1</property>
   <property name="mlt_service">mix</property>
   <property name="kdenlive_id">mix</property>
   <property name="internal_added">237</property>
   <property name="always_active">1</property>
   <property name="sum">1</property>
  </transition>
  <transition id="transition5">
   <property name="a_track">0</property>
   <property name="b_track">2</property>
   <property name="mlt_service">mix</property>
   <property name="kdenlive_id">mix</property>
   <property name="internal_added">237</property>
   <property name="always_active">1</property>
   <property name="sum">1</property>
  </transition>
  <transition id="transition6">
   <property name="a_track">0</property>
   <property name="b_track">3</property>
   <property name="compositing">0</property>
   <property name="distort">0</property>
   <property name="rotate_center">0</property>
   <property name="mlt_service">qtblend</property>
   <property name="kdenlive_id">qtblend</property>
   <property name="internal_added">237</property>
   <property name="always_active">1</property>
  </transition>
  <transition id="transition7">
   <property name="a_track">0</property>
   <property name="b_track">4</property>
   <property name="compositing">0</property>
   <property name="distort">0</property>
   <property name="rotate_center">0</property>
   <property name="mlt_service">qtblend</property>
   <property name="kdenlive_id">qtblend</property>
   <property name="internal_added">237</property>
   <property name="always_active">1</property>
  </transition>
  <transition id="transition8">
   <property name="a_track">0</property>
   <property name="b_track">5</property>
   <property name="compositing">0</property>
   <property name="distort">0</property>
   <property name="rotate_center">0</property>
   <property name="mlt_service">qtblend</property>
   <property name="kdenlive_id">qtblend</property>
   <property name="internal_added">237</property>
   <property name="always_active">1</property>
  </transition>
  <transition id="transition9">
   <property name="a_track">0</property>
   <property name="b_track">6</property>
   <property name="compositing">0</property>
   <property name="distort">0</property>
   <property name="rotate_center">0</property>
   <property name="mlt_service">qtblend</property>
   <property name="kdenlive_id">qtblend</property>
   <property name="internal_added">237</property>
   <property name="always_active">1</property>
  </transition>
  <transition id="transition10">
   <property name="a_track">0</property>
   <property name="b_track">7</property>
   <property name="compositing">0</property>
   <property name="distort">0</property>
   <property name="rotate_center">0</property>
   <property name="mlt_service">qtblend</property>
   <property name="kdenlive_id">qtblend</property>
   <property name="internal_added">237</property>
   <property name="always_active">1</property>
  </transition>
  <transition id="transition11">
   <property name="a_track">0</property>
   <property name="b_track">8</property>
   <property name="compositing">0</property>
   <property name="distort">0</property>
   <property name="rotate_center">0</property>
   <property name="mlt_service">qtblend</property>
   <property name="kdenlive_id">qtblend</property>
   <property name="internal_added">237</property>
   <property name="always_active">1</property>
  </transition>
  <transition id="transition12">
   <property name="a_track">0</property>
   <property name="b_track">9</property>
   <property name="compositing">0</property>
   <property name="distort">0</property>
   <property name="rotate_center">0</property>
   <property name="mlt_service">qtblend</property>
   <property name="kdenlive_id">qtblend</property>
   <property name="internal_added">237</property>
   <property name="always_active">1</property>
  </transition>
  <transition id="transition13">
   <property name="a_track">0</property>
   <property name="b_track">10</property>
   <property name="compositing">0</property>
   <property name="distort">0</property>
   <property name="rotate_center">0</property>
   <property name="mlt_service">qtblend</property>
   <property name="kdenlive_id">qtblend</property>
   <property name="internal_added">237</property>
   <property name="always_active">1</property>
  </transition>
  <filter id="filter55">
   <property name="window">75</property>
   <property name="max_gain">20dB</property>
   <property name="mlt_service">volume</property>
   <property name="internal_added">237</property>
   <property name="disable">1</property>
  </filter>
  <filter id="filter56">
   <property name="channel">-1</property>
   <property name="mlt_service">panner</property>
   <property name="internal_added">237</property>
   <property name="start">0.5</property>
   <property name="disable">1</property>
  </filter>
  <filter id="filter57">
   <property name="iec_scale">0</property>
   <property name="mlt_service">audiolevel</property>
   <property name="disable">1</property>
  </filter>
 </tractor>
</mlt>
